%TF.GenerationSoftware,KiCad,Pcbnew,8.0.7*%
%TF.CreationDate,2025-02-23T09:23:23-08:00*%
%TF.ProjectId,M56Controller,4d353643-6f6e-4747-926f-6c6c65722e6b,rev?*%
%TF.SameCoordinates,Original*%
%TF.FileFunction,Copper,L2,Inr*%
%TF.FilePolarity,Positive*%
%FSLAX46Y46*%
G04 Gerber Fmt 4.6, Leading zero omitted, Abs format (unit mm)*
G04 Created by KiCad (PCBNEW 8.0.7) date 2025-02-23 09:23:23*
%MOMM*%
%LPD*%
G01*
G04 APERTURE LIST*
G04 Aperture macros list*
%AMRoundRect*
0 Rectangle with rounded corners*
0 $1 Rounding radius*
0 $2 $3 $4 $5 $6 $7 $8 $9 X,Y pos of 4 corners*
0 Add a 4 corners polygon primitive as box body*
4,1,4,$2,$3,$4,$5,$6,$7,$8,$9,$2,$3,0*
0 Add four circle primitives for the rounded corners*
1,1,$1+$1,$2,$3*
1,1,$1+$1,$4,$5*
1,1,$1+$1,$6,$7*
1,1,$1+$1,$8,$9*
0 Add four rect primitives between the rounded corners*
20,1,$1+$1,$2,$3,$4,$5,0*
20,1,$1+$1,$4,$5,$6,$7,0*
20,1,$1+$1,$6,$7,$8,$9,0*
20,1,$1+$1,$8,$9,$2,$3,0*%
G04 Aperture macros list end*
%TA.AperFunction,ComponentPad*%
%ADD10C,2.000000*%
%TD*%
%TA.AperFunction,ComponentPad*%
%ADD11R,1.500000X1.050000*%
%TD*%
%TA.AperFunction,ComponentPad*%
%ADD12O,1.500000X1.050000*%
%TD*%
%TA.AperFunction,ComponentPad*%
%ADD13R,2.200000X2.200000*%
%TD*%
%TA.AperFunction,ComponentPad*%
%ADD14O,2.200000X2.200000*%
%TD*%
%TA.AperFunction,ComponentPad*%
%ADD15R,1.700000X1.700000*%
%TD*%
%TA.AperFunction,ComponentPad*%
%ADD16O,1.700000X1.700000*%
%TD*%
%TA.AperFunction,ComponentPad*%
%ADD17C,1.524000*%
%TD*%
%TA.AperFunction,ComponentPad*%
%ADD18R,1.600000X1.600000*%
%TD*%
%TA.AperFunction,ComponentPad*%
%ADD19C,1.600000*%
%TD*%
%TA.AperFunction,ComponentPad*%
%ADD20C,3.000000*%
%TD*%
%TA.AperFunction,ComponentPad*%
%ADD21R,1.800000X2.600000*%
%TD*%
%TA.AperFunction,ComponentPad*%
%ADD22O,1.800000X2.600000*%
%TD*%
%TA.AperFunction,ComponentPad*%
%ADD23R,2.500000X2.500000*%
%TD*%
%TA.AperFunction,ComponentPad*%
%ADD24O,2.500000X2.500000*%
%TD*%
%TA.AperFunction,ComponentPad*%
%ADD25RoundRect,0.250000X0.650000X1.550000X-0.650000X1.550000X-0.650000X-1.550000X0.650000X-1.550000X0*%
%TD*%
%TA.AperFunction,ComponentPad*%
%ADD26O,1.800000X3.600000*%
%TD*%
%TA.AperFunction,ComponentPad*%
%ADD27RoundRect,0.250000X1.550000X-0.650000X1.550000X0.650000X-1.550000X0.650000X-1.550000X-0.650000X0*%
%TD*%
%TA.AperFunction,ComponentPad*%
%ADD28O,3.600000X1.800000*%
%TD*%
%TA.AperFunction,ComponentPad*%
%ADD29C,1.500000*%
%TD*%
%TA.AperFunction,ViaPad*%
%ADD30C,0.600000*%
%TD*%
%TA.AperFunction,ViaPad*%
%ADD31C,1.000000*%
%TD*%
G04 APERTURE END LIST*
D10*
%TO.N,/Controller/MCU_RESET*%
%TO.C,SW1*%
X52370000Y-73000000D03*
X58870000Y-73000000D03*
%TO.N,GND*%
X52370000Y-77500000D03*
X58870000Y-77500000D03*
%TD*%
D11*
%TO.N,GND*%
%TO.C,Q5*%
X99633250Y-121107500D03*
D12*
%TO.N,Net-(Q5-B)*%
X99633250Y-122377500D03*
%TO.N,Net-(D5-A)*%
X99633250Y-123647500D03*
%TD*%
D13*
%TO.N,/Controller/VoltageDividers/AVOUT4*%
%TO.C,D10*%
X142213250Y-95700000D03*
D14*
%TO.N,GND*%
X132053250Y-95700000D03*
%TD*%
D15*
%TO.N,+3.3V*%
%TO.C,J13*%
X158825000Y-70350000D03*
D16*
%TO.N,GND*%
X158825000Y-72890000D03*
%TD*%
D17*
%TO.N,/Power Supply/VIN*%
%TO.C,U5*%
X129700000Y-28600000D03*
%TO.N,Net-(D19-A)*%
X110700000Y-28600000D03*
%TO.N,+12V*%
X129700000Y-68600000D03*
%TO.N,GND*%
X110700000Y-68600000D03*
%TD*%
D13*
%TO.N,+12V*%
%TO.C,D5*%
X110713250Y-130110000D03*
D14*
%TO.N,Net-(D5-A)*%
X100553250Y-130110000D03*
%TD*%
D18*
%TO.N,+12V*%
%TO.C,C9*%
X115475000Y-75900000D03*
D19*
%TO.N,GND*%
X112975000Y-75900000D03*
%TD*%
D13*
%TO.N,+12V*%
%TO.C,D6*%
X34713250Y-130110000D03*
D14*
%TO.N,Net-(D6-A)*%
X24553250Y-130110000D03*
%TD*%
D11*
%TO.N,GND*%
%TO.C,Q3*%
X123633250Y-121107500D03*
D12*
%TO.N,Net-(Q3-B)*%
X123633250Y-122377500D03*
%TO.N,Net-(D3-A)*%
X123633250Y-123647500D03*
%TD*%
D20*
%TO.N,*%
%TO.C,DS1*%
X22520900Y-22600000D03*
X22520900Y-53600700D03*
X97519480Y-53600700D03*
X97520000Y-22600000D03*
D21*
%TO.N,unconnected-(DS1-VSS-Pad1)*%
X28020000Y-22600000D03*
D22*
%TO.N,unconnected-(DS1-VDD-Pad2)*%
X30560000Y-22600000D03*
%TO.N,unconnected-(DS1-VO-Pad3)*%
X33100000Y-22600000D03*
%TO.N,unconnected-(DS1-RS-Pad4)*%
X35640000Y-22600000D03*
%TO.N,unconnected-(DS1-R{slash}W-Pad5)*%
X38180000Y-22600000D03*
%TO.N,unconnected-(DS1-E-Pad6)*%
X40720000Y-22600000D03*
%TO.N,unconnected-(DS1-D0-Pad7)*%
X43260000Y-22600000D03*
%TO.N,unconnected-(DS1-D1-Pad8)*%
X45800000Y-22600000D03*
%TO.N,unconnected-(DS1-D2-Pad9)*%
X48340000Y-22600000D03*
%TO.N,unconnected-(DS1-D3-Pad10)*%
X50880000Y-22600000D03*
%TO.N,unconnected-(DS1-D4-Pad11)*%
X53420000Y-22600000D03*
%TO.N,unconnected-(DS1-D5-Pad12)*%
X55960000Y-22600000D03*
%TO.N,unconnected-(DS1-D6-Pad13)*%
X58500000Y-22600000D03*
%TO.N,unconnected-(DS1-D7-Pad14)*%
X61040000Y-22600000D03*
%TO.N,unconnected-(DS1-LED(+)-Pad15)*%
X63580000Y-22600000D03*
%TO.N,unconnected-(DS1-LED(-)-Pad16)*%
X66120000Y-22600000D03*
%TD*%
D13*
%TO.N,+12V*%
%TO.C,D3*%
X134713250Y-130110000D03*
D14*
%TO.N,Net-(D3-A)*%
X124553250Y-130110000D03*
%TD*%
D13*
%TO.N,/Power Supply/VIN*%
%TO.C,D20*%
X148500000Y-23850000D03*
D14*
%TO.N,Net-(D19-A)*%
X138340000Y-23850000D03*
%TD*%
D23*
%TO.N,/RelayDriver/RELAY6IN*%
%TO.C,K6*%
X29633250Y-138482500D03*
D24*
%TO.N,Net-(D6-A)*%
X23633250Y-140482500D03*
%TO.N,/RelayDriver/RELAY6OUT_NO*%
X23633250Y-152682500D03*
%TO.N,/RelayDriver/RELAY6OUT_NC*%
X35633250Y-152682500D03*
%TO.N,+12V*%
X35633250Y-140482500D03*
%TD*%
D15*
%TO.N,/Controller/MCU_MISO*%
%TO.C,J2*%
X59370000Y-99460000D03*
D16*
%TO.N,+5V*%
X56830000Y-99460000D03*
%TO.N,/Controller/MCU_SCK*%
X59370000Y-102000000D03*
%TO.N,/Controller/MCU_MOSI*%
X56830000Y-102000000D03*
%TO.N,/Controller/MCU_RESET*%
X59370000Y-104540000D03*
%TO.N,GND*%
X56830000Y-104540000D03*
%TD*%
D13*
%TO.N,/Controller/AUXIO1*%
%TO.C,D16*%
X36200000Y-107250000D03*
D14*
%TO.N,GND*%
X26040000Y-107250000D03*
%TD*%
D25*
%TO.N,/RelayDriver/RELAY5IN*%
%TO.C,J14*%
X107633250Y-177110000D03*
D26*
%TO.N,/RelayDriver/RELAY5OUT_NC*%
X104133250Y-177110000D03*
%TO.N,/RelayDriver/RELAY5OUT_NO*%
X100633250Y-177110000D03*
%TO.N,/RelayDriver/RELAY6IN*%
X97133250Y-177110000D03*
%TO.N,/RelayDriver/RELAY6OUT_NC*%
X93633250Y-177110000D03*
%TO.N,/RelayDriver/RELAY6OUT_NO*%
X90133250Y-177110000D03*
%TD*%
D25*
%TO.N,/RelayDriver/RELAY3IN*%
%TO.C,J8*%
X132633250Y-177110000D03*
D26*
%TO.N,/RelayDriver/RELAY3OUT_NC*%
X129133250Y-177110000D03*
%TO.N,/RelayDriver/RELAY3OUT_NO*%
X125633250Y-177110000D03*
%TO.N,/RelayDriver/RELAY4IN*%
X122133250Y-177110000D03*
%TO.N,/RelayDriver/RELAY4OUT_NC*%
X118633250Y-177110000D03*
%TO.N,/RelayDriver/RELAY4OUT_NO*%
X115133250Y-177110000D03*
%TD*%
D13*
%TO.N,/Controller/VoltageDividers/AVOUT1*%
%TO.C,D7*%
X142213250Y-106200000D03*
D14*
%TO.N,GND*%
X132053250Y-106200000D03*
%TD*%
D23*
%TO.N,/RelayDriver/RELAY1IN*%
%TO.C,K1*%
X152633250Y-138482500D03*
D24*
%TO.N,Net-(D1-A)*%
X146633250Y-140482500D03*
%TO.N,/RelayDriver/RELAY1OUT_NO*%
X146633250Y-152682500D03*
%TO.N,/RelayDriver/RELAY1OUT_NC*%
X158633250Y-152682500D03*
%TO.N,+12V*%
X158633250Y-140482500D03*
%TD*%
D15*
%TO.N,Net-(D19-A)*%
%TO.C,J10*%
X158825000Y-60375000D03*
D16*
%TO.N,/Power Supply/VIN*%
X158825000Y-62915000D03*
%TD*%
D13*
%TO.N,+12V*%
%TO.C,D1*%
X157633250Y-130110000D03*
D14*
%TO.N,Net-(D1-A)*%
X147473250Y-130110000D03*
%TD*%
D15*
%TO.N,+5V*%
%TO.C,J12*%
X158825000Y-50400000D03*
D16*
%TO.N,GND*%
X158825000Y-52940000D03*
%TD*%
D11*
%TO.N,GND*%
%TO.C,Q1*%
X146633250Y-121107500D03*
D12*
%TO.N,Net-(Q1-B)*%
X146633250Y-122377500D03*
%TO.N,Net-(D1-A)*%
X146633250Y-123647500D03*
%TD*%
D13*
%TO.N,/Power Supply/VIN*%
%TO.C,D19*%
X124910000Y-23350000D03*
D14*
%TO.N,Net-(D19-A)*%
X114750000Y-23350000D03*
%TD*%
D13*
%TO.N,/Controller/VoltageDividers/AVOUT3*%
%TO.C,D9*%
X142213250Y-99200000D03*
D14*
%TO.N,GND*%
X132053250Y-99200000D03*
%TD*%
D25*
%TO.N,/Controller/AUXIO3*%
%TO.C,J9*%
X49120000Y-107607500D03*
D26*
%TO.N,/Controller/AUXIO2*%
X45620000Y-107607500D03*
%TO.N,/Controller/AUXIO1*%
X42120000Y-107607500D03*
%TD*%
D27*
%TO.N,/Controller/VoltageDividers/AVIN1*%
%TO.C,J6*%
X159133250Y-104700000D03*
D28*
%TO.N,/Controller/VoltageDividers/AVIN2*%
X159133250Y-101200000D03*
%TO.N,/Controller/VoltageDividers/AVIN3*%
X159133250Y-97700000D03*
%TO.N,/Controller/VoltageDividers/AVIN4*%
X159133250Y-94200000D03*
%TO.N,/Controller/VoltageDividers/AVIN5*%
X159133250Y-90700000D03*
%TO.N,/Controller/VoltageDividers/AVIN6*%
X159133250Y-87200000D03*
%TD*%
D13*
%TO.N,/Controller/AUXIO2*%
%TO.C,D17*%
X36200000Y-103750000D03*
D14*
%TO.N,GND*%
X26040000Y-103750000D03*
%TD*%
D29*
%TO.N,Net-(U1-XTAL2{slash}PB7)*%
%TO.C,Y1*%
X31870000Y-93200000D03*
%TO.N,Net-(U1-XTAL1{slash}PB6)*%
X31870000Y-88320000D03*
%TD*%
D13*
%TO.N,/Controller/VoltageDividers/AVOUT2*%
%TO.C,D8*%
X142213250Y-102700000D03*
D14*
%TO.N,GND*%
X132053250Y-102700000D03*
%TD*%
D23*
%TO.N,/RelayDriver/RELAY3IN*%
%TO.C,K3*%
X105633250Y-138482500D03*
D24*
%TO.N,Net-(D5-A)*%
X99633250Y-140482500D03*
%TO.N,/RelayDriver/RELAY3OUT_NO*%
X99633250Y-152682500D03*
%TO.N,/RelayDriver/RELAY3OUT_NC*%
X111633250Y-152682500D03*
%TO.N,+12V*%
X111633250Y-140482500D03*
%TD*%
D23*
%TO.N,/RelayDriver/RELAY2IN*%
%TO.C,K2*%
X129633250Y-138482500D03*
D24*
%TO.N,Net-(D3-A)*%
X123633250Y-140482500D03*
%TO.N,/RelayDriver/RELAY2OUT_NO*%
X123633250Y-152682500D03*
%TO.N,/RelayDriver/RELAY2OUT_NC*%
X135633250Y-152682500D03*
%TO.N,+12V*%
X135633250Y-140482500D03*
%TD*%
D11*
%TO.N,GND*%
%TO.C,Q2*%
X74633250Y-121107500D03*
D12*
%TO.N,Net-(Q2-B)*%
X74633250Y-122377500D03*
%TO.N,Net-(D2-A)*%
X74633250Y-123647500D03*
%TD*%
D29*
%TO.N,/Controller/ESP_TX*%
%TO.C,U2*%
X40930000Y-79450000D03*
%TO.N,GND*%
X40930000Y-76910000D03*
%TO.N,unconnected-(U2-CH_PD-Pad3)*%
X40930000Y-74370000D03*
%TO.N,unconnected-(U2-GPIO2-Pad4)*%
X40930000Y-71830000D03*
%TO.N,/Controller/ESP_RST*%
X43470000Y-79450000D03*
%TO.N,unconnected-(U2-GPIO0-Pad6)*%
X43470000Y-76910000D03*
%TO.N,+3.3V*%
X43470000Y-74370000D03*
%TO.N,Net-(U2-URXD)*%
X43470000Y-71830000D03*
%TD*%
D15*
%TO.N,/Controller/MCU_SDA*%
%TO.C,J5*%
X158825000Y-30450000D03*
D16*
%TO.N,/Controller/MCU_SCL*%
X158825000Y-32990000D03*
%TD*%
D18*
%TO.N,+5V*%
%TO.C,C11*%
X138775000Y-75900000D03*
D19*
%TO.N,GND*%
X136275000Y-75900000D03*
%TD*%
D13*
%TO.N,+12V*%
%TO.C,D2*%
X85713250Y-130110000D03*
D14*
%TO.N,Net-(D2-A)*%
X75553250Y-130110000D03*
%TD*%
D11*
%TO.N,GND*%
%TO.C,Q6*%
X23633250Y-121107500D03*
D12*
%TO.N,Net-(Q6-B)*%
X23633250Y-122377500D03*
%TO.N,Net-(D6-A)*%
X23633250Y-123647500D03*
%TD*%
D15*
%TO.N,/Controller/MCU_SDA*%
%TO.C,J4*%
X158825000Y-40425000D03*
D16*
%TO.N,/Controller/MCU_SCL*%
X158825000Y-42965000D03*
%TD*%
D13*
%TO.N,/Controller/ANALOG7*%
%TO.C,D12*%
X142213250Y-88700000D03*
D14*
%TO.N,GND*%
X132053250Y-88700000D03*
%TD*%
D15*
%TO.N,+3.3V*%
%TO.C,J1*%
X38580000Y-63750000D03*
D16*
%TO.N,/Controller/ESP_RST*%
X41120000Y-63750000D03*
%TO.N,GND*%
X43660000Y-63750000D03*
%TD*%
D23*
%TO.N,/RelayDriver/RELAY4IN*%
%TO.C,K4*%
X80633250Y-138482500D03*
D24*
%TO.N,Net-(D2-A)*%
X74633250Y-140482500D03*
%TO.N,/RelayDriver/RELAY4OUT_NO*%
X74633250Y-152682500D03*
%TO.N,/RelayDriver/RELAY4OUT_NC*%
X86633250Y-152682500D03*
%TO.N,+12V*%
X86633250Y-140482500D03*
%TD*%
D25*
%TO.N,/RelayDriver/RELAY1IN*%
%TO.C,J7*%
X158133250Y-177110000D03*
D26*
%TO.N,/RelayDriver/RELAY1OUT_NC*%
X154633250Y-177110000D03*
%TO.N,/RelayDriver/RELAY1OUT_NO*%
X151133250Y-177110000D03*
%TO.N,/RelayDriver/RELAY2IN*%
X147633250Y-177110000D03*
%TO.N,/RelayDriver/RELAY2OUT_NC*%
X144133250Y-177110000D03*
%TO.N,/RelayDriver/RELAY2OUT_NO*%
X140633250Y-177110000D03*
%TD*%
D11*
%TO.N,GND*%
%TO.C,Q4*%
X48633250Y-121107500D03*
D12*
%TO.N,Net-(Q4-B)*%
X48633250Y-122377500D03*
%TO.N,Net-(D4-A)*%
X48633250Y-123647500D03*
%TD*%
D13*
%TO.N,/Controller/AUXIO3*%
%TO.C,D18*%
X36200000Y-100250000D03*
D14*
%TO.N,GND*%
X26040000Y-100250000D03*
%TD*%
D13*
%TO.N,+12V*%
%TO.C,D4*%
X59793250Y-130110000D03*
D14*
%TO.N,Net-(D4-A)*%
X49633250Y-130110000D03*
%TD*%
D23*
%TO.N,/RelayDriver/RELAY5IN*%
%TO.C,K5*%
X54633250Y-138482500D03*
D24*
%TO.N,Net-(D4-A)*%
X48633250Y-140482500D03*
%TO.N,/RelayDriver/RELAY5OUT_NO*%
X48633250Y-152682500D03*
%TO.N,/RelayDriver/RELAY5OUT_NC*%
X60633250Y-152682500D03*
%TO.N,+12V*%
X60633250Y-140482500D03*
%TD*%
D13*
%TO.N,/Controller/ANALOG6*%
%TO.C,D11*%
X142213250Y-92200000D03*
D14*
%TO.N,GND*%
X132053250Y-92200000D03*
%TD*%
D17*
%TO.N,/Power Supply/VIN*%
%TO.C,U4*%
X153000000Y-28600000D03*
%TO.N,Net-(D19-A)*%
X134000000Y-28600000D03*
%TO.N,+5V*%
X153000000Y-68600000D03*
%TO.N,GND*%
X134000000Y-68600000D03*
%TD*%
D15*
%TO.N,Net-(J3-Pin_1)*%
%TO.C,J3*%
X64920000Y-74610000D03*
D16*
%TO.N,+5V*%
X64920000Y-77150000D03*
%TD*%
D30*
%TO.N,GND*%
X31800000Y-110600000D03*
X60400000Y-68500000D03*
X26200000Y-111300000D03*
X24800000Y-110600000D03*
X30400000Y-111300000D03*
D31*
X136883250Y-102700000D03*
X136883250Y-92200000D03*
D30*
X31100000Y-111600000D03*
X32400000Y-111600000D03*
X46000000Y-80800000D03*
X31800000Y-111300000D03*
X64020000Y-85242500D03*
X25845000Y-91750000D03*
X41820000Y-96550000D03*
X28300000Y-110900000D03*
X57520000Y-95850000D03*
X26900000Y-111600000D03*
X24100000Y-111600000D03*
X29700000Y-110200000D03*
X24800000Y-111300000D03*
X29000000Y-109900000D03*
X50120000Y-89750000D03*
X29700000Y-110900000D03*
X30400000Y-109900000D03*
X23400000Y-109900000D03*
X26900000Y-110900000D03*
X45120000Y-90750000D03*
X33100000Y-109900000D03*
D31*
X136883250Y-88700000D03*
D30*
X24100000Y-110200000D03*
X40620000Y-89950000D03*
X64120000Y-81850000D03*
X30400000Y-110600000D03*
X66320000Y-99650000D03*
X25845000Y-89750000D03*
X26900000Y-110200000D03*
X23400000Y-110600000D03*
X29700000Y-111600000D03*
X29000000Y-111300000D03*
D31*
X136883250Y-95700000D03*
D30*
X28300000Y-111600000D03*
X69020000Y-94742500D03*
D31*
X136883250Y-106200000D03*
D30*
X25845000Y-90750000D03*
X45620000Y-89250000D03*
X31100000Y-110200000D03*
X32400000Y-110200000D03*
X71595000Y-80900000D03*
X25500000Y-110900000D03*
X29000000Y-110600000D03*
X27600000Y-109900000D03*
X26200000Y-110600000D03*
X24800000Y-109900000D03*
X32400000Y-110900000D03*
X33100000Y-110600000D03*
X27600000Y-110600000D03*
D31*
X136883250Y-99200000D03*
D30*
X33100000Y-111300000D03*
X28300000Y-110200000D03*
X23400000Y-111300000D03*
X25500000Y-111600000D03*
X25500000Y-110200000D03*
X71600000Y-80100000D03*
X48400000Y-67400000D03*
X27600000Y-111300000D03*
X58320000Y-87350000D03*
X26200000Y-109900000D03*
X24100000Y-110900000D03*
X31800000Y-109900000D03*
X31100000Y-110900000D03*
%TO.N,+5V*%
X66200000Y-68600000D03*
X61200000Y-91802500D03*
X37720000Y-89950000D03*
X45120000Y-91750000D03*
X54300000Y-84700000D03*
X46120000Y-90250000D03*
X48400000Y-70800000D03*
X50120000Y-91750000D03*
X52520000Y-96150000D03*
X36620000Y-96450000D03*
X61900000Y-91802500D03*
X58720000Y-81750000D03*
%TO.N,+3.3V*%
X59223750Y-86446250D03*
%TO.N,+12V*%
X117800000Y-116400000D03*
X121300000Y-116400000D03*
X120600000Y-116400000D03*
X122000000Y-116400000D03*
X119200000Y-116400000D03*
X123400000Y-116400000D03*
X117100000Y-116400000D03*
X122700000Y-116400000D03*
X118500000Y-116400000D03*
X119900000Y-116400000D03*
%TO.N,/Controller/VoltageDividers/AVOUT1*%
X54600000Y-89500000D03*
%TO.N,/Controller/VoltageDividers/AVOUT2*%
X54600000Y-88700000D03*
%TO.N,/Controller/VoltageDividers/AVOUT3*%
X50800000Y-84300000D03*
%TO.N,/Controller/VoltageDividers/AVOUT4*%
X50000000Y-84300000D03*
%TO.N,/Controller/ANALOG6*%
X59321323Y-92078677D03*
%TO.N,/Controller/ANALOG7*%
X50300000Y-88200000D03*
X55800000Y-93800000D03*
X62100000Y-93800000D03*
%TO.N,/Controller/MCU_RESET*%
X48120000Y-88000000D03*
X47570000Y-84250000D03*
%TO.N,/Controller/MCU_SCK*%
X52220000Y-94850000D03*
%TO.N,/Controller/MCU_SCL*%
X48370000Y-84300000D03*
X141600000Y-41400000D03*
%TO.N,/Controller/MCU_SDA*%
X141600000Y-40400000D03*
X48500000Y-82600000D03*
%TO.N,/Controller/RELAY1*%
X158633250Y-114000000D03*
X44200000Y-85400000D03*
%TO.N,/Controller/RELAY4*%
X86633250Y-113900000D03*
X45200000Y-96000000D03*
%TO.N,/Controller/RELAY2*%
X135600000Y-113900000D03*
X42200000Y-86700000D03*
%TO.N,/Controller/RELAY5*%
X45313137Y-96791962D03*
X60633250Y-113900000D03*
%TO.N,/Controller/RELAY3*%
X111633250Y-113900000D03*
X42200000Y-87800000D03*
%TO.N,/Controller/RELAY6*%
X46600000Y-96000000D03*
X35633250Y-113900000D03*
%TD*%
%TA.AperFunction,Conductor*%
%TO.N,GND*%
G36*
X159943245Y-20019685D02*
G01*
X159989000Y-20072489D01*
X160000206Y-20123793D01*
X160015590Y-29354241D01*
X159996017Y-29421314D01*
X159943289Y-29467156D01*
X159874148Y-29477215D01*
X159822699Y-29457550D01*
X159753230Y-29411132D01*
X159753229Y-29411131D01*
X159694752Y-29399500D01*
X159694748Y-29399500D01*
X157955252Y-29399500D01*
X157955247Y-29399500D01*
X157896770Y-29411131D01*
X157896769Y-29411132D01*
X157830447Y-29455447D01*
X157786132Y-29521769D01*
X157786131Y-29521770D01*
X157774500Y-29580247D01*
X157774500Y-31319752D01*
X157786131Y-31378229D01*
X157786132Y-31378230D01*
X157830447Y-31444552D01*
X157896769Y-31488867D01*
X157896770Y-31488868D01*
X157955247Y-31500499D01*
X157955250Y-31500500D01*
X157955252Y-31500500D01*
X159694750Y-31500500D01*
X159694751Y-31500499D01*
X159709568Y-31497552D01*
X159753229Y-31488868D01*
X159753231Y-31488867D01*
X159826345Y-31440013D01*
X159893022Y-31419134D01*
X159960403Y-31437618D01*
X160007093Y-31489596D01*
X160019237Y-31542907D01*
X160020838Y-32503529D01*
X160001265Y-32570602D01*
X159948537Y-32616444D01*
X159879396Y-32626503D01*
X159815792Y-32597584D01*
X159787481Y-32562192D01*
X159702685Y-32403550D01*
X159650702Y-32340209D01*
X159571410Y-32243589D01*
X159411452Y-32112317D01*
X159411453Y-32112317D01*
X159411450Y-32112315D01*
X159228954Y-32014768D01*
X159030934Y-31954700D01*
X159030932Y-31954699D01*
X159030934Y-31954699D01*
X158825000Y-31934417D01*
X158619067Y-31954699D01*
X158421043Y-32014769D01*
X158310898Y-32073643D01*
X158238550Y-32112315D01*
X158238548Y-32112316D01*
X158238547Y-32112317D01*
X158078589Y-32243589D01*
X157947317Y-32403547D01*
X157849769Y-32586043D01*
X157789699Y-32784067D01*
X157769417Y-32990000D01*
X157789699Y-33195932D01*
X157789700Y-33195934D01*
X157849768Y-33393954D01*
X157947315Y-33576450D01*
X157947316Y-33576451D01*
X157947317Y-33576452D01*
X158078589Y-33736410D01*
X158175209Y-33815702D01*
X158238550Y-33867685D01*
X158421046Y-33965232D01*
X158619066Y-34025300D01*
X158619065Y-34025300D01*
X158637529Y-34027118D01*
X158825000Y-34045583D01*
X159030934Y-34025300D01*
X159228954Y-33965232D01*
X159411450Y-33867685D01*
X159571410Y-33736410D01*
X159702685Y-33576450D01*
X159789096Y-33414786D01*
X159838058Y-33364942D01*
X159906196Y-33349482D01*
X159971876Y-33373314D01*
X160014244Y-33428871D01*
X160022454Y-33473033D01*
X160032238Y-39343564D01*
X160012665Y-39410637D01*
X159959937Y-39456479D01*
X159890796Y-39466538D01*
X159827192Y-39437619D01*
X159820557Y-39431452D01*
X159819553Y-39430448D01*
X159753230Y-39386132D01*
X159753229Y-39386131D01*
X159694752Y-39374500D01*
X159694748Y-39374500D01*
X157955252Y-39374500D01*
X157955247Y-39374500D01*
X157896770Y-39386131D01*
X157896769Y-39386132D01*
X157830447Y-39430447D01*
X157786132Y-39496769D01*
X157786131Y-39496770D01*
X157774500Y-39555247D01*
X157774500Y-41294752D01*
X157786131Y-41353229D01*
X157786132Y-41353230D01*
X157830447Y-41419552D01*
X157896769Y-41463867D01*
X157896770Y-41463868D01*
X157955247Y-41475499D01*
X157955250Y-41475500D01*
X157955252Y-41475500D01*
X159694750Y-41475500D01*
X159694751Y-41475499D01*
X159709568Y-41472552D01*
X159753229Y-41463868D01*
X159753229Y-41463867D01*
X159753231Y-41463867D01*
X159819552Y-41419552D01*
X159819556Y-41419545D01*
X159824151Y-41414952D01*
X159885473Y-41381465D01*
X159955165Y-41386447D01*
X160011100Y-41428316D01*
X160035520Y-41493779D01*
X160035836Y-41502423D01*
X160037516Y-42510304D01*
X160017943Y-42577376D01*
X159965215Y-42623219D01*
X159896074Y-42633278D01*
X159832470Y-42604359D01*
X159804521Y-42565661D01*
X159803104Y-42566419D01*
X159799869Y-42560368D01*
X159702685Y-42378550D01*
X159650702Y-42315209D01*
X159571410Y-42218589D01*
X159411452Y-42087317D01*
X159411453Y-42087317D01*
X159411450Y-42087315D01*
X159228954Y-41989768D01*
X159030934Y-41929700D01*
X159030932Y-41929699D01*
X159030934Y-41929699D01*
X158825000Y-41909417D01*
X158619067Y-41929699D01*
X158421043Y-41989769D01*
X158310898Y-42048643D01*
X158238550Y-42087315D01*
X158238548Y-42087316D01*
X158238547Y-42087317D01*
X158078589Y-42218589D01*
X157947317Y-42378547D01*
X157849769Y-42561043D01*
X157789699Y-42759067D01*
X157769417Y-42965000D01*
X157789699Y-43170932D01*
X157789700Y-43170934D01*
X157849768Y-43368954D01*
X157947315Y-43551450D01*
X157947317Y-43551452D01*
X158078589Y-43711410D01*
X158175209Y-43790702D01*
X158238550Y-43842685D01*
X158421046Y-43940232D01*
X158619066Y-44000300D01*
X158619065Y-44000300D01*
X158637529Y-44002118D01*
X158825000Y-44020583D01*
X159030934Y-44000300D01*
X159228954Y-43940232D01*
X159411450Y-43842685D01*
X159571410Y-43711410D01*
X159702685Y-43551450D01*
X159800232Y-43368954D01*
X159800234Y-43368945D01*
X159800458Y-43368408D01*
X159800653Y-43368164D01*
X159803104Y-43363581D01*
X159803972Y-43364045D01*
X159844291Y-43313998D01*
X159910582Y-43291925D01*
X159978284Y-43309195D01*
X160025901Y-43360325D01*
X160039025Y-43415638D01*
X160048898Y-49339709D01*
X160029325Y-49406782D01*
X159976597Y-49452624D01*
X159907456Y-49462683D01*
X159843852Y-49433764D01*
X159821796Y-49408806D01*
X159819552Y-49405448D01*
X159819550Y-49405447D01*
X159819550Y-49405446D01*
X159753230Y-49361132D01*
X159753229Y-49361131D01*
X159694752Y-49349500D01*
X159694748Y-49349500D01*
X157955252Y-49349500D01*
X157955247Y-49349500D01*
X157896770Y-49361131D01*
X157896769Y-49361132D01*
X157830447Y-49405447D01*
X157786132Y-49471769D01*
X157786131Y-49471770D01*
X157774500Y-49530247D01*
X157774500Y-51269752D01*
X157786131Y-51328229D01*
X157786132Y-51328230D01*
X157830447Y-51394552D01*
X157896769Y-51438867D01*
X157896770Y-51438868D01*
X157955247Y-51450499D01*
X157955250Y-51450500D01*
X158265543Y-51450500D01*
X158332582Y-51470185D01*
X158378337Y-51522989D01*
X158388281Y-51592147D01*
X158359256Y-51655703D01*
X158317948Y-51686882D01*
X158147422Y-51766399D01*
X158147420Y-51766400D01*
X157953926Y-51901886D01*
X157953920Y-51901891D01*
X157786891Y-52068920D01*
X157786886Y-52068926D01*
X157651400Y-52262420D01*
X157651399Y-52262422D01*
X157551570Y-52476507D01*
X157551567Y-52476513D01*
X157494364Y-52689999D01*
X157494364Y-52690000D01*
X158391988Y-52690000D01*
X158359075Y-52747007D01*
X158325000Y-52874174D01*
X158325000Y-53005826D01*
X158359075Y-53132993D01*
X158391988Y-53190000D01*
X157494364Y-53190000D01*
X157551567Y-53403486D01*
X157551570Y-53403492D01*
X157651399Y-53617578D01*
X157786894Y-53811082D01*
X157953917Y-53978105D01*
X158147421Y-54113600D01*
X158361507Y-54213429D01*
X158361516Y-54213433D01*
X158575000Y-54270634D01*
X158575000Y-53373012D01*
X158632007Y-53405925D01*
X158759174Y-53440000D01*
X158890826Y-53440000D01*
X159017993Y-53405925D01*
X159075000Y-53373012D01*
X159075000Y-54270633D01*
X159288483Y-54213433D01*
X159288492Y-54213429D01*
X159502578Y-54113600D01*
X159696078Y-53978108D01*
X159844845Y-53829341D01*
X159906169Y-53795856D01*
X159975860Y-53800840D01*
X160031794Y-53842711D01*
X160056211Y-53908176D01*
X160056527Y-53916815D01*
X160065565Y-59339651D01*
X160045992Y-59406724D01*
X159993264Y-59452566D01*
X159924123Y-59462625D01*
X159860519Y-59433706D01*
X159838463Y-59408750D01*
X159819551Y-59380447D01*
X159753230Y-59336132D01*
X159753229Y-59336131D01*
X159694752Y-59324500D01*
X159694748Y-59324500D01*
X157955252Y-59324500D01*
X157955247Y-59324500D01*
X157896770Y-59336131D01*
X157896769Y-59336132D01*
X157830447Y-59380447D01*
X157786132Y-59446769D01*
X157786131Y-59446770D01*
X157774500Y-59505247D01*
X157774500Y-61244752D01*
X157786131Y-61303229D01*
X157786132Y-61303230D01*
X157830447Y-61369552D01*
X157896769Y-61413867D01*
X157896770Y-61413868D01*
X157955247Y-61425499D01*
X157955250Y-61425500D01*
X157955252Y-61425500D01*
X159694750Y-61425500D01*
X159694751Y-61425499D01*
X159709568Y-61422552D01*
X159753229Y-61413868D01*
X159753229Y-61413867D01*
X159753231Y-61413867D01*
X159819552Y-61369552D01*
X159841905Y-61336099D01*
X159895517Y-61291294D01*
X159964842Y-61282587D01*
X160027870Y-61312741D01*
X160064589Y-61372184D01*
X160069007Y-61404783D01*
X160070944Y-62567320D01*
X160051371Y-62634393D01*
X159998643Y-62680235D01*
X159929501Y-62690294D01*
X159865898Y-62661375D01*
X159828284Y-62603522D01*
X159800232Y-62511046D01*
X159702685Y-62328550D01*
X159650702Y-62265209D01*
X159571410Y-62168589D01*
X159411452Y-62037317D01*
X159411453Y-62037317D01*
X159411450Y-62037315D01*
X159228954Y-61939768D01*
X159030934Y-61879700D01*
X159030932Y-61879699D01*
X159030934Y-61879699D01*
X158825000Y-61859417D01*
X158619067Y-61879699D01*
X158421043Y-61939769D01*
X158310898Y-61998643D01*
X158238550Y-62037315D01*
X158238548Y-62037316D01*
X158238547Y-62037317D01*
X158078589Y-62168589D01*
X157947317Y-62328547D01*
X157849769Y-62511043D01*
X157789699Y-62709067D01*
X157769417Y-62915000D01*
X157789699Y-63120932D01*
X157789700Y-63120934D01*
X157849768Y-63318954D01*
X157947315Y-63501450D01*
X157947317Y-63501452D01*
X158078589Y-63661410D01*
X158175209Y-63740702D01*
X158238550Y-63792685D01*
X158421046Y-63890232D01*
X158619066Y-63950300D01*
X158619065Y-63950300D01*
X158637529Y-63952118D01*
X158825000Y-63970583D01*
X159030934Y-63950300D01*
X159228954Y-63890232D01*
X159411450Y-63792685D01*
X159571410Y-63661410D01*
X159702685Y-63501450D01*
X159800232Y-63318954D01*
X159829436Y-63222678D01*
X159867732Y-63164242D01*
X159931544Y-63135785D01*
X160000611Y-63146344D01*
X160053005Y-63192568D01*
X160072096Y-63258468D01*
X160082231Y-69339594D01*
X160062658Y-69406667D01*
X160009930Y-69452509D01*
X159940789Y-69462568D01*
X159877185Y-69433649D01*
X159855129Y-69408692D01*
X159852101Y-69404161D01*
X159851110Y-69402677D01*
X159819552Y-69355447D01*
X159753230Y-69311132D01*
X159753229Y-69311131D01*
X159694752Y-69299500D01*
X159694748Y-69299500D01*
X157955252Y-69299500D01*
X157955247Y-69299500D01*
X157896770Y-69311131D01*
X157896769Y-69311132D01*
X157830447Y-69355447D01*
X157786132Y-69421769D01*
X157786131Y-69421770D01*
X157774500Y-69480247D01*
X157774500Y-71219752D01*
X157786131Y-71278229D01*
X157786132Y-71278230D01*
X157830447Y-71344552D01*
X157896769Y-71388867D01*
X157896770Y-71388868D01*
X157955247Y-71400499D01*
X157955250Y-71400500D01*
X158265543Y-71400500D01*
X158332582Y-71420185D01*
X158378337Y-71472989D01*
X158388281Y-71542147D01*
X158359256Y-71605703D01*
X158317948Y-71636882D01*
X158147422Y-71716399D01*
X158147420Y-71716400D01*
X157953926Y-71851886D01*
X157953920Y-71851891D01*
X157786891Y-72018920D01*
X157786886Y-72018926D01*
X157651400Y-72212420D01*
X157651399Y-72212422D01*
X157551570Y-72426507D01*
X157551567Y-72426513D01*
X157494364Y-72639999D01*
X157494364Y-72640000D01*
X158391988Y-72640000D01*
X158359075Y-72697007D01*
X158325000Y-72824174D01*
X158325000Y-72955826D01*
X158359075Y-73082993D01*
X158391988Y-73140000D01*
X157494364Y-73140000D01*
X157551567Y-73353486D01*
X157551570Y-73353492D01*
X157651399Y-73567578D01*
X157786894Y-73761082D01*
X157953917Y-73928105D01*
X158147421Y-74063600D01*
X158361507Y-74163429D01*
X158361516Y-74163433D01*
X158575000Y-74220634D01*
X158575000Y-73323012D01*
X158632007Y-73355925D01*
X158759174Y-73390000D01*
X158890826Y-73390000D01*
X159017993Y-73355925D01*
X159075000Y-73323012D01*
X159075000Y-74220633D01*
X159288483Y-74163433D01*
X159288492Y-74163429D01*
X159502578Y-74063600D01*
X159696082Y-73928105D01*
X159863105Y-73761082D01*
X159864140Y-73759605D01*
X159864765Y-73759104D01*
X159866588Y-73756933D01*
X159867024Y-73757299D01*
X159918716Y-73715979D01*
X159988214Y-73708784D01*
X160050570Y-73740305D01*
X160085985Y-73800534D01*
X160089717Y-73830519D01*
X160099793Y-79875793D01*
X160080220Y-79942866D01*
X160027492Y-79988708D01*
X159975793Y-80000000D01*
X150100000Y-80000000D01*
X104523794Y-80000000D01*
X104456755Y-79980315D01*
X104411000Y-79927511D01*
X104399794Y-79876207D01*
X104393167Y-75899997D01*
X111670034Y-75899997D01*
X111670034Y-75900002D01*
X111689858Y-76126599D01*
X111689860Y-76126610D01*
X111748730Y-76346317D01*
X111748735Y-76346331D01*
X111844863Y-76552478D01*
X111895974Y-76625472D01*
X112575000Y-75946446D01*
X112575000Y-75952661D01*
X112602259Y-76054394D01*
X112654920Y-76145606D01*
X112729394Y-76220080D01*
X112820606Y-76272741D01*
X112922339Y-76300000D01*
X112928553Y-76300000D01*
X112249526Y-76979025D01*
X112322513Y-77030132D01*
X112322521Y-77030136D01*
X112528668Y-77126264D01*
X112528682Y-77126269D01*
X112748389Y-77185139D01*
X112748400Y-77185141D01*
X112974998Y-77204966D01*
X112975002Y-77204966D01*
X113201599Y-77185141D01*
X113201610Y-77185139D01*
X113421317Y-77126269D01*
X113421331Y-77126264D01*
X113627478Y-77030136D01*
X113700471Y-76979024D01*
X113021447Y-76300000D01*
X113027661Y-76300000D01*
X113129394Y-76272741D01*
X113220606Y-76220080D01*
X113295080Y-76145606D01*
X113347741Y-76054394D01*
X113375000Y-75952661D01*
X113375000Y-75946447D01*
X114054024Y-76625471D01*
X114105136Y-76552478D01*
X114201264Y-76346331D01*
X114201269Y-76346317D01*
X114230725Y-76236387D01*
X114267090Y-76176726D01*
X114329937Y-76146197D01*
X114399312Y-76154492D01*
X114453190Y-76198977D01*
X114474465Y-76265529D01*
X114474500Y-76268480D01*
X114474500Y-76719752D01*
X114486131Y-76778229D01*
X114486132Y-76778230D01*
X114530447Y-76844552D01*
X114596769Y-76888867D01*
X114596770Y-76888868D01*
X114655247Y-76900499D01*
X114655250Y-76900500D01*
X114655252Y-76900500D01*
X116294750Y-76900500D01*
X116294751Y-76900499D01*
X116309568Y-76897552D01*
X116353229Y-76888868D01*
X116353229Y-76888867D01*
X116353231Y-76888867D01*
X116419552Y-76844552D01*
X116463867Y-76778231D01*
X116463867Y-76778229D01*
X116463868Y-76778229D01*
X116475499Y-76719752D01*
X116475500Y-76719750D01*
X116475500Y-75899997D01*
X134970034Y-75899997D01*
X134970034Y-75900002D01*
X134989858Y-76126599D01*
X134989860Y-76126610D01*
X135048730Y-76346317D01*
X135048735Y-76346331D01*
X135144863Y-76552478D01*
X135195974Y-76625472D01*
X135875000Y-75946446D01*
X135875000Y-75952661D01*
X135902259Y-76054394D01*
X135954920Y-76145606D01*
X136029394Y-76220080D01*
X136120606Y-76272741D01*
X136222339Y-76300000D01*
X136228553Y-76300000D01*
X135549526Y-76979025D01*
X135622513Y-77030132D01*
X135622521Y-77030136D01*
X135828668Y-77126264D01*
X135828682Y-77126269D01*
X136048389Y-77185139D01*
X136048400Y-77185141D01*
X136274998Y-77204966D01*
X136275002Y-77204966D01*
X136501599Y-77185141D01*
X136501610Y-77185139D01*
X136721317Y-77126269D01*
X136721331Y-77126264D01*
X136927478Y-77030136D01*
X137000471Y-76979024D01*
X136321447Y-76300000D01*
X136327661Y-76300000D01*
X136429394Y-76272741D01*
X136520606Y-76220080D01*
X136595080Y-76145606D01*
X136647741Y-76054394D01*
X136675000Y-75952661D01*
X136675000Y-75946447D01*
X137354024Y-76625471D01*
X137405136Y-76552478D01*
X137501264Y-76346331D01*
X137501269Y-76346317D01*
X137530725Y-76236387D01*
X137567090Y-76176726D01*
X137629937Y-76146197D01*
X137699312Y-76154492D01*
X137753190Y-76198977D01*
X137774465Y-76265529D01*
X137774500Y-76268480D01*
X137774500Y-76719752D01*
X137786131Y-76778229D01*
X137786132Y-76778230D01*
X137830447Y-76844552D01*
X137896769Y-76888867D01*
X137896770Y-76888868D01*
X137955247Y-76900499D01*
X137955250Y-76900500D01*
X137955252Y-76900500D01*
X139594750Y-76900500D01*
X139594751Y-76900499D01*
X139609568Y-76897552D01*
X139653229Y-76888868D01*
X139653229Y-76888867D01*
X139653231Y-76888867D01*
X139719552Y-76844552D01*
X139763867Y-76778231D01*
X139763867Y-76778229D01*
X139763868Y-76778229D01*
X139775499Y-76719752D01*
X139775500Y-76719750D01*
X139775500Y-75080249D01*
X139775499Y-75080247D01*
X139763868Y-75021770D01*
X139763867Y-75021769D01*
X139719552Y-74955447D01*
X139653230Y-74911132D01*
X139653229Y-74911131D01*
X139594752Y-74899500D01*
X139594748Y-74899500D01*
X137955252Y-74899500D01*
X137955247Y-74899500D01*
X137896770Y-74911131D01*
X137896769Y-74911132D01*
X137830447Y-74955447D01*
X137786132Y-75021769D01*
X137786131Y-75021770D01*
X137774500Y-75080247D01*
X137774500Y-75531519D01*
X137754815Y-75598558D01*
X137702011Y-75644313D01*
X137632853Y-75654257D01*
X137569297Y-75625232D01*
X137531523Y-75566454D01*
X137530725Y-75563613D01*
X137501268Y-75453679D01*
X137501264Y-75453668D01*
X137405136Y-75247521D01*
X137405132Y-75247513D01*
X137354025Y-75174526D01*
X136675000Y-75853551D01*
X136675000Y-75847339D01*
X136647741Y-75745606D01*
X136595080Y-75654394D01*
X136520606Y-75579920D01*
X136429394Y-75527259D01*
X136327661Y-75500000D01*
X136321445Y-75500000D01*
X137000472Y-74820974D01*
X136927478Y-74769863D01*
X136721331Y-74673735D01*
X136721317Y-74673730D01*
X136501610Y-74614860D01*
X136501599Y-74614858D01*
X136275002Y-74595034D01*
X136274998Y-74595034D01*
X136048400Y-74614858D01*
X136048389Y-74614860D01*
X135828682Y-74673730D01*
X135828673Y-74673734D01*
X135622516Y-74769866D01*
X135622512Y-74769868D01*
X135549526Y-74820973D01*
X135549526Y-74820974D01*
X136228553Y-75500000D01*
X136222339Y-75500000D01*
X136120606Y-75527259D01*
X136029394Y-75579920D01*
X135954920Y-75654394D01*
X135902259Y-75745606D01*
X135875000Y-75847339D01*
X135875000Y-75853552D01*
X135195974Y-75174526D01*
X135195973Y-75174526D01*
X135144868Y-75247512D01*
X135144866Y-75247516D01*
X135048734Y-75453673D01*
X135048730Y-75453682D01*
X134989860Y-75673389D01*
X134989858Y-75673400D01*
X134970034Y-75899997D01*
X116475500Y-75899997D01*
X116475500Y-75080249D01*
X116475499Y-75080247D01*
X116463868Y-75021770D01*
X116463867Y-75021769D01*
X116419552Y-74955447D01*
X116353230Y-74911132D01*
X116353229Y-74911131D01*
X116294752Y-74899500D01*
X116294748Y-74899500D01*
X114655252Y-74899500D01*
X114655247Y-74899500D01*
X114596770Y-74911131D01*
X114596769Y-74911132D01*
X114530447Y-74955447D01*
X114486132Y-75021769D01*
X114486131Y-75021770D01*
X114474500Y-75080247D01*
X114474500Y-75531519D01*
X114454815Y-75598558D01*
X114402011Y-75644313D01*
X114332853Y-75654257D01*
X114269297Y-75625232D01*
X114231523Y-75566454D01*
X114230725Y-75563613D01*
X114201268Y-75453679D01*
X114201264Y-75453668D01*
X114105136Y-75247521D01*
X114105132Y-75247513D01*
X114054025Y-75174526D01*
X113375000Y-75853551D01*
X113375000Y-75847339D01*
X113347741Y-75745606D01*
X113295080Y-75654394D01*
X113220606Y-75579920D01*
X113129394Y-75527259D01*
X113027661Y-75500000D01*
X113021445Y-75500000D01*
X113700472Y-74820974D01*
X113627478Y-74769863D01*
X113421331Y-74673735D01*
X113421317Y-74673730D01*
X113201610Y-74614860D01*
X113201599Y-74614858D01*
X112975002Y-74595034D01*
X112974998Y-74595034D01*
X112748400Y-74614858D01*
X112748389Y-74614860D01*
X112528682Y-74673730D01*
X112528673Y-74673734D01*
X112322516Y-74769866D01*
X112322512Y-74769868D01*
X112249526Y-74820973D01*
X112249526Y-74820974D01*
X112928553Y-75500000D01*
X112922339Y-75500000D01*
X112820606Y-75527259D01*
X112729394Y-75579920D01*
X112654920Y-75654394D01*
X112602259Y-75745606D01*
X112575000Y-75847339D01*
X112575000Y-75853552D01*
X111895974Y-75174526D01*
X111895973Y-75174526D01*
X111844868Y-75247512D01*
X111844866Y-75247516D01*
X111748734Y-75453673D01*
X111748730Y-75453682D01*
X111689860Y-75673389D01*
X111689858Y-75673400D01*
X111670034Y-75899997D01*
X104393167Y-75899997D01*
X104381000Y-68599999D01*
X109433179Y-68599999D01*
X109433179Y-68600000D01*
X109452424Y-68819976D01*
X109452426Y-68819986D01*
X109509575Y-69033270D01*
X109509580Y-69033284D01*
X109602898Y-69233405D01*
X109602901Y-69233411D01*
X109648258Y-69298187D01*
X109648258Y-69298188D01*
X110319000Y-68627446D01*
X110319000Y-68650160D01*
X110344964Y-68747061D01*
X110395124Y-68833940D01*
X110466060Y-68904876D01*
X110552939Y-68955036D01*
X110649840Y-68981000D01*
X110672553Y-68981000D01*
X110001810Y-69651740D01*
X110066590Y-69697099D01*
X110066592Y-69697100D01*
X110266715Y-69790419D01*
X110266729Y-69790424D01*
X110480013Y-69847573D01*
X110480023Y-69847575D01*
X110699999Y-69866821D01*
X110700001Y-69866821D01*
X110919976Y-69847575D01*
X110919986Y-69847573D01*
X111133270Y-69790424D01*
X111133284Y-69790419D01*
X111333407Y-69697100D01*
X111333417Y-69697094D01*
X111398188Y-69651741D01*
X110727448Y-68981000D01*
X110750160Y-68981000D01*
X110847061Y-68955036D01*
X110933940Y-68904876D01*
X111004876Y-68833940D01*
X111055036Y-68747061D01*
X111081000Y-68650160D01*
X111081000Y-68627447D01*
X111751741Y-69298188D01*
X111797094Y-69233417D01*
X111797100Y-69233407D01*
X111890419Y-69033284D01*
X111890424Y-69033270D01*
X111947573Y-68819986D01*
X111947575Y-68819976D01*
X111966821Y-68600000D01*
X128732843Y-68600000D01*
X128751426Y-68788681D01*
X128765155Y-68833940D01*
X128806463Y-68970115D01*
X128806464Y-68970118D01*
X128806465Y-68970119D01*
X128806466Y-68970122D01*
X128895834Y-69137318D01*
X128895838Y-69137325D01*
X129016116Y-69283883D01*
X129162674Y-69404161D01*
X129162681Y-69404165D01*
X129329877Y-69493533D01*
X129329878Y-69493533D01*
X129329885Y-69493537D01*
X129511317Y-69548573D01*
X129511316Y-69548573D01*
X129528233Y-69550239D01*
X129700000Y-69567157D01*
X129888683Y-69548573D01*
X130070115Y-69493537D01*
X130237324Y-69404162D01*
X130383883Y-69283883D01*
X130504162Y-69137324D01*
X130593537Y-68970115D01*
X130648573Y-68788683D01*
X130667157Y-68600000D01*
X130667157Y-68599999D01*
X132733179Y-68599999D01*
X132733179Y-68600000D01*
X132752424Y-68819976D01*
X132752426Y-68819986D01*
X132809575Y-69033270D01*
X132809580Y-69033284D01*
X132902898Y-69233405D01*
X132902901Y-69233411D01*
X132948258Y-69298187D01*
X132948258Y-69298188D01*
X133619000Y-68627446D01*
X133619000Y-68650160D01*
X133644964Y-68747061D01*
X133695124Y-68833940D01*
X133766060Y-68904876D01*
X133852939Y-68955036D01*
X133949840Y-68981000D01*
X133972553Y-68981000D01*
X133301810Y-69651740D01*
X133366590Y-69697099D01*
X133366592Y-69697100D01*
X133566715Y-69790419D01*
X133566729Y-69790424D01*
X133780013Y-69847573D01*
X133780023Y-69847575D01*
X133999999Y-69866821D01*
X134000001Y-69866821D01*
X134219976Y-69847575D01*
X134219986Y-69847573D01*
X134433270Y-69790424D01*
X134433284Y-69790419D01*
X134633407Y-69697100D01*
X134633417Y-69697094D01*
X134698188Y-69651741D01*
X134027448Y-68981000D01*
X134050160Y-68981000D01*
X134147061Y-68955036D01*
X134233940Y-68904876D01*
X134304876Y-68833940D01*
X134355036Y-68747061D01*
X134381000Y-68650160D01*
X134381000Y-68627447D01*
X135051741Y-69298188D01*
X135097094Y-69233417D01*
X135097100Y-69233407D01*
X135190419Y-69033284D01*
X135190424Y-69033270D01*
X135247573Y-68819986D01*
X135247575Y-68819976D01*
X135266821Y-68600000D01*
X152032843Y-68600000D01*
X152051426Y-68788681D01*
X152065155Y-68833940D01*
X152106463Y-68970115D01*
X152106464Y-68970118D01*
X152106465Y-68970119D01*
X152106466Y-68970122D01*
X152195834Y-69137318D01*
X152195838Y-69137325D01*
X152316116Y-69283883D01*
X152462674Y-69404161D01*
X152462681Y-69404165D01*
X152629877Y-69493533D01*
X152629878Y-69493533D01*
X152629885Y-69493537D01*
X152811317Y-69548573D01*
X152811316Y-69548573D01*
X152828233Y-69550239D01*
X153000000Y-69567157D01*
X153188683Y-69548573D01*
X153370115Y-69493537D01*
X153537324Y-69404162D01*
X153683883Y-69283883D01*
X153804162Y-69137324D01*
X153893537Y-68970115D01*
X153948573Y-68788683D01*
X153967157Y-68600000D01*
X153948573Y-68411317D01*
X153893537Y-68229885D01*
X153887719Y-68219000D01*
X153804165Y-68062681D01*
X153804161Y-68062674D01*
X153683883Y-67916116D01*
X153537325Y-67795838D01*
X153537318Y-67795834D01*
X153370122Y-67706466D01*
X153370119Y-67706465D01*
X153370118Y-67706464D01*
X153370115Y-67706463D01*
X153188683Y-67651427D01*
X153188681Y-67651426D01*
X153188683Y-67651426D01*
X153000000Y-67632843D01*
X152811318Y-67651426D01*
X152704194Y-67683921D01*
X152629885Y-67706463D01*
X152629882Y-67706464D01*
X152629880Y-67706465D01*
X152629877Y-67706466D01*
X152462681Y-67795834D01*
X152462674Y-67795838D01*
X152316116Y-67916116D01*
X152195838Y-68062674D01*
X152195834Y-68062681D01*
X152106466Y-68229877D01*
X152106465Y-68229880D01*
X152106464Y-68229882D01*
X152106463Y-68229885D01*
X152086673Y-68295124D01*
X152051426Y-68411318D01*
X152032843Y-68600000D01*
X135266821Y-68600000D01*
X135266821Y-68599999D01*
X135247575Y-68380023D01*
X135247573Y-68380013D01*
X135190424Y-68166729D01*
X135190420Y-68166720D01*
X135097096Y-67966586D01*
X135051741Y-67901811D01*
X135051740Y-67901810D01*
X134381000Y-68572551D01*
X134381000Y-68549840D01*
X134355036Y-68452939D01*
X134304876Y-68366060D01*
X134233940Y-68295124D01*
X134147061Y-68244964D01*
X134050160Y-68219000D01*
X134027447Y-68219000D01*
X134698188Y-67548258D01*
X134633411Y-67502901D01*
X134633405Y-67502898D01*
X134433284Y-67409580D01*
X134433270Y-67409575D01*
X134219986Y-67352426D01*
X134219976Y-67352424D01*
X134000001Y-67333179D01*
X133999999Y-67333179D01*
X133780023Y-67352424D01*
X133780013Y-67352426D01*
X133566729Y-67409575D01*
X133566720Y-67409579D01*
X133366590Y-67502901D01*
X133301811Y-67548258D01*
X133972554Y-68219000D01*
X133949840Y-68219000D01*
X133852939Y-68244964D01*
X133766060Y-68295124D01*
X133695124Y-68366060D01*
X133644964Y-68452939D01*
X133619000Y-68549840D01*
X133619000Y-68572553D01*
X132948258Y-67901811D01*
X132902901Y-67966590D01*
X132809579Y-68166720D01*
X132809575Y-68166729D01*
X132752426Y-68380013D01*
X132752424Y-68380023D01*
X132733179Y-68599999D01*
X130667157Y-68599999D01*
X130648573Y-68411317D01*
X130593537Y-68229885D01*
X130587719Y-68219000D01*
X130504165Y-68062681D01*
X130504161Y-68062674D01*
X130383883Y-67916116D01*
X130237325Y-67795838D01*
X130237318Y-67795834D01*
X130070122Y-67706466D01*
X130070119Y-67706465D01*
X130070118Y-67706464D01*
X130070115Y-67706463D01*
X129888683Y-67651427D01*
X129888681Y-67651426D01*
X129888683Y-67651426D01*
X129700000Y-67632843D01*
X129511318Y-67651426D01*
X129404194Y-67683921D01*
X129329885Y-67706463D01*
X129329882Y-67706464D01*
X129329880Y-67706465D01*
X129329877Y-67706466D01*
X129162681Y-67795834D01*
X129162674Y-67795838D01*
X129016116Y-67916116D01*
X128895838Y-68062674D01*
X128895834Y-68062681D01*
X128806466Y-68229877D01*
X128806465Y-68229880D01*
X128806464Y-68229882D01*
X128806463Y-68229885D01*
X128786673Y-68295124D01*
X128751426Y-68411318D01*
X128732843Y-68600000D01*
X111966821Y-68600000D01*
X111966821Y-68599999D01*
X111947575Y-68380023D01*
X111947573Y-68380013D01*
X111890424Y-68166729D01*
X111890420Y-68166720D01*
X111797096Y-67966586D01*
X111751741Y-67901811D01*
X111751740Y-67901810D01*
X111081000Y-68572551D01*
X111081000Y-68549840D01*
X111055036Y-68452939D01*
X111004876Y-68366060D01*
X110933940Y-68295124D01*
X110847061Y-68244964D01*
X110750160Y-68219000D01*
X110727447Y-68219000D01*
X111398188Y-67548258D01*
X111333411Y-67502901D01*
X111333405Y-67502898D01*
X111133284Y-67409580D01*
X111133270Y-67409575D01*
X110919986Y-67352426D01*
X110919976Y-67352424D01*
X110700001Y-67333179D01*
X110699999Y-67333179D01*
X110480023Y-67352424D01*
X110480013Y-67352426D01*
X110266729Y-67409575D01*
X110266720Y-67409579D01*
X110066590Y-67502901D01*
X110001811Y-67548258D01*
X110672554Y-68219000D01*
X110649840Y-68219000D01*
X110552939Y-68244964D01*
X110466060Y-68295124D01*
X110395124Y-68366060D01*
X110344964Y-68452939D01*
X110319000Y-68549840D01*
X110319000Y-68572553D01*
X109648258Y-67901811D01*
X109602901Y-67966590D01*
X109509579Y-68166720D01*
X109509575Y-68166729D01*
X109452426Y-68380013D01*
X109452424Y-68380023D01*
X109433179Y-68599999D01*
X104381000Y-68599999D01*
X104334000Y-40400000D01*
X141094353Y-40400000D01*
X141114834Y-40542456D01*
X141174622Y-40673371D01*
X141174623Y-40673373D01*
X141268872Y-40782143D01*
X141276324Y-40786932D01*
X141289943Y-40795685D01*
X141335698Y-40848489D01*
X141345641Y-40917648D01*
X141316615Y-40981203D01*
X141289943Y-41004315D01*
X141268874Y-41017855D01*
X141174623Y-41126626D01*
X141174622Y-41126628D01*
X141114834Y-41257543D01*
X141094353Y-41400000D01*
X141114834Y-41542456D01*
X141174622Y-41673371D01*
X141174623Y-41673373D01*
X141268872Y-41782143D01*
X141389947Y-41859953D01*
X141389950Y-41859954D01*
X141389949Y-41859954D01*
X141528036Y-41900499D01*
X141528038Y-41900500D01*
X141528039Y-41900500D01*
X141671962Y-41900500D01*
X141671962Y-41900499D01*
X141810053Y-41859953D01*
X141931128Y-41782143D01*
X142025377Y-41673373D01*
X142085165Y-41542457D01*
X142105647Y-41400000D01*
X142085165Y-41257543D01*
X142025377Y-41126627D01*
X141931128Y-41017857D01*
X141931125Y-41017855D01*
X141931125Y-41017854D01*
X141910058Y-41004316D01*
X141864302Y-40951513D01*
X141854358Y-40882354D01*
X141883382Y-40818798D01*
X141910058Y-40795684D01*
X141931125Y-40782145D01*
X141931125Y-40782144D01*
X141931128Y-40782143D01*
X142025377Y-40673373D01*
X142085165Y-40542457D01*
X142105647Y-40400000D01*
X142085165Y-40257543D01*
X142025377Y-40126627D01*
X141931128Y-40017857D01*
X141810053Y-39940047D01*
X141810051Y-39940046D01*
X141810049Y-39940045D01*
X141810050Y-39940045D01*
X141671963Y-39899500D01*
X141671961Y-39899500D01*
X141528039Y-39899500D01*
X141528036Y-39899500D01*
X141389949Y-39940045D01*
X141268873Y-40017856D01*
X141174623Y-40126626D01*
X141174622Y-40126628D01*
X141114834Y-40257543D01*
X141094353Y-40400000D01*
X104334000Y-40400000D01*
X104314333Y-28600000D01*
X109732843Y-28600000D01*
X109751426Y-28788681D01*
X109751427Y-28788683D01*
X109806463Y-28970115D01*
X109806464Y-28970118D01*
X109806465Y-28970119D01*
X109806466Y-28970122D01*
X109895834Y-29137318D01*
X109895838Y-29137325D01*
X110016116Y-29283883D01*
X110162674Y-29404161D01*
X110162681Y-29404165D01*
X110329877Y-29493533D01*
X110329878Y-29493533D01*
X110329885Y-29493537D01*
X110511317Y-29548573D01*
X110511316Y-29548573D01*
X110528233Y-29550239D01*
X110700000Y-29567157D01*
X110888683Y-29548573D01*
X111070115Y-29493537D01*
X111237324Y-29404162D01*
X111383883Y-29283883D01*
X111504162Y-29137324D01*
X111593537Y-28970115D01*
X111648573Y-28788683D01*
X111667157Y-28600000D01*
X128732843Y-28600000D01*
X128751426Y-28788681D01*
X128751427Y-28788683D01*
X128806463Y-28970115D01*
X128806464Y-28970118D01*
X128806465Y-28970119D01*
X128806466Y-28970122D01*
X128895834Y-29137318D01*
X128895838Y-29137325D01*
X129016116Y-29283883D01*
X129162674Y-29404161D01*
X129162681Y-29404165D01*
X129329877Y-29493533D01*
X129329878Y-29493533D01*
X129329885Y-29493537D01*
X129511317Y-29548573D01*
X129511316Y-29548573D01*
X129528233Y-29550239D01*
X129700000Y-29567157D01*
X129888683Y-29548573D01*
X130070115Y-29493537D01*
X130237324Y-29404162D01*
X130383883Y-29283883D01*
X130504162Y-29137324D01*
X130593537Y-28970115D01*
X130648573Y-28788683D01*
X130667157Y-28600000D01*
X133032843Y-28600000D01*
X133051426Y-28788681D01*
X133051427Y-28788683D01*
X133106463Y-28970115D01*
X133106464Y-28970118D01*
X133106465Y-28970119D01*
X133106466Y-28970122D01*
X133195834Y-29137318D01*
X133195838Y-29137325D01*
X133316116Y-29283883D01*
X133462674Y-29404161D01*
X133462681Y-29404165D01*
X133629877Y-29493533D01*
X133629878Y-29493533D01*
X133629885Y-29493537D01*
X133811317Y-29548573D01*
X133811316Y-29548573D01*
X133828233Y-29550239D01*
X134000000Y-29567157D01*
X134188683Y-29548573D01*
X134370115Y-29493537D01*
X134537324Y-29404162D01*
X134683883Y-29283883D01*
X134804162Y-29137324D01*
X134893537Y-28970115D01*
X134948573Y-28788683D01*
X134967157Y-28600000D01*
X152032843Y-28600000D01*
X152051426Y-28788681D01*
X152051427Y-28788683D01*
X152106463Y-28970115D01*
X152106464Y-28970118D01*
X152106465Y-28970119D01*
X152106466Y-28970122D01*
X152195834Y-29137318D01*
X152195838Y-29137325D01*
X152316116Y-29283883D01*
X152462674Y-29404161D01*
X152462681Y-29404165D01*
X152629877Y-29493533D01*
X152629878Y-29493533D01*
X152629885Y-29493537D01*
X152811317Y-29548573D01*
X152811316Y-29548573D01*
X152828233Y-29550239D01*
X153000000Y-29567157D01*
X153188683Y-29548573D01*
X153370115Y-29493537D01*
X153537324Y-29404162D01*
X153683883Y-29283883D01*
X153804162Y-29137324D01*
X153893537Y-28970115D01*
X153948573Y-28788683D01*
X153967157Y-28600000D01*
X153948573Y-28411317D01*
X153893537Y-28229885D01*
X153804162Y-28062676D01*
X153804161Y-28062674D01*
X153683883Y-27916116D01*
X153537325Y-27795838D01*
X153537318Y-27795834D01*
X153370122Y-27706466D01*
X153370119Y-27706465D01*
X153370118Y-27706464D01*
X153370115Y-27706463D01*
X153188683Y-27651427D01*
X153188681Y-27651426D01*
X153188683Y-27651426D01*
X153000000Y-27632843D01*
X152811318Y-27651426D01*
X152704194Y-27683921D01*
X152629885Y-27706463D01*
X152629882Y-27706464D01*
X152629880Y-27706465D01*
X152629877Y-27706466D01*
X152462681Y-27795834D01*
X152462674Y-27795838D01*
X152316116Y-27916116D01*
X152195838Y-28062674D01*
X152195834Y-28062681D01*
X152106466Y-28229877D01*
X152106465Y-28229880D01*
X152051426Y-28411318D01*
X152032843Y-28600000D01*
X134967157Y-28600000D01*
X134948573Y-28411317D01*
X134893537Y-28229885D01*
X134804162Y-28062676D01*
X134804161Y-28062674D01*
X134683883Y-27916116D01*
X134537325Y-27795838D01*
X134537318Y-27795834D01*
X134370122Y-27706466D01*
X134370119Y-27706465D01*
X134370118Y-27706464D01*
X134370115Y-27706463D01*
X134188683Y-27651427D01*
X134188681Y-27651426D01*
X134188683Y-27651426D01*
X134000000Y-27632843D01*
X133811318Y-27651426D01*
X133704194Y-27683921D01*
X133629885Y-27706463D01*
X133629882Y-27706464D01*
X133629880Y-27706465D01*
X133629877Y-27706466D01*
X133462681Y-27795834D01*
X133462674Y-27795838D01*
X133316116Y-27916116D01*
X133195838Y-28062674D01*
X133195834Y-28062681D01*
X133106466Y-28229877D01*
X133106465Y-28229880D01*
X133051426Y-28411318D01*
X133032843Y-28600000D01*
X130667157Y-28600000D01*
X130648573Y-28411317D01*
X130593537Y-28229885D01*
X130504162Y-28062676D01*
X130504161Y-28062674D01*
X130383883Y-27916116D01*
X130237325Y-27795838D01*
X130237318Y-27795834D01*
X130070122Y-27706466D01*
X130070119Y-27706465D01*
X130070118Y-27706464D01*
X130070115Y-27706463D01*
X129888683Y-27651427D01*
X129888681Y-27651426D01*
X129888683Y-27651426D01*
X129700000Y-27632843D01*
X129511318Y-27651426D01*
X129404194Y-27683921D01*
X129329885Y-27706463D01*
X129329882Y-27706464D01*
X129329880Y-27706465D01*
X129329877Y-27706466D01*
X129162681Y-27795834D01*
X129162674Y-27795838D01*
X129016116Y-27916116D01*
X128895838Y-28062674D01*
X128895834Y-28062681D01*
X128806466Y-28229877D01*
X128806465Y-28229880D01*
X128751426Y-28411318D01*
X128732843Y-28600000D01*
X111667157Y-28600000D01*
X111648573Y-28411317D01*
X111593537Y-28229885D01*
X111504162Y-28062676D01*
X111504161Y-28062674D01*
X111383883Y-27916116D01*
X111237325Y-27795838D01*
X111237318Y-27795834D01*
X111070122Y-27706466D01*
X111070119Y-27706465D01*
X111070118Y-27706464D01*
X111070115Y-27706463D01*
X110888683Y-27651427D01*
X110888681Y-27651426D01*
X110888683Y-27651426D01*
X110700000Y-27632843D01*
X110511318Y-27651426D01*
X110404194Y-27683921D01*
X110329885Y-27706463D01*
X110329882Y-27706464D01*
X110329880Y-27706465D01*
X110329877Y-27706466D01*
X110162681Y-27795834D01*
X110162674Y-27795838D01*
X110016116Y-27916116D01*
X109895838Y-28062674D01*
X109895834Y-28062681D01*
X109806466Y-28229877D01*
X109806465Y-28229880D01*
X109751426Y-28411318D01*
X109732843Y-28600000D01*
X104314333Y-28600000D01*
X104305583Y-23349998D01*
X113444532Y-23349998D01*
X113444532Y-23350001D01*
X113464364Y-23576686D01*
X113464366Y-23576697D01*
X113523258Y-23796488D01*
X113523261Y-23796497D01*
X113619431Y-24002732D01*
X113619432Y-24002734D01*
X113749954Y-24189141D01*
X113910858Y-24350045D01*
X113910861Y-24350047D01*
X114097266Y-24480568D01*
X114303504Y-24576739D01*
X114523308Y-24635635D01*
X114685230Y-24649801D01*
X114749998Y-24655468D01*
X114750000Y-24655468D01*
X114750002Y-24655468D01*
X114806796Y-24650499D01*
X114976692Y-24635635D01*
X115196496Y-24576739D01*
X115402734Y-24480568D01*
X115589139Y-24350047D01*
X115750047Y-24189139D01*
X115880568Y-24002734D01*
X115976739Y-23796496D01*
X116035635Y-23576692D01*
X116055468Y-23350000D01*
X116035635Y-23123308D01*
X115976739Y-22903504D01*
X115880568Y-22697266D01*
X115777102Y-22549500D01*
X115750045Y-22510858D01*
X115589141Y-22349954D01*
X115418180Y-22230247D01*
X123609500Y-22230247D01*
X123609500Y-24469752D01*
X123621131Y-24528229D01*
X123621132Y-24528230D01*
X123665447Y-24594552D01*
X123731769Y-24638867D01*
X123731770Y-24638868D01*
X123790247Y-24650499D01*
X123790250Y-24650500D01*
X123790252Y-24650500D01*
X126029750Y-24650500D01*
X126029751Y-24650499D01*
X126044568Y-24647552D01*
X126088229Y-24638868D01*
X126088229Y-24638867D01*
X126088231Y-24638867D01*
X126154552Y-24594552D01*
X126198867Y-24528231D01*
X126198867Y-24528229D01*
X126198868Y-24528229D01*
X126210499Y-24469752D01*
X126210500Y-24469750D01*
X126210500Y-23849998D01*
X137034532Y-23849998D01*
X137034532Y-23850001D01*
X137054364Y-24076686D01*
X137054366Y-24076697D01*
X137113258Y-24296488D01*
X137113261Y-24296497D01*
X137209431Y-24502732D01*
X137209432Y-24502734D01*
X137339954Y-24689141D01*
X137500858Y-24850045D01*
X137500861Y-24850047D01*
X137687266Y-24980568D01*
X137893504Y-25076739D01*
X138113308Y-25135635D01*
X138275230Y-25149801D01*
X138339998Y-25155468D01*
X138340000Y-25155468D01*
X138340002Y-25155468D01*
X138396796Y-25150499D01*
X138566692Y-25135635D01*
X138786496Y-25076739D01*
X138992734Y-24980568D01*
X139179139Y-24850047D01*
X139340047Y-24689139D01*
X139470568Y-24502734D01*
X139566739Y-24296496D01*
X139625635Y-24076692D01*
X139645468Y-23850000D01*
X139625635Y-23623308D01*
X139566739Y-23403504D01*
X139470568Y-23197266D01*
X139340047Y-23010861D01*
X139340045Y-23010858D01*
X139179141Y-22849954D01*
X139008180Y-22730247D01*
X147199500Y-22730247D01*
X147199500Y-24969752D01*
X147211131Y-25028229D01*
X147211132Y-25028230D01*
X147255447Y-25094552D01*
X147321769Y-25138867D01*
X147321770Y-25138868D01*
X147380247Y-25150499D01*
X147380250Y-25150500D01*
X147380252Y-25150500D01*
X149619750Y-25150500D01*
X149619751Y-25150499D01*
X149634568Y-25147552D01*
X149678229Y-25138868D01*
X149678229Y-25138867D01*
X149678231Y-25138867D01*
X149744552Y-25094552D01*
X149788867Y-25028231D01*
X149788867Y-25028229D01*
X149788868Y-25028229D01*
X149800499Y-24969752D01*
X149800500Y-24969750D01*
X149800500Y-22730249D01*
X149800499Y-22730247D01*
X149788868Y-22671770D01*
X149788867Y-22671769D01*
X149744552Y-22605447D01*
X149678230Y-22561132D01*
X149678229Y-22561131D01*
X149619752Y-22549500D01*
X149619748Y-22549500D01*
X147380252Y-22549500D01*
X147380247Y-22549500D01*
X147321770Y-22561131D01*
X147321769Y-22561132D01*
X147255447Y-22605447D01*
X147211132Y-22671769D01*
X147211131Y-22671770D01*
X147199500Y-22730247D01*
X139008180Y-22730247D01*
X138992734Y-22719432D01*
X138992732Y-22719431D01*
X138786497Y-22623261D01*
X138786488Y-22623258D01*
X138566697Y-22564366D01*
X138566693Y-22564365D01*
X138566692Y-22564365D01*
X138566691Y-22564364D01*
X138566686Y-22564364D01*
X138340002Y-22544532D01*
X138339998Y-22544532D01*
X138113313Y-22564364D01*
X138113302Y-22564366D01*
X137893511Y-22623258D01*
X137893502Y-22623261D01*
X137687267Y-22719431D01*
X137687265Y-22719432D01*
X137500858Y-22849954D01*
X137339954Y-23010858D01*
X137209432Y-23197265D01*
X137209431Y-23197267D01*
X137113261Y-23403502D01*
X137113258Y-23403511D01*
X137054366Y-23623302D01*
X137054364Y-23623313D01*
X137034532Y-23849998D01*
X126210500Y-23849998D01*
X126210500Y-22230249D01*
X126210499Y-22230247D01*
X126198868Y-22171770D01*
X126198867Y-22171769D01*
X126154552Y-22105447D01*
X126088230Y-22061132D01*
X126088229Y-22061131D01*
X126029752Y-22049500D01*
X126029748Y-22049500D01*
X123790252Y-22049500D01*
X123790247Y-22049500D01*
X123731770Y-22061131D01*
X123731769Y-22061132D01*
X123665447Y-22105447D01*
X123621132Y-22171769D01*
X123621131Y-22171770D01*
X123609500Y-22230247D01*
X115418180Y-22230247D01*
X115402734Y-22219432D01*
X115402732Y-22219431D01*
X115196497Y-22123261D01*
X115196488Y-22123258D01*
X114976697Y-22064366D01*
X114976693Y-22064365D01*
X114976692Y-22064365D01*
X114976691Y-22064364D01*
X114976686Y-22064364D01*
X114750002Y-22044532D01*
X114749998Y-22044532D01*
X114523313Y-22064364D01*
X114523302Y-22064366D01*
X114303511Y-22123258D01*
X114303502Y-22123261D01*
X114097267Y-22219431D01*
X114097265Y-22219432D01*
X113910858Y-22349954D01*
X113749954Y-22510858D01*
X113619432Y-22697265D01*
X113619431Y-22697267D01*
X113523261Y-22903502D01*
X113523258Y-22903511D01*
X113464366Y-23123302D01*
X113464364Y-23123313D01*
X113444532Y-23349998D01*
X104305583Y-23349998D01*
X104300207Y-20124207D01*
X104319780Y-20057134D01*
X104372508Y-20011292D01*
X104424207Y-20000000D01*
X159876206Y-20000000D01*
X159943245Y-20019685D01*
G37*
%TD.AperFunction*%
%TD*%
%TA.AperFunction,Conductor*%
%TO.N,GND*%
G36*
X68720712Y-66269685D02*
G01*
X68734978Y-66280376D01*
X74357306Y-71162923D01*
X74395015Y-71221741D01*
X74400000Y-71256546D01*
X74400000Y-112376000D01*
X74380315Y-112443039D01*
X74327511Y-112488794D01*
X74276000Y-112500000D01*
X53600000Y-112500000D01*
X53600000Y-99459999D01*
X55474341Y-99459999D01*
X55474341Y-99460000D01*
X55494936Y-99695403D01*
X55494938Y-99695413D01*
X55556094Y-99923655D01*
X55556096Y-99923659D01*
X55556097Y-99923663D01*
X55640499Y-100104663D01*
X55655965Y-100137830D01*
X55655967Y-100137834D01*
X55791501Y-100331395D01*
X55791506Y-100331402D01*
X55958597Y-100498493D01*
X55958603Y-100498498D01*
X56144158Y-100628425D01*
X56187783Y-100683002D01*
X56194977Y-100752500D01*
X56163454Y-100814855D01*
X56144158Y-100831575D01*
X55958597Y-100961505D01*
X55791505Y-101128597D01*
X55655965Y-101322169D01*
X55655964Y-101322171D01*
X55556098Y-101536335D01*
X55556094Y-101536344D01*
X55494938Y-101764586D01*
X55494936Y-101764596D01*
X55474341Y-101999999D01*
X55474341Y-102000000D01*
X55494936Y-102235403D01*
X55494938Y-102235413D01*
X55556094Y-102463655D01*
X55556096Y-102463659D01*
X55556097Y-102463663D01*
X55560000Y-102472032D01*
X55655965Y-102677830D01*
X55655967Y-102677834D01*
X55764281Y-102832521D01*
X55791501Y-102871396D01*
X55791506Y-102871402D01*
X55958597Y-103038493D01*
X55958603Y-103038498D01*
X56144594Y-103168730D01*
X56188219Y-103223307D01*
X56195413Y-103292805D01*
X56163890Y-103355160D01*
X56144595Y-103371880D01*
X55958922Y-103501890D01*
X55958920Y-103501891D01*
X55791891Y-103668920D01*
X55791886Y-103668926D01*
X55656400Y-103862420D01*
X55656399Y-103862422D01*
X55556570Y-104076507D01*
X55556567Y-104076513D01*
X55499364Y-104289999D01*
X55499364Y-104290000D01*
X56396988Y-104290000D01*
X56364075Y-104347007D01*
X56330000Y-104474174D01*
X56330000Y-104605826D01*
X56364075Y-104732993D01*
X56396988Y-104790000D01*
X55499364Y-104790000D01*
X55556567Y-105003486D01*
X55556570Y-105003492D01*
X55656399Y-105217578D01*
X55791894Y-105411082D01*
X55958917Y-105578105D01*
X56152421Y-105713600D01*
X56366507Y-105813429D01*
X56366516Y-105813433D01*
X56580000Y-105870634D01*
X56580000Y-104973012D01*
X56637007Y-105005925D01*
X56764174Y-105040000D01*
X56895826Y-105040000D01*
X57022993Y-105005925D01*
X57080000Y-104973012D01*
X57080000Y-105870633D01*
X57293483Y-105813433D01*
X57293492Y-105813429D01*
X57507578Y-105713600D01*
X57701082Y-105578105D01*
X57868105Y-105411082D01*
X57998119Y-105225405D01*
X58052696Y-105181781D01*
X58122195Y-105174588D01*
X58184549Y-105206110D01*
X58201269Y-105225405D01*
X58331505Y-105411401D01*
X58498599Y-105578495D01*
X58595384Y-105646265D01*
X58692165Y-105714032D01*
X58692167Y-105714033D01*
X58692170Y-105714035D01*
X58906337Y-105813903D01*
X59134592Y-105875063D01*
X59322918Y-105891539D01*
X59369999Y-105895659D01*
X59370000Y-105895659D01*
X59370001Y-105895659D01*
X59409234Y-105892226D01*
X59605408Y-105875063D01*
X59833663Y-105813903D01*
X60047830Y-105714035D01*
X60241401Y-105578495D01*
X60408495Y-105411401D01*
X60544035Y-105217830D01*
X60643903Y-105003663D01*
X60705063Y-104775408D01*
X60725659Y-104540000D01*
X60705063Y-104304592D01*
X60643903Y-104076337D01*
X60544035Y-103862171D01*
X60538731Y-103854595D01*
X60408494Y-103668597D01*
X60241402Y-103501506D01*
X60241396Y-103501501D01*
X60055842Y-103371575D01*
X60012217Y-103316998D01*
X60005023Y-103247500D01*
X60036546Y-103185145D01*
X60055842Y-103168425D01*
X60078026Y-103152891D01*
X60241401Y-103038495D01*
X60408495Y-102871401D01*
X60544035Y-102677830D01*
X60643903Y-102463663D01*
X60705063Y-102235408D01*
X60725659Y-102000000D01*
X60705063Y-101764592D01*
X60643903Y-101536337D01*
X60544035Y-101322171D01*
X60538424Y-101314158D01*
X60408496Y-101128600D01*
X60408493Y-101128597D01*
X60286567Y-101006671D01*
X60253084Y-100945351D01*
X60258068Y-100875659D01*
X60299939Y-100819725D01*
X60330915Y-100802810D01*
X60462331Y-100753796D01*
X60577546Y-100667546D01*
X60663796Y-100552331D01*
X60714091Y-100417483D01*
X60720500Y-100357873D01*
X60720499Y-98562128D01*
X60714091Y-98502517D01*
X60712810Y-98499083D01*
X60663797Y-98367671D01*
X60663793Y-98367664D01*
X60577547Y-98252455D01*
X60577544Y-98252452D01*
X60462335Y-98166206D01*
X60462328Y-98166202D01*
X60327482Y-98115908D01*
X60327483Y-98115908D01*
X60267883Y-98109501D01*
X60267881Y-98109500D01*
X60267873Y-98109500D01*
X60267864Y-98109500D01*
X58472129Y-98109500D01*
X58472123Y-98109501D01*
X58412516Y-98115908D01*
X58277671Y-98166202D01*
X58277664Y-98166206D01*
X58162455Y-98252452D01*
X58162452Y-98252455D01*
X58076206Y-98367664D01*
X58076203Y-98367669D01*
X58027189Y-98499083D01*
X57985317Y-98555016D01*
X57919853Y-98579433D01*
X57851580Y-98564581D01*
X57823326Y-98543430D01*
X57701402Y-98421506D01*
X57701395Y-98421501D01*
X57507834Y-98285967D01*
X57507830Y-98285965D01*
X57507828Y-98285964D01*
X57293663Y-98186097D01*
X57293659Y-98186096D01*
X57293655Y-98186094D01*
X57065413Y-98124938D01*
X57065403Y-98124936D01*
X56830001Y-98104341D01*
X56829999Y-98104341D01*
X56594596Y-98124936D01*
X56594586Y-98124938D01*
X56366344Y-98186094D01*
X56366335Y-98186098D01*
X56152171Y-98285964D01*
X56152169Y-98285965D01*
X55958597Y-98421505D01*
X55791505Y-98588597D01*
X55655965Y-98782169D01*
X55655964Y-98782171D01*
X55556098Y-98996335D01*
X55556094Y-98996344D01*
X55494938Y-99224586D01*
X55494936Y-99224596D01*
X55474341Y-99459999D01*
X53600000Y-99459999D01*
X53600000Y-93799996D01*
X54994435Y-93799996D01*
X54994435Y-93800003D01*
X55014630Y-93979249D01*
X55014631Y-93979254D01*
X55074211Y-94149523D01*
X55170184Y-94302262D01*
X55297738Y-94429816D01*
X55450478Y-94525789D01*
X55620745Y-94585368D01*
X55620750Y-94585369D01*
X55799996Y-94605565D01*
X55800000Y-94605565D01*
X55800004Y-94605565D01*
X55979249Y-94585369D01*
X55979252Y-94585368D01*
X55979255Y-94585368D01*
X56149522Y-94525789D01*
X56302262Y-94429816D01*
X56429816Y-94302262D01*
X56525789Y-94149522D01*
X56585368Y-93979255D01*
X56605565Y-93800000D01*
X56605565Y-93799996D01*
X61294435Y-93799996D01*
X61294435Y-93800003D01*
X61314630Y-93979249D01*
X61314631Y-93979254D01*
X61374211Y-94149523D01*
X61470184Y-94302262D01*
X61597738Y-94429816D01*
X61750478Y-94525789D01*
X61920745Y-94585368D01*
X61920750Y-94585369D01*
X62099996Y-94605565D01*
X62100000Y-94605565D01*
X62100004Y-94605565D01*
X62279249Y-94585369D01*
X62279252Y-94585368D01*
X62279255Y-94585368D01*
X62449522Y-94525789D01*
X62602262Y-94429816D01*
X62729816Y-94302262D01*
X62825789Y-94149522D01*
X62885368Y-93979255D01*
X62905565Y-93800000D01*
X62885368Y-93620745D01*
X62825789Y-93450478D01*
X62729816Y-93297738D01*
X62602262Y-93170184D01*
X62449523Y-93074211D01*
X62279254Y-93014631D01*
X62279249Y-93014630D01*
X62100004Y-92994435D01*
X62099996Y-92994435D01*
X61920750Y-93014630D01*
X61920745Y-93014631D01*
X61750476Y-93074211D01*
X61597737Y-93170184D01*
X61470184Y-93297737D01*
X61374211Y-93450476D01*
X61314631Y-93620745D01*
X61314630Y-93620750D01*
X61294435Y-93799996D01*
X56605565Y-93799996D01*
X56585368Y-93620745D01*
X56525789Y-93450478D01*
X56429816Y-93297738D01*
X56302262Y-93170184D01*
X56149523Y-93074211D01*
X55979254Y-93014631D01*
X55979249Y-93014630D01*
X55800004Y-92994435D01*
X55799996Y-92994435D01*
X55620750Y-93014630D01*
X55620745Y-93014631D01*
X55450476Y-93074211D01*
X55297737Y-93170184D01*
X55170184Y-93297737D01*
X55074211Y-93450476D01*
X55014631Y-93620745D01*
X55014630Y-93620750D01*
X54994435Y-93799996D01*
X53600000Y-93799996D01*
X53600000Y-92078673D01*
X58515758Y-92078673D01*
X58515758Y-92078680D01*
X58535953Y-92257926D01*
X58535954Y-92257931D01*
X58595534Y-92428200D01*
X58691507Y-92580939D01*
X58819061Y-92708493D01*
X58971801Y-92804466D01*
X59142068Y-92864045D01*
X59142073Y-92864046D01*
X59321319Y-92884242D01*
X59321323Y-92884242D01*
X59321327Y-92884242D01*
X59500572Y-92864046D01*
X59500575Y-92864045D01*
X59500578Y-92864045D01*
X59670845Y-92804466D01*
X59823585Y-92708493D01*
X59951139Y-92580939D01*
X60047112Y-92428199D01*
X60106691Y-92257932D01*
X60126888Y-92078677D01*
X60106691Y-91899422D01*
X60072775Y-91802496D01*
X60394435Y-91802496D01*
X60394435Y-91802503D01*
X60414630Y-91981749D01*
X60414631Y-91981754D01*
X60474211Y-92152023D01*
X60540755Y-92257926D01*
X60570184Y-92304762D01*
X60697738Y-92432316D01*
X60850478Y-92528289D01*
X61000943Y-92580939D01*
X61020745Y-92587868D01*
X61020750Y-92587869D01*
X61199996Y-92608065D01*
X61200000Y-92608065D01*
X61200004Y-92608065D01*
X61379249Y-92587869D01*
X61379251Y-92587868D01*
X61379255Y-92587868D01*
X61379258Y-92587866D01*
X61379262Y-92587866D01*
X61509045Y-92542453D01*
X61578824Y-92538891D01*
X61590955Y-92542453D01*
X61720737Y-92587866D01*
X61720743Y-92587867D01*
X61720745Y-92587868D01*
X61720746Y-92587868D01*
X61720750Y-92587869D01*
X61899996Y-92608065D01*
X61900000Y-92608065D01*
X61900004Y-92608065D01*
X62079249Y-92587869D01*
X62079252Y-92587868D01*
X62079255Y-92587868D01*
X62249522Y-92528289D01*
X62402262Y-92432316D01*
X62529816Y-92304762D01*
X62625789Y-92152022D01*
X62685368Y-91981755D01*
X62705565Y-91802500D01*
X62697301Y-91729155D01*
X62685369Y-91623250D01*
X62685368Y-91623245D01*
X62625788Y-91452976D01*
X62529815Y-91300237D01*
X62402262Y-91172684D01*
X62249523Y-91076711D01*
X62079254Y-91017131D01*
X62079249Y-91017130D01*
X61900004Y-90996935D01*
X61899996Y-90996935D01*
X61720750Y-91017130D01*
X61720742Y-91017132D01*
X61590954Y-91062547D01*
X61521175Y-91066108D01*
X61509046Y-91062547D01*
X61379257Y-91017132D01*
X61379249Y-91017130D01*
X61200004Y-90996935D01*
X61199996Y-90996935D01*
X61020750Y-91017130D01*
X61020745Y-91017131D01*
X60850476Y-91076711D01*
X60697737Y-91172684D01*
X60570184Y-91300237D01*
X60474211Y-91452976D01*
X60414631Y-91623245D01*
X60414630Y-91623250D01*
X60394435Y-91802496D01*
X60072775Y-91802496D01*
X60047112Y-91729155D01*
X59951139Y-91576415D01*
X59823585Y-91448861D01*
X59670846Y-91352888D01*
X59500577Y-91293308D01*
X59500572Y-91293307D01*
X59321327Y-91273112D01*
X59321319Y-91273112D01*
X59142073Y-91293307D01*
X59142068Y-91293308D01*
X58971799Y-91352888D01*
X58819060Y-91448861D01*
X58691507Y-91576414D01*
X58595534Y-91729153D01*
X58535954Y-91899422D01*
X58535953Y-91899427D01*
X58515758Y-92078673D01*
X53600000Y-92078673D01*
X53600000Y-88699996D01*
X53794435Y-88699996D01*
X53794435Y-88700003D01*
X53814630Y-88879249D01*
X53814633Y-88879262D01*
X53876510Y-89056094D01*
X53874364Y-89056844D01*
X53883962Y-89115144D01*
X53875609Y-89143590D01*
X53876510Y-89143906D01*
X53814633Y-89320737D01*
X53814630Y-89320750D01*
X53794435Y-89499996D01*
X53794435Y-89500003D01*
X53814630Y-89679249D01*
X53814631Y-89679254D01*
X53874211Y-89849523D01*
X53970184Y-90002262D01*
X54097738Y-90129816D01*
X54250478Y-90225789D01*
X54420745Y-90285368D01*
X54420750Y-90285369D01*
X54599996Y-90305565D01*
X54600000Y-90305565D01*
X54600004Y-90305565D01*
X54779249Y-90285369D01*
X54779252Y-90285368D01*
X54779255Y-90285368D01*
X54949522Y-90225789D01*
X55102262Y-90129816D01*
X55229816Y-90002262D01*
X55325789Y-89849522D01*
X55385368Y-89679255D01*
X55405565Y-89500000D01*
X55385368Y-89320745D01*
X55385367Y-89320743D01*
X55385366Y-89320737D01*
X55323489Y-89143905D01*
X55325637Y-89143153D01*
X55316035Y-89084872D01*
X55324392Y-89056411D01*
X55323489Y-89056095D01*
X55385366Y-88879262D01*
X55385369Y-88879249D01*
X55405565Y-88700003D01*
X55405565Y-88699996D01*
X55385369Y-88520750D01*
X55385368Y-88520745D01*
X55325788Y-88350476D01*
X55229815Y-88197737D01*
X55102262Y-88070184D01*
X54949523Y-87974211D01*
X54779254Y-87914631D01*
X54779249Y-87914630D01*
X54600004Y-87894435D01*
X54599996Y-87894435D01*
X54420750Y-87914630D01*
X54420745Y-87914631D01*
X54250476Y-87974211D01*
X54097737Y-88070184D01*
X53970184Y-88197737D01*
X53874211Y-88350476D01*
X53814631Y-88520745D01*
X53814630Y-88520750D01*
X53794435Y-88699996D01*
X53600000Y-88699996D01*
X53600000Y-86446246D01*
X58418185Y-86446246D01*
X58418185Y-86446253D01*
X58438380Y-86625499D01*
X58438381Y-86625504D01*
X58497961Y-86795773D01*
X58593934Y-86948512D01*
X58721488Y-87076066D01*
X58874228Y-87172039D01*
X59044495Y-87231618D01*
X59044500Y-87231619D01*
X59223746Y-87251815D01*
X59223750Y-87251815D01*
X59223754Y-87251815D01*
X59402999Y-87231619D01*
X59403002Y-87231618D01*
X59403005Y-87231618D01*
X59573272Y-87172039D01*
X59726012Y-87076066D01*
X59853566Y-86948512D01*
X59949539Y-86795772D01*
X60009118Y-86625505D01*
X60029315Y-86446250D01*
X60009118Y-86266995D01*
X59949539Y-86096728D01*
X59853566Y-85943988D01*
X59726012Y-85816434D01*
X59573273Y-85720461D01*
X59403004Y-85660881D01*
X59402999Y-85660880D01*
X59223754Y-85640685D01*
X59223746Y-85640685D01*
X59044500Y-85660880D01*
X59044495Y-85660881D01*
X58874226Y-85720461D01*
X58721487Y-85816434D01*
X58593934Y-85943987D01*
X58497961Y-86096726D01*
X58438381Y-86266995D01*
X58438380Y-86267000D01*
X58418185Y-86446246D01*
X53600000Y-86446246D01*
X53600000Y-85090564D01*
X53670184Y-85202262D01*
X53797738Y-85329816D01*
X53950478Y-85425789D01*
X54120745Y-85485368D01*
X54120750Y-85485369D01*
X54299996Y-85505565D01*
X54300000Y-85505565D01*
X54300004Y-85505565D01*
X54479249Y-85485369D01*
X54479252Y-85485368D01*
X54479255Y-85485368D01*
X54649522Y-85425789D01*
X54802262Y-85329816D01*
X54929816Y-85202262D01*
X55025789Y-85049522D01*
X55085368Y-84879255D01*
X55105565Y-84700000D01*
X55085368Y-84520745D01*
X55025789Y-84350478D01*
X54929816Y-84197738D01*
X54802262Y-84070184D01*
X54649523Y-83974211D01*
X54479254Y-83914631D01*
X54479249Y-83914630D01*
X54300004Y-83894435D01*
X54299996Y-83894435D01*
X54120750Y-83914630D01*
X54120745Y-83914631D01*
X53950476Y-83974211D01*
X53797737Y-84070184D01*
X53670184Y-84197737D01*
X53600000Y-84309434D01*
X53600000Y-81749996D01*
X57914435Y-81749996D01*
X57914435Y-81750003D01*
X57934630Y-81929249D01*
X57934631Y-81929254D01*
X57994211Y-82099523D01*
X58090184Y-82252262D01*
X58217738Y-82379816D01*
X58370478Y-82475789D01*
X58540745Y-82535368D01*
X58540750Y-82535369D01*
X58719996Y-82555565D01*
X58720000Y-82555565D01*
X58720004Y-82555565D01*
X58899249Y-82535369D01*
X58899252Y-82535368D01*
X58899255Y-82535368D01*
X59069522Y-82475789D01*
X59222262Y-82379816D01*
X59349816Y-82252262D01*
X59445789Y-82099522D01*
X59505368Y-81929255D01*
X59525565Y-81750000D01*
X59505368Y-81570745D01*
X59445789Y-81400478D01*
X59349816Y-81247738D01*
X59222262Y-81120184D01*
X59069523Y-81024211D01*
X58899254Y-80964631D01*
X58899249Y-80964630D01*
X58720004Y-80944435D01*
X58719996Y-80944435D01*
X58540750Y-80964630D01*
X58540745Y-80964631D01*
X58370476Y-81024211D01*
X58217737Y-81120184D01*
X58090184Y-81247737D01*
X57994211Y-81400476D01*
X57934631Y-81570745D01*
X57934630Y-81570750D01*
X57914435Y-81749996D01*
X53600000Y-81749996D01*
X53600000Y-78359833D01*
X53693733Y-78216364D01*
X53793587Y-77988717D01*
X53854612Y-77747738D01*
X53854614Y-77747729D01*
X53875141Y-77500005D01*
X53875141Y-77499994D01*
X57364859Y-77499994D01*
X57364859Y-77500005D01*
X57385385Y-77747729D01*
X57385387Y-77747738D01*
X57446412Y-77988717D01*
X57546267Y-78216367D01*
X57646562Y-78369881D01*
X58346212Y-77670233D01*
X58357482Y-77712292D01*
X58429890Y-77837708D01*
X58532292Y-77940110D01*
X58657708Y-78012518D01*
X58699766Y-78023787D01*
X57999943Y-78723609D01*
X58046768Y-78760055D01*
X58046771Y-78760057D01*
X58265385Y-78878364D01*
X58265396Y-78878369D01*
X58500506Y-78959083D01*
X58745707Y-79000000D01*
X58994293Y-79000000D01*
X59239493Y-78959083D01*
X59474603Y-78878369D01*
X59474614Y-78878364D01*
X59693230Y-78760056D01*
X59693236Y-78760051D01*
X59740055Y-78723610D01*
X59740056Y-78723609D01*
X59040233Y-78023787D01*
X59082292Y-78012518D01*
X59207708Y-77940110D01*
X59310110Y-77837708D01*
X59382518Y-77712292D01*
X59393787Y-77670234D01*
X60093435Y-78369882D01*
X60193733Y-78216364D01*
X60293587Y-77988717D01*
X60354612Y-77747738D01*
X60354614Y-77747729D01*
X60375141Y-77500005D01*
X60375141Y-77499994D01*
X60354614Y-77252270D01*
X60354612Y-77252261D01*
X60328715Y-77149999D01*
X63564341Y-77149999D01*
X63564341Y-77150000D01*
X63584936Y-77385403D01*
X63584938Y-77385413D01*
X63646094Y-77613655D01*
X63646096Y-77613659D01*
X63646097Y-77613663D01*
X63745965Y-77827830D01*
X63745967Y-77827834D01*
X63824584Y-77940110D01*
X63881505Y-78021401D01*
X64048599Y-78188495D01*
X64145384Y-78256265D01*
X64242165Y-78324032D01*
X64242167Y-78324033D01*
X64242170Y-78324035D01*
X64456337Y-78423903D01*
X64684592Y-78485063D01*
X64872918Y-78501539D01*
X64919999Y-78505659D01*
X64920000Y-78505659D01*
X64920001Y-78505659D01*
X64959234Y-78502226D01*
X65155408Y-78485063D01*
X65383663Y-78423903D01*
X65597830Y-78324035D01*
X65791401Y-78188495D01*
X65958495Y-78021401D01*
X66094035Y-77827830D01*
X66193903Y-77613663D01*
X66255063Y-77385408D01*
X66275659Y-77150000D01*
X66255063Y-76914592D01*
X66193903Y-76686337D01*
X66094035Y-76472171D01*
X65958495Y-76278599D01*
X65836567Y-76156671D01*
X65803084Y-76095351D01*
X65808068Y-76025659D01*
X65849939Y-75969725D01*
X65880915Y-75952810D01*
X66012331Y-75903796D01*
X66127546Y-75817546D01*
X66213796Y-75702331D01*
X66264091Y-75567483D01*
X66270500Y-75507873D01*
X66270499Y-73712128D01*
X66264091Y-73652517D01*
X66213796Y-73517669D01*
X66213795Y-73517668D01*
X66213793Y-73517664D01*
X66127547Y-73402455D01*
X66127544Y-73402452D01*
X66012335Y-73316206D01*
X66012328Y-73316202D01*
X65877482Y-73265908D01*
X65877483Y-73265908D01*
X65817883Y-73259501D01*
X65817881Y-73259500D01*
X65817873Y-73259500D01*
X65817864Y-73259500D01*
X64022129Y-73259500D01*
X64022123Y-73259501D01*
X63962516Y-73265908D01*
X63827671Y-73316202D01*
X63827664Y-73316206D01*
X63712455Y-73402452D01*
X63712452Y-73402455D01*
X63626206Y-73517664D01*
X63626202Y-73517671D01*
X63575908Y-73652517D01*
X63569501Y-73712116D01*
X63569501Y-73712123D01*
X63569500Y-73712135D01*
X63569500Y-75507870D01*
X63569501Y-75507876D01*
X63575908Y-75567483D01*
X63626202Y-75702328D01*
X63626206Y-75702335D01*
X63712452Y-75817544D01*
X63712455Y-75817547D01*
X63827664Y-75903793D01*
X63827671Y-75903797D01*
X63959081Y-75952810D01*
X64015015Y-75994681D01*
X64039432Y-76060145D01*
X64024580Y-76128418D01*
X64003430Y-76156673D01*
X63881503Y-76278600D01*
X63745965Y-76472169D01*
X63745964Y-76472171D01*
X63646098Y-76686335D01*
X63646094Y-76686344D01*
X63584938Y-76914586D01*
X63584936Y-76914596D01*
X63564341Y-77149999D01*
X60328715Y-77149999D01*
X60293587Y-77011282D01*
X60193732Y-76783632D01*
X60093435Y-76630116D01*
X59393787Y-77329765D01*
X59382518Y-77287708D01*
X59310110Y-77162292D01*
X59207708Y-77059890D01*
X59082292Y-76987482D01*
X59040233Y-76976212D01*
X59740055Y-76276389D01*
X59740055Y-76276388D01*
X59693236Y-76239947D01*
X59693231Y-76239944D01*
X59474614Y-76121635D01*
X59474603Y-76121630D01*
X59239493Y-76040916D01*
X58994293Y-76000000D01*
X58745707Y-76000000D01*
X58500506Y-76040916D01*
X58265396Y-76121630D01*
X58265385Y-76121635D01*
X58046770Y-76239943D01*
X57999943Y-76276389D01*
X58699766Y-76976212D01*
X58657708Y-76987482D01*
X58532292Y-77059890D01*
X58429890Y-77162292D01*
X58357482Y-77287708D01*
X58346212Y-77329766D01*
X57646563Y-76630117D01*
X57546267Y-76783633D01*
X57546265Y-76783637D01*
X57446412Y-77011282D01*
X57385387Y-77252261D01*
X57385385Y-77252270D01*
X57364859Y-77499994D01*
X53875141Y-77499994D01*
X53854614Y-77252270D01*
X53854612Y-77252261D01*
X53793587Y-77011282D01*
X53693732Y-76783632D01*
X53600000Y-76640164D01*
X53600000Y-73860750D01*
X53694173Y-73716607D01*
X53794063Y-73488881D01*
X53855108Y-73247821D01*
X53875643Y-73000000D01*
X53875643Y-72999994D01*
X57364357Y-72999994D01*
X57364357Y-73000005D01*
X57384890Y-73247812D01*
X57384892Y-73247824D01*
X57445936Y-73488881D01*
X57545826Y-73716606D01*
X57681833Y-73924782D01*
X57681836Y-73924785D01*
X57850256Y-74107738D01*
X58046491Y-74260474D01*
X58265190Y-74378828D01*
X58500386Y-74459571D01*
X58745665Y-74500500D01*
X58994335Y-74500500D01*
X59239614Y-74459571D01*
X59474810Y-74378828D01*
X59693509Y-74260474D01*
X59889744Y-74107738D01*
X60058164Y-73924785D01*
X60194173Y-73716607D01*
X60294063Y-73488881D01*
X60355108Y-73247821D01*
X60375643Y-73000000D01*
X60355108Y-72752179D01*
X60294063Y-72511119D01*
X60194173Y-72283393D01*
X60058166Y-72075217D01*
X60036557Y-72051744D01*
X59889744Y-71892262D01*
X59693509Y-71739526D01*
X59693507Y-71739525D01*
X59693506Y-71739524D01*
X59474811Y-71621172D01*
X59474802Y-71621169D01*
X59239616Y-71540429D01*
X58994335Y-71499500D01*
X58745665Y-71499500D01*
X58500383Y-71540429D01*
X58265197Y-71621169D01*
X58265188Y-71621172D01*
X58046493Y-71739524D01*
X57850257Y-71892261D01*
X57681833Y-72075217D01*
X57545826Y-72283393D01*
X57445936Y-72511118D01*
X57384892Y-72752175D01*
X57384890Y-72752187D01*
X57364357Y-72999994D01*
X53875643Y-72999994D01*
X53855108Y-72752179D01*
X53794063Y-72511119D01*
X53694173Y-72283393D01*
X53600000Y-72139249D01*
X53600000Y-68599996D01*
X65394435Y-68599996D01*
X65394435Y-68600003D01*
X65414630Y-68779249D01*
X65414631Y-68779254D01*
X65474211Y-68949523D01*
X65570184Y-69102262D01*
X65697738Y-69229816D01*
X65850478Y-69325789D01*
X66020745Y-69385368D01*
X66020750Y-69385369D01*
X66199996Y-69405565D01*
X66200000Y-69405565D01*
X66200004Y-69405565D01*
X66379249Y-69385369D01*
X66379252Y-69385368D01*
X66379255Y-69385368D01*
X66549522Y-69325789D01*
X66702262Y-69229816D01*
X66829816Y-69102262D01*
X66925789Y-68949522D01*
X66985368Y-68779255D01*
X67005565Y-68600000D01*
X66985368Y-68420745D01*
X66925789Y-68250478D01*
X66829816Y-68097738D01*
X66702262Y-67970184D01*
X66549523Y-67874211D01*
X66379254Y-67814631D01*
X66379249Y-67814630D01*
X66200004Y-67794435D01*
X66199996Y-67794435D01*
X66020750Y-67814630D01*
X66020745Y-67814631D01*
X65850476Y-67874211D01*
X65697737Y-67970184D01*
X65570184Y-68097737D01*
X65474211Y-68250476D01*
X65414631Y-68420745D01*
X65414630Y-68420750D01*
X65394435Y-68599996D01*
X53600000Y-68599996D01*
X53600000Y-66250000D01*
X68653673Y-66250000D01*
X68720712Y-66269685D01*
G37*
%TD.AperFunction*%
%TD*%
%TA.AperFunction,Conductor*%
%TO.N,GND*%
G36*
X35879419Y-96757252D02*
G01*
X35894211Y-96799523D01*
X35979569Y-96935368D01*
X35990184Y-96952262D01*
X36117738Y-97079816D01*
X36270478Y-97175789D01*
X36440745Y-97235368D01*
X36440750Y-97235369D01*
X36619996Y-97255565D01*
X36620000Y-97255565D01*
X36620004Y-97255565D01*
X36799249Y-97235369D01*
X36799252Y-97235368D01*
X36799255Y-97235368D01*
X36969522Y-97175789D01*
X37122262Y-97079816D01*
X37249816Y-96952262D01*
X37345789Y-96799522D01*
X37353513Y-96777445D01*
X44516992Y-96875575D01*
X44527767Y-96971211D01*
X44527768Y-96971216D01*
X44587348Y-97141485D01*
X44608903Y-97175789D01*
X44683321Y-97294224D01*
X44810875Y-97421778D01*
X44963615Y-97517751D01*
X45133882Y-97577330D01*
X45133887Y-97577331D01*
X45313133Y-97597527D01*
X45313137Y-97597527D01*
X45313141Y-97597527D01*
X45492386Y-97577331D01*
X45492389Y-97577330D01*
X45492392Y-97577330D01*
X45662659Y-97517751D01*
X45815399Y-97421778D01*
X45942953Y-97294224D01*
X46038926Y-97141484D01*
X46098505Y-96971217D01*
X46106827Y-96897353D01*
X53600000Y-97000000D01*
X53600000Y-112500000D01*
X22224000Y-112500000D01*
X22156961Y-112480315D01*
X22111206Y-112427511D01*
X22100000Y-112376000D01*
X22100000Y-106999999D01*
X24454728Y-106999999D01*
X24454729Y-107000000D01*
X25549252Y-107000000D01*
X25527482Y-107037708D01*
X25490000Y-107177591D01*
X25490000Y-107322409D01*
X25527482Y-107462292D01*
X25549252Y-107500000D01*
X24454728Y-107500000D01*
X24454811Y-107501067D01*
X24513603Y-107745956D01*
X24609980Y-107978631D01*
X24741568Y-108193362D01*
X24741571Y-108193367D01*
X24905130Y-108384869D01*
X25096632Y-108548428D01*
X25096637Y-108548431D01*
X25311368Y-108680019D01*
X25544043Y-108776396D01*
X25788932Y-108835188D01*
X25789999Y-108835271D01*
X25790000Y-108835271D01*
X25790000Y-107740747D01*
X25827708Y-107762518D01*
X25967591Y-107800000D01*
X26112409Y-107800000D01*
X26252292Y-107762518D01*
X26290000Y-107740747D01*
X26290000Y-108835271D01*
X26291067Y-108835188D01*
X26535956Y-108776396D01*
X26768631Y-108680019D01*
X26983362Y-108548431D01*
X26983367Y-108548428D01*
X27174869Y-108384869D01*
X27338428Y-108193367D01*
X27338431Y-108193362D01*
X27470019Y-107978631D01*
X27566396Y-107745956D01*
X27625188Y-107501067D01*
X27625272Y-107500000D01*
X26530748Y-107500000D01*
X26552518Y-107462292D01*
X26590000Y-107322409D01*
X26590000Y-107177591D01*
X26552518Y-107037708D01*
X26530748Y-107000000D01*
X27625271Y-107000000D01*
X27625271Y-106999999D01*
X27625188Y-106998932D01*
X27566396Y-106754043D01*
X27470019Y-106521368D01*
X27338431Y-106306637D01*
X27338428Y-106306632D01*
X27174869Y-106115130D01*
X27159654Y-106102135D01*
X34599500Y-106102135D01*
X34599500Y-108397870D01*
X34599501Y-108397876D01*
X34605908Y-108457483D01*
X34656202Y-108592328D01*
X34656206Y-108592335D01*
X34742452Y-108707544D01*
X34742455Y-108707547D01*
X34857664Y-108793793D01*
X34857671Y-108793797D01*
X34992517Y-108844091D01*
X34992516Y-108844091D01*
X34999444Y-108844835D01*
X35052127Y-108850500D01*
X37347872Y-108850499D01*
X37407483Y-108844091D01*
X37542331Y-108793796D01*
X37657546Y-108707546D01*
X37743796Y-108592331D01*
X37794091Y-108457483D01*
X37800500Y-108397873D01*
X37800499Y-106597278D01*
X40719500Y-106597278D01*
X40719500Y-108617721D01*
X40753985Y-108835452D01*
X40822103Y-109045103D01*
X40822104Y-109045106D01*
X40890122Y-109178596D01*
X40904854Y-109207509D01*
X40922187Y-109241525D01*
X41051752Y-109419858D01*
X41051756Y-109419863D01*
X41207636Y-109575743D01*
X41207641Y-109575747D01*
X41363192Y-109688760D01*
X41385978Y-109705315D01*
X41514375Y-109770737D01*
X41582393Y-109805395D01*
X41582396Y-109805396D01*
X41687221Y-109839455D01*
X41792049Y-109873515D01*
X42009778Y-109908000D01*
X42009779Y-109908000D01*
X42230221Y-109908000D01*
X42230222Y-109908000D01*
X42447951Y-109873515D01*
X42657606Y-109805395D01*
X42854022Y-109705315D01*
X43032365Y-109575742D01*
X43188242Y-109419865D01*
X43317815Y-109241522D01*
X43417895Y-109045106D01*
X43486015Y-108835451D01*
X43520500Y-108617722D01*
X43520500Y-106597278D01*
X44219500Y-106597278D01*
X44219500Y-108617721D01*
X44253985Y-108835452D01*
X44322103Y-109045103D01*
X44322104Y-109045106D01*
X44390122Y-109178596D01*
X44404854Y-109207509D01*
X44422187Y-109241525D01*
X44551752Y-109419858D01*
X44551756Y-109419863D01*
X44707636Y-109575743D01*
X44707641Y-109575747D01*
X44863192Y-109688760D01*
X44885978Y-109705315D01*
X45014375Y-109770737D01*
X45082393Y-109805395D01*
X45082396Y-109805396D01*
X45187221Y-109839455D01*
X45292049Y-109873515D01*
X45509778Y-109908000D01*
X45509779Y-109908000D01*
X45730221Y-109908000D01*
X45730222Y-109908000D01*
X45947951Y-109873515D01*
X46157606Y-109805395D01*
X46354022Y-109705315D01*
X46532365Y-109575742D01*
X46688242Y-109419865D01*
X46817815Y-109241522D01*
X46917895Y-109045106D01*
X46986015Y-108835451D01*
X47020500Y-108617722D01*
X47020500Y-106597278D01*
X46986015Y-106379549D01*
X46917895Y-106169894D01*
X46917895Y-106169893D01*
X46835149Y-106007498D01*
X46835141Y-106007483D01*
X47719500Y-106007483D01*
X47719500Y-109207501D01*
X47719501Y-109207518D01*
X47730000Y-109310296D01*
X47730001Y-109310299D01*
X47766308Y-109419865D01*
X47785186Y-109476834D01*
X47877288Y-109626156D01*
X48001344Y-109750212D01*
X48150666Y-109842314D01*
X48317203Y-109897499D01*
X48419991Y-109908000D01*
X49820008Y-109907999D01*
X49922797Y-109897499D01*
X50089334Y-109842314D01*
X50238656Y-109750212D01*
X50362712Y-109626156D01*
X50454814Y-109476834D01*
X50509999Y-109310297D01*
X50520500Y-109207509D01*
X50520499Y-106007492D01*
X50517024Y-105973478D01*
X50509999Y-105904703D01*
X50509998Y-105904700D01*
X50454814Y-105738166D01*
X50362712Y-105588844D01*
X50238656Y-105464788D01*
X50089334Y-105372686D01*
X49922797Y-105317501D01*
X49922795Y-105317500D01*
X49820010Y-105307000D01*
X48419998Y-105307000D01*
X48419981Y-105307001D01*
X48317203Y-105317500D01*
X48317200Y-105317501D01*
X48150668Y-105372685D01*
X48150663Y-105372687D01*
X48001342Y-105464789D01*
X47877289Y-105588842D01*
X47785187Y-105738163D01*
X47785186Y-105738166D01*
X47730001Y-105904703D01*
X47730001Y-105904704D01*
X47730000Y-105904704D01*
X47719500Y-106007483D01*
X46835141Y-106007483D01*
X46817815Y-105973478D01*
X46767848Y-105904704D01*
X46688247Y-105795141D01*
X46688243Y-105795136D01*
X46532363Y-105639256D01*
X46532358Y-105639252D01*
X46354025Y-105509687D01*
X46354024Y-105509686D01*
X46354022Y-105509685D01*
X46265908Y-105464788D01*
X46157606Y-105409604D01*
X46157603Y-105409603D01*
X45947952Y-105341485D01*
X45796516Y-105317500D01*
X45730222Y-105307000D01*
X45509778Y-105307000D01*
X45443484Y-105317500D01*
X45292047Y-105341485D01*
X45082396Y-105409603D01*
X45082393Y-105409604D01*
X44885974Y-105509687D01*
X44707641Y-105639252D01*
X44707636Y-105639256D01*
X44551756Y-105795136D01*
X44551752Y-105795141D01*
X44422187Y-105973474D01*
X44322104Y-106169893D01*
X44322103Y-106169896D01*
X44253985Y-106379547D01*
X44219500Y-106597278D01*
X43520500Y-106597278D01*
X43486015Y-106379549D01*
X43417895Y-106169894D01*
X43417895Y-106169893D01*
X43335149Y-106007498D01*
X43317815Y-105973478D01*
X43267848Y-105904704D01*
X43188247Y-105795141D01*
X43188243Y-105795136D01*
X43032363Y-105639256D01*
X43032358Y-105639252D01*
X42854025Y-105509687D01*
X42854024Y-105509686D01*
X42854022Y-105509685D01*
X42765908Y-105464788D01*
X42657606Y-105409604D01*
X42657603Y-105409603D01*
X42447952Y-105341485D01*
X42296516Y-105317500D01*
X42230222Y-105307000D01*
X42009778Y-105307000D01*
X41943484Y-105317500D01*
X41792047Y-105341485D01*
X41582396Y-105409603D01*
X41582393Y-105409604D01*
X41385974Y-105509687D01*
X41207641Y-105639252D01*
X41207636Y-105639256D01*
X41051756Y-105795136D01*
X41051752Y-105795141D01*
X40922187Y-105973474D01*
X40822104Y-106169893D01*
X40822103Y-106169896D01*
X40753985Y-106379547D01*
X40719500Y-106597278D01*
X37800499Y-106597278D01*
X37800499Y-106102128D01*
X37794091Y-106042517D01*
X37781027Y-106007491D01*
X37743797Y-105907671D01*
X37743793Y-105907664D01*
X37657547Y-105792455D01*
X37657544Y-105792452D01*
X37542335Y-105706206D01*
X37542328Y-105706202D01*
X37407482Y-105655908D01*
X37407483Y-105655908D01*
X37347883Y-105649501D01*
X37347881Y-105649500D01*
X37347873Y-105649500D01*
X37347864Y-105649500D01*
X35052129Y-105649500D01*
X35052123Y-105649501D01*
X34992516Y-105655908D01*
X34857671Y-105706202D01*
X34857664Y-105706206D01*
X34742455Y-105792452D01*
X34742452Y-105792455D01*
X34656206Y-105907664D01*
X34656202Y-105907671D01*
X34605908Y-106042517D01*
X34599501Y-106102116D01*
X34599501Y-106102123D01*
X34599500Y-106102135D01*
X27159654Y-106102135D01*
X26983367Y-105951571D01*
X26983362Y-105951568D01*
X26768631Y-105819980D01*
X26535956Y-105723603D01*
X26291064Y-105664811D01*
X26290000Y-105664726D01*
X26290000Y-106759252D01*
X26252292Y-106737482D01*
X26112409Y-106700000D01*
X25967591Y-106700000D01*
X25827708Y-106737482D01*
X25790000Y-106759252D01*
X25790000Y-105664726D01*
X25788935Y-105664811D01*
X25544043Y-105723603D01*
X25311368Y-105819980D01*
X25096637Y-105951568D01*
X25096632Y-105951571D01*
X24905130Y-106115130D01*
X24741571Y-106306632D01*
X24741568Y-106306637D01*
X24609980Y-106521368D01*
X24513603Y-106754043D01*
X24454811Y-106998932D01*
X24454728Y-106999999D01*
X22100000Y-106999999D01*
X22100000Y-103499999D01*
X24454728Y-103499999D01*
X24454729Y-103500000D01*
X25549252Y-103500000D01*
X25527482Y-103537708D01*
X25490000Y-103677591D01*
X25490000Y-103822409D01*
X25527482Y-103962292D01*
X25549252Y-104000000D01*
X24454728Y-104000000D01*
X24454811Y-104001067D01*
X24513603Y-104245956D01*
X24609980Y-104478631D01*
X24741568Y-104693362D01*
X24741571Y-104693367D01*
X24905130Y-104884869D01*
X25096632Y-105048428D01*
X25096637Y-105048431D01*
X25311368Y-105180019D01*
X25544043Y-105276396D01*
X25788932Y-105335188D01*
X25789999Y-105335271D01*
X25790000Y-105335271D01*
X25790000Y-104240747D01*
X25827708Y-104262518D01*
X25967591Y-104300000D01*
X26112409Y-104300000D01*
X26252292Y-104262518D01*
X26290000Y-104240747D01*
X26290000Y-105335271D01*
X26291067Y-105335188D01*
X26535956Y-105276396D01*
X26768631Y-105180019D01*
X26983362Y-105048431D01*
X26983367Y-105048428D01*
X27174869Y-104884869D01*
X27338428Y-104693367D01*
X27338431Y-104693362D01*
X27470019Y-104478631D01*
X27566396Y-104245956D01*
X27625188Y-104001067D01*
X27625272Y-104000000D01*
X26530748Y-104000000D01*
X26552518Y-103962292D01*
X26590000Y-103822409D01*
X26590000Y-103677591D01*
X26552518Y-103537708D01*
X26530748Y-103500000D01*
X27625271Y-103500000D01*
X27625271Y-103499999D01*
X27625188Y-103498932D01*
X27566396Y-103254043D01*
X27470019Y-103021368D01*
X27338431Y-102806637D01*
X27338428Y-102806632D01*
X27174869Y-102615130D01*
X27159654Y-102602135D01*
X34599500Y-102602135D01*
X34599500Y-104897870D01*
X34599501Y-104897876D01*
X34605908Y-104957483D01*
X34656202Y-105092328D01*
X34656206Y-105092335D01*
X34742452Y-105207544D01*
X34742455Y-105207547D01*
X34857664Y-105293793D01*
X34857671Y-105293797D01*
X34992517Y-105344091D01*
X34992516Y-105344091D01*
X34999444Y-105344835D01*
X35052127Y-105350500D01*
X37347872Y-105350499D01*
X37407483Y-105344091D01*
X37542331Y-105293796D01*
X37657546Y-105207546D01*
X37743796Y-105092331D01*
X37794091Y-104957483D01*
X37800500Y-104897873D01*
X37800499Y-102602128D01*
X37794091Y-102542517D01*
X37760170Y-102451571D01*
X37743797Y-102407671D01*
X37743793Y-102407664D01*
X37657547Y-102292455D01*
X37657544Y-102292452D01*
X37542335Y-102206206D01*
X37542328Y-102206202D01*
X37407482Y-102155908D01*
X37407483Y-102155908D01*
X37347883Y-102149501D01*
X37347881Y-102149500D01*
X37347873Y-102149500D01*
X37347864Y-102149500D01*
X35052129Y-102149500D01*
X35052123Y-102149501D01*
X34992516Y-102155908D01*
X34857671Y-102206202D01*
X34857664Y-102206206D01*
X34742455Y-102292452D01*
X34742452Y-102292455D01*
X34656206Y-102407664D01*
X34656202Y-102407671D01*
X34605908Y-102542517D01*
X34599501Y-102602116D01*
X34599501Y-102602123D01*
X34599500Y-102602135D01*
X27159654Y-102602135D01*
X26983367Y-102451571D01*
X26983362Y-102451568D01*
X26768631Y-102319980D01*
X26535956Y-102223603D01*
X26291064Y-102164811D01*
X26290000Y-102164726D01*
X26290000Y-103259252D01*
X26252292Y-103237482D01*
X26112409Y-103200000D01*
X25967591Y-103200000D01*
X25827708Y-103237482D01*
X25790000Y-103259252D01*
X25790000Y-102164726D01*
X25788935Y-102164811D01*
X25544043Y-102223603D01*
X25311368Y-102319980D01*
X25096637Y-102451568D01*
X25096632Y-102451571D01*
X24905130Y-102615130D01*
X24741571Y-102806632D01*
X24741568Y-102806637D01*
X24609980Y-103021368D01*
X24513603Y-103254043D01*
X24454811Y-103498932D01*
X24454728Y-103499999D01*
X22100000Y-103499999D01*
X22100000Y-99999999D01*
X24454728Y-99999999D01*
X24454729Y-100000000D01*
X25549252Y-100000000D01*
X25527482Y-100037708D01*
X25490000Y-100177591D01*
X25490000Y-100322409D01*
X25527482Y-100462292D01*
X25549252Y-100500000D01*
X24454728Y-100500000D01*
X24454811Y-100501067D01*
X24513603Y-100745956D01*
X24609980Y-100978631D01*
X24741568Y-101193362D01*
X24741571Y-101193367D01*
X24905130Y-101384869D01*
X25096632Y-101548428D01*
X25096637Y-101548431D01*
X25311368Y-101680019D01*
X25544043Y-101776396D01*
X25788932Y-101835188D01*
X25789999Y-101835271D01*
X25790000Y-101835271D01*
X25790000Y-100740747D01*
X25827708Y-100762518D01*
X25967591Y-100800000D01*
X26112409Y-100800000D01*
X26252292Y-100762518D01*
X26290000Y-100740747D01*
X26290000Y-101835271D01*
X26291067Y-101835188D01*
X26535956Y-101776396D01*
X26768631Y-101680019D01*
X26983362Y-101548431D01*
X26983367Y-101548428D01*
X27174869Y-101384869D01*
X27338428Y-101193367D01*
X27338431Y-101193362D01*
X27470019Y-100978631D01*
X27566396Y-100745956D01*
X27625188Y-100501067D01*
X27625272Y-100500000D01*
X26530748Y-100500000D01*
X26552518Y-100462292D01*
X26590000Y-100322409D01*
X26590000Y-100177591D01*
X26552518Y-100037708D01*
X26530748Y-100000000D01*
X27625271Y-100000000D01*
X27625271Y-99999999D01*
X27625188Y-99998932D01*
X27566396Y-99754043D01*
X27470019Y-99521368D01*
X27338431Y-99306637D01*
X27338428Y-99306632D01*
X27174869Y-99115130D01*
X27159654Y-99102135D01*
X34599500Y-99102135D01*
X34599500Y-101397870D01*
X34599501Y-101397876D01*
X34605908Y-101457483D01*
X34656202Y-101592328D01*
X34656206Y-101592335D01*
X34742452Y-101707544D01*
X34742455Y-101707547D01*
X34857664Y-101793793D01*
X34857671Y-101793797D01*
X34992517Y-101844091D01*
X34992516Y-101844091D01*
X34999444Y-101844835D01*
X35052127Y-101850500D01*
X37347872Y-101850499D01*
X37407483Y-101844091D01*
X37542331Y-101793796D01*
X37657546Y-101707546D01*
X37743796Y-101592331D01*
X37794091Y-101457483D01*
X37800500Y-101397873D01*
X37800499Y-99102128D01*
X37794091Y-99042517D01*
X37760170Y-98951571D01*
X37743797Y-98907671D01*
X37743793Y-98907664D01*
X37657547Y-98792455D01*
X37657544Y-98792452D01*
X37542335Y-98706206D01*
X37542328Y-98706202D01*
X37407482Y-98655908D01*
X37407483Y-98655908D01*
X37347883Y-98649501D01*
X37347881Y-98649500D01*
X37347873Y-98649500D01*
X37347864Y-98649500D01*
X35052129Y-98649500D01*
X35052123Y-98649501D01*
X34992516Y-98655908D01*
X34857671Y-98706202D01*
X34857664Y-98706206D01*
X34742455Y-98792452D01*
X34742452Y-98792455D01*
X34656206Y-98907664D01*
X34656202Y-98907671D01*
X34605908Y-99042517D01*
X34599501Y-99102116D01*
X34599501Y-99102123D01*
X34599500Y-99102135D01*
X27159654Y-99102135D01*
X26983367Y-98951571D01*
X26983362Y-98951568D01*
X26768631Y-98819980D01*
X26535956Y-98723603D01*
X26291064Y-98664811D01*
X26290000Y-98664726D01*
X26290000Y-99759252D01*
X26252292Y-99737482D01*
X26112409Y-99700000D01*
X25967591Y-99700000D01*
X25827708Y-99737482D01*
X25790000Y-99759252D01*
X25790000Y-98664726D01*
X25788935Y-98664811D01*
X25544043Y-98723603D01*
X25311368Y-98819980D01*
X25096637Y-98951568D01*
X25096632Y-98951571D01*
X24905130Y-99115130D01*
X24741571Y-99306632D01*
X24741568Y-99306637D01*
X24609980Y-99521368D01*
X24513603Y-99754043D01*
X24454811Y-99998932D01*
X24454728Y-99999999D01*
X22100000Y-99999999D01*
X22100000Y-96568493D01*
X35879419Y-96757252D01*
G37*
%TD.AperFunction*%
%TD*%
%TA.AperFunction,Conductor*%
%TO.N,GND*%
G36*
X49625706Y-62019685D02*
G01*
X49633062Y-62024796D01*
X51087216Y-63115412D01*
X53550400Y-64962800D01*
X53592221Y-65018771D01*
X53600000Y-65062000D01*
X53600000Y-72139250D01*
X53558164Y-72075215D01*
X53389744Y-71892262D01*
X53193509Y-71739526D01*
X53193507Y-71739525D01*
X53193506Y-71739524D01*
X52974811Y-71621172D01*
X52974802Y-71621169D01*
X52739616Y-71540429D01*
X52494335Y-71499500D01*
X52245665Y-71499500D01*
X52000383Y-71540429D01*
X51765197Y-71621169D01*
X51765188Y-71621172D01*
X51546493Y-71739524D01*
X51350257Y-71892261D01*
X51181833Y-72075217D01*
X51045826Y-72283393D01*
X50945936Y-72511118D01*
X50884892Y-72752175D01*
X50884890Y-72752187D01*
X50864357Y-72999994D01*
X50864357Y-73000005D01*
X50884890Y-73247812D01*
X50884892Y-73247824D01*
X50945936Y-73488881D01*
X51045826Y-73716606D01*
X51181833Y-73924782D01*
X51214245Y-73959991D01*
X51350256Y-74107738D01*
X51546491Y-74260474D01*
X51765190Y-74378828D01*
X52000386Y-74459571D01*
X52245665Y-74500500D01*
X52494335Y-74500500D01*
X52739614Y-74459571D01*
X52974810Y-74378828D01*
X53193509Y-74260474D01*
X53389744Y-74107738D01*
X53558164Y-73924785D01*
X53600000Y-73860750D01*
X53600000Y-76640164D01*
X53593435Y-76630116D01*
X52893787Y-77329765D01*
X52882518Y-77287708D01*
X52810110Y-77162292D01*
X52707708Y-77059890D01*
X52582292Y-76987482D01*
X52540233Y-76976212D01*
X53240055Y-76276389D01*
X53240055Y-76276388D01*
X53193236Y-76239947D01*
X53193231Y-76239944D01*
X52974614Y-76121635D01*
X52974603Y-76121630D01*
X52739493Y-76040916D01*
X52494293Y-76000000D01*
X52245707Y-76000000D01*
X52000506Y-76040916D01*
X51765396Y-76121630D01*
X51765385Y-76121635D01*
X51546770Y-76239943D01*
X51499943Y-76276389D01*
X52199766Y-76976212D01*
X52157708Y-76987482D01*
X52032292Y-77059890D01*
X51929890Y-77162292D01*
X51857482Y-77287708D01*
X51846212Y-77329766D01*
X51146563Y-76630117D01*
X51046267Y-76783633D01*
X51046265Y-76783637D01*
X50946412Y-77011282D01*
X50885387Y-77252261D01*
X50885385Y-77252270D01*
X50864859Y-77499994D01*
X50864859Y-77500005D01*
X50885385Y-77747729D01*
X50885387Y-77747738D01*
X50946412Y-77988717D01*
X51046267Y-78216367D01*
X51146562Y-78369881D01*
X51846212Y-77670233D01*
X51857482Y-77712292D01*
X51929890Y-77837708D01*
X52032292Y-77940110D01*
X52157708Y-78012518D01*
X52199766Y-78023787D01*
X51499943Y-78723609D01*
X51546768Y-78760055D01*
X51546771Y-78760057D01*
X51765385Y-78878364D01*
X51765396Y-78878369D01*
X52000506Y-78959083D01*
X52245707Y-79000000D01*
X52494293Y-79000000D01*
X52739493Y-78959083D01*
X52974603Y-78878369D01*
X52974614Y-78878364D01*
X53193230Y-78760056D01*
X53193236Y-78760051D01*
X53240055Y-78723610D01*
X53240056Y-78723609D01*
X52540233Y-78023787D01*
X52582292Y-78012518D01*
X52707708Y-77940110D01*
X52810110Y-77837708D01*
X52882518Y-77712292D01*
X52893787Y-77670234D01*
X53593435Y-78369882D01*
X53600000Y-78359833D01*
X53600000Y-84309433D01*
X53574211Y-84350476D01*
X53514631Y-84520745D01*
X53514630Y-84520750D01*
X53494435Y-84699996D01*
X53494435Y-84700003D01*
X53514630Y-84879249D01*
X53514631Y-84879254D01*
X53574211Y-85049523D01*
X53600000Y-85090565D01*
X53600000Y-97000000D01*
X46106827Y-96897353D01*
X46113464Y-96838452D01*
X46140530Y-96774038D01*
X46198125Y-96734483D01*
X46267962Y-96732345D01*
X46277639Y-96735293D01*
X46420745Y-96785368D01*
X46420750Y-96785369D01*
X46599996Y-96805565D01*
X46600000Y-96805565D01*
X46600004Y-96805565D01*
X46779249Y-96785369D01*
X46779252Y-96785368D01*
X46779255Y-96785368D01*
X46949522Y-96725789D01*
X47102262Y-96629816D01*
X47229816Y-96502262D01*
X47325789Y-96349522D01*
X47385368Y-96179255D01*
X47388664Y-96150003D01*
X47405565Y-96000003D01*
X47405565Y-95999996D01*
X47385369Y-95820750D01*
X47385368Y-95820745D01*
X47346625Y-95710024D01*
X47325789Y-95650478D01*
X47324067Y-95647738D01*
X47255780Y-95539059D01*
X47229816Y-95497738D01*
X47102262Y-95370184D01*
X46949523Y-95274211D01*
X46779254Y-95214631D01*
X46779249Y-95214630D01*
X46600004Y-95194435D01*
X46599996Y-95194435D01*
X46420750Y-95214630D01*
X46420745Y-95214631D01*
X46250476Y-95274211D01*
X46097737Y-95370184D01*
X45987681Y-95480241D01*
X45926358Y-95513726D01*
X45856666Y-95508742D01*
X45812319Y-95480241D01*
X45702262Y-95370184D01*
X45549523Y-95274211D01*
X45379254Y-95214631D01*
X45379249Y-95214630D01*
X45200004Y-95194435D01*
X45199996Y-95194435D01*
X45020750Y-95214630D01*
X45020745Y-95214631D01*
X44850476Y-95274211D01*
X44697737Y-95370184D01*
X44570184Y-95497737D01*
X44474211Y-95650476D01*
X44414631Y-95820745D01*
X44414630Y-95820750D01*
X44394435Y-95999996D01*
X44394435Y-96000003D01*
X44414630Y-96179249D01*
X44414631Y-96179254D01*
X44474211Y-96349523D01*
X44535992Y-96447846D01*
X44554992Y-96515083D01*
X44548040Y-96554770D01*
X44527769Y-96612704D01*
X44527768Y-96612708D01*
X44507572Y-96791958D01*
X44507572Y-96791965D01*
X44516992Y-96875575D01*
X37353514Y-96777445D01*
X37405368Y-96629255D01*
X37405369Y-96629249D01*
X37425565Y-96450003D01*
X37425565Y-96449996D01*
X37405369Y-96270750D01*
X37405368Y-96270745D01*
X37373352Y-96179249D01*
X37345789Y-96100478D01*
X37249816Y-95947738D01*
X37122262Y-95820184D01*
X37090894Y-95800474D01*
X36969523Y-95724211D01*
X36799254Y-95664631D01*
X36799249Y-95664630D01*
X36620004Y-95644435D01*
X36619996Y-95644435D01*
X36440750Y-95664630D01*
X36440745Y-95664631D01*
X36270476Y-95724211D01*
X36117737Y-95820184D01*
X35990184Y-95947737D01*
X35894211Y-96100476D01*
X35834631Y-96270745D01*
X35834630Y-96270750D01*
X35814435Y-96449996D01*
X35814435Y-96450003D01*
X35834630Y-96629249D01*
X35834631Y-96629254D01*
X35879419Y-96757252D01*
X22100000Y-96568493D01*
X22100000Y-96568492D01*
X17222302Y-96501675D01*
X17155538Y-96481074D01*
X17110511Y-96427649D01*
X17100000Y-96377687D01*
X17100000Y-94849996D01*
X51414435Y-94849996D01*
X51414435Y-94850003D01*
X51434630Y-95029249D01*
X51434631Y-95029254D01*
X51494211Y-95199523D01*
X51503705Y-95214632D01*
X51590184Y-95352262D01*
X51717738Y-95479816D01*
X51812023Y-95539059D01*
X51858314Y-95591394D01*
X51868962Y-95660447D01*
X51851045Y-95710024D01*
X51794212Y-95800474D01*
X51734631Y-95970745D01*
X51734630Y-95970750D01*
X51714435Y-96149996D01*
X51714435Y-96150003D01*
X51734630Y-96329249D01*
X51734631Y-96329254D01*
X51794211Y-96499523D01*
X51875724Y-96629249D01*
X51890184Y-96652262D01*
X52017738Y-96779816D01*
X52170478Y-96875789D01*
X52340745Y-96935368D01*
X52340750Y-96935369D01*
X52519996Y-96955565D01*
X52520000Y-96955565D01*
X52520004Y-96955565D01*
X52699249Y-96935369D01*
X52699252Y-96935368D01*
X52699255Y-96935368D01*
X52869522Y-96875789D01*
X53022262Y-96779816D01*
X53149816Y-96652262D01*
X53245789Y-96499522D01*
X53305368Y-96329255D01*
X53311960Y-96270750D01*
X53325565Y-96150003D01*
X53325565Y-96149996D01*
X53305369Y-95970750D01*
X53305368Y-95970745D01*
X53245789Y-95800478D01*
X53245786Y-95800474D01*
X53160431Y-95664632D01*
X53149816Y-95647738D01*
X53022262Y-95520184D01*
X53004052Y-95508742D01*
X52927976Y-95460940D01*
X52881685Y-95408605D01*
X52871037Y-95339551D01*
X52888954Y-95289974D01*
X52945789Y-95199522D01*
X53005368Y-95029255D01*
X53025565Y-94850000D01*
X53005368Y-94670745D01*
X52945789Y-94500478D01*
X52849816Y-94347738D01*
X52722262Y-94220184D01*
X52569523Y-94124211D01*
X52399254Y-94064631D01*
X52399249Y-94064630D01*
X52220004Y-94044435D01*
X52219996Y-94044435D01*
X52040750Y-94064630D01*
X52040745Y-94064631D01*
X51870476Y-94124211D01*
X51717737Y-94220184D01*
X51590184Y-94347737D01*
X51494211Y-94500476D01*
X51434631Y-94670745D01*
X51434630Y-94670750D01*
X51414435Y-94849996D01*
X17100000Y-94849996D01*
X17100000Y-93199997D01*
X30614723Y-93199997D01*
X30614723Y-93200002D01*
X30633793Y-93417975D01*
X30633793Y-93417979D01*
X30690422Y-93629322D01*
X30690424Y-93629326D01*
X30690425Y-93629330D01*
X30736661Y-93728484D01*
X30782897Y-93827638D01*
X30782898Y-93827639D01*
X30908402Y-94006877D01*
X31063123Y-94161598D01*
X31242361Y-94287102D01*
X31440670Y-94379575D01*
X31652023Y-94436207D01*
X31834926Y-94452208D01*
X31869998Y-94455277D01*
X31870000Y-94455277D01*
X31870002Y-94455277D01*
X31898254Y-94452805D01*
X32087977Y-94436207D01*
X32299330Y-94379575D01*
X32497639Y-94287102D01*
X32676877Y-94161598D01*
X32831598Y-94006877D01*
X32957102Y-93827639D01*
X33049575Y-93629330D01*
X33106207Y-93417977D01*
X33125277Y-93200000D01*
X33106207Y-92982023D01*
X33049575Y-92770670D01*
X32957102Y-92572362D01*
X32957100Y-92572359D01*
X32957099Y-92572357D01*
X32831599Y-92393124D01*
X32818290Y-92379815D01*
X32676877Y-92238402D01*
X32497639Y-92112898D01*
X32497640Y-92112898D01*
X32497638Y-92112897D01*
X32398484Y-92066661D01*
X32299330Y-92020425D01*
X32299326Y-92020424D01*
X32299322Y-92020422D01*
X32087977Y-91963793D01*
X31870002Y-91944723D01*
X31869998Y-91944723D01*
X31724682Y-91957436D01*
X31652023Y-91963793D01*
X31652020Y-91963793D01*
X31440677Y-92020422D01*
X31440668Y-92020426D01*
X31242361Y-92112898D01*
X31242357Y-92112900D01*
X31063121Y-92238402D01*
X30908402Y-92393121D01*
X30782900Y-92572357D01*
X30782898Y-92572361D01*
X30690426Y-92770668D01*
X30690422Y-92770677D01*
X30633793Y-92982020D01*
X30633793Y-92982024D01*
X30614723Y-93199997D01*
X17100000Y-93199997D01*
X17100000Y-91749996D01*
X44314435Y-91749996D01*
X44314435Y-91750003D01*
X44334630Y-91929249D01*
X44334631Y-91929254D01*
X44394211Y-92099523D01*
X44481475Y-92238402D01*
X44490184Y-92252262D01*
X44617738Y-92379816D01*
X44770478Y-92475789D01*
X44940745Y-92535368D01*
X44940750Y-92535369D01*
X45119996Y-92555565D01*
X45120000Y-92555565D01*
X45120004Y-92555565D01*
X45299249Y-92535369D01*
X45299252Y-92535368D01*
X45299255Y-92535368D01*
X45469522Y-92475789D01*
X45622262Y-92379816D01*
X45749816Y-92252262D01*
X45845789Y-92099522D01*
X45905368Y-91929255D01*
X45925565Y-91750000D01*
X45925565Y-91749996D01*
X49314435Y-91749996D01*
X49314435Y-91750003D01*
X49334630Y-91929249D01*
X49334631Y-91929254D01*
X49394211Y-92099523D01*
X49481475Y-92238402D01*
X49490184Y-92252262D01*
X49617738Y-92379816D01*
X49770478Y-92475789D01*
X49940745Y-92535368D01*
X49940750Y-92535369D01*
X50119996Y-92555565D01*
X50120000Y-92555565D01*
X50120004Y-92555565D01*
X50299249Y-92535369D01*
X50299252Y-92535368D01*
X50299255Y-92535368D01*
X50469522Y-92475789D01*
X50622262Y-92379816D01*
X50749816Y-92252262D01*
X50845789Y-92099522D01*
X50905368Y-91929255D01*
X50925565Y-91750000D01*
X50905368Y-91570745D01*
X50845789Y-91400478D01*
X50749816Y-91247738D01*
X50622262Y-91120184D01*
X50519422Y-91055565D01*
X50469523Y-91024211D01*
X50299254Y-90964631D01*
X50299249Y-90964630D01*
X50120004Y-90944435D01*
X50119996Y-90944435D01*
X49940750Y-90964630D01*
X49940745Y-90964631D01*
X49770476Y-91024211D01*
X49617737Y-91120184D01*
X49490184Y-91247737D01*
X49394211Y-91400476D01*
X49334631Y-91570745D01*
X49334630Y-91570750D01*
X49314435Y-91749996D01*
X45925565Y-91749996D01*
X45905368Y-91570745D01*
X45845789Y-91400478D01*
X45749816Y-91247738D01*
X45704523Y-91202445D01*
X45671038Y-91141122D01*
X45676022Y-91071430D01*
X45717894Y-91015497D01*
X45783358Y-90991080D01*
X45833159Y-90997722D01*
X45940745Y-91035368D01*
X45940750Y-91035369D01*
X46119996Y-91055565D01*
X46120000Y-91055565D01*
X46120004Y-91055565D01*
X46299249Y-91035369D01*
X46299252Y-91035368D01*
X46299255Y-91035368D01*
X46469522Y-90975789D01*
X46622262Y-90879816D01*
X46749816Y-90752262D01*
X46845789Y-90599522D01*
X46905368Y-90429255D01*
X46919985Y-90299523D01*
X46925565Y-90250003D01*
X46925565Y-90249996D01*
X46905369Y-90070750D01*
X46905368Y-90070745D01*
X46845789Y-89900478D01*
X46749816Y-89747738D01*
X46622262Y-89620184D01*
X46550793Y-89575277D01*
X46469523Y-89524211D01*
X46299254Y-89464631D01*
X46299249Y-89464630D01*
X46120004Y-89444435D01*
X46119996Y-89444435D01*
X45940750Y-89464630D01*
X45940745Y-89464631D01*
X45770476Y-89524211D01*
X45617737Y-89620184D01*
X45490184Y-89747737D01*
X45394211Y-89900476D01*
X45334631Y-90070745D01*
X45334630Y-90070750D01*
X45314435Y-90249996D01*
X45314435Y-90250003D01*
X45334630Y-90429249D01*
X45334631Y-90429254D01*
X45394211Y-90599523D01*
X45490184Y-90752262D01*
X45535476Y-90797554D01*
X45568961Y-90858877D01*
X45563977Y-90928569D01*
X45522105Y-90984502D01*
X45456641Y-91008919D01*
X45406841Y-91002277D01*
X45299257Y-90964632D01*
X45299249Y-90964630D01*
X45120004Y-90944435D01*
X45119996Y-90944435D01*
X44940750Y-90964630D01*
X44940745Y-90964631D01*
X44770476Y-91024211D01*
X44617737Y-91120184D01*
X44490184Y-91247737D01*
X44394211Y-91400476D01*
X44334631Y-91570745D01*
X44334630Y-91570750D01*
X44314435Y-91749996D01*
X17100000Y-91749996D01*
X17100000Y-89949996D01*
X36914435Y-89949996D01*
X36914435Y-89950003D01*
X36934630Y-90129249D01*
X36934631Y-90129254D01*
X36994211Y-90299523D01*
X37075724Y-90429249D01*
X37090184Y-90452262D01*
X37217738Y-90579816D01*
X37370478Y-90675789D01*
X37540745Y-90735368D01*
X37540750Y-90735369D01*
X37719996Y-90755565D01*
X37720000Y-90755565D01*
X37720004Y-90755565D01*
X37899249Y-90735369D01*
X37899252Y-90735368D01*
X37899255Y-90735368D01*
X38069522Y-90675789D01*
X38222262Y-90579816D01*
X38349816Y-90452262D01*
X38445789Y-90299522D01*
X38505368Y-90129255D01*
X38511960Y-90070750D01*
X38525565Y-89950003D01*
X38525565Y-89949996D01*
X38505369Y-89770750D01*
X38505368Y-89770745D01*
X38445789Y-89600478D01*
X38349816Y-89447738D01*
X38222262Y-89320184D01*
X38160845Y-89281593D01*
X38069523Y-89224211D01*
X37899254Y-89164631D01*
X37899249Y-89164630D01*
X37720004Y-89144435D01*
X37719996Y-89144435D01*
X37540750Y-89164630D01*
X37540745Y-89164631D01*
X37370476Y-89224211D01*
X37217737Y-89320184D01*
X37090184Y-89447737D01*
X36994211Y-89600476D01*
X36934631Y-89770745D01*
X36934630Y-89770750D01*
X36914435Y-89949996D01*
X17100000Y-89949996D01*
X17100000Y-88320000D01*
X30614723Y-88320000D01*
X30630668Y-88502262D01*
X30633793Y-88537975D01*
X30633793Y-88537979D01*
X30690422Y-88749322D01*
X30690424Y-88749326D01*
X30690425Y-88749330D01*
X30716648Y-88805565D01*
X30782897Y-88947638D01*
X30782898Y-88947639D01*
X30908402Y-89126877D01*
X31063123Y-89281598D01*
X31242361Y-89407102D01*
X31440670Y-89499575D01*
X31652023Y-89556207D01*
X31834926Y-89572208D01*
X31869998Y-89575277D01*
X31870000Y-89575277D01*
X31870002Y-89575277D01*
X31898254Y-89572805D01*
X32087977Y-89556207D01*
X32299330Y-89499575D01*
X32497639Y-89407102D01*
X32676877Y-89281598D01*
X32831598Y-89126877D01*
X32957102Y-88947639D01*
X33049575Y-88749330D01*
X33106207Y-88537977D01*
X33125277Y-88320000D01*
X33106207Y-88102023D01*
X33049575Y-87890670D01*
X32957102Y-87692362D01*
X32957100Y-87692359D01*
X32957099Y-87692357D01*
X32831599Y-87513124D01*
X32768950Y-87450475D01*
X32676877Y-87358402D01*
X32497639Y-87232898D01*
X32497640Y-87232898D01*
X32497638Y-87232897D01*
X32392835Y-87184027D01*
X32299330Y-87140425D01*
X32299326Y-87140424D01*
X32299322Y-87140422D01*
X32087977Y-87083793D01*
X31870002Y-87064723D01*
X31869998Y-87064723D01*
X31724682Y-87077436D01*
X31652023Y-87083793D01*
X31652020Y-87083793D01*
X31440677Y-87140422D01*
X31440668Y-87140426D01*
X31242361Y-87232898D01*
X31242357Y-87232900D01*
X31063121Y-87358402D01*
X30908402Y-87513121D01*
X30782900Y-87692357D01*
X30782898Y-87692361D01*
X30690426Y-87890668D01*
X30690422Y-87890677D01*
X30633793Y-88102020D01*
X30633793Y-88102023D01*
X30614723Y-88320000D01*
X17100000Y-88320000D01*
X17100000Y-86699996D01*
X41394435Y-86699996D01*
X41394435Y-86700003D01*
X41414630Y-86879249D01*
X41414631Y-86879254D01*
X41474211Y-87049523D01*
X41558727Y-87184028D01*
X41577727Y-87251264D01*
X41558727Y-87315972D01*
X41474211Y-87450476D01*
X41414631Y-87620745D01*
X41414630Y-87620750D01*
X41394435Y-87799996D01*
X41394435Y-87800003D01*
X41414630Y-87979249D01*
X41414631Y-87979254D01*
X41474211Y-88149523D01*
X41505926Y-88199996D01*
X41570184Y-88302262D01*
X41697738Y-88429816D01*
X41850478Y-88525789D01*
X41918306Y-88549523D01*
X42020745Y-88585368D01*
X42020750Y-88585369D01*
X42199996Y-88605565D01*
X42200000Y-88605565D01*
X42200004Y-88605565D01*
X42379249Y-88585369D01*
X42379252Y-88585368D01*
X42379255Y-88585368D01*
X42549522Y-88525789D01*
X42702262Y-88429816D01*
X42829816Y-88302262D01*
X42925789Y-88149522D01*
X42978110Y-87999996D01*
X47314435Y-87999996D01*
X47314435Y-88000003D01*
X47334630Y-88179249D01*
X47334631Y-88179254D01*
X47394211Y-88349523D01*
X47444662Y-88429815D01*
X47490184Y-88502262D01*
X47617738Y-88629816D01*
X47770478Y-88725789D01*
X47940745Y-88785368D01*
X47940750Y-88785369D01*
X48119996Y-88805565D01*
X48120000Y-88805565D01*
X48120004Y-88805565D01*
X48299249Y-88785369D01*
X48299252Y-88785368D01*
X48299255Y-88785368D01*
X48469522Y-88725789D01*
X48622262Y-88629816D01*
X48749816Y-88502262D01*
X48845789Y-88349522D01*
X48898110Y-88199996D01*
X49494435Y-88199996D01*
X49494435Y-88200003D01*
X49514630Y-88379249D01*
X49514631Y-88379254D01*
X49574211Y-88549523D01*
X49596735Y-88585369D01*
X49670184Y-88702262D01*
X49797738Y-88829816D01*
X49950478Y-88925789D01*
X50012919Y-88947638D01*
X50120745Y-88985368D01*
X50120750Y-88985369D01*
X50299996Y-89005565D01*
X50300000Y-89005565D01*
X50300004Y-89005565D01*
X50479249Y-88985369D01*
X50479252Y-88985368D01*
X50479255Y-88985368D01*
X50649522Y-88925789D01*
X50802262Y-88829816D01*
X50929816Y-88702262D01*
X51025789Y-88549522D01*
X51085368Y-88379255D01*
X51092044Y-88320002D01*
X51105565Y-88200003D01*
X51105565Y-88199996D01*
X51085369Y-88020750D01*
X51085368Y-88020745D01*
X51025788Y-87850476D01*
X50929815Y-87697737D01*
X50802262Y-87570184D01*
X50649523Y-87474211D01*
X50479254Y-87414631D01*
X50479249Y-87414630D01*
X50300004Y-87394435D01*
X50299996Y-87394435D01*
X50120750Y-87414630D01*
X50120745Y-87414631D01*
X49950476Y-87474211D01*
X49797737Y-87570184D01*
X49670184Y-87697737D01*
X49574211Y-87850476D01*
X49514631Y-88020745D01*
X49514630Y-88020750D01*
X49494435Y-88199996D01*
X48898110Y-88199996D01*
X48905368Y-88179255D01*
X48914070Y-88102023D01*
X48925565Y-88000003D01*
X48925565Y-87999996D01*
X48905369Y-87820750D01*
X48905368Y-87820745D01*
X48862326Y-87697738D01*
X48845789Y-87650478D01*
X48827106Y-87620745D01*
X48795337Y-87570184D01*
X48749816Y-87497738D01*
X48622262Y-87370184D01*
X48535986Y-87315973D01*
X48469523Y-87274211D01*
X48299254Y-87214631D01*
X48299249Y-87214630D01*
X48120004Y-87194435D01*
X48119996Y-87194435D01*
X47940750Y-87214630D01*
X47940745Y-87214631D01*
X47770476Y-87274211D01*
X47617737Y-87370184D01*
X47490184Y-87497737D01*
X47394211Y-87650476D01*
X47334631Y-87820745D01*
X47334630Y-87820750D01*
X47314435Y-87999996D01*
X42978110Y-87999996D01*
X42985368Y-87979255D01*
X42985369Y-87979249D01*
X43005565Y-87800003D01*
X43005565Y-87799996D01*
X42985369Y-87620750D01*
X42985368Y-87620745D01*
X42925788Y-87450475D01*
X42867934Y-87358403D01*
X42841272Y-87315970D01*
X42822272Y-87248736D01*
X42841273Y-87184028D01*
X42925789Y-87049522D01*
X42985368Y-86879255D01*
X43005565Y-86700000D01*
X42985368Y-86520745D01*
X42925789Y-86350478D01*
X42829816Y-86197738D01*
X42702262Y-86070184D01*
X42638017Y-86029816D01*
X42549523Y-85974211D01*
X42379254Y-85914631D01*
X42379249Y-85914630D01*
X42200004Y-85894435D01*
X42199996Y-85894435D01*
X42020750Y-85914630D01*
X42020745Y-85914631D01*
X41850476Y-85974211D01*
X41697737Y-86070184D01*
X41570184Y-86197737D01*
X41474211Y-86350476D01*
X41414631Y-86520745D01*
X41414630Y-86520750D01*
X41394435Y-86699996D01*
X17100000Y-86699996D01*
X17100000Y-85399996D01*
X43394435Y-85399996D01*
X43394435Y-85400003D01*
X43414630Y-85579249D01*
X43414631Y-85579254D01*
X43474211Y-85749523D01*
X43565266Y-85894435D01*
X43570184Y-85902262D01*
X43697738Y-86029816D01*
X43850478Y-86125789D01*
X44020745Y-86185368D01*
X44020750Y-86185369D01*
X44199996Y-86205565D01*
X44200000Y-86205565D01*
X44200004Y-86205565D01*
X44379249Y-86185369D01*
X44379252Y-86185368D01*
X44379255Y-86185368D01*
X44549522Y-86125789D01*
X44702262Y-86029816D01*
X44829816Y-85902262D01*
X44925789Y-85749522D01*
X44985368Y-85579255D01*
X44993671Y-85505565D01*
X45005565Y-85400003D01*
X45005565Y-85399996D01*
X44985369Y-85220750D01*
X44985368Y-85220745D01*
X44925789Y-85050478D01*
X44925188Y-85049522D01*
X44878858Y-84975788D01*
X44829816Y-84897738D01*
X44702262Y-84770184D01*
X44549523Y-84674211D01*
X44379254Y-84614631D01*
X44379249Y-84614630D01*
X44200004Y-84594435D01*
X44199996Y-84594435D01*
X44020750Y-84614630D01*
X44020745Y-84614631D01*
X43850476Y-84674211D01*
X43697737Y-84770184D01*
X43570184Y-84897737D01*
X43474211Y-85050476D01*
X43414631Y-85220745D01*
X43414630Y-85220750D01*
X43394435Y-85399996D01*
X17100000Y-85399996D01*
X17100000Y-84249996D01*
X46764435Y-84249996D01*
X46764435Y-84250003D01*
X46784630Y-84429249D01*
X46784631Y-84429254D01*
X46844211Y-84599523D01*
X46907347Y-84700003D01*
X46940184Y-84752262D01*
X47067738Y-84879816D01*
X47220478Y-84975789D01*
X47363364Y-85025787D01*
X47390745Y-85035368D01*
X47390750Y-85035369D01*
X47569996Y-85055565D01*
X47570000Y-85055565D01*
X47570004Y-85055565D01*
X47749249Y-85035369D01*
X47749251Y-85035368D01*
X47749255Y-85035368D01*
X47749258Y-85035366D01*
X47749262Y-85035366D01*
X47876890Y-84990707D01*
X47946669Y-84987145D01*
X47983816Y-85002754D01*
X48020474Y-85025787D01*
X48020475Y-85025787D01*
X48020478Y-85025789D01*
X48190739Y-85085366D01*
X48190745Y-85085368D01*
X48190750Y-85085369D01*
X48369996Y-85105565D01*
X48370000Y-85105565D01*
X48370004Y-85105565D01*
X48549249Y-85085369D01*
X48549252Y-85085368D01*
X48549255Y-85085368D01*
X48719522Y-85025789D01*
X48872262Y-84929816D01*
X48999816Y-84802262D01*
X49080006Y-84674639D01*
X49132341Y-84628349D01*
X49201394Y-84617701D01*
X49265243Y-84646076D01*
X49289992Y-84674638D01*
X49370184Y-84802262D01*
X49497738Y-84929816D01*
X49560212Y-84969071D01*
X49650474Y-85025787D01*
X49650478Y-85025789D01*
X49735573Y-85055565D01*
X49820745Y-85085368D01*
X49820750Y-85085369D01*
X49999996Y-85105565D01*
X50000000Y-85105565D01*
X50000004Y-85105565D01*
X50179249Y-85085369D01*
X50179251Y-85085368D01*
X50179255Y-85085368D01*
X50179258Y-85085366D01*
X50179262Y-85085366D01*
X50356095Y-85023489D01*
X50356846Y-85025637D01*
X50415128Y-85016035D01*
X50443588Y-85024392D01*
X50443905Y-85023489D01*
X50620737Y-85085366D01*
X50620743Y-85085367D01*
X50620745Y-85085368D01*
X50620746Y-85085368D01*
X50620750Y-85085369D01*
X50799996Y-85105565D01*
X50800000Y-85105565D01*
X50800004Y-85105565D01*
X50979249Y-85085369D01*
X50979252Y-85085368D01*
X50979255Y-85085368D01*
X51149522Y-85025789D01*
X51302262Y-84929816D01*
X51429816Y-84802262D01*
X51525789Y-84649522D01*
X51585368Y-84479255D01*
X51591002Y-84429254D01*
X51605565Y-84300003D01*
X51605565Y-84299996D01*
X51585369Y-84120750D01*
X51585368Y-84120745D01*
X51536923Y-83982298D01*
X51525789Y-83950478D01*
X51503265Y-83914632D01*
X51429815Y-83797737D01*
X51302262Y-83670184D01*
X51149523Y-83574211D01*
X50979254Y-83514631D01*
X50979249Y-83514630D01*
X50800004Y-83494435D01*
X50799996Y-83494435D01*
X50620750Y-83514630D01*
X50620737Y-83514633D01*
X50443906Y-83576510D01*
X50443155Y-83574364D01*
X50384856Y-83583962D01*
X50356409Y-83575609D01*
X50356094Y-83576510D01*
X50179262Y-83514633D01*
X50179249Y-83514630D01*
X50000004Y-83494435D01*
X49999996Y-83494435D01*
X49820750Y-83514630D01*
X49820745Y-83514631D01*
X49650476Y-83574211D01*
X49497737Y-83670184D01*
X49370184Y-83797737D01*
X49289994Y-83925359D01*
X49237659Y-83971650D01*
X49168605Y-83982298D01*
X49104757Y-83953923D01*
X49080006Y-83925359D01*
X48999815Y-83797737D01*
X48872262Y-83670184D01*
X48730101Y-83580858D01*
X48683810Y-83528523D01*
X48673162Y-83459469D01*
X48701537Y-83395621D01*
X48755119Y-83358822D01*
X48849522Y-83325789D01*
X49002262Y-83229816D01*
X49129816Y-83102262D01*
X49225789Y-82949522D01*
X49285368Y-82779255D01*
X49305565Y-82600000D01*
X49285368Y-82420745D01*
X49225789Y-82250478D01*
X49129816Y-82097738D01*
X49002262Y-81970184D01*
X48849523Y-81874211D01*
X48679254Y-81814631D01*
X48679249Y-81814630D01*
X48500004Y-81794435D01*
X48499996Y-81794435D01*
X48320750Y-81814630D01*
X48320745Y-81814631D01*
X48150476Y-81874211D01*
X47997737Y-81970184D01*
X47870184Y-82097737D01*
X47774211Y-82250476D01*
X47714631Y-82420745D01*
X47714630Y-82420750D01*
X47694435Y-82599996D01*
X47694435Y-82600003D01*
X47714630Y-82779249D01*
X47714631Y-82779254D01*
X47774211Y-82949523D01*
X47774511Y-82950000D01*
X47870184Y-83102262D01*
X47997738Y-83229816D01*
X48139898Y-83319141D01*
X48186189Y-83371476D01*
X48196837Y-83440529D01*
X48168462Y-83504378D01*
X48114883Y-83541176D01*
X48063111Y-83559293D01*
X47993332Y-83562856D01*
X47956183Y-83547246D01*
X47919520Y-83524209D01*
X47749262Y-83464633D01*
X47749249Y-83464630D01*
X47570004Y-83444435D01*
X47569996Y-83444435D01*
X47390750Y-83464630D01*
X47390745Y-83464631D01*
X47220476Y-83524211D01*
X47067737Y-83620184D01*
X46940184Y-83747737D01*
X46844211Y-83900476D01*
X46784631Y-84070745D01*
X46784630Y-84070750D01*
X46764435Y-84249996D01*
X17100000Y-84249996D01*
X17100000Y-82925000D01*
X20305000Y-82925000D01*
X26930000Y-82950000D01*
X26949407Y-71829997D01*
X39674723Y-71829997D01*
X39674723Y-71830002D01*
X39693793Y-72047975D01*
X39693793Y-72047979D01*
X39750422Y-72259322D01*
X39750424Y-72259326D01*
X39750425Y-72259330D01*
X39761646Y-72283393D01*
X39842897Y-72457638D01*
X39842898Y-72457639D01*
X39968402Y-72636877D01*
X40123123Y-72791598D01*
X40250166Y-72880555D01*
X40293790Y-72935130D01*
X40303020Y-72984426D01*
X40298592Y-73223268D01*
X40277668Y-73289932D01*
X40245738Y-73322544D01*
X40123125Y-73408400D01*
X39968400Y-73563124D01*
X39842900Y-73742357D01*
X39842898Y-73742361D01*
X39750426Y-73940668D01*
X39750422Y-73940677D01*
X39693793Y-74152020D01*
X39693793Y-74152024D01*
X39674723Y-74369997D01*
X39674723Y-74370002D01*
X39693793Y-74587975D01*
X39693793Y-74587979D01*
X39750422Y-74799322D01*
X39750424Y-74799326D01*
X39750425Y-74799330D01*
X39796661Y-74898484D01*
X39842897Y-74997638D01*
X39842898Y-74997639D01*
X39968402Y-75176877D01*
X40123123Y-75331598D01*
X40123124Y-75331599D01*
X40203684Y-75388007D01*
X40247309Y-75442583D01*
X40256540Y-75491880D01*
X40250878Y-75797291D01*
X40244828Y-75816566D01*
X40238655Y-75887137D01*
X40245631Y-75899912D01*
X40248445Y-75928573D01*
X40241959Y-76278468D01*
X40221035Y-76345131D01*
X40167392Y-76389900D01*
X40098061Y-76398560D01*
X40035054Y-76368362D01*
X40030299Y-76363851D01*
X39886875Y-76220427D01*
X39886875Y-76220428D01*
X39843333Y-76282612D01*
X39843332Y-76282614D01*
X39750898Y-76480840D01*
X39750894Y-76480849D01*
X39694289Y-76692105D01*
X39694287Y-76692115D01*
X39675225Y-76909999D01*
X39675225Y-76910000D01*
X39694287Y-77127884D01*
X39694289Y-77127894D01*
X39750894Y-77339150D01*
X39750898Y-77339159D01*
X39843333Y-77537387D01*
X39886874Y-77599570D01*
X40006356Y-77480088D01*
X40067680Y-77446603D01*
X40137371Y-77451587D01*
X40193305Y-77493458D01*
X40217722Y-77558923D01*
X40218017Y-77570067D01*
X40203188Y-78370072D01*
X40182264Y-78436735D01*
X40150334Y-78469347D01*
X40123132Y-78488394D01*
X40123125Y-78488400D01*
X39968400Y-78643124D01*
X39842900Y-78822357D01*
X39842898Y-78822361D01*
X39750426Y-79020668D01*
X39750422Y-79020677D01*
X39693793Y-79232020D01*
X39693793Y-79232024D01*
X39674723Y-79449997D01*
X39674723Y-79450002D01*
X39693793Y-79667975D01*
X39693793Y-79667979D01*
X39750422Y-79879322D01*
X39750424Y-79879326D01*
X39750425Y-79879330D01*
X39796661Y-79978484D01*
X39842897Y-80077638D01*
X39842898Y-80077639D01*
X39968402Y-80256877D01*
X39968406Y-80256881D01*
X40126951Y-80415426D01*
X40125188Y-80417188D01*
X40158058Y-80466678D01*
X40163600Y-80505699D01*
X40159999Y-80699999D01*
X40160000Y-80700000D01*
X40864270Y-80700000D01*
X40875077Y-80700472D01*
X40929998Y-80705277D01*
X40930000Y-80705277D01*
X40930002Y-80705277D01*
X40984923Y-80700472D01*
X40995730Y-80700000D01*
X43404270Y-80700000D01*
X43415077Y-80700472D01*
X43469998Y-80705277D01*
X43470000Y-80705277D01*
X43470002Y-80705277D01*
X43524923Y-80700472D01*
X43535730Y-80700000D01*
X44100000Y-80700000D01*
X44100000Y-80599998D01*
X44119685Y-80532959D01*
X44152877Y-80498423D01*
X44198214Y-80466678D01*
X44276877Y-80411598D01*
X44431598Y-80256877D01*
X44557102Y-80077639D01*
X44649575Y-79879330D01*
X44706207Y-79667977D01*
X44725277Y-79450000D01*
X44706207Y-79232023D01*
X44649575Y-79020670D01*
X44557102Y-78822362D01*
X44557100Y-78822359D01*
X44557099Y-78822357D01*
X44431599Y-78643124D01*
X44431598Y-78643123D01*
X44276877Y-78488402D01*
X44249664Y-78469347D01*
X44152876Y-78401574D01*
X44109251Y-78346997D01*
X44100000Y-78300000D01*
X44100000Y-78059998D01*
X44119685Y-77992959D01*
X44152877Y-77958423D01*
X44179031Y-77940110D01*
X44276877Y-77871598D01*
X44431598Y-77716877D01*
X44557102Y-77537639D01*
X44649575Y-77339330D01*
X44706207Y-77127977D01*
X44725277Y-76910000D01*
X44706207Y-76692023D01*
X44649575Y-76480670D01*
X44557102Y-76282362D01*
X44557100Y-76282359D01*
X44557099Y-76282357D01*
X44431599Y-76103124D01*
X44369391Y-76040916D01*
X44276877Y-75948402D01*
X44267906Y-75942120D01*
X44152876Y-75861574D01*
X44109251Y-75806997D01*
X44100000Y-75760000D01*
X44100000Y-75519998D01*
X44119685Y-75452959D01*
X44152877Y-75418423D01*
X44196316Y-75388007D01*
X44276877Y-75331598D01*
X44431598Y-75176877D01*
X44557102Y-74997639D01*
X44649575Y-74799330D01*
X44706207Y-74587977D01*
X44722805Y-74398254D01*
X44725277Y-74370002D01*
X44725277Y-74369997D01*
X44715695Y-74260474D01*
X44706207Y-74152023D01*
X44649575Y-73940670D01*
X44557102Y-73742362D01*
X44557100Y-73742359D01*
X44557099Y-73742357D01*
X44431599Y-73563124D01*
X44357356Y-73488881D01*
X44276877Y-73408402D01*
X44267906Y-73402120D01*
X44152876Y-73321574D01*
X44109251Y-73266997D01*
X44100000Y-73220000D01*
X44100000Y-72979998D01*
X44119685Y-72912959D01*
X44152877Y-72878423D01*
X44276877Y-72791598D01*
X44431598Y-72636877D01*
X44557102Y-72457639D01*
X44649575Y-72259330D01*
X44706207Y-72047977D01*
X44725277Y-71830000D01*
X44706207Y-71612023D01*
X44649575Y-71400670D01*
X44557102Y-71202362D01*
X44557100Y-71202359D01*
X44557099Y-71202357D01*
X44431599Y-71023124D01*
X44387724Y-70979249D01*
X44276877Y-70868402D01*
X44267906Y-70862120D01*
X44179185Y-70799996D01*
X47594435Y-70799996D01*
X47594435Y-70800003D01*
X47614630Y-70979249D01*
X47614631Y-70979254D01*
X47674211Y-71149523D01*
X47770184Y-71302262D01*
X47897738Y-71429816D01*
X48050478Y-71525789D01*
X48092317Y-71540429D01*
X48220745Y-71585368D01*
X48220750Y-71585369D01*
X48399996Y-71605565D01*
X48400000Y-71605565D01*
X48400004Y-71605565D01*
X48579249Y-71585369D01*
X48579252Y-71585368D01*
X48579255Y-71585368D01*
X48749522Y-71525789D01*
X48902262Y-71429816D01*
X49029816Y-71302262D01*
X49125789Y-71149522D01*
X49185368Y-70979255D01*
X49197858Y-70868402D01*
X49205565Y-70800003D01*
X49205565Y-70799996D01*
X49185369Y-70620750D01*
X49185368Y-70620745D01*
X49125788Y-70450476D01*
X49029815Y-70297737D01*
X48902262Y-70170184D01*
X48749523Y-70074211D01*
X48579254Y-70014631D01*
X48579249Y-70014630D01*
X48400004Y-69994435D01*
X48399996Y-69994435D01*
X48220750Y-70014630D01*
X48220745Y-70014631D01*
X48050476Y-70074211D01*
X47897737Y-70170184D01*
X47770184Y-70297737D01*
X47674211Y-70450476D01*
X47614631Y-70620745D01*
X47614630Y-70620750D01*
X47594435Y-70799996D01*
X44179185Y-70799996D01*
X44152876Y-70781574D01*
X44109251Y-70726997D01*
X44100000Y-70680000D01*
X44100000Y-70450000D01*
X40350000Y-70450000D01*
X40346294Y-70649869D01*
X40325370Y-70716532D01*
X40293439Y-70749145D01*
X40123118Y-70868405D01*
X39968402Y-71023121D01*
X39842900Y-71202357D01*
X39842898Y-71202361D01*
X39750426Y-71400668D01*
X39750422Y-71400677D01*
X39693793Y-71612020D01*
X39693793Y-71612024D01*
X39674723Y-71829997D01*
X26949407Y-71829997D01*
X26955000Y-68625000D01*
X26954998Y-68624999D01*
X26954999Y-68624999D01*
X20330000Y-68600000D01*
X20305000Y-82925000D01*
X17100000Y-82925000D01*
X17100000Y-67547939D01*
X17119685Y-67480900D01*
X17132247Y-67464528D01*
X18170465Y-66322489D01*
X21325332Y-62852135D01*
X37229500Y-62852135D01*
X37229500Y-64647870D01*
X37229501Y-64647876D01*
X37235908Y-64707483D01*
X37286202Y-64842328D01*
X37286206Y-64842335D01*
X37372452Y-64957544D01*
X37372455Y-64957547D01*
X37487664Y-65043793D01*
X37487671Y-65043797D01*
X37622517Y-65094091D01*
X37622516Y-65094091D01*
X37629444Y-65094835D01*
X37682127Y-65100500D01*
X39477872Y-65100499D01*
X39537483Y-65094091D01*
X39672331Y-65043796D01*
X39787546Y-64957546D01*
X39873796Y-64842331D01*
X39922810Y-64710916D01*
X39964681Y-64654984D01*
X40030145Y-64630566D01*
X40098418Y-64645417D01*
X40126673Y-64666569D01*
X40248599Y-64788495D01*
X40345384Y-64856265D01*
X40442165Y-64924032D01*
X40442167Y-64924033D01*
X40442170Y-64924035D01*
X40656337Y-65023903D01*
X40884592Y-65085063D01*
X41061034Y-65100500D01*
X41119999Y-65105659D01*
X41120000Y-65105659D01*
X41120001Y-65105659D01*
X41178966Y-65100500D01*
X41355408Y-65085063D01*
X41583663Y-65023903D01*
X41797830Y-64924035D01*
X41991401Y-64788495D01*
X42158495Y-64621401D01*
X42288730Y-64435405D01*
X42343307Y-64391781D01*
X42412805Y-64384587D01*
X42475160Y-64416110D01*
X42491879Y-64435405D01*
X42621890Y-64621078D01*
X42788917Y-64788105D01*
X42982421Y-64923600D01*
X43196507Y-65023429D01*
X43196516Y-65023433D01*
X43410000Y-65080634D01*
X43410000Y-64183012D01*
X43467007Y-64215925D01*
X43594174Y-64250000D01*
X43725826Y-64250000D01*
X43852993Y-64215925D01*
X43910000Y-64183012D01*
X43910000Y-65080633D01*
X44123483Y-65023433D01*
X44123492Y-65023429D01*
X44337578Y-64923600D01*
X44531082Y-64788105D01*
X44698105Y-64621082D01*
X44833600Y-64427578D01*
X44933429Y-64213492D01*
X44933432Y-64213486D01*
X44990636Y-64000000D01*
X44093012Y-64000000D01*
X44125925Y-63942993D01*
X44160000Y-63815826D01*
X44160000Y-63684174D01*
X44125925Y-63557007D01*
X44093012Y-63500000D01*
X44990636Y-63500000D01*
X44990635Y-63499999D01*
X44933432Y-63286513D01*
X44933429Y-63286507D01*
X44833600Y-63072422D01*
X44833599Y-63072420D01*
X44698113Y-62878926D01*
X44698108Y-62878920D01*
X44531082Y-62711894D01*
X44337578Y-62576399D01*
X44123492Y-62476570D01*
X44123486Y-62476567D01*
X43910000Y-62419364D01*
X43910000Y-63316988D01*
X43852993Y-63284075D01*
X43725826Y-63250000D01*
X43594174Y-63250000D01*
X43467007Y-63284075D01*
X43410000Y-63316988D01*
X43410000Y-62419364D01*
X43409999Y-62419364D01*
X43196513Y-62476567D01*
X43196507Y-62476570D01*
X42982422Y-62576399D01*
X42982420Y-62576400D01*
X42788926Y-62711886D01*
X42788920Y-62711891D01*
X42621891Y-62878920D01*
X42621890Y-62878922D01*
X42491880Y-63064595D01*
X42437303Y-63108219D01*
X42367804Y-63115412D01*
X42305450Y-63083890D01*
X42288730Y-63064594D01*
X42158494Y-62878597D01*
X41991402Y-62711506D01*
X41991395Y-62711501D01*
X41797834Y-62575967D01*
X41797830Y-62575965D01*
X41797828Y-62575964D01*
X41583663Y-62476097D01*
X41583659Y-62476096D01*
X41583655Y-62476094D01*
X41355413Y-62414938D01*
X41355403Y-62414936D01*
X41120001Y-62394341D01*
X41119999Y-62394341D01*
X40884596Y-62414936D01*
X40884586Y-62414938D01*
X40656344Y-62476094D01*
X40656335Y-62476098D01*
X40442171Y-62575964D01*
X40442169Y-62575965D01*
X40248600Y-62711503D01*
X40126673Y-62833430D01*
X40065350Y-62866914D01*
X39995658Y-62861930D01*
X39939725Y-62820058D01*
X39922810Y-62789081D01*
X39873797Y-62657671D01*
X39873793Y-62657664D01*
X39787547Y-62542455D01*
X39787544Y-62542452D01*
X39672335Y-62456206D01*
X39672328Y-62456202D01*
X39537482Y-62405908D01*
X39537483Y-62405908D01*
X39477883Y-62399501D01*
X39477881Y-62399500D01*
X39477873Y-62399500D01*
X39477864Y-62399500D01*
X37682129Y-62399500D01*
X37682123Y-62399501D01*
X37622516Y-62405908D01*
X37487671Y-62456202D01*
X37487664Y-62456206D01*
X37372455Y-62542452D01*
X37372452Y-62542455D01*
X37286206Y-62657664D01*
X37286202Y-62657671D01*
X37235908Y-62792517D01*
X37229501Y-62852116D01*
X37229500Y-62852135D01*
X21325332Y-62852135D01*
X21576394Y-62575967D01*
X22063101Y-62040589D01*
X22122762Y-62004225D01*
X22154854Y-62000000D01*
X49558667Y-62000000D01*
X49625706Y-62019685D01*
G37*
%TD.AperFunction*%
%TD*%
M02*
