M48
; DRILL file {KiCad 8.0.7} date 2025-02-23T09:23:33-0800
; FORMAT={-:-/ absolute / inch / decimal}
; #@! TF.CreationDate,2025-02-23T09:23:33-08:00
; #@! TF.GenerationSoftware,Kicad,Pcbnew,8.0.7
; #@! TF.FileFunction,Plated,1,4,PTH
FMAT,2
INCH
; #@! TA.AperFunction,Plated,PTH,ViaDrill
T1C0.0118
; #@! TA.AperFunction,Plated,PTH,ComponentDrill
T2C0.0295
; #@! TA.AperFunction,Plated,PTH,ComponentDrill
T3C0.0300
; #@! TA.AperFunction,Plated,PTH,ComponentDrill
T4C0.0315
; #@! TA.AperFunction,Plated,PTH,ComponentDrill
T5C0.0394
; #@! TA.AperFunction,Plated,PTH,ComponentDrill
T6C0.0433
; #@! TA.AperFunction,Plated,PTH,ComponentDrill
T7C0.0472
; #@! TA.AperFunction,Plated,PTH,ComponentDrill
T8C0.0512
; #@! TA.AperFunction,Plated,PTH,ComponentDrill
T9C0.0984
%
G90
G05
T1
X0.9213Y-4.3268
X0.9213Y-4.3543
X0.9213Y-4.3819
X0.9488Y-4.3386
X0.9488Y-4.3661
X0.9488Y-4.3937
X0.9764Y-4.3268
X0.9764Y-4.3543
X0.9764Y-4.3819
X1.0039Y-4.3386
X1.0039Y-4.3661
X1.0039Y-4.3937
X1.0175Y-3.5335
X1.0175Y-3.5728
X1.0175Y-3.6122
X1.0315Y-4.3268
X1.0315Y-4.3543
X1.0315Y-4.3819
X1.0591Y-4.3386
X1.0591Y-4.3661
X1.0591Y-4.3937
X1.0866Y-4.3268
X1.0866Y-4.3543
X1.0866Y-4.3819
X1.1142Y-4.3386
X1.1142Y-4.3661
X1.1142Y-4.3937
X1.1417Y-4.3268
X1.1417Y-4.3543
X1.1417Y-4.3819
X1.1693Y-4.3386
X1.1693Y-4.3661
X1.1693Y-4.3937
X1.1969Y-4.3268
X1.1969Y-4.3543
X1.1969Y-4.3819
X1.2244Y-4.3386
X1.2244Y-4.3661
X1.2244Y-4.3937
X1.252Y-4.3268
X1.252Y-4.3543
X1.252Y-4.3819
X1.2756Y-4.3386
X1.2756Y-4.3661
X1.2756Y-4.3937
X1.3031Y-4.3268
X1.3031Y-4.3543
X1.3031Y-4.3819
X1.4029Y-4.4843
X1.4417Y-3.7972
X1.485Y-3.5413
X1.5992Y-3.5413
X1.6465Y-3.8012
X1.6614Y-3.4134
X1.6614Y-3.4567
X1.7402Y-3.3622
X1.7764Y-3.5728
X1.7764Y-3.6122
X1.7795Y-3.7795
X1.784Y-3.8107
X1.7961Y-3.5138
X1.811Y-3.1811
X1.8157Y-3.5531
X1.8346Y-3.7795
X1.8728Y-3.3169
X1.8945Y-3.4646
X1.9043Y-3.3189
X1.9055Y-2.6535
X1.9055Y-2.7874
X1.9094Y-3.252
X1.9685Y-3.3189
X1.9732Y-3.5335
X1.9732Y-3.6122
X1.9803Y-3.4724
X2.0Y-3.3189
X2.0559Y-3.7343
X2.0677Y-3.7854
X2.1378Y-3.3346
X2.1496Y-3.4921
X2.1496Y-3.5236
X2.1969Y-3.6929
X2.2646Y-3.7736
X2.2961Y-3.439
X2.3118Y-3.2185
X2.3316Y-3.4034
X2.3355Y-3.6251
X2.378Y-2.6969
X2.3871Y-4.4843
X2.4094Y-3.6143
X2.437Y-3.6143
X2.4449Y-3.6929
X2.5205Y-3.356
X2.5244Y-3.2224
X2.6063Y-2.7008
X2.611Y-3.9232
X2.7173Y-3.73
X2.8187Y-3.185
X2.8189Y-3.1535
X3.4108Y-4.4843
X4.395Y-4.4843
X4.6102Y-4.5827
X4.6378Y-4.5827
X4.6654Y-4.5827
X4.6929Y-4.5827
X4.7205Y-4.5827
X4.748Y-4.5827
X4.7756Y-4.5827
X4.8031Y-4.5827
X4.8307Y-4.5827
X4.8583Y-4.5827
X5.3386Y-4.4843
X5.3891Y-3.4921
X5.3891Y-3.6299
X5.3891Y-3.7677
X5.3891Y-3.9055
X5.3891Y-4.0433
X5.3891Y-4.1811
X5.5748Y-1.5906
X5.5748Y-1.6299
X6.2454Y-4.4882
T2
X0.9304Y-4.768
X0.9304Y-4.818
X0.9304Y-4.868
X1.9147Y-4.768
X1.9147Y-4.818
X1.9147Y-4.868
X2.9383Y-4.768
X2.9383Y-4.818
X2.9383Y-4.868
X3.9226Y-4.768
X3.9226Y-4.818
X3.9226Y-4.868
X4.8675Y-4.768
X4.8675Y-4.818
X4.8675Y-4.868
X5.773Y-4.768
X5.773Y-4.818
X5.773Y-4.868
T3
X4.3583Y-1.126
X4.3583Y-2.7008
X5.1063Y-1.126
X5.1063Y-2.7008
X5.2756Y-1.126
X5.2756Y-2.7008
X6.0236Y-1.126
X6.0236Y-2.7008
T4
X1.2547Y-3.4772
X1.2547Y-3.6693
X1.6114Y-2.828
X1.6114Y-2.928
X1.6114Y-3.028
X1.6114Y-3.128
X1.7114Y-2.828
X1.7114Y-2.928
X1.7114Y-3.028
X1.7114Y-3.128
X4.4478Y-2.9882
X4.5463Y-2.9882
X5.3652Y-2.9882
X5.4636Y-2.9882
T5
X1.5189Y-2.5098
X1.6189Y-2.5098
X1.7189Y-2.5098
X2.2374Y-3.9157
X2.2374Y-4.0157
X2.2374Y-4.1157
X2.3374Y-3.9157
X2.3374Y-4.0157
X2.3374Y-4.1157
X2.5559Y-2.9374
X2.5559Y-3.0374
X6.253Y-1.1988
X6.253Y-1.2988
X6.253Y-1.5915
X6.253Y-1.6915
X6.253Y-1.9843
X6.253Y-2.0843
X6.253Y-2.377
X6.253Y-2.477
X6.253Y-2.7697
X6.253Y-2.8697
T6
X0.9667Y-5.1224
X1.0252Y-3.9469
X1.0252Y-4.0846
X1.0252Y-4.2224
X1.3667Y-5.1224
X1.4252Y-3.9469
X1.4252Y-4.0846
X1.4252Y-4.2224
X1.9541Y-5.1224
X2.0618Y-2.874
X2.0618Y-3.0512
X2.3177Y-2.874
X2.3177Y-3.0512
X2.3541Y-5.1224
X2.9745Y-5.1224
X3.3745Y-5.1224
X3.9588Y-5.1224
X4.3588Y-5.1224
X4.5177Y-0.9193
X4.9037Y-5.1224
X4.9177Y-0.9193
X5.1989Y-3.4921
X5.1989Y-3.6299
X5.1989Y-3.7677
X5.1989Y-3.9055
X5.1989Y-4.0433
X5.1989Y-4.1811
X5.3037Y-5.1224
X5.4465Y-0.939
X5.5989Y-3.4921
X5.5989Y-3.6299
X5.5989Y-3.7677
X5.5989Y-3.9055
X5.5989Y-4.0433
X5.5989Y-4.1811
X5.806Y-5.1224
X5.8465Y-0.939
X6.206Y-5.1224
T7
X1.1031Y-0.8898
X1.2031Y-0.8898
X1.3031Y-0.8898
X1.4031Y-0.8898
X1.5031Y-0.8898
X1.6031Y-0.8898
X1.6583Y-4.2365
X1.7031Y-0.8898
X1.7961Y-4.2365
X1.8031Y-0.8898
X1.9031Y-0.8898
X1.9339Y-4.2365
X2.0031Y-0.8898
X2.1031Y-0.8898
X2.2031Y-0.8898
X2.3031Y-0.8898
X2.4031Y-0.8898
X2.5031Y-0.8898
X2.6031Y-0.8898
X3.5486Y-6.9728
X3.6863Y-6.9728
X3.8241Y-6.9728
X3.9619Y-6.9728
X4.0997Y-6.9728
X4.2375Y-6.9728
X4.5328Y-6.9728
X4.6706Y-6.9728
X4.8084Y-6.9728
X4.9462Y-6.9728
X5.084Y-6.9728
X5.2218Y-6.9728
X5.5367Y-6.9728
X5.6745Y-6.9728
X5.8123Y-6.9728
X5.9501Y-6.9728
X6.0879Y-6.9728
X6.2257Y-6.9728
X6.2651Y-3.4331
X6.2651Y-3.5709
X6.2651Y-3.7087
X6.2651Y-3.8465
X6.2651Y-3.9843
X6.2651Y-4.122
T8
X0.9304Y-5.5308
X0.9304Y-6.0111
X1.1667Y-5.4521
X1.4029Y-5.5308
X1.4029Y-6.0111
X1.9147Y-5.5308
X1.9147Y-6.0111
X2.1509Y-5.4521
X2.3871Y-5.5308
X2.3871Y-6.0111
X2.9383Y-5.5308
X2.9383Y-6.0111
X3.1745Y-5.4521
X3.4108Y-5.5308
X3.4108Y-6.0111
X3.9226Y-5.5308
X3.9226Y-6.0111
X4.1588Y-5.4521
X4.395Y-5.5308
X4.395Y-6.0111
X4.8675Y-5.5308
X4.8675Y-6.0111
X5.1037Y-5.4521
X5.3399Y-5.5308
X5.3399Y-6.0111
X5.773Y-5.5308
X5.773Y-6.0111
X6.0092Y-5.4521
X6.2454Y-5.5308
X6.2454Y-6.0111
T9
X0.8866Y-0.8898
X0.8866Y-2.1103
X3.8393Y-2.1103
X3.8394Y-0.8898
M30
