%TF.GenerationSoftware,KiCad,Pcbnew,8.0.7*%
%TF.CreationDate,2025-02-23T09:23:24-08:00*%
%TF.ProjectId,M56Controller,4d353643-6f6e-4747-926f-6c6c65722e6b,rev?*%
%TF.SameCoordinates,Original*%
%TF.FileFunction,Soldermask,Top*%
%TF.FilePolarity,Negative*%
%FSLAX46Y46*%
G04 Gerber Fmt 4.6, Leading zero omitted, Abs format (unit mm)*
G04 Created by KiCad (PCBNEW 8.0.7) date 2025-02-23 09:23:24*
%MOMM*%
%LPD*%
G01*
G04 APERTURE LIST*
G04 Aperture macros list*
%AMRoundRect*
0 Rectangle with rounded corners*
0 $1 Rounding radius*
0 $2 $3 $4 $5 $6 $7 $8 $9 X,Y pos of 4 corners*
0 Add a 4 corners polygon primitive as box body*
4,1,4,$2,$3,$4,$5,$6,$7,$8,$9,$2,$3,0*
0 Add four circle primitives for the rounded corners*
1,1,$1+$1,$2,$3*
1,1,$1+$1,$4,$5*
1,1,$1+$1,$6,$7*
1,1,$1+$1,$8,$9*
0 Add four rect primitives between the rounded corners*
20,1,$1+$1,$2,$3,$4,$5,0*
20,1,$1+$1,$4,$5,$6,$7,0*
20,1,$1+$1,$6,$7,$8,$9,0*
20,1,$1+$1,$8,$9,$2,$3,0*%
G04 Aperture macros list end*
%ADD10RoundRect,0.250000X-0.475000X0.250000X-0.475000X-0.250000X0.475000X-0.250000X0.475000X0.250000X0*%
%ADD11RoundRect,0.250000X0.625000X-0.312500X0.625000X0.312500X-0.625000X0.312500X-0.625000X-0.312500X0*%
%ADD12C,2.000000*%
%ADD13R,1.500000X1.050000*%
%ADD14O,1.500000X1.050000*%
%ADD15R,2.200000X2.200000*%
%ADD16O,2.200000X2.200000*%
%ADD17RoundRect,0.250000X-0.250000X-0.475000X0.250000X-0.475000X0.250000X0.475000X-0.250000X0.475000X0*%
%ADD18R,1.700000X1.700000*%
%ADD19O,1.700000X1.700000*%
%ADD20RoundRect,0.225000X0.225000X0.250000X-0.225000X0.250000X-0.225000X-0.250000X0.225000X-0.250000X0*%
%ADD21RoundRect,0.250000X-0.325000X-0.650000X0.325000X-0.650000X0.325000X0.650000X-0.325000X0.650000X0*%
%ADD22RoundRect,0.250000X-0.325000X-1.100000X0.325000X-1.100000X0.325000X1.100000X-0.325000X1.100000X0*%
%ADD23RoundRect,0.250000X-0.625000X0.312500X-0.625000X-0.312500X0.625000X-0.312500X0.625000X0.312500X0*%
%ADD24RoundRect,0.250000X0.250000X0.475000X-0.250000X0.475000X-0.250000X-0.475000X0.250000X-0.475000X0*%
%ADD25C,1.524000*%
%ADD26RoundRect,0.250000X0.312500X0.625000X-0.312500X0.625000X-0.312500X-0.625000X0.312500X-0.625000X0*%
%ADD27R,1.600000X1.600000*%
%ADD28C,1.600000*%
%ADD29C,3.000000*%
%ADD30R,1.800000X2.600000*%
%ADD31O,1.800000X2.600000*%
%ADD32R,2.500000X2.500000*%
%ADD33O,2.500000X2.500000*%
%ADD34RoundRect,0.250000X0.650000X1.550000X-0.650000X1.550000X-0.650000X-1.550000X0.650000X-1.550000X0*%
%ADD35O,1.800000X3.600000*%
%ADD36RoundRect,0.250000X1.550000X-0.650000X1.550000X0.650000X-1.550000X0.650000X-1.550000X-0.650000X0*%
%ADD37O,3.600000X1.800000*%
%ADD38C,1.500000*%
%ADD39R,1.600000X0.550000*%
%ADD40R,0.550000X1.600000*%
%ADD41RoundRect,0.250000X-0.850000X-0.350000X0.850000X-0.350000X0.850000X0.350000X-0.850000X0.350000X0*%
%ADD42RoundRect,0.249997X-2.950003X-2.650003X2.950003X-2.650003X2.950003X2.650003X-2.950003X2.650003X0*%
%ADD43RoundRect,0.225000X-0.250000X0.225000X-0.250000X-0.225000X0.250000X-0.225000X0.250000X0.225000X0*%
%ADD44RoundRect,0.250000X-0.312500X-0.625000X0.312500X-0.625000X0.312500X0.625000X-0.312500X0.625000X0*%
G04 APERTURE END LIST*
D10*
%TO.C,C1*%
X56420000Y-88500000D03*
X56420000Y-90400000D03*
%TD*%
D11*
%TO.C,R13*%
X35120000Y-65712500D03*
X35120000Y-62787500D03*
%TD*%
D12*
%TO.C,SW1*%
X52370000Y-73000000D03*
X58870000Y-73000000D03*
X52370000Y-77500000D03*
X58870000Y-77500000D03*
%TD*%
D13*
%TO.C,Q5*%
X99633250Y-121107500D03*
D14*
X99633250Y-122377500D03*
X99633250Y-123647500D03*
%TD*%
D15*
%TO.C,D10*%
X142213250Y-95700000D03*
D16*
X132053250Y-95700000D03*
%TD*%
D17*
%TO.C,C13*%
X60670000Y-81250000D03*
X62570000Y-81250000D03*
%TD*%
D18*
%TO.C,J13*%
X158825000Y-70350000D03*
D19*
X158825000Y-72890000D03*
%TD*%
D20*
%TO.C,C4*%
X27395000Y-93250000D03*
X25845000Y-93250000D03*
%TD*%
D21*
%TO.C,C25*%
X62158250Y-130110000D03*
X65108250Y-130110000D03*
%TD*%
D22*
%TO.C,C6*%
X68645000Y-83350000D03*
X71595000Y-83350000D03*
%TD*%
D23*
%TO.C,R9*%
X111633250Y-120722500D03*
X111633250Y-123647500D03*
%TD*%
D24*
%TO.C,C19*%
X64470000Y-68850000D03*
X62570000Y-68850000D03*
%TD*%
D25*
%TO.C,U5*%
X129700000Y-28600000D03*
X110700000Y-28600000D03*
X129700000Y-68600000D03*
X110700000Y-68600000D03*
%TD*%
D26*
%TO.C,R18*%
X152845750Y-98700000D03*
X149920750Y-98700000D03*
%TD*%
D15*
%TO.C,D5*%
X110713250Y-130110000D03*
D16*
X100553250Y-130110000D03*
%TD*%
D26*
%TO.C,R17*%
X147845750Y-104450000D03*
X144920750Y-104450000D03*
%TD*%
D27*
%TO.C,C9*%
X115475000Y-75900000D03*
D28*
X112975000Y-75900000D03*
%TD*%
D21*
%TO.C,C26*%
X88158250Y-130110000D03*
X91108250Y-130110000D03*
%TD*%
D15*
%TO.C,D6*%
X34713250Y-130110000D03*
D16*
X24553250Y-130110000D03*
%TD*%
D13*
%TO.C,Q3*%
X123633250Y-121107500D03*
D14*
X123633250Y-122377500D03*
X123633250Y-123647500D03*
%TD*%
D29*
%TO.C,DS1*%
X22520900Y-22600000D03*
X22520900Y-53600700D03*
X97519480Y-53600700D03*
X97520000Y-22600000D03*
D30*
X28020000Y-22600000D03*
D31*
X30560000Y-22600000D03*
X33100000Y-22600000D03*
X35640000Y-22600000D03*
X38180000Y-22600000D03*
X40720000Y-22600000D03*
X43260000Y-22600000D03*
X45800000Y-22600000D03*
X48340000Y-22600000D03*
X50880000Y-22600000D03*
X53420000Y-22600000D03*
X55960000Y-22600000D03*
X58500000Y-22600000D03*
X61040000Y-22600000D03*
X63580000Y-22600000D03*
X66120000Y-22600000D03*
%TD*%
D15*
%TO.C,D3*%
X134713250Y-130110000D03*
D16*
X124553250Y-130110000D03*
%TD*%
D15*
%TO.C,D20*%
X148500000Y-23850000D03*
D16*
X138340000Y-23850000D03*
%TD*%
D32*
%TO.C,K6*%
X29633250Y-138482500D03*
D33*
X23633250Y-140482500D03*
X23633250Y-152682500D03*
X35633250Y-152682500D03*
X35633250Y-140482500D03*
%TD*%
D21*
%TO.C,C24*%
X37158250Y-130110000D03*
X40108250Y-130110000D03*
%TD*%
D17*
%TO.C,C16*%
X62670000Y-99250000D03*
X64570000Y-99250000D03*
%TD*%
D18*
%TO.C,J2*%
X59370000Y-99460000D03*
D19*
X56830000Y-99460000D03*
X59370000Y-102000000D03*
X56830000Y-102000000D03*
X59370000Y-104540000D03*
X56830000Y-104540000D03*
%TD*%
D24*
%TO.C,C14*%
X49370000Y-68850000D03*
X47470000Y-68850000D03*
%TD*%
D17*
%TO.C,C15*%
X38220000Y-95850000D03*
X40120000Y-95850000D03*
%TD*%
D15*
%TO.C,D16*%
X36200000Y-107250000D03*
D16*
X26040000Y-107250000D03*
%TD*%
D20*
%TO.C,C3*%
X27395000Y-88250000D03*
X25845000Y-88250000D03*
%TD*%
D34*
%TO.C,J14*%
X107633250Y-177110000D03*
D35*
X104133250Y-177110000D03*
X100633250Y-177110000D03*
X97133250Y-177110000D03*
X93633250Y-177110000D03*
X90133250Y-177110000D03*
%TD*%
D34*
%TO.C,J8*%
X132633250Y-177110000D03*
D35*
X129133250Y-177110000D03*
X125633250Y-177110000D03*
X122133250Y-177110000D03*
X118633250Y-177110000D03*
X115133250Y-177110000D03*
%TD*%
D26*
%TO.C,R19*%
X147845750Y-100950000D03*
X144920750Y-100950000D03*
%TD*%
D11*
%TO.C,R11*%
X106633250Y-123647500D03*
X106633250Y-120722500D03*
%TD*%
D15*
%TO.C,D7*%
X142213250Y-106200000D03*
D16*
X132053250Y-106200000D03*
%TD*%
D23*
%TO.C,R10*%
X35633250Y-120722500D03*
X35633250Y-123647500D03*
%TD*%
D21*
%TO.C,C5*%
X64045000Y-94742500D03*
X66995000Y-94742500D03*
%TD*%
D32*
%TO.C,K1*%
X152633250Y-138482500D03*
D33*
X146633250Y-140482500D03*
X146633250Y-152682500D03*
X158633250Y-152682500D03*
X158633250Y-140482500D03*
%TD*%
D26*
%TO.C,R20*%
X152845750Y-95200000D03*
X149920750Y-95200000D03*
%TD*%
D18*
%TO.C,J10*%
X158825000Y-60375000D03*
D19*
X158825000Y-62915000D03*
%TD*%
D11*
%TO.C,R8*%
X55633250Y-124110000D03*
X55633250Y-121185000D03*
%TD*%
D26*
%TO.C,R24*%
X152845750Y-88200000D03*
X149920750Y-88200000D03*
%TD*%
D15*
%TO.C,D1*%
X157633250Y-130110000D03*
D16*
X147473250Y-130110000D03*
%TD*%
D23*
%TO.C,R6*%
X60633250Y-121185000D03*
X60633250Y-124110000D03*
%TD*%
D18*
%TO.C,J12*%
X158825000Y-50400000D03*
D19*
X158825000Y-52940000D03*
%TD*%
D11*
%TO.C,R3*%
X153633250Y-124110000D03*
X153633250Y-121185000D03*
%TD*%
D13*
%TO.C,Q1*%
X146633250Y-121107500D03*
D14*
X146633250Y-122377500D03*
X146633250Y-123647500D03*
%TD*%
D15*
%TO.C,D19*%
X124910000Y-23350000D03*
D16*
X114750000Y-23350000D03*
%TD*%
D15*
%TO.C,D9*%
X142213250Y-99200000D03*
D16*
X132053250Y-99200000D03*
%TD*%
D26*
%TO.C,R22*%
X152845750Y-91700000D03*
X149920750Y-91700000D03*
%TD*%
D21*
%TO.C,C22*%
X137633250Y-130110000D03*
X140583250Y-130110000D03*
%TD*%
D34*
%TO.C,J9*%
X49120000Y-107607500D03*
D35*
X45620000Y-107607500D03*
X42120000Y-107607500D03*
%TD*%
D36*
%TO.C,J6*%
X159133250Y-104700000D03*
D37*
X159133250Y-101200000D03*
X159133250Y-97700000D03*
X159133250Y-94200000D03*
X159133250Y-90700000D03*
X159133250Y-87200000D03*
%TD*%
D15*
%TO.C,D17*%
X36200000Y-103750000D03*
D16*
X26040000Y-103750000D03*
%TD*%
D38*
%TO.C,Y1*%
X31870000Y-93200000D03*
X31870000Y-88320000D03*
%TD*%
D11*
%TO.C,R7*%
X130633250Y-123647500D03*
X130633250Y-120722500D03*
%TD*%
D15*
%TO.C,D8*%
X142213250Y-102700000D03*
D16*
X132053250Y-102700000D03*
%TD*%
D23*
%TO.C,R2*%
X86633250Y-121185000D03*
X86633250Y-124110000D03*
%TD*%
%TO.C,R1*%
X158633250Y-121185000D03*
X158633250Y-124110000D03*
%TD*%
D11*
%TO.C,R12*%
X30633250Y-123647500D03*
X30633250Y-120722500D03*
%TD*%
D26*
%TO.C,R23*%
X147845750Y-93950000D03*
X144920750Y-93950000D03*
%TD*%
D32*
%TO.C,K3*%
X105633250Y-138482500D03*
D33*
X99633250Y-140482500D03*
X99633250Y-152682500D03*
X111633250Y-152682500D03*
X111633250Y-140482500D03*
%TD*%
D26*
%TO.C,R27*%
X147845750Y-86950000D03*
X144920750Y-86950000D03*
%TD*%
D32*
%TO.C,K2*%
X129633250Y-138482500D03*
D33*
X123633250Y-140482500D03*
X123633250Y-152682500D03*
X135633250Y-152682500D03*
X135633250Y-140482500D03*
%TD*%
D39*
%TO.C,U1*%
X43720000Y-87200000D03*
X43720000Y-88000000D03*
X43720000Y-88800000D03*
X43720000Y-89600000D03*
X43720000Y-90400000D03*
X43720000Y-91200000D03*
X43720000Y-92000000D03*
X43720000Y-92800000D03*
D40*
X45170000Y-94250000D03*
X45970000Y-94250000D03*
X46770000Y-94250000D03*
X47570000Y-94250000D03*
X48370000Y-94250000D03*
X49170000Y-94250000D03*
X49970000Y-94250000D03*
X50770000Y-94250000D03*
D39*
X52220000Y-92800000D03*
X52220000Y-92000000D03*
X52220000Y-91200000D03*
X52220000Y-90400000D03*
X52220000Y-89600000D03*
X52220000Y-88800000D03*
X52220000Y-88000000D03*
X52220000Y-87200000D03*
D40*
X50770000Y-85750000D03*
X49970000Y-85750000D03*
X49170000Y-85750000D03*
X48370000Y-85750000D03*
X47570000Y-85750000D03*
X46770000Y-85750000D03*
X45970000Y-85750000D03*
X45170000Y-85750000D03*
%TD*%
D13*
%TO.C,Q2*%
X74633250Y-121107500D03*
D14*
X74633250Y-122377500D03*
X74633250Y-123647500D03*
%TD*%
D21*
%TO.C,C21*%
X160158250Y-130110000D03*
X163108250Y-130110000D03*
%TD*%
D11*
%TO.C,R4*%
X81633250Y-124110000D03*
X81633250Y-121185000D03*
%TD*%
D17*
%TO.C,C20*%
X54070000Y-86150000D03*
X55970000Y-86150000D03*
%TD*%
D41*
%TO.C,U3*%
X64020000Y-87242500D03*
X64020000Y-89522500D03*
D42*
X70320000Y-89522500D03*
D41*
X64020000Y-91802500D03*
%TD*%
D38*
%TO.C,U2*%
X40930000Y-79450000D03*
X40930000Y-76910000D03*
X40930000Y-74370000D03*
X40930000Y-71830000D03*
X43470000Y-79450000D03*
X43470000Y-76910000D03*
X43470000Y-74370000D03*
X43470000Y-71830000D03*
%TD*%
D18*
%TO.C,J5*%
X158825000Y-30450000D03*
D19*
X158825000Y-32990000D03*
%TD*%
D27*
%TO.C,C11*%
X138775000Y-75900000D03*
D28*
X136275000Y-75900000D03*
%TD*%
D43*
%TO.C,C2*%
X58720000Y-88875000D03*
X58720000Y-90425000D03*
%TD*%
D15*
%TO.C,D2*%
X85713250Y-130110000D03*
D16*
X75553250Y-130110000D03*
%TD*%
D13*
%TO.C,Q6*%
X23633250Y-121107500D03*
D14*
X23633250Y-122377500D03*
X23633250Y-123647500D03*
%TD*%
D23*
%TO.C,R5*%
X135633250Y-120722500D03*
X135633250Y-123647500D03*
%TD*%
D18*
%TO.C,J4*%
X158825000Y-40425000D03*
D19*
X158825000Y-42965000D03*
%TD*%
D15*
%TO.C,D12*%
X142213250Y-88700000D03*
D16*
X132053250Y-88700000D03*
%TD*%
D18*
%TO.C,J1*%
X38580000Y-63750000D03*
D19*
X41120000Y-63750000D03*
X43660000Y-63750000D03*
%TD*%
D26*
%TO.C,R16*%
X152845750Y-102200000D03*
X149920750Y-102200000D03*
%TD*%
D17*
%TO.C,C18*%
X38370000Y-88150000D03*
X40270000Y-88150000D03*
%TD*%
D32*
%TO.C,K4*%
X80633250Y-138482500D03*
D33*
X74633250Y-140482500D03*
X74633250Y-152682500D03*
X86633250Y-152682500D03*
X86633250Y-140482500D03*
%TD*%
D34*
%TO.C,J7*%
X158133250Y-177110000D03*
D35*
X154633250Y-177110000D03*
X151133250Y-177110000D03*
X147633250Y-177110000D03*
X144133250Y-177110000D03*
X140633250Y-177110000D03*
%TD*%
D13*
%TO.C,Q4*%
X48633250Y-121107500D03*
D14*
X48633250Y-122377500D03*
X48633250Y-123647500D03*
%TD*%
D26*
%TO.C,R26*%
X152845750Y-84700000D03*
X149920750Y-84700000D03*
%TD*%
D21*
%TO.C,C23*%
X113158250Y-130110000D03*
X116108250Y-130110000D03*
%TD*%
D44*
%TO.C,R14*%
X37837500Y-84900000D03*
X40762500Y-84900000D03*
%TD*%
D15*
%TO.C,D18*%
X36200000Y-100250000D03*
D16*
X26040000Y-100250000D03*
%TD*%
D15*
%TO.C,D4*%
X59793250Y-130110000D03*
D16*
X49633250Y-130110000D03*
%TD*%
D44*
%TO.C,R15*%
X52657500Y-68250000D03*
X55582500Y-68250000D03*
%TD*%
D32*
%TO.C,K5*%
X54633250Y-138482500D03*
D33*
X48633250Y-140482500D03*
X48633250Y-152682500D03*
X60633250Y-152682500D03*
X60633250Y-140482500D03*
%TD*%
D17*
%TO.C,C17*%
X54070000Y-95250000D03*
X55970000Y-95250000D03*
%TD*%
D15*
%TO.C,D11*%
X142213250Y-92200000D03*
D16*
X132053250Y-92200000D03*
%TD*%
D26*
%TO.C,R25*%
X147845750Y-90450000D03*
X144920750Y-90450000D03*
%TD*%
D25*
%TO.C,U4*%
X153000000Y-28600000D03*
X134000000Y-28600000D03*
X153000000Y-68600000D03*
X134000000Y-68600000D03*
%TD*%
D18*
%TO.C,J3*%
X64920000Y-74610000D03*
D19*
X64920000Y-77150000D03*
%TD*%
D26*
%TO.C,R21*%
X147845750Y-97450000D03*
X144920750Y-97450000D03*
%TD*%
M02*
