%TF.GenerationSoftware,KiCad,Pcbnew,8.0.7*%
%TF.CreationDate,2025-02-23T09:23:23-08:00*%
%TF.ProjectId,M56Controller,4d353643-6f6e-4747-926f-6c6c65722e6b,rev?*%
%TF.SameCoordinates,Original*%
%TF.FileFunction,Copper,L3,Inr*%
%TF.FilePolarity,Positive*%
%FSLAX46Y46*%
G04 Gerber Fmt 4.6, Leading zero omitted, Abs format (unit mm)*
G04 Created by KiCad (PCBNEW 8.0.7) date 2025-02-23 09:23:23*
%MOMM*%
%LPD*%
G01*
G04 APERTURE LIST*
G04 Aperture macros list*
%AMRoundRect*
0 Rectangle with rounded corners*
0 $1 Rounding radius*
0 $2 $3 $4 $5 $6 $7 $8 $9 X,Y pos of 4 corners*
0 Add a 4 corners polygon primitive as box body*
4,1,4,$2,$3,$4,$5,$6,$7,$8,$9,$2,$3,0*
0 Add four circle primitives for the rounded corners*
1,1,$1+$1,$2,$3*
1,1,$1+$1,$4,$5*
1,1,$1+$1,$6,$7*
1,1,$1+$1,$8,$9*
0 Add four rect primitives between the rounded corners*
20,1,$1+$1,$2,$3,$4,$5,0*
20,1,$1+$1,$4,$5,$6,$7,0*
20,1,$1+$1,$6,$7,$8,$9,0*
20,1,$1+$1,$8,$9,$2,$3,0*%
G04 Aperture macros list end*
%TA.AperFunction,ComponentPad*%
%ADD10C,2.000000*%
%TD*%
%TA.AperFunction,ComponentPad*%
%ADD11R,1.500000X1.050000*%
%TD*%
%TA.AperFunction,ComponentPad*%
%ADD12O,1.500000X1.050000*%
%TD*%
%TA.AperFunction,ComponentPad*%
%ADD13R,2.200000X2.200000*%
%TD*%
%TA.AperFunction,ComponentPad*%
%ADD14O,2.200000X2.200000*%
%TD*%
%TA.AperFunction,ComponentPad*%
%ADD15R,1.700000X1.700000*%
%TD*%
%TA.AperFunction,ComponentPad*%
%ADD16O,1.700000X1.700000*%
%TD*%
%TA.AperFunction,ComponentPad*%
%ADD17C,1.524000*%
%TD*%
%TA.AperFunction,ComponentPad*%
%ADD18R,1.600000X1.600000*%
%TD*%
%TA.AperFunction,ComponentPad*%
%ADD19C,1.600000*%
%TD*%
%TA.AperFunction,ComponentPad*%
%ADD20C,3.000000*%
%TD*%
%TA.AperFunction,ComponentPad*%
%ADD21R,1.800000X2.600000*%
%TD*%
%TA.AperFunction,ComponentPad*%
%ADD22O,1.800000X2.600000*%
%TD*%
%TA.AperFunction,ComponentPad*%
%ADD23R,2.500000X2.500000*%
%TD*%
%TA.AperFunction,ComponentPad*%
%ADD24O,2.500000X2.500000*%
%TD*%
%TA.AperFunction,ComponentPad*%
%ADD25RoundRect,0.250000X0.650000X1.550000X-0.650000X1.550000X-0.650000X-1.550000X0.650000X-1.550000X0*%
%TD*%
%TA.AperFunction,ComponentPad*%
%ADD26O,1.800000X3.600000*%
%TD*%
%TA.AperFunction,ComponentPad*%
%ADD27RoundRect,0.250000X1.550000X-0.650000X1.550000X0.650000X-1.550000X0.650000X-1.550000X-0.650000X0*%
%TD*%
%TA.AperFunction,ComponentPad*%
%ADD28O,3.600000X1.800000*%
%TD*%
%TA.AperFunction,ComponentPad*%
%ADD29C,1.500000*%
%TD*%
%TA.AperFunction,ViaPad*%
%ADD30C,0.600000*%
%TD*%
%TA.AperFunction,ViaPad*%
%ADD31C,1.000000*%
%TD*%
G04 APERTURE END LIST*
D10*
%TO.N,/Controller/MCU_RESET*%
%TO.C,SW1*%
X52370000Y-73000000D03*
X58870000Y-73000000D03*
%TO.N,GND*%
X52370000Y-77500000D03*
X58870000Y-77500000D03*
%TD*%
D11*
%TO.N,GND*%
%TO.C,Q5*%
X99633250Y-121107500D03*
D12*
%TO.N,Net-(Q5-B)*%
X99633250Y-122377500D03*
%TO.N,Net-(D5-A)*%
X99633250Y-123647500D03*
%TD*%
D13*
%TO.N,/Controller/VoltageDividers/AVOUT4*%
%TO.C,D10*%
X142213250Y-95700000D03*
D14*
%TO.N,GND*%
X132053250Y-95700000D03*
%TD*%
D15*
%TO.N,+3.3V*%
%TO.C,J13*%
X158825000Y-70350000D03*
D16*
%TO.N,GND*%
X158825000Y-72890000D03*
%TD*%
D17*
%TO.N,/Power Supply/VIN*%
%TO.C,U5*%
X129700000Y-28600000D03*
%TO.N,Net-(D19-A)*%
X110700000Y-28600000D03*
%TO.N,+12V*%
X129700000Y-68600000D03*
%TO.N,GND*%
X110700000Y-68600000D03*
%TD*%
D13*
%TO.N,+12V*%
%TO.C,D5*%
X110713250Y-130110000D03*
D14*
%TO.N,Net-(D5-A)*%
X100553250Y-130110000D03*
%TD*%
D18*
%TO.N,+12V*%
%TO.C,C9*%
X115475000Y-75900000D03*
D19*
%TO.N,GND*%
X112975000Y-75900000D03*
%TD*%
D13*
%TO.N,+12V*%
%TO.C,D6*%
X34713250Y-130110000D03*
D14*
%TO.N,Net-(D6-A)*%
X24553250Y-130110000D03*
%TD*%
D11*
%TO.N,GND*%
%TO.C,Q3*%
X123633250Y-121107500D03*
D12*
%TO.N,Net-(Q3-B)*%
X123633250Y-122377500D03*
%TO.N,Net-(D3-A)*%
X123633250Y-123647500D03*
%TD*%
D20*
%TO.N,*%
%TO.C,DS1*%
X22520900Y-22600000D03*
X22520900Y-53600700D03*
X97519480Y-53600700D03*
X97520000Y-22600000D03*
D21*
%TO.N,unconnected-(DS1-VSS-Pad1)*%
X28020000Y-22600000D03*
D22*
%TO.N,unconnected-(DS1-VDD-Pad2)*%
X30560000Y-22600000D03*
%TO.N,unconnected-(DS1-VO-Pad3)*%
X33100000Y-22600000D03*
%TO.N,unconnected-(DS1-RS-Pad4)*%
X35640000Y-22600000D03*
%TO.N,unconnected-(DS1-R{slash}W-Pad5)*%
X38180000Y-22600000D03*
%TO.N,unconnected-(DS1-E-Pad6)*%
X40720000Y-22600000D03*
%TO.N,unconnected-(DS1-D0-Pad7)*%
X43260000Y-22600000D03*
%TO.N,unconnected-(DS1-D1-Pad8)*%
X45800000Y-22600000D03*
%TO.N,unconnected-(DS1-D2-Pad9)*%
X48340000Y-22600000D03*
%TO.N,unconnected-(DS1-D3-Pad10)*%
X50880000Y-22600000D03*
%TO.N,unconnected-(DS1-D4-Pad11)*%
X53420000Y-22600000D03*
%TO.N,unconnected-(DS1-D5-Pad12)*%
X55960000Y-22600000D03*
%TO.N,unconnected-(DS1-D6-Pad13)*%
X58500000Y-22600000D03*
%TO.N,unconnected-(DS1-D7-Pad14)*%
X61040000Y-22600000D03*
%TO.N,unconnected-(DS1-LED(+)-Pad15)*%
X63580000Y-22600000D03*
%TO.N,unconnected-(DS1-LED(-)-Pad16)*%
X66120000Y-22600000D03*
%TD*%
D13*
%TO.N,+12V*%
%TO.C,D3*%
X134713250Y-130110000D03*
D14*
%TO.N,Net-(D3-A)*%
X124553250Y-130110000D03*
%TD*%
D13*
%TO.N,/Power Supply/VIN*%
%TO.C,D20*%
X148500000Y-23850000D03*
D14*
%TO.N,Net-(D19-A)*%
X138340000Y-23850000D03*
%TD*%
D23*
%TO.N,/RelayDriver/RELAY6IN*%
%TO.C,K6*%
X29633250Y-138482500D03*
D24*
%TO.N,Net-(D6-A)*%
X23633250Y-140482500D03*
%TO.N,/RelayDriver/RELAY6OUT_NO*%
X23633250Y-152682500D03*
%TO.N,/RelayDriver/RELAY6OUT_NC*%
X35633250Y-152682500D03*
%TO.N,+12V*%
X35633250Y-140482500D03*
%TD*%
D15*
%TO.N,/Controller/MCU_MISO*%
%TO.C,J2*%
X59370000Y-99460000D03*
D16*
%TO.N,+5V*%
X56830000Y-99460000D03*
%TO.N,/Controller/MCU_SCK*%
X59370000Y-102000000D03*
%TO.N,/Controller/MCU_MOSI*%
X56830000Y-102000000D03*
%TO.N,/Controller/MCU_RESET*%
X59370000Y-104540000D03*
%TO.N,GND*%
X56830000Y-104540000D03*
%TD*%
D13*
%TO.N,/Controller/AUXIO1*%
%TO.C,D16*%
X36200000Y-107250000D03*
D14*
%TO.N,GND*%
X26040000Y-107250000D03*
%TD*%
D25*
%TO.N,/RelayDriver/RELAY5IN*%
%TO.C,J14*%
X107633250Y-177110000D03*
D26*
%TO.N,/RelayDriver/RELAY5OUT_NC*%
X104133250Y-177110000D03*
%TO.N,/RelayDriver/RELAY5OUT_NO*%
X100633250Y-177110000D03*
%TO.N,/RelayDriver/RELAY6IN*%
X97133250Y-177110000D03*
%TO.N,/RelayDriver/RELAY6OUT_NC*%
X93633250Y-177110000D03*
%TO.N,/RelayDriver/RELAY6OUT_NO*%
X90133250Y-177110000D03*
%TD*%
D25*
%TO.N,/RelayDriver/RELAY3IN*%
%TO.C,J8*%
X132633250Y-177110000D03*
D26*
%TO.N,/RelayDriver/RELAY3OUT_NC*%
X129133250Y-177110000D03*
%TO.N,/RelayDriver/RELAY3OUT_NO*%
X125633250Y-177110000D03*
%TO.N,/RelayDriver/RELAY4IN*%
X122133250Y-177110000D03*
%TO.N,/RelayDriver/RELAY4OUT_NC*%
X118633250Y-177110000D03*
%TO.N,/RelayDriver/RELAY4OUT_NO*%
X115133250Y-177110000D03*
%TD*%
D13*
%TO.N,/Controller/VoltageDividers/AVOUT1*%
%TO.C,D7*%
X142213250Y-106200000D03*
D14*
%TO.N,GND*%
X132053250Y-106200000D03*
%TD*%
D23*
%TO.N,/RelayDriver/RELAY1IN*%
%TO.C,K1*%
X152633250Y-138482500D03*
D24*
%TO.N,Net-(D1-A)*%
X146633250Y-140482500D03*
%TO.N,/RelayDriver/RELAY1OUT_NO*%
X146633250Y-152682500D03*
%TO.N,/RelayDriver/RELAY1OUT_NC*%
X158633250Y-152682500D03*
%TO.N,+12V*%
X158633250Y-140482500D03*
%TD*%
D15*
%TO.N,Net-(D19-A)*%
%TO.C,J10*%
X158825000Y-60375000D03*
D16*
%TO.N,/Power Supply/VIN*%
X158825000Y-62915000D03*
%TD*%
D13*
%TO.N,+12V*%
%TO.C,D1*%
X157633250Y-130110000D03*
D14*
%TO.N,Net-(D1-A)*%
X147473250Y-130110000D03*
%TD*%
D15*
%TO.N,+5V*%
%TO.C,J12*%
X158825000Y-50400000D03*
D16*
%TO.N,GND*%
X158825000Y-52940000D03*
%TD*%
D11*
%TO.N,GND*%
%TO.C,Q1*%
X146633250Y-121107500D03*
D12*
%TO.N,Net-(Q1-B)*%
X146633250Y-122377500D03*
%TO.N,Net-(D1-A)*%
X146633250Y-123647500D03*
%TD*%
D13*
%TO.N,/Power Supply/VIN*%
%TO.C,D19*%
X124910000Y-23350000D03*
D14*
%TO.N,Net-(D19-A)*%
X114750000Y-23350000D03*
%TD*%
D13*
%TO.N,/Controller/VoltageDividers/AVOUT3*%
%TO.C,D9*%
X142213250Y-99200000D03*
D14*
%TO.N,GND*%
X132053250Y-99200000D03*
%TD*%
D25*
%TO.N,/Controller/AUXIO3*%
%TO.C,J9*%
X49120000Y-107607500D03*
D26*
%TO.N,/Controller/AUXIO2*%
X45620000Y-107607500D03*
%TO.N,/Controller/AUXIO1*%
X42120000Y-107607500D03*
%TD*%
D27*
%TO.N,/Controller/VoltageDividers/AVIN1*%
%TO.C,J6*%
X159133250Y-104700000D03*
D28*
%TO.N,/Controller/VoltageDividers/AVIN2*%
X159133250Y-101200000D03*
%TO.N,/Controller/VoltageDividers/AVIN3*%
X159133250Y-97700000D03*
%TO.N,/Controller/VoltageDividers/AVIN4*%
X159133250Y-94200000D03*
%TO.N,/Controller/VoltageDividers/AVIN5*%
X159133250Y-90700000D03*
%TO.N,/Controller/VoltageDividers/AVIN6*%
X159133250Y-87200000D03*
%TD*%
D13*
%TO.N,/Controller/AUXIO2*%
%TO.C,D17*%
X36200000Y-103750000D03*
D14*
%TO.N,GND*%
X26040000Y-103750000D03*
%TD*%
D29*
%TO.N,Net-(U1-XTAL2{slash}PB7)*%
%TO.C,Y1*%
X31870000Y-93200000D03*
%TO.N,Net-(U1-XTAL1{slash}PB6)*%
X31870000Y-88320000D03*
%TD*%
D13*
%TO.N,/Controller/VoltageDividers/AVOUT2*%
%TO.C,D8*%
X142213250Y-102700000D03*
D14*
%TO.N,GND*%
X132053250Y-102700000D03*
%TD*%
D23*
%TO.N,/RelayDriver/RELAY3IN*%
%TO.C,K3*%
X105633250Y-138482500D03*
D24*
%TO.N,Net-(D5-A)*%
X99633250Y-140482500D03*
%TO.N,/RelayDriver/RELAY3OUT_NO*%
X99633250Y-152682500D03*
%TO.N,/RelayDriver/RELAY3OUT_NC*%
X111633250Y-152682500D03*
%TO.N,+12V*%
X111633250Y-140482500D03*
%TD*%
D23*
%TO.N,/RelayDriver/RELAY2IN*%
%TO.C,K2*%
X129633250Y-138482500D03*
D24*
%TO.N,Net-(D3-A)*%
X123633250Y-140482500D03*
%TO.N,/RelayDriver/RELAY2OUT_NO*%
X123633250Y-152682500D03*
%TO.N,/RelayDriver/RELAY2OUT_NC*%
X135633250Y-152682500D03*
%TO.N,+12V*%
X135633250Y-140482500D03*
%TD*%
D11*
%TO.N,GND*%
%TO.C,Q2*%
X74633250Y-121107500D03*
D12*
%TO.N,Net-(Q2-B)*%
X74633250Y-122377500D03*
%TO.N,Net-(D2-A)*%
X74633250Y-123647500D03*
%TD*%
D29*
%TO.N,/Controller/ESP_TX*%
%TO.C,U2*%
X40930000Y-79450000D03*
%TO.N,GND*%
X40930000Y-76910000D03*
%TO.N,unconnected-(U2-CH_PD-Pad3)*%
X40930000Y-74370000D03*
%TO.N,unconnected-(U2-GPIO2-Pad4)*%
X40930000Y-71830000D03*
%TO.N,/Controller/ESP_RST*%
X43470000Y-79450000D03*
%TO.N,unconnected-(U2-GPIO0-Pad6)*%
X43470000Y-76910000D03*
%TO.N,+3.3V*%
X43470000Y-74370000D03*
%TO.N,Net-(U2-URXD)*%
X43470000Y-71830000D03*
%TD*%
D15*
%TO.N,/Controller/MCU_SDA*%
%TO.C,J5*%
X158825000Y-30450000D03*
D16*
%TO.N,/Controller/MCU_SCL*%
X158825000Y-32990000D03*
%TD*%
D18*
%TO.N,+5V*%
%TO.C,C11*%
X138775000Y-75900000D03*
D19*
%TO.N,GND*%
X136275000Y-75900000D03*
%TD*%
D13*
%TO.N,+12V*%
%TO.C,D2*%
X85713250Y-130110000D03*
D14*
%TO.N,Net-(D2-A)*%
X75553250Y-130110000D03*
%TD*%
D11*
%TO.N,GND*%
%TO.C,Q6*%
X23633250Y-121107500D03*
D12*
%TO.N,Net-(Q6-B)*%
X23633250Y-122377500D03*
%TO.N,Net-(D6-A)*%
X23633250Y-123647500D03*
%TD*%
D15*
%TO.N,/Controller/MCU_SDA*%
%TO.C,J4*%
X158825000Y-40425000D03*
D16*
%TO.N,/Controller/MCU_SCL*%
X158825000Y-42965000D03*
%TD*%
D13*
%TO.N,/Controller/ANALOG7*%
%TO.C,D12*%
X142213250Y-88700000D03*
D14*
%TO.N,GND*%
X132053250Y-88700000D03*
%TD*%
D15*
%TO.N,+3.3V*%
%TO.C,J1*%
X38580000Y-63750000D03*
D16*
%TO.N,/Controller/ESP_RST*%
X41120000Y-63750000D03*
%TO.N,GND*%
X43660000Y-63750000D03*
%TD*%
D23*
%TO.N,/RelayDriver/RELAY4IN*%
%TO.C,K4*%
X80633250Y-138482500D03*
D24*
%TO.N,Net-(D2-A)*%
X74633250Y-140482500D03*
%TO.N,/RelayDriver/RELAY4OUT_NO*%
X74633250Y-152682500D03*
%TO.N,/RelayDriver/RELAY4OUT_NC*%
X86633250Y-152682500D03*
%TO.N,+12V*%
X86633250Y-140482500D03*
%TD*%
D25*
%TO.N,/RelayDriver/RELAY1IN*%
%TO.C,J7*%
X158133250Y-177110000D03*
D26*
%TO.N,/RelayDriver/RELAY1OUT_NC*%
X154633250Y-177110000D03*
%TO.N,/RelayDriver/RELAY1OUT_NO*%
X151133250Y-177110000D03*
%TO.N,/RelayDriver/RELAY2IN*%
X147633250Y-177110000D03*
%TO.N,/RelayDriver/RELAY2OUT_NC*%
X144133250Y-177110000D03*
%TO.N,/RelayDriver/RELAY2OUT_NO*%
X140633250Y-177110000D03*
%TD*%
D11*
%TO.N,GND*%
%TO.C,Q4*%
X48633250Y-121107500D03*
D12*
%TO.N,Net-(Q4-B)*%
X48633250Y-122377500D03*
%TO.N,Net-(D4-A)*%
X48633250Y-123647500D03*
%TD*%
D13*
%TO.N,/Controller/AUXIO3*%
%TO.C,D18*%
X36200000Y-100250000D03*
D14*
%TO.N,GND*%
X26040000Y-100250000D03*
%TD*%
D13*
%TO.N,+12V*%
%TO.C,D4*%
X59793250Y-130110000D03*
D14*
%TO.N,Net-(D4-A)*%
X49633250Y-130110000D03*
%TD*%
D23*
%TO.N,/RelayDriver/RELAY5IN*%
%TO.C,K5*%
X54633250Y-138482500D03*
D24*
%TO.N,Net-(D4-A)*%
X48633250Y-140482500D03*
%TO.N,/RelayDriver/RELAY5OUT_NO*%
X48633250Y-152682500D03*
%TO.N,/RelayDriver/RELAY5OUT_NC*%
X60633250Y-152682500D03*
%TO.N,+12V*%
X60633250Y-140482500D03*
%TD*%
D13*
%TO.N,/Controller/ANALOG6*%
%TO.C,D11*%
X142213250Y-92200000D03*
D14*
%TO.N,GND*%
X132053250Y-92200000D03*
%TD*%
D17*
%TO.N,/Power Supply/VIN*%
%TO.C,U4*%
X153000000Y-28600000D03*
%TO.N,Net-(D19-A)*%
X134000000Y-28600000D03*
%TO.N,+5V*%
X153000000Y-68600000D03*
%TO.N,GND*%
X134000000Y-68600000D03*
%TD*%
D15*
%TO.N,Net-(J3-Pin_1)*%
%TO.C,J3*%
X64920000Y-74610000D03*
D16*
%TO.N,+5V*%
X64920000Y-77150000D03*
%TD*%
D30*
%TO.N,GND*%
X31800000Y-110600000D03*
X60400000Y-68500000D03*
X26200000Y-111300000D03*
X24800000Y-110600000D03*
X30400000Y-111300000D03*
D31*
X136883250Y-102700000D03*
X136883250Y-92200000D03*
D30*
X31100000Y-111600000D03*
X32400000Y-111600000D03*
X46000000Y-80800000D03*
X31800000Y-111300000D03*
X64020000Y-85242500D03*
X25845000Y-91750000D03*
X41820000Y-96550000D03*
X28300000Y-110900000D03*
X57520000Y-95850000D03*
X26900000Y-111600000D03*
X24100000Y-111600000D03*
X29700000Y-110200000D03*
X24800000Y-111300000D03*
X29000000Y-109900000D03*
X50120000Y-89750000D03*
X29700000Y-110900000D03*
X30400000Y-109900000D03*
X23400000Y-109900000D03*
X26900000Y-110900000D03*
X45120000Y-90750000D03*
X33100000Y-109900000D03*
D31*
X136883250Y-88700000D03*
D30*
X24100000Y-110200000D03*
X40620000Y-89950000D03*
X64120000Y-81850000D03*
X30400000Y-110600000D03*
X66320000Y-99650000D03*
X25845000Y-89750000D03*
X26900000Y-110200000D03*
X23400000Y-110600000D03*
X29700000Y-111600000D03*
X29000000Y-111300000D03*
D31*
X136883250Y-95700000D03*
D30*
X28300000Y-111600000D03*
X69020000Y-94742500D03*
D31*
X136883250Y-106200000D03*
D30*
X25845000Y-90750000D03*
X45620000Y-89250000D03*
X31100000Y-110200000D03*
X32400000Y-110200000D03*
X71595000Y-80900000D03*
X25500000Y-110900000D03*
X29000000Y-110600000D03*
X27600000Y-109900000D03*
X26200000Y-110600000D03*
X24800000Y-109900000D03*
X32400000Y-110900000D03*
X33100000Y-110600000D03*
X27600000Y-110600000D03*
D31*
X136883250Y-99200000D03*
D30*
X33100000Y-111300000D03*
X28300000Y-110200000D03*
X23400000Y-111300000D03*
X25500000Y-111600000D03*
X25500000Y-110200000D03*
X71600000Y-80100000D03*
X48400000Y-67400000D03*
X27600000Y-111300000D03*
X58320000Y-87350000D03*
X26200000Y-109900000D03*
X24100000Y-110900000D03*
X31800000Y-109900000D03*
X31100000Y-110900000D03*
%TO.N,+5V*%
X66200000Y-68600000D03*
X61200000Y-91802500D03*
X37720000Y-89950000D03*
X45120000Y-91750000D03*
X54300000Y-84700000D03*
X46120000Y-90250000D03*
X48400000Y-70800000D03*
X50120000Y-91750000D03*
X52520000Y-96150000D03*
X36620000Y-96450000D03*
X61900000Y-91802500D03*
X58720000Y-81750000D03*
%TO.N,+3.3V*%
X59223750Y-86446250D03*
%TO.N,+12V*%
X117800000Y-116400000D03*
X121300000Y-116400000D03*
X120600000Y-116400000D03*
X122000000Y-116400000D03*
X119200000Y-116400000D03*
X123400000Y-116400000D03*
X117100000Y-116400000D03*
X122700000Y-116400000D03*
X118500000Y-116400000D03*
X119900000Y-116400000D03*
%TO.N,/Controller/VoltageDividers/AVOUT1*%
X54600000Y-89500000D03*
%TO.N,/Controller/VoltageDividers/AVOUT2*%
X54600000Y-88700000D03*
%TO.N,/Controller/VoltageDividers/AVOUT3*%
X50800000Y-84300000D03*
%TO.N,/Controller/VoltageDividers/AVOUT4*%
X50000000Y-84300000D03*
%TO.N,/Controller/ANALOG6*%
X59321323Y-92078677D03*
%TO.N,/Controller/ANALOG7*%
X50300000Y-88200000D03*
X55800000Y-93800000D03*
X62100000Y-93800000D03*
%TO.N,/Controller/MCU_RESET*%
X48120000Y-88000000D03*
X47570000Y-84250000D03*
%TO.N,/Controller/MCU_SCK*%
X52220000Y-94850000D03*
%TO.N,/Controller/MCU_SCL*%
X48370000Y-84300000D03*
X141600000Y-41400000D03*
%TO.N,/Controller/MCU_SDA*%
X141600000Y-40400000D03*
X48500000Y-82600000D03*
%TO.N,/Controller/RELAY1*%
X158633250Y-114000000D03*
X44200000Y-85400000D03*
%TO.N,/Controller/RELAY4*%
X86633250Y-113900000D03*
X45200000Y-96000000D03*
%TO.N,/Controller/RELAY2*%
X135600000Y-113900000D03*
X42200000Y-86700000D03*
%TO.N,/Controller/RELAY5*%
X45313137Y-96791962D03*
X60633250Y-113900000D03*
%TO.N,/Controller/RELAY3*%
X111633250Y-113900000D03*
X42200000Y-87800000D03*
%TO.N,/Controller/RELAY6*%
X46600000Y-96000000D03*
X35633250Y-113900000D03*
%TD*%
%TA.AperFunction,Conductor*%
%TO.N,+5V*%
G36*
X46844211Y-83900476D02*
G01*
X46784631Y-84070745D01*
X46784630Y-84070750D01*
X46764435Y-84249996D01*
X46764435Y-84250003D01*
X46784630Y-84429249D01*
X46784631Y-84429254D01*
X46844211Y-84599523D01*
X46938762Y-84749999D01*
X46940184Y-84752262D01*
X47067738Y-84879816D01*
X47220478Y-84975789D01*
X47363364Y-85025787D01*
X47390745Y-85035368D01*
X47390750Y-85035369D01*
X47569996Y-85055565D01*
X47570000Y-85055565D01*
X47570004Y-85055565D01*
X47749249Y-85035369D01*
X47749251Y-85035368D01*
X47749255Y-85035368D01*
X47749258Y-85035366D01*
X47749262Y-85035366D01*
X47876890Y-84990707D01*
X47946669Y-84987145D01*
X47983816Y-85002754D01*
X48020474Y-85025787D01*
X48020475Y-85025787D01*
X48020478Y-85025789D01*
X48190739Y-85085366D01*
X48190745Y-85085368D01*
X48190750Y-85085369D01*
X48369996Y-85105565D01*
X48370000Y-85105565D01*
X48370004Y-85105565D01*
X48549249Y-85085369D01*
X48549252Y-85085368D01*
X48549255Y-85085368D01*
X48719522Y-85025789D01*
X48872262Y-84929816D01*
X48999816Y-84802262D01*
X49080006Y-84674639D01*
X49132341Y-84628349D01*
X49201394Y-84617701D01*
X49265243Y-84646076D01*
X49289992Y-84674638D01*
X49370184Y-84802262D01*
X49497738Y-84929816D01*
X49560212Y-84969071D01*
X49650474Y-85025787D01*
X49650478Y-85025789D01*
X49735573Y-85055565D01*
X49820745Y-85085368D01*
X49820750Y-85085369D01*
X49999996Y-85105565D01*
X50000000Y-85105565D01*
X50000004Y-85105565D01*
X50179249Y-85085369D01*
X50179251Y-85085368D01*
X50179255Y-85085368D01*
X50179258Y-85085366D01*
X50179262Y-85085366D01*
X50356095Y-85023489D01*
X50356846Y-85025637D01*
X50415128Y-85016035D01*
X50443588Y-85024392D01*
X50443905Y-85023489D01*
X50620737Y-85085366D01*
X50620743Y-85085367D01*
X50620745Y-85085368D01*
X50620746Y-85085368D01*
X50620750Y-85085369D01*
X50799996Y-85105565D01*
X50800000Y-85105565D01*
X50800004Y-85105565D01*
X50979249Y-85085369D01*
X50979252Y-85085368D01*
X50979255Y-85085368D01*
X51149522Y-85025789D01*
X51302262Y-84929816D01*
X51429816Y-84802262D01*
X51525789Y-84649522D01*
X51585368Y-84479255D01*
X51591002Y-84429254D01*
X51605565Y-84300003D01*
X51605565Y-84299996D01*
X51585369Y-84120750D01*
X51585368Y-84120745D01*
X51525788Y-83950476D01*
X51429815Y-83797737D01*
X51382078Y-83750000D01*
X54620000Y-83750000D01*
X54620000Y-85250000D01*
X55120000Y-84750000D01*
X55120000Y-87859101D01*
X55100315Y-87926140D01*
X55047511Y-87971895D01*
X54978353Y-87981839D01*
X54955046Y-87976143D01*
X54779257Y-87914632D01*
X54779249Y-87914630D01*
X54600004Y-87894435D01*
X54599996Y-87894435D01*
X54420750Y-87914630D01*
X54420745Y-87914631D01*
X54250476Y-87974211D01*
X54097737Y-88070184D01*
X53970184Y-88197737D01*
X53874211Y-88350476D01*
X53814631Y-88520745D01*
X53814630Y-88520750D01*
X53794435Y-88699996D01*
X53794435Y-88700003D01*
X53814630Y-88879249D01*
X53814633Y-88879262D01*
X53876510Y-89056094D01*
X53874364Y-89056844D01*
X53883962Y-89115144D01*
X53875609Y-89143590D01*
X53876510Y-89143906D01*
X53814633Y-89320737D01*
X53814630Y-89320750D01*
X53794435Y-89499996D01*
X53794435Y-89500003D01*
X53814630Y-89679249D01*
X53814631Y-89679254D01*
X53874211Y-89849523D01*
X53906601Y-89901071D01*
X53300000Y-89900000D01*
X53200000Y-96000000D01*
X54335625Y-96000000D01*
X53320000Y-97250000D01*
X46175717Y-97250000D01*
X46108678Y-97230315D01*
X46062923Y-97177511D01*
X46052979Y-97108353D01*
X46058675Y-97085046D01*
X46098504Y-96971219D01*
X46098505Y-96971217D01*
X46113464Y-96838452D01*
X46140530Y-96774038D01*
X46198125Y-96734483D01*
X46267962Y-96732345D01*
X46277639Y-96735293D01*
X46420745Y-96785368D01*
X46420750Y-96785369D01*
X46599996Y-96805565D01*
X46600000Y-96805565D01*
X46600004Y-96805565D01*
X46779249Y-96785369D01*
X46779252Y-96785368D01*
X46779255Y-96785368D01*
X46949522Y-96725789D01*
X47102262Y-96629816D01*
X47229816Y-96502262D01*
X47325789Y-96349522D01*
X47385368Y-96179255D01*
X47405565Y-96000000D01*
X47385368Y-95820745D01*
X47325789Y-95650478D01*
X47316295Y-95635369D01*
X47229815Y-95497737D01*
X47102262Y-95370184D01*
X46949523Y-95274211D01*
X46779254Y-95214631D01*
X46779249Y-95214630D01*
X46600004Y-95194435D01*
X46599996Y-95194435D01*
X46420750Y-95214630D01*
X46420745Y-95214631D01*
X46250476Y-95274211D01*
X46097737Y-95370184D01*
X45987681Y-95480241D01*
X45926358Y-95513726D01*
X45856666Y-95508742D01*
X45812319Y-95480241D01*
X45702262Y-95370184D01*
X45549523Y-95274211D01*
X45379254Y-95214631D01*
X45379249Y-95214630D01*
X45200004Y-95194435D01*
X45199996Y-95194435D01*
X45020750Y-95214630D01*
X45020745Y-95214631D01*
X44850476Y-95274211D01*
X44697737Y-95370184D01*
X44570184Y-95497737D01*
X44474211Y-95650476D01*
X44414631Y-95820745D01*
X44414630Y-95820750D01*
X44394435Y-95999996D01*
X44394435Y-96000000D01*
X44414630Y-96179249D01*
X44414631Y-96179254D01*
X44474211Y-96349523D01*
X44535992Y-96447846D01*
X44554992Y-96515083D01*
X44548040Y-96554770D01*
X44527769Y-96612704D01*
X44527768Y-96612708D01*
X44507572Y-96791958D01*
X44507572Y-96791965D01*
X44527767Y-96971211D01*
X44527769Y-96971219D01*
X44567599Y-97085046D01*
X44571160Y-97154824D01*
X44536431Y-97215452D01*
X44474438Y-97247679D01*
X44450557Y-97250000D01*
X42549614Y-97250000D01*
X42482575Y-97230315D01*
X42436820Y-97177511D01*
X42426876Y-97108353D01*
X42448045Y-97059373D01*
X42446111Y-97058158D01*
X42449816Y-97052262D01*
X42545789Y-96899522D01*
X42605368Y-96729255D01*
X42625565Y-96550000D01*
X42620186Y-96502262D01*
X42605369Y-96370750D01*
X42605368Y-96370745D01*
X42545788Y-96200476D01*
X42449815Y-96047737D01*
X42322262Y-95920184D01*
X42169523Y-95824211D01*
X41999254Y-95764631D01*
X41999249Y-95764630D01*
X41820004Y-95744435D01*
X41819996Y-95744435D01*
X41640750Y-95764630D01*
X41640745Y-95764631D01*
X41470476Y-95824211D01*
X41317737Y-95920184D01*
X41190184Y-96047737D01*
X41094211Y-96200476D01*
X41034631Y-96370745D01*
X41034630Y-96370750D01*
X41014435Y-96549996D01*
X41014435Y-96550003D01*
X41034630Y-96729249D01*
X41034631Y-96729254D01*
X41094211Y-96899523D01*
X41193889Y-97058158D01*
X41191750Y-97059501D01*
X41213743Y-97113385D01*
X41200980Y-97182079D01*
X41153105Y-97232969D01*
X41090386Y-97250000D01*
X36144000Y-97250000D01*
X36076961Y-97230315D01*
X36031206Y-97177511D01*
X36020000Y-97126000D01*
X36020000Y-94849996D01*
X51414435Y-94849996D01*
X51414435Y-94850003D01*
X51434630Y-95029249D01*
X51434631Y-95029254D01*
X51494211Y-95199523D01*
X51503705Y-95214632D01*
X51590184Y-95352262D01*
X51717738Y-95479816D01*
X51870478Y-95575789D01*
X51966633Y-95609435D01*
X52040745Y-95635368D01*
X52040750Y-95635369D01*
X52219996Y-95655565D01*
X52220000Y-95655565D01*
X52220004Y-95655565D01*
X52399249Y-95635369D01*
X52399252Y-95635368D01*
X52399255Y-95635368D01*
X52569522Y-95575789D01*
X52722262Y-95479816D01*
X52849816Y-95352262D01*
X52945789Y-95199522D01*
X53005368Y-95029255D01*
X53025565Y-94850000D01*
X53005368Y-94670745D01*
X52945789Y-94500478D01*
X52849816Y-94347738D01*
X52722262Y-94220184D01*
X52569523Y-94124211D01*
X52399254Y-94064631D01*
X52399249Y-94064630D01*
X52220004Y-94044435D01*
X52219996Y-94044435D01*
X52040750Y-94064630D01*
X52040745Y-94064631D01*
X51870476Y-94124211D01*
X51717737Y-94220184D01*
X51590184Y-94347737D01*
X51494211Y-94500476D01*
X51434631Y-94670745D01*
X51434630Y-94670750D01*
X51414435Y-94849996D01*
X36020000Y-94849996D01*
X36020000Y-89949996D01*
X39814435Y-89949996D01*
X39814435Y-89950003D01*
X39834630Y-90129249D01*
X39834631Y-90129254D01*
X39894211Y-90299523D01*
X39957646Y-90400478D01*
X39990184Y-90452262D01*
X40117738Y-90579816D01*
X40270478Y-90675789D01*
X40440745Y-90735368D01*
X40440750Y-90735369D01*
X40619996Y-90755565D01*
X40620000Y-90755565D01*
X40620004Y-90755565D01*
X40669430Y-90749996D01*
X44314435Y-90749996D01*
X44314435Y-90750003D01*
X44334630Y-90929249D01*
X44334631Y-90929254D01*
X44394211Y-91099523D01*
X44490184Y-91252262D01*
X44617738Y-91379816D01*
X44770478Y-91475789D01*
X44940745Y-91535368D01*
X44940750Y-91535369D01*
X45119996Y-91555565D01*
X45120000Y-91555565D01*
X45120004Y-91555565D01*
X45299249Y-91535369D01*
X45299252Y-91535368D01*
X45299255Y-91535368D01*
X45469522Y-91475789D01*
X45622262Y-91379816D01*
X45749816Y-91252262D01*
X45845789Y-91099522D01*
X45905368Y-90929255D01*
X45925565Y-90750000D01*
X45923916Y-90735369D01*
X45905369Y-90570750D01*
X45905368Y-90570745D01*
X45845788Y-90400476D01*
X45773461Y-90285369D01*
X45749816Y-90247738D01*
X45744745Y-90242667D01*
X45711260Y-90181344D01*
X45716244Y-90111652D01*
X45758116Y-90055719D01*
X45793301Y-90039439D01*
X45792682Y-90037668D01*
X45799255Y-90035368D01*
X45969522Y-89975789D01*
X46122262Y-89879816D01*
X46249816Y-89752262D01*
X46251240Y-89749996D01*
X49314435Y-89749996D01*
X49314435Y-89750003D01*
X49334630Y-89929249D01*
X49334631Y-89929254D01*
X49394211Y-90099523D01*
X49445623Y-90181344D01*
X49490184Y-90252262D01*
X49617738Y-90379816D01*
X49770478Y-90475789D01*
X49940745Y-90535368D01*
X49940750Y-90535369D01*
X50119996Y-90555565D01*
X50120000Y-90555565D01*
X50120004Y-90555565D01*
X50299249Y-90535369D01*
X50299252Y-90535368D01*
X50299255Y-90535368D01*
X50469522Y-90475789D01*
X50622262Y-90379816D01*
X50749816Y-90252262D01*
X50845789Y-90099522D01*
X50905368Y-89929255D01*
X50905369Y-89929249D01*
X50925565Y-89750003D01*
X50925565Y-89749996D01*
X50905369Y-89570750D01*
X50905368Y-89570745D01*
X50862326Y-89447738D01*
X50845789Y-89400478D01*
X50749816Y-89247738D01*
X50623347Y-89121269D01*
X50589862Y-89059946D01*
X50594846Y-88990254D01*
X50636718Y-88934321D01*
X50645056Y-88928594D01*
X50649517Y-88925790D01*
X50649522Y-88925789D01*
X50802262Y-88829816D01*
X50929816Y-88702262D01*
X51025789Y-88549522D01*
X51085368Y-88379255D01*
X51085369Y-88379249D01*
X51105565Y-88200003D01*
X51105565Y-88199996D01*
X51085369Y-88020750D01*
X51085368Y-88020745D01*
X51025788Y-87850476D01*
X50929815Y-87697737D01*
X50802262Y-87570184D01*
X50649523Y-87474211D01*
X50479254Y-87414631D01*
X50479249Y-87414630D01*
X50300004Y-87394435D01*
X50299996Y-87394435D01*
X50120750Y-87414630D01*
X50120745Y-87414631D01*
X49950476Y-87474211D01*
X49797737Y-87570184D01*
X49670184Y-87697737D01*
X49574211Y-87850476D01*
X49514631Y-88020745D01*
X49514630Y-88020750D01*
X49494435Y-88199996D01*
X49494435Y-88200003D01*
X49514630Y-88379249D01*
X49514631Y-88379254D01*
X49574211Y-88549523D01*
X49670184Y-88702262D01*
X49796652Y-88828730D01*
X49830137Y-88890053D01*
X49825153Y-88959745D01*
X49783281Y-89015678D01*
X49774943Y-89021405D01*
X49617737Y-89120184D01*
X49490184Y-89247737D01*
X49394211Y-89400476D01*
X49334631Y-89570745D01*
X49334630Y-89570750D01*
X49314435Y-89749996D01*
X46251240Y-89749996D01*
X46345789Y-89599522D01*
X46405368Y-89429255D01*
X46405369Y-89429249D01*
X46425565Y-89250003D01*
X46425565Y-89249996D01*
X46405369Y-89070750D01*
X46405368Y-89070745D01*
X46355627Y-88928594D01*
X46345789Y-88900478D01*
X46249816Y-88747738D01*
X46122262Y-88620184D01*
X46098996Y-88605565D01*
X45969523Y-88524211D01*
X45799254Y-88464631D01*
X45799249Y-88464630D01*
X45620004Y-88444435D01*
X45619996Y-88444435D01*
X45440750Y-88464630D01*
X45440745Y-88464631D01*
X45270476Y-88524211D01*
X45117737Y-88620184D01*
X44990184Y-88747737D01*
X44894211Y-88900476D01*
X44834631Y-89070745D01*
X44834630Y-89070750D01*
X44814435Y-89249996D01*
X44814435Y-89250003D01*
X44834630Y-89429249D01*
X44834631Y-89429254D01*
X44894211Y-89599523D01*
X44990184Y-89752262D01*
X44995254Y-89757332D01*
X45028739Y-89818655D01*
X45023755Y-89888347D01*
X44981883Y-89944280D01*
X44946703Y-89960577D01*
X44947318Y-89962332D01*
X44770476Y-90024211D01*
X44617737Y-90120184D01*
X44490184Y-90247737D01*
X44394211Y-90400476D01*
X44334631Y-90570745D01*
X44334630Y-90570750D01*
X44314435Y-90749996D01*
X40669430Y-90749996D01*
X40799249Y-90735369D01*
X40799252Y-90735368D01*
X40799255Y-90735368D01*
X40969522Y-90675789D01*
X41122262Y-90579816D01*
X41249816Y-90452262D01*
X41345789Y-90299522D01*
X41405368Y-90129255D01*
X41406390Y-90120184D01*
X41425565Y-89950003D01*
X41425565Y-89949996D01*
X41405369Y-89770750D01*
X41405368Y-89770745D01*
X41400675Y-89757332D01*
X41345789Y-89600478D01*
X41345188Y-89599522D01*
X41249815Y-89447737D01*
X41122262Y-89320184D01*
X40969523Y-89224211D01*
X40799254Y-89164631D01*
X40799249Y-89164630D01*
X40620004Y-89144435D01*
X40619996Y-89144435D01*
X40440750Y-89164630D01*
X40440745Y-89164631D01*
X40270476Y-89224211D01*
X40117737Y-89320184D01*
X39990184Y-89447737D01*
X39894211Y-89600476D01*
X39834631Y-89770745D01*
X39834630Y-89770750D01*
X39814435Y-89949996D01*
X36020000Y-89949996D01*
X36020000Y-86699996D01*
X41394435Y-86699996D01*
X41394435Y-86700003D01*
X41414630Y-86879249D01*
X41414631Y-86879254D01*
X41474211Y-87049523D01*
X41558727Y-87184028D01*
X41577727Y-87251264D01*
X41558727Y-87315972D01*
X41474211Y-87450476D01*
X41414631Y-87620745D01*
X41414630Y-87620750D01*
X41394435Y-87799996D01*
X41394435Y-87800003D01*
X41414630Y-87979249D01*
X41414631Y-87979254D01*
X41474211Y-88149523D01*
X41504507Y-88197738D01*
X41570184Y-88302262D01*
X41697738Y-88429816D01*
X41788080Y-88486582D01*
X41847966Y-88524211D01*
X41850478Y-88525789D01*
X41918306Y-88549523D01*
X42020745Y-88585368D01*
X42020750Y-88585369D01*
X42199996Y-88605565D01*
X42200000Y-88605565D01*
X42200004Y-88605565D01*
X42379249Y-88585369D01*
X42379252Y-88585368D01*
X42379255Y-88585368D01*
X42549522Y-88525789D01*
X42702262Y-88429816D01*
X42829816Y-88302262D01*
X42925789Y-88149522D01*
X42978110Y-87999996D01*
X47314435Y-87999996D01*
X47314435Y-88000003D01*
X47334630Y-88179249D01*
X47334631Y-88179254D01*
X47394211Y-88349523D01*
X47444662Y-88429815D01*
X47490184Y-88502262D01*
X47617738Y-88629816D01*
X47770478Y-88725789D01*
X47833202Y-88747737D01*
X47940745Y-88785368D01*
X47940750Y-88785369D01*
X48119996Y-88805565D01*
X48120000Y-88805565D01*
X48120004Y-88805565D01*
X48299249Y-88785369D01*
X48299252Y-88785368D01*
X48299255Y-88785368D01*
X48469522Y-88725789D01*
X48622262Y-88629816D01*
X48749816Y-88502262D01*
X48845789Y-88349522D01*
X48905368Y-88179255D01*
X48908718Y-88149522D01*
X48925565Y-88000003D01*
X48925565Y-87999996D01*
X48905369Y-87820750D01*
X48905368Y-87820745D01*
X48862326Y-87697738D01*
X48845789Y-87650478D01*
X48827106Y-87620745D01*
X48749815Y-87497737D01*
X48622262Y-87370184D01*
X48469523Y-87274211D01*
X48299254Y-87214631D01*
X48299249Y-87214630D01*
X48120004Y-87194435D01*
X48119996Y-87194435D01*
X47940750Y-87214630D01*
X47940745Y-87214631D01*
X47770476Y-87274211D01*
X47617737Y-87370184D01*
X47490184Y-87497737D01*
X47394211Y-87650476D01*
X47334631Y-87820745D01*
X47334630Y-87820750D01*
X47314435Y-87999996D01*
X42978110Y-87999996D01*
X42985368Y-87979255D01*
X42985719Y-87976143D01*
X43005565Y-87800003D01*
X43005565Y-87799996D01*
X42985369Y-87620750D01*
X42985368Y-87620745D01*
X42925788Y-87450475D01*
X42875337Y-87370184D01*
X42841272Y-87315970D01*
X42822272Y-87248736D01*
X42841273Y-87184028D01*
X42925789Y-87049522D01*
X42985368Y-86879255D01*
X43005565Y-86700000D01*
X42985368Y-86520745D01*
X42925789Y-86350478D01*
X42829816Y-86197738D01*
X42702262Y-86070184D01*
X42638017Y-86029816D01*
X42549523Y-85974211D01*
X42379254Y-85914631D01*
X42379249Y-85914630D01*
X42200004Y-85894435D01*
X42199996Y-85894435D01*
X42020750Y-85914630D01*
X42020745Y-85914631D01*
X41850476Y-85974211D01*
X41697737Y-86070184D01*
X41570184Y-86197737D01*
X41474211Y-86350476D01*
X41414631Y-86520745D01*
X41414630Y-86520750D01*
X41394435Y-86699996D01*
X36020000Y-86699996D01*
X36020000Y-85399996D01*
X43394435Y-85399996D01*
X43394435Y-85400003D01*
X43414630Y-85579249D01*
X43414631Y-85579254D01*
X43474211Y-85749523D01*
X43565266Y-85894435D01*
X43570184Y-85902262D01*
X43697738Y-86029816D01*
X43850478Y-86125789D01*
X44020745Y-86185368D01*
X44020750Y-86185369D01*
X44199996Y-86205565D01*
X44200000Y-86205565D01*
X44200004Y-86205565D01*
X44379249Y-86185369D01*
X44379252Y-86185368D01*
X44379255Y-86185368D01*
X44549522Y-86125789D01*
X44702262Y-86029816D01*
X44829816Y-85902262D01*
X44925789Y-85749522D01*
X44985368Y-85579255D01*
X45005565Y-85400000D01*
X44985368Y-85220745D01*
X44925789Y-85050478D01*
X44916295Y-85035369D01*
X44878858Y-84975788D01*
X44829816Y-84897738D01*
X44702262Y-84770184D01*
X44549523Y-84674211D01*
X44379254Y-84614631D01*
X44379249Y-84614630D01*
X44200004Y-84594435D01*
X44199996Y-84594435D01*
X44020750Y-84614630D01*
X44020745Y-84614631D01*
X43850476Y-84674211D01*
X43697737Y-84770184D01*
X43570184Y-84897737D01*
X43474211Y-85050476D01*
X43414631Y-85220745D01*
X43414630Y-85220750D01*
X43394435Y-85399996D01*
X36020000Y-85399996D01*
X36020000Y-83874000D01*
X36039685Y-83806961D01*
X36092489Y-83761206D01*
X36144000Y-83750000D01*
X39520000Y-83750000D01*
X46938762Y-83750000D01*
X46844211Y-83900476D01*
G37*
%TD.AperFunction*%
%TA.AperFunction,Conductor*%
G36*
X55120000Y-96007142D02*
G01*
X55110000Y-96000000D01*
X55120000Y-96000000D01*
X55120000Y-96007142D01*
G37*
%TD.AperFunction*%
%TA.AperFunction,Conductor*%
G36*
X49370184Y-83797737D02*
G01*
X49289994Y-83925359D01*
X49237659Y-83971650D01*
X49168605Y-83982298D01*
X49104757Y-83953923D01*
X49080006Y-83925359D01*
X48999815Y-83797737D01*
X48952078Y-83750000D01*
X49417922Y-83750000D01*
X49370184Y-83797737D01*
G37*
%TD.AperFunction*%
%TD*%
%TA.AperFunction,Conductor*%
%TO.N,+5V*%
G36*
X55120000Y-84749999D02*
G01*
X55120000Y-84750000D01*
X54620000Y-85250000D01*
X54620000Y-83750000D01*
X56119999Y-83750000D01*
X55120000Y-84749999D01*
G37*
%TD.AperFunction*%
%TD*%
%TA.AperFunction,Conductor*%
%TO.N,+5V*%
G36*
X138987772Y-72517087D02*
G01*
X139260738Y-72534429D01*
X139278339Y-72536824D01*
X139541653Y-72592122D01*
X139558743Y-72597015D01*
X139811410Y-72689406D01*
X139827634Y-72696696D01*
X140064497Y-72824292D01*
X140079509Y-72833828D01*
X140295671Y-72993989D01*
X140309166Y-73005575D01*
X140500198Y-73195022D01*
X140511893Y-73208417D01*
X140673857Y-73423245D01*
X140683518Y-73438178D01*
X140813077Y-73673959D01*
X140820499Y-73690112D01*
X140914998Y-73942015D01*
X140920034Y-73959072D01*
X140977521Y-74221893D01*
X140980066Y-74239496D01*
X140999681Y-74512299D01*
X141000000Y-74521192D01*
X141000000Y-80198781D01*
X140999644Y-80208171D01*
X140977774Y-80496133D01*
X140974938Y-80514699D01*
X140910891Y-80791471D01*
X140905283Y-80809394D01*
X140800179Y-81073306D01*
X140791929Y-81090178D01*
X140648169Y-81335195D01*
X140637466Y-81350627D01*
X140455378Y-81574786D01*
X140449181Y-81581850D01*
X133567465Y-88851267D01*
X133507082Y-88886419D01*
X133437280Y-88883345D01*
X133380220Y-88843021D01*
X133354020Y-88778250D01*
X133353887Y-88755218D01*
X133358718Y-88700000D01*
X133338885Y-88473308D01*
X133279989Y-88253504D01*
X133183818Y-88047266D01*
X133053297Y-87860861D01*
X133053295Y-87860858D01*
X132892391Y-87699954D01*
X132705984Y-87569432D01*
X132705982Y-87569431D01*
X132499747Y-87473261D01*
X132499738Y-87473258D01*
X132279947Y-87414366D01*
X132279943Y-87414365D01*
X132279942Y-87414365D01*
X132279941Y-87414364D01*
X132279936Y-87414364D01*
X132053252Y-87394532D01*
X132053248Y-87394532D01*
X131826563Y-87414364D01*
X131826552Y-87414366D01*
X131606761Y-87473258D01*
X131606752Y-87473261D01*
X131400517Y-87569431D01*
X131400515Y-87569432D01*
X131214108Y-87699954D01*
X131053204Y-87860858D01*
X130922682Y-88047265D01*
X130922681Y-88047267D01*
X130826511Y-88253502D01*
X130826508Y-88253511D01*
X130767616Y-88473302D01*
X130767614Y-88473313D01*
X130747782Y-88699998D01*
X130747782Y-88700001D01*
X130767614Y-88926686D01*
X130767616Y-88926697D01*
X130826508Y-89146488D01*
X130826511Y-89146497D01*
X130922681Y-89352732D01*
X130922682Y-89352734D01*
X131053204Y-89539141D01*
X131214108Y-89700045D01*
X131214111Y-89700047D01*
X131400516Y-89830568D01*
X131606754Y-89926739D01*
X131826558Y-89985635D01*
X131988480Y-89999801D01*
X132053248Y-90005468D01*
X132053250Y-90005468D01*
X132187441Y-89993727D01*
X132255938Y-90007493D01*
X132306121Y-90056108D01*
X132322055Y-90124137D01*
X132298680Y-90189980D01*
X132288296Y-90202502D01*
X131536863Y-90996269D01*
X131499220Y-91023403D01*
X131400517Y-91069430D01*
X131400514Y-91069432D01*
X131214108Y-91199954D01*
X131053204Y-91360858D01*
X130922681Y-91547266D01*
X130841317Y-91721750D01*
X130818985Y-91754591D01*
X127394599Y-95371902D01*
X127388622Y-95377801D01*
X127198897Y-95552803D01*
X127185818Y-95563322D01*
X126977657Y-95708684D01*
X126963276Y-95717341D01*
X126737380Y-95833263D01*
X126721963Y-95839898D01*
X126482484Y-95924250D01*
X126466312Y-95928742D01*
X126217641Y-95979979D01*
X126201010Y-95982246D01*
X125943484Y-95999716D01*
X125935091Y-96000000D01*
X58147184Y-96000000D01*
X58080145Y-95980315D01*
X58034390Y-95927511D01*
X58024446Y-95858353D01*
X58025647Y-95850000D01*
X58005165Y-95707543D01*
X57945377Y-95576627D01*
X57851128Y-95467857D01*
X57730053Y-95390047D01*
X57730051Y-95390046D01*
X57730049Y-95390045D01*
X57730050Y-95390045D01*
X57591963Y-95349500D01*
X57591961Y-95349500D01*
X57448039Y-95349500D01*
X57448036Y-95349500D01*
X57309949Y-95390045D01*
X57188873Y-95467856D01*
X57094623Y-95576626D01*
X57094622Y-95576628D01*
X57034834Y-95707543D01*
X57014353Y-95850000D01*
X57015554Y-95858353D01*
X57005610Y-95927512D01*
X56959855Y-95980316D01*
X56892816Y-96000000D01*
X53200000Y-96000000D01*
X53220615Y-94742500D01*
X68514353Y-94742500D01*
X68534834Y-94884956D01*
X68594622Y-95015871D01*
X68594623Y-95015873D01*
X68688872Y-95124643D01*
X68809947Y-95202453D01*
X68809950Y-95202454D01*
X68809949Y-95202454D01*
X68948036Y-95242999D01*
X68948038Y-95243000D01*
X68948039Y-95243000D01*
X69091962Y-95243000D01*
X69091962Y-95242999D01*
X69230053Y-95202453D01*
X69351128Y-95124643D01*
X69445377Y-95015873D01*
X69505165Y-94884957D01*
X69525647Y-94742500D01*
X69505165Y-94600043D01*
X69445377Y-94469127D01*
X69351128Y-94360357D01*
X69230053Y-94282547D01*
X69230051Y-94282546D01*
X69230049Y-94282545D01*
X69230050Y-94282545D01*
X69091963Y-94242000D01*
X69091961Y-94242000D01*
X68948039Y-94242000D01*
X68948036Y-94242000D01*
X68809949Y-94282545D01*
X68688873Y-94360356D01*
X68594623Y-94469126D01*
X68594622Y-94469128D01*
X68534834Y-94600043D01*
X68514353Y-94742500D01*
X53220615Y-94742500D01*
X53236066Y-93800000D01*
X55294353Y-93800000D01*
X55314834Y-93942456D01*
X55374622Y-94073371D01*
X55374623Y-94073373D01*
X55468872Y-94182143D01*
X55589947Y-94259953D01*
X55589950Y-94259954D01*
X55589949Y-94259954D01*
X55728036Y-94300499D01*
X55728038Y-94300500D01*
X55728039Y-94300500D01*
X55871962Y-94300500D01*
X55871962Y-94300499D01*
X56010053Y-94259953D01*
X56131128Y-94182143D01*
X56225377Y-94073373D01*
X56285165Y-93942457D01*
X56305647Y-93800000D01*
X61594353Y-93800000D01*
X61614834Y-93942456D01*
X61674622Y-94073371D01*
X61674623Y-94073373D01*
X61768872Y-94182143D01*
X61889947Y-94259953D01*
X61889950Y-94259954D01*
X61889949Y-94259954D01*
X62028036Y-94300499D01*
X62028038Y-94300500D01*
X62028039Y-94300500D01*
X62171962Y-94300500D01*
X62171962Y-94300499D01*
X62310053Y-94259953D01*
X62431128Y-94182143D01*
X62525377Y-94073373D01*
X62585165Y-93942457D01*
X62605647Y-93800000D01*
X62585165Y-93657543D01*
X62525377Y-93526627D01*
X62431128Y-93417857D01*
X62310053Y-93340047D01*
X62310051Y-93340046D01*
X62310049Y-93340045D01*
X62310050Y-93340045D01*
X62171963Y-93299500D01*
X62171961Y-93299500D01*
X62028039Y-93299500D01*
X62028036Y-93299500D01*
X61889949Y-93340045D01*
X61768873Y-93417856D01*
X61674623Y-93526626D01*
X61674622Y-93526628D01*
X61614834Y-93657543D01*
X61594353Y-93800000D01*
X56305647Y-93800000D01*
X56285165Y-93657543D01*
X56225377Y-93526627D01*
X56131128Y-93417857D01*
X56010053Y-93340047D01*
X56010051Y-93340046D01*
X56010049Y-93340045D01*
X56010050Y-93340045D01*
X55871963Y-93299500D01*
X55871961Y-93299500D01*
X55728039Y-93299500D01*
X55728036Y-93299500D01*
X55589949Y-93340045D01*
X55468873Y-93417856D01*
X55374623Y-93526626D01*
X55374622Y-93526628D01*
X55314834Y-93657543D01*
X55294353Y-93800000D01*
X53236066Y-93800000D01*
X53264284Y-92078677D01*
X58815676Y-92078677D01*
X58836157Y-92221133D01*
X58895945Y-92352048D01*
X58895946Y-92352050D01*
X58990195Y-92460820D01*
X59111270Y-92538630D01*
X59111273Y-92538631D01*
X59111272Y-92538631D01*
X59249359Y-92579176D01*
X59249361Y-92579177D01*
X59249362Y-92579177D01*
X59393285Y-92579177D01*
X59393285Y-92579176D01*
X59531376Y-92538630D01*
X59652451Y-92460820D01*
X59746700Y-92352050D01*
X59806488Y-92221134D01*
X59826970Y-92078677D01*
X59806488Y-91936220D01*
X59746700Y-91805304D01*
X59652451Y-91696534D01*
X59531376Y-91618724D01*
X59531374Y-91618723D01*
X59531372Y-91618722D01*
X59531373Y-91618722D01*
X59393286Y-91578177D01*
X59393284Y-91578177D01*
X59249362Y-91578177D01*
X59249359Y-91578177D01*
X59111272Y-91618722D01*
X58990196Y-91696533D01*
X58895946Y-91805303D01*
X58895945Y-91805305D01*
X58836157Y-91936220D01*
X58815676Y-92078677D01*
X53264284Y-92078677D01*
X53300000Y-89900000D01*
X54299404Y-89901764D01*
X54389947Y-89959953D01*
X54389950Y-89959954D01*
X54389949Y-89959954D01*
X54477406Y-89985633D01*
X54526336Y-90000000D01*
X54528036Y-90000499D01*
X54528038Y-90000500D01*
X54528039Y-90000500D01*
X54671962Y-90000500D01*
X54671962Y-90000499D01*
X54810053Y-89959953D01*
X54898947Y-89902824D01*
X109900000Y-90000000D01*
X123950575Y-77199999D01*
X125377586Y-75900000D01*
X135269659Y-75900000D01*
X135288975Y-76096129D01*
X135299933Y-76132253D01*
X135326575Y-76220080D01*
X135346188Y-76284733D01*
X135439086Y-76458532D01*
X135439090Y-76458539D01*
X135564116Y-76610883D01*
X135716460Y-76735909D01*
X135716467Y-76735913D01*
X135890266Y-76828811D01*
X135890269Y-76828811D01*
X135890273Y-76828814D01*
X136078868Y-76886024D01*
X136275000Y-76905341D01*
X136471132Y-76886024D01*
X136659727Y-76828814D01*
X136833538Y-76735910D01*
X136985883Y-76610883D01*
X137110910Y-76458538D01*
X137174066Y-76340382D01*
X137203811Y-76284733D01*
X137203811Y-76284732D01*
X137203814Y-76284727D01*
X137232340Y-76190689D01*
X137270637Y-76132253D01*
X137334449Y-76103796D01*
X137403516Y-76114357D01*
X137455910Y-76160581D01*
X137475000Y-76226687D01*
X137475000Y-76747844D01*
X137481401Y-76807372D01*
X137481403Y-76807379D01*
X137531645Y-76942086D01*
X137531649Y-76942093D01*
X137617809Y-77057187D01*
X137617812Y-77057190D01*
X137732906Y-77143350D01*
X137732913Y-77143354D01*
X137867620Y-77193596D01*
X137867627Y-77193598D01*
X137927155Y-77199999D01*
X137927172Y-77200000D01*
X138525000Y-77200000D01*
X138525000Y-76215686D01*
X138529394Y-76220080D01*
X138620606Y-76272741D01*
X138722339Y-76300000D01*
X138827661Y-76300000D01*
X138929394Y-76272741D01*
X139020606Y-76220080D01*
X139025000Y-76215686D01*
X139025000Y-77200000D01*
X139622828Y-77200000D01*
X139622844Y-77199999D01*
X139682372Y-77193598D01*
X139682379Y-77193596D01*
X139817086Y-77143354D01*
X139817093Y-77143350D01*
X139932187Y-77057190D01*
X139932190Y-77057187D01*
X140018350Y-76942093D01*
X140018354Y-76942086D01*
X140068596Y-76807379D01*
X140068598Y-76807372D01*
X140074999Y-76747844D01*
X140075000Y-76747827D01*
X140075000Y-76150000D01*
X139090686Y-76150000D01*
X139095080Y-76145606D01*
X139147741Y-76054394D01*
X139175000Y-75952661D01*
X139175000Y-75847339D01*
X139147741Y-75745606D01*
X139095080Y-75654394D01*
X139090686Y-75650000D01*
X140075000Y-75650000D01*
X140075000Y-75052172D01*
X140074999Y-75052155D01*
X140068598Y-74992627D01*
X140068596Y-74992620D01*
X140018354Y-74857913D01*
X140018350Y-74857906D01*
X139932190Y-74742812D01*
X139932187Y-74742809D01*
X139817093Y-74656649D01*
X139817086Y-74656645D01*
X139682379Y-74606403D01*
X139682372Y-74606401D01*
X139622844Y-74600000D01*
X139025000Y-74600000D01*
X139025000Y-75584314D01*
X139020606Y-75579920D01*
X138929394Y-75527259D01*
X138827661Y-75500000D01*
X138722339Y-75500000D01*
X138620606Y-75527259D01*
X138529394Y-75579920D01*
X138525000Y-75584314D01*
X138525000Y-74600000D01*
X137927155Y-74600000D01*
X137867627Y-74606401D01*
X137867620Y-74606403D01*
X137732913Y-74656645D01*
X137732906Y-74656649D01*
X137617812Y-74742809D01*
X137617809Y-74742812D01*
X137531649Y-74857906D01*
X137531645Y-74857913D01*
X137481403Y-74992620D01*
X137481401Y-74992627D01*
X137475000Y-75052155D01*
X137475000Y-75573312D01*
X137455315Y-75640351D01*
X137402511Y-75686106D01*
X137333353Y-75696050D01*
X137269797Y-75667025D01*
X137232340Y-75609308D01*
X137203813Y-75515271D01*
X137110913Y-75341467D01*
X137110909Y-75341460D01*
X136985883Y-75189116D01*
X136833539Y-75064090D01*
X136833532Y-75064086D01*
X136659733Y-74971188D01*
X136659727Y-74971186D01*
X136471132Y-74913976D01*
X136471129Y-74913975D01*
X136275000Y-74894659D01*
X136078870Y-74913975D01*
X135890266Y-74971188D01*
X135716467Y-75064086D01*
X135716460Y-75064090D01*
X135564116Y-75189116D01*
X135439090Y-75341460D01*
X135439086Y-75341467D01*
X135346188Y-75515266D01*
X135288975Y-75703870D01*
X135269659Y-75900000D01*
X125377586Y-75900000D01*
X128431250Y-73118128D01*
X128438163Y-73112278D01*
X128588763Y-72993989D01*
X128657061Y-72940344D01*
X128672061Y-72930241D01*
X128909722Y-72794260D01*
X128926033Y-72786448D01*
X129180978Y-72686508D01*
X129198234Y-72681161D01*
X129464998Y-72619406D01*
X129482865Y-72616624D01*
X129760308Y-72593994D01*
X129769343Y-72593589D01*
X138978882Y-72516843D01*
X138987772Y-72517087D01*
G37*
%TD.AperFunction*%
%TD*%
%TA.AperFunction,Conductor*%
%TO.N,+5V*%
G36*
X56860000Y-97250000D02*
G01*
X57902613Y-97994723D01*
X57917625Y-98007354D01*
X58008820Y-98097331D01*
X58031987Y-98128860D01*
X58086046Y-98233907D01*
X58098236Y-98271084D01*
X58118447Y-98397588D01*
X58120000Y-98417151D01*
X58120000Y-100141874D01*
X58118939Y-100158060D01*
X58105093Y-100263224D01*
X58096715Y-100294491D01*
X58059259Y-100384918D01*
X58043074Y-100412951D01*
X57983491Y-100490601D01*
X57960601Y-100513491D01*
X57882951Y-100573074D01*
X57854918Y-100589259D01*
X57764491Y-100626715D01*
X57733224Y-100635093D01*
X57639398Y-100647446D01*
X57628058Y-100648939D01*
X57611874Y-100650000D01*
X56128126Y-100650000D01*
X56111941Y-100648939D01*
X56098917Y-100647224D01*
X56006775Y-100635093D01*
X55975508Y-100626715D01*
X55885081Y-100589259D01*
X55857048Y-100573074D01*
X55779398Y-100513491D01*
X55756508Y-100490601D01*
X55696925Y-100412951D01*
X55680740Y-100384918D01*
X55643284Y-100294491D01*
X55634906Y-100263223D01*
X55621061Y-100158059D01*
X55620000Y-100141874D01*
X55620000Y-99111255D01*
X55620000Y-98850000D01*
X54538038Y-98097331D01*
X53448730Y-97339551D01*
X53448727Y-97339549D01*
X53448725Y-97339548D01*
X53320000Y-97250000D01*
X54335625Y-96000000D01*
X55110000Y-96000000D01*
X56860000Y-97250000D01*
G37*
%TD.AperFunction*%
%TD*%
%TA.AperFunction,Conductor*%
%TO.N,+5V*%
G36*
X67063039Y-61969685D02*
G01*
X67108794Y-62022489D01*
X67120000Y-62074000D01*
X67120000Y-83626000D01*
X67100315Y-83693039D01*
X67047511Y-83738794D01*
X66996000Y-83750000D01*
X47643666Y-83750000D01*
X47641963Y-83749500D01*
X47641961Y-83749500D01*
X47498039Y-83749500D01*
X47498036Y-83749500D01*
X47496333Y-83750000D01*
X39520000Y-83750000D01*
X39520000Y-82600000D01*
X47994353Y-82600000D01*
X48014834Y-82742456D01*
X48074622Y-82873371D01*
X48074623Y-82873373D01*
X48168872Y-82982143D01*
X48289947Y-83059953D01*
X48289950Y-83059954D01*
X48289949Y-83059954D01*
X48428036Y-83100499D01*
X48428038Y-83100500D01*
X48428039Y-83100500D01*
X48571962Y-83100500D01*
X48571962Y-83100499D01*
X48710053Y-83059953D01*
X48831128Y-82982143D01*
X48925377Y-82873373D01*
X48985165Y-82742457D01*
X49005647Y-82600000D01*
X48985165Y-82457543D01*
X48925377Y-82326627D01*
X48831128Y-82217857D01*
X48710053Y-82140047D01*
X48710051Y-82140046D01*
X48710049Y-82140045D01*
X48710050Y-82140045D01*
X48571963Y-82099500D01*
X48571961Y-82099500D01*
X48428039Y-82099500D01*
X48428036Y-82099500D01*
X48289949Y-82140045D01*
X48168873Y-82217856D01*
X48074623Y-82326626D01*
X48074622Y-82326628D01*
X48014834Y-82457543D01*
X47994353Y-82600000D01*
X39520000Y-82600000D01*
X39520000Y-81850000D01*
X63614353Y-81850000D01*
X63634834Y-81992456D01*
X63683720Y-82099500D01*
X63694623Y-82123373D01*
X63788872Y-82232143D01*
X63909947Y-82309953D01*
X63909950Y-82309954D01*
X63909949Y-82309954D01*
X64048036Y-82350499D01*
X64048038Y-82350500D01*
X64048039Y-82350500D01*
X64191962Y-82350500D01*
X64191962Y-82350499D01*
X64330053Y-82309953D01*
X64451128Y-82232143D01*
X64545377Y-82123373D01*
X64605165Y-81992457D01*
X64625647Y-81850000D01*
X64605165Y-81707543D01*
X64545377Y-81576627D01*
X64451128Y-81467857D01*
X64330053Y-81390047D01*
X64330051Y-81390046D01*
X64330049Y-81390045D01*
X64330050Y-81390045D01*
X64191963Y-81349500D01*
X64191961Y-81349500D01*
X64048039Y-81349500D01*
X64048036Y-81349500D01*
X63909949Y-81390045D01*
X63788873Y-81467856D01*
X63694623Y-81576626D01*
X63694622Y-81576628D01*
X63634834Y-81707543D01*
X63614353Y-81850000D01*
X39520000Y-81850000D01*
X39520000Y-80800000D01*
X45494353Y-80800000D01*
X45514834Y-80942456D01*
X45574622Y-81073371D01*
X45574623Y-81073373D01*
X45668872Y-81182143D01*
X45789947Y-81259953D01*
X45789950Y-81259954D01*
X45789949Y-81259954D01*
X45928036Y-81300499D01*
X45928038Y-81300500D01*
X45928039Y-81300500D01*
X46071962Y-81300500D01*
X46071962Y-81300499D01*
X46210053Y-81259953D01*
X46331128Y-81182143D01*
X46425377Y-81073373D01*
X46485165Y-80942457D01*
X46505647Y-80800000D01*
X46485165Y-80657543D01*
X46425377Y-80526627D01*
X46331128Y-80417857D01*
X46210053Y-80340047D01*
X46210051Y-80340046D01*
X46210049Y-80340045D01*
X46210050Y-80340045D01*
X46071963Y-80299500D01*
X46071961Y-80299500D01*
X45928039Y-80299500D01*
X45928036Y-80299500D01*
X45789949Y-80340045D01*
X45668873Y-80417856D01*
X45574623Y-80526626D01*
X45574622Y-80526628D01*
X45514834Y-80657543D01*
X45494353Y-80800000D01*
X39520000Y-80800000D01*
X39520000Y-79450000D01*
X39974901Y-79450000D01*
X39993252Y-79636331D01*
X39993253Y-79636333D01*
X40047604Y-79815502D01*
X40135862Y-79980623D01*
X40135864Y-79980626D01*
X40254642Y-80125357D01*
X40399373Y-80244135D01*
X40399376Y-80244137D01*
X40502954Y-80299500D01*
X40564499Y-80332396D01*
X40743666Y-80386746D01*
X40743668Y-80386747D01*
X40760374Y-80388392D01*
X40930000Y-80405099D01*
X41116331Y-80386747D01*
X41295501Y-80332396D01*
X41460625Y-80244136D01*
X41605357Y-80125357D01*
X41724136Y-79980625D01*
X41812396Y-79815501D01*
X41866747Y-79636331D01*
X41885099Y-79450000D01*
X42514901Y-79450000D01*
X42533252Y-79636331D01*
X42533253Y-79636333D01*
X42587604Y-79815502D01*
X42675862Y-79980623D01*
X42675864Y-79980626D01*
X42794642Y-80125357D01*
X42939373Y-80244135D01*
X42939376Y-80244137D01*
X43042954Y-80299500D01*
X43104499Y-80332396D01*
X43283666Y-80386746D01*
X43283668Y-80386747D01*
X43300374Y-80388392D01*
X43470000Y-80405099D01*
X43656331Y-80386747D01*
X43835501Y-80332396D01*
X44000625Y-80244136D01*
X44145357Y-80125357D01*
X44264136Y-79980625D01*
X44352396Y-79815501D01*
X44406747Y-79636331D01*
X44425099Y-79450000D01*
X44406747Y-79263669D01*
X44352396Y-79084499D01*
X44264136Y-78919375D01*
X44264135Y-78919373D01*
X44145357Y-78774642D01*
X44000626Y-78655864D01*
X44000623Y-78655862D01*
X43835502Y-78567604D01*
X43656333Y-78513253D01*
X43656331Y-78513252D01*
X43470000Y-78494901D01*
X43283668Y-78513252D01*
X43283666Y-78513253D01*
X43104497Y-78567604D01*
X42939376Y-78655862D01*
X42939373Y-78655864D01*
X42794642Y-78774642D01*
X42675864Y-78919373D01*
X42675862Y-78919376D01*
X42587604Y-79084497D01*
X42533253Y-79263666D01*
X42533252Y-79263668D01*
X42514901Y-79450000D01*
X41885099Y-79450000D01*
X41866747Y-79263669D01*
X41812396Y-79084499D01*
X41724136Y-78919375D01*
X41724135Y-78919373D01*
X41605357Y-78774642D01*
X41460626Y-78655864D01*
X41460623Y-78655862D01*
X41295502Y-78567604D01*
X41116333Y-78513253D01*
X41116331Y-78513252D01*
X40930000Y-78494901D01*
X40743668Y-78513252D01*
X40743666Y-78513253D01*
X40564497Y-78567604D01*
X40399376Y-78655862D01*
X40399373Y-78655864D01*
X40254642Y-78774642D01*
X40135864Y-78919373D01*
X40135862Y-78919376D01*
X40047604Y-79084497D01*
X39993253Y-79263666D01*
X39993252Y-79263668D01*
X39974901Y-79450000D01*
X39520000Y-79450000D01*
X39520000Y-76910000D01*
X39974901Y-76910000D01*
X39993252Y-77096331D01*
X39993253Y-77096333D01*
X40047604Y-77275502D01*
X40135862Y-77440623D01*
X40135864Y-77440626D01*
X40254642Y-77585357D01*
X40399373Y-77704135D01*
X40399376Y-77704137D01*
X40564497Y-77792395D01*
X40564499Y-77792396D01*
X40680478Y-77827578D01*
X40743666Y-77846746D01*
X40743668Y-77846747D01*
X40760374Y-77848392D01*
X40930000Y-77865099D01*
X41116331Y-77846747D01*
X41295501Y-77792396D01*
X41460625Y-77704136D01*
X41605357Y-77585357D01*
X41724136Y-77440625D01*
X41812396Y-77275501D01*
X41866747Y-77096331D01*
X41885099Y-76910000D01*
X42514901Y-76910000D01*
X42533252Y-77096331D01*
X42533253Y-77096333D01*
X42587604Y-77275502D01*
X42675862Y-77440623D01*
X42675864Y-77440626D01*
X42794642Y-77585357D01*
X42939373Y-77704135D01*
X42939376Y-77704137D01*
X43104497Y-77792395D01*
X43104499Y-77792396D01*
X43220478Y-77827578D01*
X43283666Y-77846746D01*
X43283668Y-77846747D01*
X43300374Y-77848392D01*
X43470000Y-77865099D01*
X43656331Y-77846747D01*
X43835501Y-77792396D01*
X44000625Y-77704136D01*
X44145357Y-77585357D01*
X44215409Y-77499999D01*
X51164357Y-77499999D01*
X51164357Y-77500000D01*
X51184884Y-77721535D01*
X51184885Y-77721537D01*
X51245769Y-77935523D01*
X51245775Y-77935538D01*
X51344938Y-78134683D01*
X51344943Y-78134691D01*
X51479020Y-78312238D01*
X51643437Y-78462123D01*
X51643439Y-78462125D01*
X51832595Y-78579245D01*
X51832596Y-78579245D01*
X51832599Y-78579247D01*
X52040060Y-78659618D01*
X52258757Y-78700500D01*
X52258759Y-78700500D01*
X52481241Y-78700500D01*
X52481243Y-78700500D01*
X52699940Y-78659618D01*
X52907401Y-78579247D01*
X53096562Y-78462124D01*
X53260981Y-78312236D01*
X53395058Y-78134689D01*
X53494229Y-77935528D01*
X53555115Y-77721536D01*
X53575643Y-77500000D01*
X53575643Y-77499999D01*
X57664357Y-77499999D01*
X57664357Y-77500000D01*
X57684884Y-77721535D01*
X57684885Y-77721537D01*
X57745769Y-77935523D01*
X57745775Y-77935538D01*
X57844938Y-78134683D01*
X57844943Y-78134691D01*
X57979020Y-78312238D01*
X58143437Y-78462123D01*
X58143439Y-78462125D01*
X58332595Y-78579245D01*
X58332596Y-78579245D01*
X58332599Y-78579247D01*
X58540060Y-78659618D01*
X58758757Y-78700500D01*
X58758759Y-78700500D01*
X58981241Y-78700500D01*
X58981243Y-78700500D01*
X59199940Y-78659618D01*
X59407401Y-78579247D01*
X59596562Y-78462124D01*
X59760981Y-78312236D01*
X59895058Y-78134689D01*
X59994229Y-77935528D01*
X60055115Y-77721536D01*
X60075643Y-77500000D01*
X60055115Y-77278464D01*
X59994229Y-77064472D01*
X59994224Y-77064461D01*
X59912331Y-76899999D01*
X63589364Y-76899999D01*
X63589364Y-76900000D01*
X64486988Y-76900000D01*
X64454075Y-76957007D01*
X64420000Y-77084174D01*
X64420000Y-77215826D01*
X64454075Y-77342993D01*
X64486988Y-77400000D01*
X63589364Y-77400000D01*
X63646567Y-77613486D01*
X63646570Y-77613492D01*
X63746399Y-77827578D01*
X63881894Y-78021082D01*
X64048917Y-78188105D01*
X64242421Y-78323600D01*
X64456507Y-78423429D01*
X64456516Y-78423433D01*
X64670000Y-78480634D01*
X64670000Y-77583012D01*
X64727007Y-77615925D01*
X64854174Y-77650000D01*
X64985826Y-77650000D01*
X65112993Y-77615925D01*
X65170000Y-77583012D01*
X65170000Y-78480633D01*
X65383483Y-78423433D01*
X65383492Y-78423429D01*
X65597578Y-78323600D01*
X65791082Y-78188105D01*
X65958105Y-78021082D01*
X66093600Y-77827578D01*
X66193429Y-77613492D01*
X66193432Y-77613486D01*
X66250636Y-77400000D01*
X65353012Y-77400000D01*
X65385925Y-77342993D01*
X65420000Y-77215826D01*
X65420000Y-77084174D01*
X65385925Y-76957007D01*
X65353012Y-76900000D01*
X66250636Y-76900000D01*
X66250635Y-76899999D01*
X66193432Y-76686513D01*
X66193429Y-76686507D01*
X66093600Y-76472422D01*
X66093599Y-76472420D01*
X65958113Y-76278926D01*
X65958108Y-76278920D01*
X65791082Y-76111894D01*
X65597578Y-75976399D01*
X65427052Y-75896882D01*
X65374613Y-75850710D01*
X65355461Y-75783516D01*
X65375677Y-75716635D01*
X65428842Y-75671300D01*
X65479457Y-75660500D01*
X65789750Y-75660500D01*
X65789751Y-75660499D01*
X65804568Y-75657552D01*
X65848229Y-75648868D01*
X65848229Y-75648867D01*
X65848231Y-75648867D01*
X65914552Y-75604552D01*
X65958867Y-75538231D01*
X65958867Y-75538229D01*
X65958868Y-75538229D01*
X65970499Y-75479752D01*
X65970500Y-75479750D01*
X65970500Y-73740249D01*
X65970499Y-73740247D01*
X65958868Y-73681770D01*
X65958867Y-73681769D01*
X65914552Y-73615447D01*
X65848230Y-73571132D01*
X65848229Y-73571131D01*
X65789752Y-73559500D01*
X65789748Y-73559500D01*
X64050252Y-73559500D01*
X64050247Y-73559500D01*
X63991770Y-73571131D01*
X63991769Y-73571132D01*
X63925447Y-73615447D01*
X63881132Y-73681769D01*
X63881131Y-73681770D01*
X63869500Y-73740247D01*
X63869500Y-75479752D01*
X63881131Y-75538229D01*
X63881132Y-75538230D01*
X63925447Y-75604552D01*
X63991769Y-75648867D01*
X63991770Y-75648868D01*
X64050247Y-75660499D01*
X64050250Y-75660500D01*
X64360543Y-75660500D01*
X64427582Y-75680185D01*
X64473337Y-75732989D01*
X64483281Y-75802147D01*
X64454256Y-75865703D01*
X64412948Y-75896882D01*
X64242422Y-75976399D01*
X64242420Y-75976400D01*
X64048926Y-76111886D01*
X64048920Y-76111891D01*
X63881891Y-76278920D01*
X63881886Y-76278926D01*
X63746400Y-76472420D01*
X63746399Y-76472422D01*
X63646570Y-76686507D01*
X63646567Y-76686513D01*
X63589364Y-76899999D01*
X59912331Y-76899999D01*
X59895061Y-76865316D01*
X59895056Y-76865308D01*
X59760979Y-76687761D01*
X59596562Y-76537876D01*
X59596560Y-76537874D01*
X59407404Y-76420754D01*
X59407398Y-76420752D01*
X59199940Y-76340382D01*
X58981243Y-76299500D01*
X58758757Y-76299500D01*
X58540060Y-76340382D01*
X58439413Y-76379373D01*
X58332601Y-76420752D01*
X58332595Y-76420754D01*
X58143439Y-76537874D01*
X58143437Y-76537876D01*
X57979020Y-76687761D01*
X57844943Y-76865308D01*
X57844938Y-76865316D01*
X57745775Y-77064461D01*
X57745769Y-77064476D01*
X57684885Y-77278462D01*
X57684884Y-77278464D01*
X57664357Y-77499999D01*
X53575643Y-77499999D01*
X53555115Y-77278464D01*
X53494229Y-77064472D01*
X53494224Y-77064461D01*
X53395061Y-76865316D01*
X53395056Y-76865308D01*
X53260979Y-76687761D01*
X53096562Y-76537876D01*
X53096560Y-76537874D01*
X52907404Y-76420754D01*
X52907398Y-76420752D01*
X52699940Y-76340382D01*
X52481243Y-76299500D01*
X52258757Y-76299500D01*
X52040060Y-76340382D01*
X51939413Y-76379373D01*
X51832601Y-76420752D01*
X51832595Y-76420754D01*
X51643439Y-76537874D01*
X51643437Y-76537876D01*
X51479020Y-76687761D01*
X51344943Y-76865308D01*
X51344938Y-76865316D01*
X51245775Y-77064461D01*
X51245769Y-77064476D01*
X51184885Y-77278462D01*
X51184884Y-77278464D01*
X51164357Y-77499999D01*
X44215409Y-77499999D01*
X44264136Y-77440625D01*
X44352396Y-77275501D01*
X44406747Y-77096331D01*
X44425099Y-76910000D01*
X44406747Y-76723669D01*
X44352396Y-76544499D01*
X44348855Y-76537874D01*
X44264137Y-76379376D01*
X44264135Y-76379373D01*
X44145357Y-76234642D01*
X44000626Y-76115864D01*
X44000623Y-76115862D01*
X43835502Y-76027604D01*
X43656333Y-75973253D01*
X43656331Y-75973252D01*
X43470000Y-75954901D01*
X43283668Y-75973252D01*
X43283666Y-75973253D01*
X43104497Y-76027604D01*
X42939376Y-76115862D01*
X42939373Y-76115864D01*
X42794642Y-76234642D01*
X42675864Y-76379373D01*
X42675862Y-76379376D01*
X42587604Y-76544497D01*
X42533253Y-76723666D01*
X42533252Y-76723668D01*
X42514901Y-76910000D01*
X41885099Y-76910000D01*
X41866747Y-76723669D01*
X41812396Y-76544499D01*
X41808855Y-76537874D01*
X41724137Y-76379376D01*
X41724135Y-76379373D01*
X41605357Y-76234642D01*
X41460626Y-76115864D01*
X41460623Y-76115862D01*
X41295502Y-76027604D01*
X41116333Y-75973253D01*
X41116331Y-75973252D01*
X40930000Y-75954901D01*
X40743668Y-75973252D01*
X40743666Y-75973253D01*
X40564497Y-76027604D01*
X40399376Y-76115862D01*
X40399373Y-76115864D01*
X40254642Y-76234642D01*
X40135864Y-76379373D01*
X40135862Y-76379376D01*
X40047604Y-76544497D01*
X39993253Y-76723666D01*
X39993252Y-76723668D01*
X39974901Y-76910000D01*
X39520000Y-76910000D01*
X39520000Y-74370000D01*
X39974901Y-74370000D01*
X39993252Y-74556331D01*
X39993253Y-74556333D01*
X40047604Y-74735502D01*
X40135862Y-74900623D01*
X40135864Y-74900626D01*
X40254642Y-75045357D01*
X40399373Y-75164135D01*
X40399376Y-75164137D01*
X40564497Y-75252395D01*
X40564499Y-75252396D01*
X40743666Y-75306746D01*
X40743668Y-75306747D01*
X40760374Y-75308392D01*
X40930000Y-75325099D01*
X41116331Y-75306747D01*
X41295501Y-75252396D01*
X41460625Y-75164136D01*
X41605357Y-75045357D01*
X41724136Y-74900625D01*
X41812396Y-74735501D01*
X41866747Y-74556331D01*
X41885099Y-74370000D01*
X42514901Y-74370000D01*
X42533252Y-74556331D01*
X42533253Y-74556333D01*
X42587604Y-74735502D01*
X42675862Y-74900623D01*
X42675864Y-74900626D01*
X42794642Y-75045357D01*
X42939373Y-75164135D01*
X42939376Y-75164137D01*
X43104497Y-75252395D01*
X43104499Y-75252396D01*
X43283666Y-75306746D01*
X43283668Y-75306747D01*
X43300374Y-75308392D01*
X43470000Y-75325099D01*
X43656331Y-75306747D01*
X43835501Y-75252396D01*
X44000625Y-75164136D01*
X44145357Y-75045357D01*
X44264136Y-74900625D01*
X44352396Y-74735501D01*
X44406747Y-74556331D01*
X44425099Y-74370000D01*
X44406747Y-74183669D01*
X44352396Y-74004499D01*
X44264136Y-73839375D01*
X44264135Y-73839373D01*
X44145357Y-73694642D01*
X44000626Y-73575864D01*
X44000623Y-73575862D01*
X43835502Y-73487604D01*
X43656333Y-73433253D01*
X43656331Y-73433252D01*
X43470000Y-73414901D01*
X43283668Y-73433252D01*
X43283666Y-73433253D01*
X43104497Y-73487604D01*
X42939376Y-73575862D01*
X42939373Y-73575864D01*
X42794642Y-73694642D01*
X42675864Y-73839373D01*
X42675862Y-73839376D01*
X42587604Y-74004497D01*
X42533253Y-74183666D01*
X42533252Y-74183668D01*
X42514901Y-74370000D01*
X41885099Y-74370000D01*
X41866747Y-74183669D01*
X41812396Y-74004499D01*
X41724136Y-73839375D01*
X41724135Y-73839373D01*
X41605357Y-73694642D01*
X41460626Y-73575864D01*
X41460623Y-73575862D01*
X41295502Y-73487604D01*
X41116333Y-73433253D01*
X41116331Y-73433252D01*
X40930000Y-73414901D01*
X40743668Y-73433252D01*
X40743666Y-73433253D01*
X40564497Y-73487604D01*
X40399376Y-73575862D01*
X40399373Y-73575864D01*
X40254642Y-73694642D01*
X40135864Y-73839373D01*
X40135862Y-73839376D01*
X40047604Y-74004497D01*
X39993253Y-74183666D01*
X39993252Y-74183668D01*
X39974901Y-74370000D01*
X39520000Y-74370000D01*
X39520000Y-72999999D01*
X51164357Y-72999999D01*
X51164357Y-73000000D01*
X51184884Y-73221535D01*
X51184885Y-73221537D01*
X51245769Y-73435523D01*
X51245775Y-73435538D01*
X51344938Y-73634683D01*
X51344943Y-73634691D01*
X51479020Y-73812238D01*
X51643437Y-73962123D01*
X51643439Y-73962125D01*
X51832595Y-74079245D01*
X51832596Y-74079245D01*
X51832599Y-74079247D01*
X52040060Y-74159618D01*
X52258757Y-74200500D01*
X52258759Y-74200500D01*
X52481241Y-74200500D01*
X52481243Y-74200500D01*
X52699940Y-74159618D01*
X52907401Y-74079247D01*
X53096562Y-73962124D01*
X53260981Y-73812236D01*
X53395058Y-73634689D01*
X53494229Y-73435528D01*
X53555115Y-73221536D01*
X53575643Y-73000000D01*
X53575643Y-72999999D01*
X57664357Y-72999999D01*
X57664357Y-73000000D01*
X57684884Y-73221535D01*
X57684885Y-73221537D01*
X57745769Y-73435523D01*
X57745775Y-73435538D01*
X57844938Y-73634683D01*
X57844943Y-73634691D01*
X57979020Y-73812238D01*
X58143437Y-73962123D01*
X58143439Y-73962125D01*
X58332595Y-74079245D01*
X58332596Y-74079245D01*
X58332599Y-74079247D01*
X58540060Y-74159618D01*
X58758757Y-74200500D01*
X58758759Y-74200500D01*
X58981241Y-74200500D01*
X58981243Y-74200500D01*
X59199940Y-74159618D01*
X59407401Y-74079247D01*
X59596562Y-73962124D01*
X59760981Y-73812236D01*
X59895058Y-73634689D01*
X59994229Y-73435528D01*
X60055115Y-73221536D01*
X60075643Y-73000000D01*
X60055115Y-72778464D01*
X59994229Y-72564472D01*
X59994224Y-72564461D01*
X59895061Y-72365316D01*
X59895056Y-72365308D01*
X59760979Y-72187761D01*
X59596562Y-72037876D01*
X59596560Y-72037874D01*
X59407404Y-71920754D01*
X59407398Y-71920752D01*
X59199940Y-71840382D01*
X58981243Y-71799500D01*
X58758757Y-71799500D01*
X58540060Y-71840382D01*
X58408864Y-71891207D01*
X58332601Y-71920752D01*
X58332595Y-71920754D01*
X58143439Y-72037874D01*
X58143437Y-72037876D01*
X57979020Y-72187761D01*
X57844943Y-72365308D01*
X57844938Y-72365316D01*
X57745775Y-72564461D01*
X57745769Y-72564476D01*
X57684885Y-72778462D01*
X57684884Y-72778464D01*
X57664357Y-72999999D01*
X53575643Y-72999999D01*
X53555115Y-72778464D01*
X53494229Y-72564472D01*
X53494224Y-72564461D01*
X53395061Y-72365316D01*
X53395056Y-72365308D01*
X53260979Y-72187761D01*
X53096562Y-72037876D01*
X53096560Y-72037874D01*
X52907404Y-71920754D01*
X52907398Y-71920752D01*
X52699940Y-71840382D01*
X52481243Y-71799500D01*
X52258757Y-71799500D01*
X52040060Y-71840382D01*
X51908864Y-71891207D01*
X51832601Y-71920752D01*
X51832595Y-71920754D01*
X51643439Y-72037874D01*
X51643437Y-72037876D01*
X51479020Y-72187761D01*
X51344943Y-72365308D01*
X51344938Y-72365316D01*
X51245775Y-72564461D01*
X51245769Y-72564476D01*
X51184885Y-72778462D01*
X51184884Y-72778464D01*
X51164357Y-72999999D01*
X39520000Y-72999999D01*
X39520000Y-71830000D01*
X39974901Y-71830000D01*
X39993252Y-72016331D01*
X39993253Y-72016333D01*
X40047604Y-72195502D01*
X40135862Y-72360623D01*
X40135864Y-72360626D01*
X40254642Y-72505357D01*
X40399373Y-72624135D01*
X40399376Y-72624137D01*
X40564497Y-72712395D01*
X40564499Y-72712396D01*
X40743666Y-72766746D01*
X40743668Y-72766747D01*
X40760374Y-72768392D01*
X40930000Y-72785099D01*
X41116331Y-72766747D01*
X41295501Y-72712396D01*
X41460625Y-72624136D01*
X41605357Y-72505357D01*
X41724136Y-72360625D01*
X41812396Y-72195501D01*
X41866747Y-72016331D01*
X41885099Y-71830000D01*
X42514901Y-71830000D01*
X42533252Y-72016331D01*
X42533253Y-72016333D01*
X42587604Y-72195502D01*
X42675862Y-72360623D01*
X42675864Y-72360626D01*
X42794642Y-72505357D01*
X42939373Y-72624135D01*
X42939376Y-72624137D01*
X43104497Y-72712395D01*
X43104499Y-72712396D01*
X43283666Y-72766746D01*
X43283668Y-72766747D01*
X43300374Y-72768392D01*
X43470000Y-72785099D01*
X43656331Y-72766747D01*
X43835501Y-72712396D01*
X44000625Y-72624136D01*
X44145357Y-72505357D01*
X44264136Y-72360625D01*
X44352396Y-72195501D01*
X44406747Y-72016331D01*
X44425099Y-71830000D01*
X44406747Y-71643669D01*
X44352396Y-71464499D01*
X44264136Y-71299375D01*
X44264135Y-71299373D01*
X44145357Y-71154642D01*
X44000626Y-71035864D01*
X44000623Y-71035862D01*
X43835502Y-70947604D01*
X43656333Y-70893253D01*
X43656331Y-70893252D01*
X43470000Y-70874901D01*
X43283668Y-70893252D01*
X43283666Y-70893253D01*
X43104497Y-70947604D01*
X42939376Y-71035862D01*
X42939373Y-71035864D01*
X42794642Y-71154642D01*
X42675864Y-71299373D01*
X42675862Y-71299376D01*
X42587604Y-71464497D01*
X42533253Y-71643666D01*
X42533252Y-71643668D01*
X42514901Y-71830000D01*
X41885099Y-71830000D01*
X41866747Y-71643669D01*
X41812396Y-71464499D01*
X41724136Y-71299375D01*
X41724135Y-71299373D01*
X41605357Y-71154642D01*
X41460626Y-71035864D01*
X41460623Y-71035862D01*
X41295502Y-70947604D01*
X41116333Y-70893253D01*
X41116331Y-70893252D01*
X40930000Y-70874901D01*
X40743668Y-70893252D01*
X40743666Y-70893253D01*
X40564497Y-70947604D01*
X40399376Y-71035862D01*
X40399373Y-71035864D01*
X40254642Y-71154642D01*
X40135864Y-71299373D01*
X40135862Y-71299376D01*
X40047604Y-71464497D01*
X39993253Y-71643666D01*
X39993252Y-71643668D01*
X39974901Y-71830000D01*
X39520000Y-71830000D01*
X39520000Y-68500000D01*
X59894353Y-68500000D01*
X59914834Y-68642456D01*
X59974622Y-68773371D01*
X59974623Y-68773373D01*
X60068872Y-68882143D01*
X60189947Y-68959953D01*
X60189950Y-68959954D01*
X60189949Y-68959954D01*
X60328036Y-69000499D01*
X60328038Y-69000500D01*
X60328039Y-69000500D01*
X60471962Y-69000500D01*
X60471962Y-69000499D01*
X60610053Y-68959953D01*
X60731128Y-68882143D01*
X60825377Y-68773373D01*
X60885165Y-68642457D01*
X60905647Y-68500000D01*
X60885165Y-68357543D01*
X60825377Y-68226627D01*
X60731128Y-68117857D01*
X60610053Y-68040047D01*
X60610051Y-68040046D01*
X60610049Y-68040045D01*
X60610050Y-68040045D01*
X60471963Y-67999500D01*
X60471961Y-67999500D01*
X60328039Y-67999500D01*
X60328036Y-67999500D01*
X60189949Y-68040045D01*
X60068873Y-68117856D01*
X59974623Y-68226626D01*
X59974622Y-68226628D01*
X59914834Y-68357543D01*
X59894353Y-68500000D01*
X39520000Y-68500000D01*
X39520000Y-67400000D01*
X47894353Y-67400000D01*
X47914834Y-67542456D01*
X47974622Y-67673371D01*
X47974623Y-67673373D01*
X48068872Y-67782143D01*
X48189947Y-67859953D01*
X48189950Y-67859954D01*
X48189949Y-67859954D01*
X48328036Y-67900499D01*
X48328038Y-67900500D01*
X48328039Y-67900500D01*
X48471962Y-67900500D01*
X48471962Y-67900499D01*
X48610053Y-67859953D01*
X48731128Y-67782143D01*
X48825377Y-67673373D01*
X48885165Y-67542457D01*
X48905647Y-67400000D01*
X48885165Y-67257543D01*
X48825377Y-67126627D01*
X48731128Y-67017857D01*
X48610053Y-66940047D01*
X48610051Y-66940046D01*
X48610049Y-66940045D01*
X48610050Y-66940045D01*
X48471963Y-66899500D01*
X48471961Y-66899500D01*
X48328039Y-66899500D01*
X48328036Y-66899500D01*
X48189949Y-66940045D01*
X48068873Y-67017856D01*
X47974623Y-67126626D01*
X47974622Y-67126628D01*
X47914834Y-67257543D01*
X47894353Y-67400000D01*
X39520000Y-67400000D01*
X39520000Y-64847282D01*
X39539685Y-64780243D01*
X39566090Y-64753361D01*
X39565917Y-64753188D01*
X39574551Y-64744553D01*
X39587461Y-64725232D01*
X39618867Y-64678231D01*
X39618867Y-64678229D01*
X39618868Y-64678229D01*
X39630499Y-64619752D01*
X39630500Y-64619750D01*
X39630500Y-63750000D01*
X40064417Y-63750000D01*
X40084699Y-63955932D01*
X40084700Y-63955934D01*
X40144768Y-64153954D01*
X40242315Y-64336450D01*
X40242317Y-64336452D01*
X40373589Y-64496410D01*
X40470209Y-64575702D01*
X40533550Y-64627685D01*
X40716046Y-64725232D01*
X40914066Y-64785300D01*
X40914065Y-64785300D01*
X40932529Y-64787118D01*
X41120000Y-64805583D01*
X41325934Y-64785300D01*
X41523954Y-64725232D01*
X41706450Y-64627685D01*
X41866410Y-64496410D01*
X41997685Y-64336450D01*
X42095232Y-64153954D01*
X42155300Y-63955934D01*
X42175583Y-63750000D01*
X42604417Y-63750000D01*
X42624699Y-63955932D01*
X42624700Y-63955934D01*
X42684768Y-64153954D01*
X42782315Y-64336450D01*
X42782317Y-64336452D01*
X42913589Y-64496410D01*
X43010209Y-64575702D01*
X43073550Y-64627685D01*
X43256046Y-64725232D01*
X43454066Y-64785300D01*
X43454065Y-64785300D01*
X43472529Y-64787118D01*
X43660000Y-64805583D01*
X43865934Y-64785300D01*
X44063954Y-64725232D01*
X44246450Y-64627685D01*
X44406410Y-64496410D01*
X44537685Y-64336450D01*
X44635232Y-64153954D01*
X44695300Y-63955934D01*
X44715583Y-63750000D01*
X44695300Y-63544066D01*
X44635232Y-63346046D01*
X44537685Y-63163550D01*
X44485702Y-63100209D01*
X44406410Y-63003589D01*
X44256121Y-62880252D01*
X44246450Y-62872315D01*
X44063954Y-62774768D01*
X43865934Y-62714700D01*
X43865932Y-62714699D01*
X43865934Y-62714699D01*
X43660000Y-62694417D01*
X43454067Y-62714699D01*
X43256043Y-62774769D01*
X43168116Y-62821768D01*
X43073550Y-62872315D01*
X43073548Y-62872316D01*
X43073547Y-62872317D01*
X42913589Y-63003589D01*
X42782317Y-63163547D01*
X42684769Y-63346043D01*
X42624699Y-63544067D01*
X42604417Y-63750000D01*
X42175583Y-63750000D01*
X42155300Y-63544066D01*
X42095232Y-63346046D01*
X41997685Y-63163550D01*
X41945702Y-63100209D01*
X41866410Y-63003589D01*
X41716121Y-62880252D01*
X41706450Y-62872315D01*
X41523954Y-62774768D01*
X41325934Y-62714700D01*
X41325932Y-62714699D01*
X41325934Y-62714699D01*
X41120000Y-62694417D01*
X40914067Y-62714699D01*
X40716043Y-62774769D01*
X40628116Y-62821768D01*
X40533550Y-62872315D01*
X40533548Y-62872316D01*
X40533547Y-62872317D01*
X40373589Y-63003589D01*
X40242317Y-63163547D01*
X40144769Y-63346043D01*
X40084699Y-63544067D01*
X40064417Y-63750000D01*
X39630500Y-63750000D01*
X39630500Y-62880249D01*
X39630499Y-62880247D01*
X39618868Y-62821770D01*
X39618867Y-62821768D01*
X39574553Y-62755450D01*
X39574552Y-62755448D01*
X39574548Y-62755445D01*
X39565915Y-62746811D01*
X39566821Y-62745904D01*
X39530300Y-62702198D01*
X39520000Y-62652717D01*
X39520000Y-62074000D01*
X39539685Y-62006961D01*
X39592489Y-61961206D01*
X39644000Y-61950000D01*
X66996000Y-61950000D01*
X67063039Y-61969685D01*
G37*
%TD.AperFunction*%
%TD*%
M02*
