%TF.GenerationSoftware,KiCad,Pcbnew,8.0.7*%
%TF.CreationDate,2025-04-15T22:45:20-07:00*%
%TF.ProjectId,M56PowerPrototype,4d353650-6f77-4657-9250-726f746f7479,rev?*%
%TF.SameCoordinates,Original*%
%TF.FileFunction,Copper,L2,Bot*%
%TF.FilePolarity,Positive*%
%FSLAX46Y46*%
G04 Gerber Fmt 4.6, Leading zero omitted, Abs format (unit mm)*
G04 Created by KiCad (PCBNEW 8.0.7) date 2025-04-15 22:45:20*
%MOMM*%
%LPD*%
G01*
G04 APERTURE LIST*
%TA.AperFunction,ComponentPad*%
%ADD10C,2.336800*%
%TD*%
%TA.AperFunction,ComponentPad*%
%ADD11R,1.700000X1.700000*%
%TD*%
%TA.AperFunction,ComponentPad*%
%ADD12R,1.600000X1.600000*%
%TD*%
%TA.AperFunction,ComponentPad*%
%ADD13O,1.600000X1.600000*%
%TD*%
%TA.AperFunction,ComponentPad*%
%ADD14R,1.625600X1.625600*%
%TD*%
%TA.AperFunction,ComponentPad*%
%ADD15C,1.625600*%
%TD*%
%TA.AperFunction,ViaPad*%
%ADD16C,0.600000*%
%TD*%
%TA.AperFunction,Conductor*%
%ADD17C,2.000000*%
%TD*%
%TA.AperFunction,Conductor*%
%ADD18C,0.500000*%
%TD*%
G04 APERTURE END LIST*
D10*
%TO.P,J1,1,1*%
%TO.N,+BATT*%
X104836000Y-53822600D03*
%TO.P,J1,2,2*%
%TO.N,-BATT*%
X104836000Y-45567600D03*
%TD*%
D11*
%TO.P,TP4,1,1*%
%TO.N,+5V*%
X88400000Y-56000000D03*
%TD*%
%TO.P,TP2,1,1*%
%TO.N,/VOLTAGE_MON*%
X70500000Y-35000000D03*
%TD*%
D12*
%TO.P,D1,1,K*%
%TO.N,/VOLTAGE_MON*%
X72490000Y-52000000D03*
D13*
%TO.P,D1,2,A*%
%TO.N,-BATT*%
X80110000Y-52000000D03*
%TD*%
D10*
%TO.P,J2,1,1*%
%TO.N,+BATT*%
X72477400Y-57136000D03*
%TO.P,J2,2,2*%
%TO.N,/-SOLAR*%
X80732400Y-57136000D03*
%TD*%
D14*
%TO.P,U2,1,G*%
%TO.N,Net-(D2-K)*%
X95300000Y-38920000D03*
D15*
%TO.P,U2,2,D*%
%TO.N,-BATT*%
X95300000Y-41460000D03*
%TO.P,U2,3,S*%
%TO.N,/-SOLAR*%
X95300000Y-44000000D03*
%TD*%
D11*
%TO.P,TP3,1,1*%
%TO.N,/PWM_DRIVER*%
X82300000Y-45300000D03*
%TD*%
D12*
%TO.P,D2,1,K*%
%TO.N,Net-(D2-K)*%
X100000000Y-38890000D03*
D13*
%TO.P,D2,2,A*%
%TO.N,-BATT*%
X100000000Y-46510000D03*
%TD*%
D12*
%TO.P,U4,1,~{RESET}/PB5*%
%TO.N,unconnected-(U4-~{RESET}{slash}PB5-Pad1)*%
X78800000Y-46300000D03*
D13*
%TO.P,U4,2,XTAL1/PB3*%
%TO.N,unconnected-(U4-XTAL1{slash}PB3-Pad2)*%
X78800000Y-43760000D03*
%TO.P,U4,3,XTAL2/PB4*%
%TO.N,/PWM_DRIVER*%
X78800000Y-41220000D03*
%TO.P,U4,4,GND*%
%TO.N,-BATT*%
X78800000Y-38680000D03*
%TO.P,U4,5,AREF/PB0*%
%TO.N,unconnected-(U4-AREF{slash}PB0-Pad5)*%
X71180000Y-38680000D03*
%TO.P,U4,6,PB1*%
%TO.N,unconnected-(U4-PB1-Pad6)*%
X71180000Y-41220000D03*
%TO.P,U4,7,PB2*%
%TO.N,/VOLTAGE_MON*%
X71180000Y-43760000D03*
%TO.P,U4,8,VCC*%
%TO.N,+5V*%
X71180000Y-46300000D03*
%TD*%
D16*
%TO.N,-BATT*%
X77000000Y-34000000D03*
X76500000Y-34500000D03*
X76000000Y-35000000D03*
X75500000Y-35500000D03*
X88800000Y-36700000D03*
X101800000Y-47000000D03*
X101800000Y-45600000D03*
X101100000Y-45600000D03*
X101800000Y-46300000D03*
X80200000Y-49000000D03*
X89500000Y-36700000D03*
X73000000Y-48600000D03*
X86100000Y-41800000D03*
%TO.N,+BATT*%
X100300000Y-55500000D03*
X91100000Y-53800000D03*
X99700000Y-54900000D03*
%TO.N,+5V*%
X91700000Y-49300000D03*
X92600000Y-40400000D03*
X92400000Y-50200000D03*
X77100000Y-50200000D03*
X86200000Y-43300000D03*
%TO.N,/-SOLAR*%
X89400000Y-48300000D03*
X87400000Y-47700000D03*
X88700000Y-48300000D03*
X90100000Y-48300000D03*
X88000000Y-48200000D03*
X86900000Y-47100000D03*
%TO.N,/PWM_DRIVER*%
X82225000Y-41225000D03*
%TD*%
D17*
%TO.N,+BATT*%
X78641400Y-63300000D02*
X72477400Y-57136000D01*
D18*
X91100000Y-53800000D02*
X98600000Y-53800000D01*
D17*
X99200000Y-63300000D02*
X78641400Y-63300000D01*
D18*
X100300000Y-55500000D02*
X99700000Y-54900000D01*
D17*
X104836000Y-57664000D02*
X99200000Y-63300000D01*
X104836000Y-53822600D02*
X104836000Y-57664000D01*
D18*
X98600000Y-53800000D02*
X99700000Y-54900000D01*
%TO.N,+5V*%
X86200000Y-43300000D02*
X89700000Y-43300000D01*
X89700000Y-43300000D02*
X92600000Y-40400000D01*
%TD*%
%TA.AperFunction,Conductor*%
%TO.N,-BATT*%
G36*
X106443039Y-43519685D02*
G01*
X106488794Y-43572489D01*
X106500000Y-43624000D01*
X106500000Y-47576000D01*
X106480315Y-47643039D01*
X106427511Y-47688794D01*
X106376000Y-47700000D01*
X102100000Y-47700000D01*
X102100000Y-43500000D01*
X106376000Y-43500000D01*
X106443039Y-43519685D01*
G37*
%TD.AperFunction*%
%TD*%
%TA.AperFunction,Conductor*%
%TO.N,/-SOLAR*%
G36*
X87098313Y-46741620D02*
G01*
X87223632Y-46770829D01*
X87251705Y-46781070D01*
X87312709Y-46812102D01*
X87366399Y-46839415D01*
X87391205Y-46856073D01*
X87402459Y-46865789D01*
X87498046Y-46948313D01*
X87500361Y-46950398D01*
X88000000Y-47500000D01*
X88742705Y-47529707D01*
X88742707Y-47529708D01*
X89706360Y-47568254D01*
X89942530Y-47577701D01*
X89958240Y-47579337D01*
X90078377Y-47599655D01*
X90108554Y-47608829D01*
X90212385Y-47655532D01*
X90239278Y-47672029D01*
X90327957Y-47743421D01*
X90349817Y-47766173D01*
X90417608Y-47857636D01*
X90433017Y-47885167D01*
X90475530Y-47990774D01*
X90483492Y-48021300D01*
X90498296Y-48136714D01*
X90498827Y-48163341D01*
X90477909Y-48401444D01*
X90474125Y-48422815D01*
X90411362Y-48656039D01*
X90403909Y-48676424D01*
X90301444Y-48895129D01*
X90290552Y-48913901D01*
X90148380Y-49115854D01*
X90141744Y-49124454D01*
X82695404Y-57946749D01*
X82689843Y-57952906D01*
X82504857Y-58144466D01*
X82492566Y-58155598D01*
X82286926Y-58318190D01*
X82273259Y-58327583D01*
X82047754Y-58461286D01*
X82032956Y-58468770D01*
X81791643Y-58571179D01*
X81775978Y-58576623D01*
X81523143Y-58645920D01*
X81506893Y-58649224D01*
X81247077Y-58684164D01*
X81230530Y-58685270D01*
X80968375Y-58685228D01*
X80951829Y-58684116D01*
X80692031Y-58649094D01*
X80675781Y-58645785D01*
X80422973Y-58576408D01*
X80407311Y-58570960D01*
X80166018Y-58468469D01*
X80151222Y-58460979D01*
X79925773Y-58327212D01*
X79912109Y-58317816D01*
X79851483Y-58269850D01*
X79706390Y-58155056D01*
X79694325Y-58144148D01*
X79507255Y-57951255D01*
X79496895Y-57939094D01*
X79336092Y-57723635D01*
X79327387Y-57710253D01*
X79195610Y-57475887D01*
X79188704Y-57461508D01*
X79088157Y-57212151D01*
X79083150Y-57196981D01*
X79015499Y-56936776D01*
X79012487Y-56921106D01*
X78978852Y-56654354D01*
X78977879Y-56638408D01*
X78978820Y-56369547D01*
X78979902Y-56353639D01*
X79015406Y-56087114D01*
X79018525Y-56071478D01*
X79088002Y-55811727D01*
X79093107Y-55796616D01*
X79195402Y-55547960D01*
X79202403Y-55533639D01*
X79335828Y-55300185D01*
X79344616Y-55286880D01*
X79509356Y-55069340D01*
X79514352Y-55063165D01*
X80997090Y-53347187D01*
X84653290Y-49115854D01*
X86509122Y-46968094D01*
X86519576Y-46957379D01*
X86551991Y-46927935D01*
X86620417Y-46865784D01*
X86644780Y-46848515D01*
X86757982Y-46787290D01*
X86785777Y-46776350D01*
X86910326Y-46743989D01*
X86939938Y-46740015D01*
X87068612Y-46738394D01*
X87098313Y-46741620D01*
G37*
%TD.AperFunction*%
%TD*%
%TA.AperFunction,Conductor*%
%TO.N,-BATT*%
G36*
X102043039Y-35019685D02*
G01*
X102088794Y-35072489D01*
X102100000Y-35124000D01*
X102100000Y-41100000D01*
X102100000Y-45000000D01*
X95484823Y-45000000D01*
X95498642Y-44998639D01*
X95689649Y-44940697D01*
X95865683Y-44846605D01*
X96019978Y-44719978D01*
X96146605Y-44565683D01*
X96240697Y-44389649D01*
X96298639Y-44198642D01*
X96318203Y-44000000D01*
X96298639Y-43801358D01*
X96240697Y-43610351D01*
X96150956Y-43442457D01*
X96146608Y-43434322D01*
X96146604Y-43434315D01*
X96019978Y-43280021D01*
X95865684Y-43153395D01*
X95865677Y-43153391D01*
X95689650Y-43059303D01*
X95498644Y-43001361D01*
X95300000Y-42981797D01*
X95101355Y-43001361D01*
X94910349Y-43059303D01*
X94734322Y-43153391D01*
X94734315Y-43153395D01*
X94580021Y-43280021D01*
X94453395Y-43434315D01*
X94453391Y-43434322D01*
X94359303Y-43610349D01*
X94301361Y-43801355D01*
X94281797Y-44000000D01*
X94301361Y-44198644D01*
X94359303Y-44389650D01*
X94453391Y-44565677D01*
X94453395Y-44565684D01*
X94580021Y-44719978D01*
X94734315Y-44846604D01*
X94734322Y-44846608D01*
X94910349Y-44940696D01*
X94910351Y-44940697D01*
X95101358Y-44998639D01*
X95115177Y-45000000D01*
X85124000Y-45000000D01*
X85056961Y-44980315D01*
X85011206Y-44927511D01*
X85000000Y-44876000D01*
X85000000Y-43300000D01*
X85694353Y-43300000D01*
X85714834Y-43442456D01*
X85774622Y-43573371D01*
X85774623Y-43573373D01*
X85868872Y-43682143D01*
X85989947Y-43759953D01*
X85989950Y-43759954D01*
X85989949Y-43759954D01*
X86128036Y-43800499D01*
X86128038Y-43800500D01*
X86128039Y-43800500D01*
X86271962Y-43800500D01*
X86271962Y-43800499D01*
X86324797Y-43784985D01*
X86418563Y-43757455D01*
X86418995Y-43758926D01*
X86457727Y-43750500D01*
X89759308Y-43750500D01*
X89759309Y-43750500D01*
X89849673Y-43726286D01*
X89873887Y-43719799D01*
X89976614Y-43660489D01*
X92741094Y-40896007D01*
X92793842Y-40864712D01*
X92810053Y-40859953D01*
X92810055Y-40859951D01*
X92810057Y-40859951D01*
X92931123Y-40782146D01*
X92931122Y-40782146D01*
X92931128Y-40782143D01*
X93025377Y-40673373D01*
X93085165Y-40542457D01*
X93105647Y-40400000D01*
X93085165Y-40257543D01*
X93025377Y-40126627D01*
X92931128Y-40017857D01*
X92810053Y-39940047D01*
X92810051Y-39940046D01*
X92810049Y-39940045D01*
X92810050Y-39940045D01*
X92671963Y-39899500D01*
X92671961Y-39899500D01*
X92528039Y-39899500D01*
X92528036Y-39899500D01*
X92389949Y-39940045D01*
X92268873Y-40017856D01*
X92174623Y-40126626D01*
X92174621Y-40126629D01*
X92132095Y-40219745D01*
X92106983Y-40255912D01*
X89549716Y-42813181D01*
X89488393Y-42846666D01*
X89462035Y-42849500D01*
X86457727Y-42849500D01*
X86418995Y-42841073D01*
X86418563Y-42842545D01*
X86271963Y-42799500D01*
X86271961Y-42799500D01*
X86128039Y-42799500D01*
X86128036Y-42799500D01*
X85989949Y-42840045D01*
X85868873Y-42917856D01*
X85774623Y-43026626D01*
X85774622Y-43026628D01*
X85714834Y-43157543D01*
X85694353Y-43300000D01*
X85000000Y-43300000D01*
X85000000Y-38087447D01*
X94286700Y-38087447D01*
X94286700Y-39752552D01*
X94298331Y-39811029D01*
X94298332Y-39811030D01*
X94342647Y-39877352D01*
X94408969Y-39921667D01*
X94408970Y-39921668D01*
X94467447Y-39933299D01*
X94467450Y-39933300D01*
X94467452Y-39933300D01*
X96132550Y-39933300D01*
X96132551Y-39933299D01*
X96147368Y-39930352D01*
X96191029Y-39921668D01*
X96191029Y-39921667D01*
X96191031Y-39921667D01*
X96257352Y-39877352D01*
X96301667Y-39811031D01*
X96301667Y-39811029D01*
X96301668Y-39811029D01*
X96313299Y-39752552D01*
X96313300Y-39752550D01*
X96313300Y-38087449D01*
X96313299Y-38087447D01*
X96309878Y-38070247D01*
X98999500Y-38070247D01*
X98999500Y-39709752D01*
X99011131Y-39768229D01*
X99011132Y-39768230D01*
X99055447Y-39834552D01*
X99121769Y-39878867D01*
X99121770Y-39878868D01*
X99180247Y-39890499D01*
X99180250Y-39890500D01*
X99180252Y-39890500D01*
X100819750Y-39890500D01*
X100819751Y-39890499D01*
X100834568Y-39887552D01*
X100878229Y-39878868D01*
X100878229Y-39878867D01*
X100878231Y-39878867D01*
X100944552Y-39834552D01*
X100988867Y-39768231D01*
X100988867Y-39768229D01*
X100988868Y-39768229D01*
X101000499Y-39709752D01*
X101000500Y-39709750D01*
X101000500Y-38070249D01*
X101000499Y-38070247D01*
X100988868Y-38011770D01*
X100988867Y-38011769D01*
X100944552Y-37945447D01*
X100878230Y-37901132D01*
X100878229Y-37901131D01*
X100819752Y-37889500D01*
X100819748Y-37889500D01*
X99180252Y-37889500D01*
X99180247Y-37889500D01*
X99121770Y-37901131D01*
X99121769Y-37901132D01*
X99055447Y-37945447D01*
X99011132Y-38011769D01*
X99011131Y-38011770D01*
X98999500Y-38070247D01*
X96309878Y-38070247D01*
X96301668Y-38028970D01*
X96301667Y-38028969D01*
X96257352Y-37962647D01*
X96191030Y-37918332D01*
X96191029Y-37918331D01*
X96132552Y-37906700D01*
X96132548Y-37906700D01*
X94467452Y-37906700D01*
X94467447Y-37906700D01*
X94408970Y-37918331D01*
X94408969Y-37918332D01*
X94342647Y-37962647D01*
X94298332Y-38028969D01*
X94298331Y-38028970D01*
X94286700Y-38087447D01*
X85000000Y-38087447D01*
X85000000Y-35124000D01*
X85019685Y-35056961D01*
X85072489Y-35011206D01*
X85124000Y-35000000D01*
X101976000Y-35000000D01*
X102043039Y-35019685D01*
G37*
%TD.AperFunction*%
%TD*%
%TA.AperFunction,Conductor*%
%TO.N,-BATT*%
G36*
X83943039Y-32719685D02*
G01*
X83988794Y-32772489D01*
X84000000Y-32824000D01*
X84000000Y-47181956D01*
X83994859Y-47217292D01*
X82939039Y-50768684D01*
X82914006Y-50814421D01*
X82302238Y-51522422D01*
X82297864Y-51527223D01*
X80536601Y-53361874D01*
X80475974Y-53396603D01*
X80447149Y-53400000D01*
X68624000Y-53400000D01*
X68556961Y-53380315D01*
X68511206Y-53327511D01*
X68500000Y-53276000D01*
X68500000Y-51180247D01*
X71489500Y-51180247D01*
X71489500Y-52819752D01*
X71501131Y-52878229D01*
X71501132Y-52878230D01*
X71545447Y-52944552D01*
X71611769Y-52988867D01*
X71611770Y-52988868D01*
X71670247Y-53000499D01*
X71670250Y-53000500D01*
X71670252Y-53000500D01*
X73309750Y-53000500D01*
X73309751Y-53000499D01*
X73324568Y-52997552D01*
X73368229Y-52988868D01*
X73368229Y-52988867D01*
X73368231Y-52988867D01*
X73434552Y-52944552D01*
X73478867Y-52878231D01*
X73478867Y-52878229D01*
X73478868Y-52878229D01*
X73490499Y-52819752D01*
X73490500Y-52819750D01*
X73490500Y-51180249D01*
X73490499Y-51180247D01*
X73478868Y-51121770D01*
X73478867Y-51121769D01*
X73434552Y-51055447D01*
X73368230Y-51011132D01*
X73368229Y-51011131D01*
X73309752Y-50999500D01*
X73309748Y-50999500D01*
X71670252Y-50999500D01*
X71670247Y-50999500D01*
X71611770Y-51011131D01*
X71611769Y-51011132D01*
X71545447Y-51055447D01*
X71501132Y-51121769D01*
X71501131Y-51121770D01*
X71489500Y-51180247D01*
X68500000Y-51180247D01*
X68500000Y-50200000D01*
X76594353Y-50200000D01*
X76614834Y-50342456D01*
X76674622Y-50473371D01*
X76674623Y-50473373D01*
X76768872Y-50582143D01*
X76889947Y-50659953D01*
X76889950Y-50659954D01*
X76889949Y-50659954D01*
X77028036Y-50700499D01*
X77028038Y-50700500D01*
X77028039Y-50700500D01*
X77171962Y-50700500D01*
X77171962Y-50700499D01*
X77310053Y-50659953D01*
X77431128Y-50582143D01*
X77525377Y-50473373D01*
X77585165Y-50342457D01*
X77605647Y-50200000D01*
X77585165Y-50057543D01*
X77525377Y-49926627D01*
X77431128Y-49817857D01*
X77310053Y-49740047D01*
X77310051Y-49740046D01*
X77310049Y-49740045D01*
X77310050Y-49740045D01*
X77171963Y-49699500D01*
X77171961Y-49699500D01*
X77028039Y-49699500D01*
X77028036Y-49699500D01*
X76889949Y-49740045D01*
X76768873Y-49817856D01*
X76674623Y-49926626D01*
X76674622Y-49926628D01*
X76614834Y-50057543D01*
X76594353Y-50200000D01*
X68500000Y-50200000D01*
X68500000Y-46300000D01*
X70174659Y-46300000D01*
X70193975Y-46496129D01*
X70193976Y-46496132D01*
X70242548Y-46656253D01*
X70251188Y-46684733D01*
X70344086Y-46858532D01*
X70344090Y-46858539D01*
X70469116Y-47010883D01*
X70621460Y-47135909D01*
X70621467Y-47135913D01*
X70795266Y-47228811D01*
X70795269Y-47228811D01*
X70795273Y-47228814D01*
X70983868Y-47286024D01*
X71180000Y-47305341D01*
X71376132Y-47286024D01*
X71564727Y-47228814D01*
X71738538Y-47135910D01*
X71890883Y-47010883D01*
X72015910Y-46858538D01*
X72101650Y-46698130D01*
X72108811Y-46684733D01*
X72108811Y-46684732D01*
X72108814Y-46684727D01*
X72166024Y-46496132D01*
X72185341Y-46300000D01*
X72166024Y-46103868D01*
X72108814Y-45915273D01*
X72108811Y-45915269D01*
X72108811Y-45915266D01*
X72015913Y-45741467D01*
X72015909Y-45741460D01*
X71890883Y-45589116D01*
X71758226Y-45480247D01*
X77799500Y-45480247D01*
X77799500Y-47119752D01*
X77811131Y-47178229D01*
X77811132Y-47178230D01*
X77855447Y-47244552D01*
X77921769Y-47288867D01*
X77921770Y-47288868D01*
X77980247Y-47300499D01*
X77980250Y-47300500D01*
X77980252Y-47300500D01*
X79619750Y-47300500D01*
X79619751Y-47300499D01*
X79634568Y-47297552D01*
X79678229Y-47288868D01*
X79678229Y-47288867D01*
X79678231Y-47288867D01*
X79744552Y-47244552D01*
X79788867Y-47178231D01*
X79788867Y-47178229D01*
X79788868Y-47178229D01*
X79800499Y-47119752D01*
X79800500Y-47119750D01*
X79800500Y-45480249D01*
X79800499Y-45480247D01*
X79788868Y-45421770D01*
X79788867Y-45421769D01*
X79744552Y-45355447D01*
X79678230Y-45311132D01*
X79678229Y-45311131D01*
X79619752Y-45299500D01*
X79619748Y-45299500D01*
X77980252Y-45299500D01*
X77980247Y-45299500D01*
X77921770Y-45311131D01*
X77921769Y-45311132D01*
X77855447Y-45355447D01*
X77811132Y-45421769D01*
X77811131Y-45421770D01*
X77799500Y-45480247D01*
X71758226Y-45480247D01*
X71738539Y-45464090D01*
X71738532Y-45464086D01*
X71564733Y-45371188D01*
X71564727Y-45371186D01*
X71376132Y-45313976D01*
X71376129Y-45313975D01*
X71180000Y-45294659D01*
X70983870Y-45313975D01*
X70795266Y-45371188D01*
X70621467Y-45464086D01*
X70621460Y-45464090D01*
X70469116Y-45589116D01*
X70344090Y-45741460D01*
X70344086Y-45741467D01*
X70251188Y-45915266D01*
X70193975Y-46103870D01*
X70174659Y-46300000D01*
X68500000Y-46300000D01*
X68500000Y-43760000D01*
X70174659Y-43760000D01*
X70193975Y-43956129D01*
X70251188Y-44144733D01*
X70344086Y-44318532D01*
X70344090Y-44318539D01*
X70469116Y-44470883D01*
X70621460Y-44595909D01*
X70621467Y-44595913D01*
X70795266Y-44688811D01*
X70795269Y-44688811D01*
X70795273Y-44688814D01*
X70983868Y-44746024D01*
X71180000Y-44765341D01*
X71376132Y-44746024D01*
X71564727Y-44688814D01*
X71738538Y-44595910D01*
X71890883Y-44470883D01*
X72015910Y-44318538D01*
X72108814Y-44144727D01*
X72166024Y-43956132D01*
X72185341Y-43760000D01*
X77794659Y-43760000D01*
X77813975Y-43956129D01*
X77871188Y-44144733D01*
X77964086Y-44318532D01*
X77964090Y-44318539D01*
X78089116Y-44470883D01*
X78241460Y-44595909D01*
X78241467Y-44595913D01*
X78415266Y-44688811D01*
X78415269Y-44688811D01*
X78415273Y-44688814D01*
X78603868Y-44746024D01*
X78800000Y-44765341D01*
X78996132Y-44746024D01*
X79184727Y-44688814D01*
X79358538Y-44595910D01*
X79510883Y-44470883D01*
X79544232Y-44430247D01*
X81249500Y-44430247D01*
X81249500Y-46169752D01*
X81261131Y-46228229D01*
X81261132Y-46228230D01*
X81305447Y-46294552D01*
X81371769Y-46338867D01*
X81371770Y-46338868D01*
X81430247Y-46350499D01*
X81430250Y-46350500D01*
X81430252Y-46350500D01*
X83169750Y-46350500D01*
X83169751Y-46350499D01*
X83184568Y-46347552D01*
X83228229Y-46338868D01*
X83228229Y-46338867D01*
X83228231Y-46338867D01*
X83294552Y-46294552D01*
X83338867Y-46228231D01*
X83338867Y-46228229D01*
X83338868Y-46228229D01*
X83350499Y-46169752D01*
X83350500Y-46169750D01*
X83350500Y-44430249D01*
X83350499Y-44430247D01*
X83338868Y-44371770D01*
X83338867Y-44371769D01*
X83294552Y-44305447D01*
X83228230Y-44261132D01*
X83228229Y-44261131D01*
X83169752Y-44249500D01*
X83169748Y-44249500D01*
X81430252Y-44249500D01*
X81430247Y-44249500D01*
X81371770Y-44261131D01*
X81371769Y-44261132D01*
X81305447Y-44305447D01*
X81261132Y-44371769D01*
X81261131Y-44371770D01*
X81249500Y-44430247D01*
X79544232Y-44430247D01*
X79635910Y-44318538D01*
X79728814Y-44144727D01*
X79786024Y-43956132D01*
X79805341Y-43760000D01*
X79786024Y-43563868D01*
X79728814Y-43375273D01*
X79728811Y-43375269D01*
X79728811Y-43375266D01*
X79635913Y-43201467D01*
X79635909Y-43201460D01*
X79510883Y-43049116D01*
X79358539Y-42924090D01*
X79358532Y-42924086D01*
X79184733Y-42831188D01*
X79184727Y-42831186D01*
X78996132Y-42773976D01*
X78996129Y-42773975D01*
X78800000Y-42754659D01*
X78603870Y-42773975D01*
X78415266Y-42831188D01*
X78241467Y-42924086D01*
X78241460Y-42924090D01*
X78089116Y-43049116D01*
X77964090Y-43201460D01*
X77964086Y-43201467D01*
X77871188Y-43375266D01*
X77813975Y-43563870D01*
X77794659Y-43760000D01*
X72185341Y-43760000D01*
X72166024Y-43563868D01*
X72108814Y-43375273D01*
X72108811Y-43375269D01*
X72108811Y-43375266D01*
X72015913Y-43201467D01*
X72015909Y-43201460D01*
X71890883Y-43049116D01*
X71738539Y-42924090D01*
X71738532Y-42924086D01*
X71564733Y-42831188D01*
X71564727Y-42831186D01*
X71376132Y-42773976D01*
X71376129Y-42773975D01*
X71180000Y-42754659D01*
X70983870Y-42773975D01*
X70795266Y-42831188D01*
X70621467Y-42924086D01*
X70621460Y-42924090D01*
X70469116Y-43049116D01*
X70344090Y-43201460D01*
X70344086Y-43201467D01*
X70251188Y-43375266D01*
X70193975Y-43563870D01*
X70174659Y-43760000D01*
X68500000Y-43760000D01*
X68500000Y-41220000D01*
X70174659Y-41220000D01*
X70193975Y-41416129D01*
X70251188Y-41604733D01*
X70344086Y-41778532D01*
X70344090Y-41778539D01*
X70469116Y-41930883D01*
X70621460Y-42055909D01*
X70621467Y-42055913D01*
X70795266Y-42148811D01*
X70795269Y-42148811D01*
X70795273Y-42148814D01*
X70983868Y-42206024D01*
X71180000Y-42225341D01*
X71376132Y-42206024D01*
X71564727Y-42148814D01*
X71738538Y-42055910D01*
X71890883Y-41930883D01*
X72015910Y-41778538D01*
X72108814Y-41604727D01*
X72166024Y-41416132D01*
X72185341Y-41220000D01*
X77794659Y-41220000D01*
X77813975Y-41416129D01*
X77871188Y-41604733D01*
X77964086Y-41778532D01*
X77964090Y-41778539D01*
X78089116Y-41930883D01*
X78241460Y-42055909D01*
X78241467Y-42055913D01*
X78415266Y-42148811D01*
X78415269Y-42148811D01*
X78415273Y-42148814D01*
X78603868Y-42206024D01*
X78800000Y-42225341D01*
X78996132Y-42206024D01*
X79184727Y-42148814D01*
X79358538Y-42055910D01*
X79510883Y-41930883D01*
X79635910Y-41778538D01*
X79728814Y-41604727D01*
X79786024Y-41416132D01*
X79804849Y-41225000D01*
X81719353Y-41225000D01*
X81739834Y-41367456D01*
X81762063Y-41416129D01*
X81799623Y-41498373D01*
X81893872Y-41607143D01*
X82014947Y-41684953D01*
X82014950Y-41684954D01*
X82014949Y-41684954D01*
X82153036Y-41725499D01*
X82153038Y-41725500D01*
X82153039Y-41725500D01*
X82296962Y-41725500D01*
X82296962Y-41725499D01*
X82435053Y-41684953D01*
X82556128Y-41607143D01*
X82650377Y-41498373D01*
X82710165Y-41367457D01*
X82730647Y-41225000D01*
X82710165Y-41082543D01*
X82650377Y-40951627D01*
X82556128Y-40842857D01*
X82435053Y-40765047D01*
X82435051Y-40765046D01*
X82435049Y-40765045D01*
X82435050Y-40765045D01*
X82296963Y-40724500D01*
X82296961Y-40724500D01*
X82153039Y-40724500D01*
X82153036Y-40724500D01*
X82014949Y-40765045D01*
X81893873Y-40842856D01*
X81799623Y-40951626D01*
X81799622Y-40951628D01*
X81739834Y-41082543D01*
X81719353Y-41225000D01*
X79804849Y-41225000D01*
X79805341Y-41220000D01*
X79786024Y-41023868D01*
X79728814Y-40835273D01*
X79728811Y-40835269D01*
X79728811Y-40835266D01*
X79635913Y-40661467D01*
X79635909Y-40661460D01*
X79510883Y-40509116D01*
X79358539Y-40384090D01*
X79358532Y-40384086D01*
X79184733Y-40291188D01*
X79184727Y-40291186D01*
X78996132Y-40233976D01*
X78996129Y-40233975D01*
X78800000Y-40214659D01*
X78603870Y-40233975D01*
X78415266Y-40291188D01*
X78241467Y-40384086D01*
X78241460Y-40384090D01*
X78089116Y-40509116D01*
X77964090Y-40661460D01*
X77964086Y-40661467D01*
X77871188Y-40835266D01*
X77813975Y-41023870D01*
X77794659Y-41220000D01*
X72185341Y-41220000D01*
X72166024Y-41023868D01*
X72108814Y-40835273D01*
X72108811Y-40835269D01*
X72108811Y-40835266D01*
X72015913Y-40661467D01*
X72015909Y-40661460D01*
X71890883Y-40509116D01*
X71738539Y-40384090D01*
X71738532Y-40384086D01*
X71564733Y-40291188D01*
X71564727Y-40291186D01*
X71376132Y-40233976D01*
X71376129Y-40233975D01*
X71180000Y-40214659D01*
X70983870Y-40233975D01*
X70795266Y-40291188D01*
X70621467Y-40384086D01*
X70621460Y-40384090D01*
X70469116Y-40509116D01*
X70344090Y-40661460D01*
X70344086Y-40661467D01*
X70251188Y-40835266D01*
X70193975Y-41023870D01*
X70174659Y-41220000D01*
X68500000Y-41220000D01*
X68500000Y-38680000D01*
X70174659Y-38680000D01*
X70193975Y-38876129D01*
X70251188Y-39064733D01*
X70344086Y-39238532D01*
X70344090Y-39238539D01*
X70469116Y-39390883D01*
X70621460Y-39515909D01*
X70621467Y-39515913D01*
X70795266Y-39608811D01*
X70795269Y-39608811D01*
X70795273Y-39608814D01*
X70983868Y-39666024D01*
X71180000Y-39685341D01*
X71376132Y-39666024D01*
X71564727Y-39608814D01*
X71738538Y-39515910D01*
X71890883Y-39390883D01*
X72015910Y-39238538D01*
X72108814Y-39064727D01*
X72166024Y-38876132D01*
X72185341Y-38680000D01*
X72166024Y-38483868D01*
X72108814Y-38295273D01*
X72108811Y-38295269D01*
X72108811Y-38295266D01*
X72015913Y-38121467D01*
X72015909Y-38121460D01*
X71890883Y-37969116D01*
X71738539Y-37844090D01*
X71738532Y-37844086D01*
X71564733Y-37751188D01*
X71564727Y-37751186D01*
X71376132Y-37693976D01*
X71376129Y-37693975D01*
X71180000Y-37674659D01*
X70983870Y-37693975D01*
X70795266Y-37751188D01*
X70621467Y-37844086D01*
X70621460Y-37844090D01*
X70469116Y-37969116D01*
X70344090Y-38121460D01*
X70344086Y-38121467D01*
X70251188Y-38295266D01*
X70193975Y-38483870D01*
X70174659Y-38680000D01*
X68500000Y-38680000D01*
X68500000Y-34130247D01*
X69449500Y-34130247D01*
X69449500Y-35869752D01*
X69461131Y-35928229D01*
X69461132Y-35928230D01*
X69505447Y-35994552D01*
X69571769Y-36038867D01*
X69571770Y-36038868D01*
X69630247Y-36050499D01*
X69630250Y-36050500D01*
X69630252Y-36050500D01*
X71369750Y-36050500D01*
X71369751Y-36050499D01*
X71384568Y-36047552D01*
X71428229Y-36038868D01*
X71428229Y-36038867D01*
X71428231Y-36038867D01*
X71494552Y-35994552D01*
X71538867Y-35928231D01*
X71538867Y-35928229D01*
X71538868Y-35928229D01*
X71550499Y-35869752D01*
X71550500Y-35869750D01*
X71550500Y-34130249D01*
X71550499Y-34130247D01*
X71538868Y-34071770D01*
X71538867Y-34071769D01*
X71494552Y-34005447D01*
X71428230Y-33961132D01*
X71428229Y-33961131D01*
X71369752Y-33949500D01*
X71369748Y-33949500D01*
X69630252Y-33949500D01*
X69630247Y-33949500D01*
X69571770Y-33961131D01*
X69571769Y-33961132D01*
X69505447Y-34005447D01*
X69461132Y-34071769D01*
X69461131Y-34071770D01*
X69449500Y-34130247D01*
X68500000Y-34130247D01*
X68500000Y-32824000D01*
X68519685Y-32756961D01*
X68572489Y-32711206D01*
X68624000Y-32700000D01*
X83876000Y-32700000D01*
X83943039Y-32719685D01*
G37*
%TD.AperFunction*%
%TD*%
%TA.AperFunction,Conductor*%
%TO.N,-BATT*%
G36*
X95300000Y-45018203D02*
G01*
X95484823Y-45000000D01*
X102100000Y-45000000D01*
X102100000Y-47700000D01*
X98734345Y-47700000D01*
X98670548Y-47682329D01*
X94200000Y-45000000D01*
X95115177Y-45000000D01*
X95300000Y-45018203D01*
G37*
%TD.AperFunction*%
%TD*%
M02*
