%TF.GenerationSoftware,KiCad,Pcbnew,8.0.7*%
%TF.CreationDate,2025-04-15T22:45:20-07:00*%
%TF.ProjectId,M56PowerPrototype,4d353650-6f77-4657-9250-726f746f7479,rev?*%
%TF.SameCoordinates,Original*%
%TF.FileFunction,Legend,Top*%
%TF.FilePolarity,Positive*%
%FSLAX46Y46*%
G04 Gerber Fmt 4.6, Leading zero omitted, Abs format (unit mm)*
G04 Created by KiCad (PCBNEW 8.0.7) date 2025-04-15 22:45:20*
%MOMM*%
%LPD*%
G01*
G04 APERTURE LIST*
%ADD10C,0.150000*%
%ADD11C,0.152400*%
%ADD12C,0.508000*%
%ADD13C,0.120000*%
G04 APERTURE END LIST*
D10*
X107290819Y-55655933D02*
X108005104Y-55655933D01*
X108005104Y-55655933D02*
X108147961Y-55703552D01*
X108147961Y-55703552D02*
X108243200Y-55798790D01*
X108243200Y-55798790D02*
X108290819Y-55941647D01*
X108290819Y-55941647D02*
X108290819Y-56036885D01*
X108290819Y-54655933D02*
X108290819Y-55227361D01*
X108290819Y-54941647D02*
X107290819Y-54941647D01*
X107290819Y-54941647D02*
X107433676Y-55036885D01*
X107433676Y-55036885D02*
X107528914Y-55132123D01*
X107528914Y-55132123D02*
X107576533Y-55227361D01*
X86838095Y-58054819D02*
X87409523Y-58054819D01*
X87123809Y-59054819D02*
X87123809Y-58054819D01*
X87742857Y-59054819D02*
X87742857Y-58054819D01*
X87742857Y-58054819D02*
X88123809Y-58054819D01*
X88123809Y-58054819D02*
X88219047Y-58102438D01*
X88219047Y-58102438D02*
X88266666Y-58150057D01*
X88266666Y-58150057D02*
X88314285Y-58245295D01*
X88314285Y-58245295D02*
X88314285Y-58388152D01*
X88314285Y-58388152D02*
X88266666Y-58483390D01*
X88266666Y-58483390D02*
X88219047Y-58531009D01*
X88219047Y-58531009D02*
X88123809Y-58578628D01*
X88123809Y-58578628D02*
X87742857Y-58578628D01*
X89171428Y-58388152D02*
X89171428Y-59054819D01*
X88933333Y-58007200D02*
X88695238Y-58721485D01*
X88695238Y-58721485D02*
X89314285Y-58721485D01*
X72338095Y-33454819D02*
X72909523Y-33454819D01*
X72623809Y-34454819D02*
X72623809Y-33454819D01*
X73242857Y-34454819D02*
X73242857Y-33454819D01*
X73242857Y-33454819D02*
X73623809Y-33454819D01*
X73623809Y-33454819D02*
X73719047Y-33502438D01*
X73719047Y-33502438D02*
X73766666Y-33550057D01*
X73766666Y-33550057D02*
X73814285Y-33645295D01*
X73814285Y-33645295D02*
X73814285Y-33788152D01*
X73814285Y-33788152D02*
X73766666Y-33883390D01*
X73766666Y-33883390D02*
X73719047Y-33931009D01*
X73719047Y-33931009D02*
X73623809Y-33978628D01*
X73623809Y-33978628D02*
X73242857Y-33978628D01*
X74195238Y-33550057D02*
X74242857Y-33502438D01*
X74242857Y-33502438D02*
X74338095Y-33454819D01*
X74338095Y-33454819D02*
X74576190Y-33454819D01*
X74576190Y-33454819D02*
X74671428Y-33502438D01*
X74671428Y-33502438D02*
X74719047Y-33550057D01*
X74719047Y-33550057D02*
X74766666Y-33645295D01*
X74766666Y-33645295D02*
X74766666Y-33740533D01*
X74766666Y-33740533D02*
X74719047Y-33883390D01*
X74719047Y-33883390D02*
X74147619Y-34454819D01*
X74147619Y-34454819D02*
X74766666Y-34454819D01*
X70644066Y-59590819D02*
X70644066Y-60305104D01*
X70644066Y-60305104D02*
X70596447Y-60447961D01*
X70596447Y-60447961D02*
X70501209Y-60543200D01*
X70501209Y-60543200D02*
X70358352Y-60590819D01*
X70358352Y-60590819D02*
X70263114Y-60590819D01*
X71072638Y-59686057D02*
X71120257Y-59638438D01*
X71120257Y-59638438D02*
X71215495Y-59590819D01*
X71215495Y-59590819D02*
X71453590Y-59590819D01*
X71453590Y-59590819D02*
X71548828Y-59638438D01*
X71548828Y-59638438D02*
X71596447Y-59686057D01*
X71596447Y-59686057D02*
X71644066Y-59781295D01*
X71644066Y-59781295D02*
X71644066Y-59876533D01*
X71644066Y-59876533D02*
X71596447Y-60019390D01*
X71596447Y-60019390D02*
X71025019Y-60590819D01*
X71025019Y-60590819D02*
X71644066Y-60590819D01*
X80538095Y-47254819D02*
X81109523Y-47254819D01*
X80823809Y-48254819D02*
X80823809Y-47254819D01*
X81442857Y-48254819D02*
X81442857Y-47254819D01*
X81442857Y-47254819D02*
X81823809Y-47254819D01*
X81823809Y-47254819D02*
X81919047Y-47302438D01*
X81919047Y-47302438D02*
X81966666Y-47350057D01*
X81966666Y-47350057D02*
X82014285Y-47445295D01*
X82014285Y-47445295D02*
X82014285Y-47588152D01*
X82014285Y-47588152D02*
X81966666Y-47683390D01*
X81966666Y-47683390D02*
X81919047Y-47731009D01*
X81919047Y-47731009D02*
X81823809Y-47778628D01*
X81823809Y-47778628D02*
X81442857Y-47778628D01*
X82347619Y-47254819D02*
X82966666Y-47254819D01*
X82966666Y-47254819D02*
X82633333Y-47635771D01*
X82633333Y-47635771D02*
X82776190Y-47635771D01*
X82776190Y-47635771D02*
X82871428Y-47683390D01*
X82871428Y-47683390D02*
X82919047Y-47731009D01*
X82919047Y-47731009D02*
X82966666Y-47826247D01*
X82966666Y-47826247D02*
X82966666Y-48064342D01*
X82966666Y-48064342D02*
X82919047Y-48159580D01*
X82919047Y-48159580D02*
X82871428Y-48207200D01*
X82871428Y-48207200D02*
X82776190Y-48254819D01*
X82776190Y-48254819D02*
X82490476Y-48254819D01*
X82490476Y-48254819D02*
X82395238Y-48207200D01*
X82395238Y-48207200D02*
X82347619Y-48159580D01*
X74228095Y-48084819D02*
X74228095Y-48894342D01*
X74228095Y-48894342D02*
X74275714Y-48989580D01*
X74275714Y-48989580D02*
X74323333Y-49037200D01*
X74323333Y-49037200D02*
X74418571Y-49084819D01*
X74418571Y-49084819D02*
X74609047Y-49084819D01*
X74609047Y-49084819D02*
X74704285Y-49037200D01*
X74704285Y-49037200D02*
X74751904Y-48989580D01*
X74751904Y-48989580D02*
X74799523Y-48894342D01*
X74799523Y-48894342D02*
X74799523Y-48084819D01*
X75704285Y-48418152D02*
X75704285Y-49084819D01*
X75466190Y-48037200D02*
X75228095Y-48751485D01*
X75228095Y-48751485D02*
X75847142Y-48751485D01*
D11*
%TO.C,J1*%
X102423000Y-40233600D02*
X102423000Y-59156600D01*
X102423000Y-59156600D02*
X115377000Y-59156600D01*
X115377000Y-40233600D02*
X102423000Y-40233600D01*
X115377000Y-59156600D02*
X115377000Y-40233600D01*
D12*
X105217000Y-60934600D02*
G75*
G02*
X104455000Y-60934600I-381000J0D01*
G01*
X104455000Y-60934600D02*
G75*
G02*
X105217000Y-60934600I381000J0D01*
G01*
D13*
%TO.C,C3*%
X90490000Y-42234420D02*
X90490000Y-42515580D01*
X91510000Y-42234420D02*
X91510000Y-42515580D01*
%TO.C,TP4*%
X87070000Y-57210000D02*
X87070000Y-57330000D01*
X87070000Y-57330000D02*
X89730000Y-57330000D01*
X88400000Y-54670000D02*
X89730000Y-54670000D01*
X89730000Y-54670000D02*
X89730000Y-56000000D01*
X89730000Y-57210000D02*
X89730000Y-57330000D01*
%TO.C,R2*%
X91360436Y-35965000D02*
X91814564Y-35965000D01*
X91360436Y-37435000D02*
X91814564Y-37435000D01*
%TO.C,R4*%
X70672936Y-47865000D02*
X71127064Y-47865000D01*
X70672936Y-49335000D02*
X71127064Y-49335000D01*
%TO.C,TP2*%
X69170000Y-36210000D02*
X69170000Y-36330000D01*
X69170000Y-36330000D02*
X71830000Y-36330000D01*
X70500000Y-33670000D02*
X71830000Y-33670000D01*
X71830000Y-33670000D02*
X71830000Y-35000000D01*
X71830000Y-36210000D02*
X71830000Y-36330000D01*
%TO.C,D1*%
X73530000Y-52000000D02*
X74180000Y-52000000D01*
X74180000Y-50880000D02*
X74180000Y-53120000D01*
X74180000Y-53120000D02*
X78420000Y-53120000D01*
X74780000Y-50880000D02*
X74780000Y-53120000D01*
X74900000Y-50880000D02*
X74900000Y-53120000D01*
X75020000Y-50880000D02*
X75020000Y-53120000D01*
X78420000Y-50880000D02*
X74180000Y-50880000D01*
X78420000Y-53120000D02*
X78420000Y-50880000D01*
X79070000Y-52000000D02*
X78420000Y-52000000D01*
%TO.C,R1*%
X91372936Y-38165000D02*
X91827064Y-38165000D01*
X91372936Y-39635000D02*
X91827064Y-39635000D01*
%TO.C,C1*%
X100711252Y-49090000D02*
X99288748Y-49090000D01*
X100711252Y-50910000D02*
X99288748Y-50910000D01*
D11*
%TO.C,J2*%
X67143400Y-54723000D02*
X67143400Y-67677000D01*
X67143400Y-67677000D02*
X86066400Y-67677000D01*
X86066400Y-54723000D02*
X67143400Y-54723000D01*
X86066400Y-67677000D02*
X86066400Y-54723000D01*
D12*
X65746400Y-57136000D02*
G75*
G02*
X64984400Y-57136000I-381000J0D01*
G01*
X64984400Y-57136000D02*
G75*
G02*
X65746400Y-57136000I381000J0D01*
G01*
D13*
%TO.C,C5*%
X77738748Y-48265000D02*
X78261252Y-48265000D01*
X77738748Y-49735000D02*
X78261252Y-49735000D01*
D11*
%TO.C,U2*%
X93598200Y-36227600D02*
X93598200Y-46692400D01*
X93598200Y-46692400D02*
X98246400Y-46692400D01*
X96976400Y-36354600D02*
X96976400Y-46565400D01*
X98246400Y-36227600D02*
X93598200Y-36227600D01*
X98246400Y-46692400D02*
X98246400Y-36227600D01*
X95503200Y-34449600D02*
G75*
G02*
X95096800Y-34449600I-203200J0D01*
G01*
X95096800Y-34449600D02*
G75*
G02*
X95503200Y-34449600I203200J0D01*
G01*
D13*
%TO.C,C2*%
X93788748Y-47490000D02*
X95211252Y-47490000D01*
X93788748Y-49310000D02*
X95211252Y-49310000D01*
%TO.C,R3*%
X69265000Y-51627064D02*
X69265000Y-51172936D01*
X70735000Y-51627064D02*
X70735000Y-51172936D01*
%TO.C,U1*%
X90760000Y-56625000D02*
X92570000Y-56625000D01*
X90760000Y-57990000D02*
X90760000Y-56625000D01*
X101160000Y-56625000D02*
X99350000Y-56625000D01*
X101160000Y-57990000D02*
X101160000Y-56625000D01*
X99780000Y-54140000D02*
X99310000Y-53800000D01*
X99780000Y-53460000D01*
X99780000Y-54140000D01*
G36*
X99780000Y-54140000D02*
G01*
X99310000Y-53800000D01*
X99780000Y-53460000D01*
X99780000Y-54140000D01*
G37*
%TO.C,TP3*%
X80970000Y-46510000D02*
X80970000Y-46630000D01*
X80970000Y-46630000D02*
X83630000Y-46630000D01*
X82300000Y-43970000D02*
X83630000Y-43970000D01*
X83630000Y-43970000D02*
X83630000Y-45300000D01*
X83630000Y-46510000D02*
X83630000Y-46630000D01*
%TO.C,D2*%
X98880000Y-40580000D02*
X98880000Y-44820000D01*
X98880000Y-44820000D02*
X101120000Y-44820000D01*
X100000000Y-39930000D02*
X100000000Y-40580000D01*
X100000000Y-45470000D02*
X100000000Y-44820000D01*
X101120000Y-40580000D02*
X98880000Y-40580000D01*
X101120000Y-41180000D02*
X98880000Y-41180000D01*
X101120000Y-41300000D02*
X98880000Y-41300000D01*
X101120000Y-41420000D02*
X98880000Y-41420000D01*
X101120000Y-44820000D02*
X101120000Y-40580000D01*
D11*
%TO.C,U3*%
X86648000Y-40122999D02*
X86648000Y-43526997D01*
X90051998Y-43526997D02*
X90051998Y-40122999D01*
X87526999Y-44776597D02*
G75*
G02*
X87272999Y-44776597I-127000J0D01*
G01*
X87272999Y-44776597D02*
G75*
G02*
X87526999Y-44776597I127000J0D01*
G01*
D13*
%TO.C,C4*%
X91990000Y-42159420D02*
X91990000Y-42440580D01*
X93010000Y-42159420D02*
X93010000Y-42440580D01*
%TO.C,U4*%
X80130000Y-47690000D02*
X80130000Y-37290000D01*
X80130000Y-37290000D02*
X69850000Y-37290000D01*
X77640000Y-47630000D02*
X77640000Y-37350000D01*
X77640000Y-37350000D02*
X72340000Y-37350000D01*
X75990000Y-47630000D02*
X77640000Y-47630000D01*
X72340000Y-47630000D02*
X73990000Y-47630000D01*
X72340000Y-37350000D02*
X72340000Y-47630000D01*
X69850000Y-47690000D02*
X80130000Y-47690000D01*
X69850000Y-37290000D02*
X69850000Y-47690000D01*
X73990000Y-47630000D02*
G75*
G02*
X75990000Y-47630000I1000000J0D01*
G01*
%TD*%
M02*
