M48
; DRILL file {KiCad 8.0.7} date 2025-04-15T22:45:34-0700
; FORMAT={-:-/ absolute / inch / decimal}
; #@! TF.CreationDate,2025-04-15T22:45:34-07:00
; #@! TF.GenerationSoftware,Kicad,Pcbnew,8.0.7
; #@! TF.FileFunction,Plated,1,2,PTH
FMAT,2
INCH
; #@! TA.AperFunction,Plated,PTH,ViaDrill
T1C0.0118
; #@! TA.AperFunction,Plated,PTH,ComponentDrill
T2C0.0315
; #@! TA.AperFunction,Plated,PTH,ComponentDrill
T3C0.0394
; #@! TA.AperFunction,Plated,PTH,ComponentDrill
T4C0.0440
; #@! TA.AperFunction,Plated,PTH,ComponentDrill
T5C0.0720
%
G90
G05
T1
X2.874Y-1.9134
X2.9724Y-1.3976
X2.9921Y-1.378
X3.0118Y-1.3583
X3.0315Y-1.3386
X3.0354Y-1.9764
X3.1575Y-1.9291
X3.2372Y-1.623
X3.3898Y-1.6457
X3.3937Y-1.7047
X3.4213Y-1.8543
X3.4409Y-1.878
X3.4646Y-1.8976
X3.4921Y-1.9016
X3.4961Y-1.4449
X3.5197Y-1.9016
X3.5236Y-1.4449
X3.5472Y-1.9016
X3.5866Y-2.1181
X3.6102Y-1.9409
X3.6378Y-1.9764
X3.6457Y-1.5906
X3.9252Y-2.1614
X3.9488Y-2.185
X3.9803Y-1.7953
X4.0079Y-1.7953
X4.0079Y-1.8228
X4.0079Y-1.8504
T2
X2.8024Y-1.5228
X2.8024Y-1.6228
X2.8024Y-1.7228
X2.8024Y-1.8228
X2.8539Y-2.0472
X3.1024Y-1.5228
X3.1024Y-1.6228
X3.1024Y-1.7228
X3.1024Y-1.8228
X3.1539Y-2.0472
X3.937Y-1.5311
X3.937Y-1.8311
T3
X2.7756Y-1.378
X3.2402Y-1.7835
X3.4803Y-2.2047
T4
X3.752Y-1.5323
X3.752Y-1.6323
X3.752Y-1.7323
T5
X2.8534Y-2.2494
X3.1784Y-2.2494
X4.1274Y-1.794
X4.1274Y-2.119
M30
