%TF.GenerationSoftware,KiCad,Pcbnew,8.0.7*%
%TF.CreationDate,2025-04-15T22:45:42-07:00*%
%TF.ProjectId,M56PowerPrototype,4d353650-6f77-4657-9250-726f746f7479,rev?*%
%TF.SameCoordinates,Original*%
%TF.FileFunction,Copper,L1,Top*%
%TF.FilePolarity,Positive*%
%FSLAX46Y46*%
G04 Gerber Fmt 4.6, Leading zero omitted, Abs format (unit mm)*
G04 Created by KiCad (PCBNEW 8.0.7) date 2025-04-15 22:45:42*
%MOMM*%
%LPD*%
G01*
G04 APERTURE LIST*
G04 Aperture macros list*
%AMRoundRect*
0 Rectangle with rounded corners*
0 $1 Rounding radius*
0 $2 $3 $4 $5 $6 $7 $8 $9 X,Y pos of 4 corners*
0 Add a 4 corners polygon primitive as box body*
4,1,4,$2,$3,$4,$5,$6,$7,$8,$9,$2,$3,0*
0 Add four circle primitives for the rounded corners*
1,1,$1+$1,$2,$3*
1,1,$1+$1,$4,$5*
1,1,$1+$1,$6,$7*
1,1,$1+$1,$8,$9*
0 Add four rect primitives between the rounded corners*
20,1,$1+$1,$2,$3,$4,$5,0*
20,1,$1+$1,$4,$5,$6,$7,0*
20,1,$1+$1,$6,$7,$8,$9,0*
20,1,$1+$1,$8,$9,$2,$3,0*%
G04 Aperture macros list end*
%TA.AperFunction,ComponentPad*%
%ADD10C,2.336800*%
%TD*%
%TA.AperFunction,SMDPad,CuDef*%
%ADD11RoundRect,0.225000X-0.250000X0.225000X-0.250000X-0.225000X0.250000X-0.225000X0.250000X0.225000X0*%
%TD*%
%TA.AperFunction,ComponentPad*%
%ADD12R,1.700000X1.700000*%
%TD*%
%TA.AperFunction,SMDPad,CuDef*%
%ADD13RoundRect,0.250000X-0.262500X-0.450000X0.262500X-0.450000X0.262500X0.450000X-0.262500X0.450000X0*%
%TD*%
%TA.AperFunction,ComponentPad*%
%ADD14R,1.600000X1.600000*%
%TD*%
%TA.AperFunction,ComponentPad*%
%ADD15O,1.600000X1.600000*%
%TD*%
%TA.AperFunction,SMDPad,CuDef*%
%ADD16RoundRect,0.250000X0.325000X0.650000X-0.325000X0.650000X-0.325000X-0.650000X0.325000X-0.650000X0*%
%TD*%
%TA.AperFunction,SMDPad,CuDef*%
%ADD17RoundRect,0.250000X-0.250000X-0.475000X0.250000X-0.475000X0.250000X0.475000X-0.250000X0.475000X0*%
%TD*%
%TA.AperFunction,ComponentPad*%
%ADD18R,1.625600X1.625600*%
%TD*%
%TA.AperFunction,ComponentPad*%
%ADD19C,1.625600*%
%TD*%
%TA.AperFunction,SMDPad,CuDef*%
%ADD20RoundRect,0.250000X-0.325000X-0.650000X0.325000X-0.650000X0.325000X0.650000X-0.325000X0.650000X0*%
%TD*%
%TA.AperFunction,SMDPad,CuDef*%
%ADD21RoundRect,0.250000X0.450000X-0.262500X0.450000X0.262500X-0.450000X0.262500X-0.450000X-0.262500X0*%
%TD*%
%TA.AperFunction,SMDPad,CuDef*%
%ADD22RoundRect,0.250000X-0.300000X2.050000X-0.300000X-2.050000X0.300000X-2.050000X0.300000X2.050000X0*%
%TD*%
%TA.AperFunction,SMDPad,CuDef*%
%ADD23RoundRect,0.250000X-2.375000X2.025000X-2.375000X-2.025000X2.375000X-2.025000X2.375000X2.025000X0*%
%TD*%
%TA.AperFunction,SMDPad,CuDef*%
%ADD24RoundRect,0.250002X-5.149998X4.449998X-5.149998X-4.449998X5.149998X-4.449998X5.149998X4.449998X0*%
%TD*%
%TA.AperFunction,SMDPad,CuDef*%
%ADD25R,0.400000X0.950000*%
%TD*%
%TA.AperFunction,SMDPad,CuDef*%
%ADD26R,1.900000X1.200000*%
%TD*%
%TA.AperFunction,ViaPad*%
%ADD27C,0.600000*%
%TD*%
%TA.AperFunction,Conductor*%
%ADD28C,0.500000*%
%TD*%
%TA.AperFunction,Conductor*%
%ADD29C,2.000000*%
%TD*%
%TA.AperFunction,Conductor*%
%ADD30C,0.200000*%
%TD*%
G04 APERTURE END LIST*
D10*
%TO.P,J1,1,1*%
%TO.N,+BATT*%
X104836000Y-53822600D03*
%TO.P,J1,2,2*%
%TO.N,-BATT*%
X104836000Y-45567600D03*
%TD*%
D11*
%TO.P,C3,1*%
%TO.N,+5V*%
X91000000Y-41600000D03*
%TO.P,C3,2*%
%TO.N,-BATT*%
X91000000Y-43150000D03*
%TD*%
D12*
%TO.P,TP4,1,1*%
%TO.N,+5V*%
X88400000Y-56000000D03*
%TD*%
D13*
%TO.P,R2,1*%
%TO.N,-BATT*%
X90675000Y-36700000D03*
%TO.P,R2,2*%
%TO.N,Net-(D2-K)*%
X92500000Y-36700000D03*
%TD*%
%TO.P,R4,1*%
%TO.N,/VOLTAGE_MON*%
X69987500Y-48600000D03*
%TO.P,R4,2*%
%TO.N,-BATT*%
X71812500Y-48600000D03*
%TD*%
D12*
%TO.P,TP2,1,1*%
%TO.N,/VOLTAGE_MON*%
X70500000Y-35000000D03*
%TD*%
D14*
%TO.P,D1,1,K*%
%TO.N,/VOLTAGE_MON*%
X72490000Y-52000000D03*
D15*
%TO.P,D1,2,A*%
%TO.N,-BATT*%
X80110000Y-52000000D03*
%TD*%
D13*
%TO.P,R1,1*%
%TO.N,Net-(U3-OUT)*%
X90687500Y-38900000D03*
%TO.P,R1,2*%
%TO.N,Net-(D2-K)*%
X92512500Y-38900000D03*
%TD*%
D16*
%TO.P,C1,1*%
%TO.N,-BATT*%
X101475000Y-50000000D03*
%TO.P,C1,2*%
%TO.N,+BATT*%
X98525000Y-50000000D03*
%TD*%
D10*
%TO.P,J2,1,1*%
%TO.N,+BATT*%
X72477400Y-57136000D03*
%TO.P,J2,2,2*%
%TO.N,/-SOLAR*%
X80732400Y-57136000D03*
%TD*%
D17*
%TO.P,C5,1*%
%TO.N,+5V*%
X77050000Y-49000000D03*
%TO.P,C5,2*%
%TO.N,-BATT*%
X78950000Y-49000000D03*
%TD*%
D18*
%TO.P,U2,1,G*%
%TO.N,Net-(D2-K)*%
X95300000Y-38920000D03*
D19*
%TO.P,U2,2,D*%
%TO.N,-BATT*%
X95300000Y-41460000D03*
%TO.P,U2,3,S*%
%TO.N,/-SOLAR*%
X95300000Y-44000000D03*
%TD*%
D20*
%TO.P,C2,1*%
%TO.N,+5V*%
X93025000Y-48400000D03*
%TO.P,C2,2*%
%TO.N,-BATT*%
X95975000Y-48400000D03*
%TD*%
D21*
%TO.P,R3,1*%
%TO.N,+BATT*%
X70000000Y-52312500D03*
%TO.P,R3,2*%
%TO.N,/VOLTAGE_MON*%
X70000000Y-50487500D03*
%TD*%
D22*
%TO.P,U1,1,IN*%
%TO.N,+BATT*%
X98500000Y-53800000D03*
%TO.P,U1,2,GND*%
%TO.N,-BATT*%
X95960000Y-53800000D03*
D23*
X98735000Y-60525000D03*
X93185000Y-60525000D03*
D24*
X95960000Y-62950000D03*
D23*
X98735000Y-65375000D03*
X93185000Y-65375000D03*
D22*
%TO.P,U1,3,OUT*%
%TO.N,+5V*%
X93420000Y-53800000D03*
%TD*%
D12*
%TO.P,TP3,1,1*%
%TO.N,/PWM_DRIVER*%
X82300000Y-45300000D03*
%TD*%
D14*
%TO.P,D2,1,K*%
%TO.N,Net-(D2-K)*%
X100000000Y-38890000D03*
D15*
%TO.P,D2,2,A*%
%TO.N,-BATT*%
X100000000Y-46510000D03*
%TD*%
D25*
%TO.P,U3,1,IN-*%
%TO.N,-BATT*%
X87399998Y-43249996D03*
%TO.P,U3,2,GND*%
X88349999Y-43249996D03*
%TO.P,U3,3,GND*%
X89300000Y-43249996D03*
%TO.P,U3,4,VDD*%
%TO.N,+5V*%
X89300000Y-40400000D03*
%TO.P,U3,5,OUT*%
%TO.N,Net-(U3-OUT)*%
X88349999Y-40400000D03*
%TO.P,U3,6,IN+*%
%TO.N,/PWM_DRIVER*%
X87399998Y-40400000D03*
D26*
%TO.P,U3,7,EPAD*%
%TO.N,-BATT*%
X88349999Y-41824998D03*
%TD*%
D11*
%TO.P,C4,1*%
%TO.N,+5V*%
X92500000Y-41525000D03*
%TO.P,C4,2*%
%TO.N,-BATT*%
X92500000Y-43075000D03*
%TD*%
D14*
%TO.P,U4,1,~{RESET}/PB5*%
%TO.N,unconnected-(U4-~{RESET}{slash}PB5-Pad1)*%
X78800000Y-46300000D03*
D15*
%TO.P,U4,2,XTAL1/PB3*%
%TO.N,unconnected-(U4-XTAL1{slash}PB3-Pad2)*%
X78800000Y-43760000D03*
%TO.P,U4,3,XTAL2/PB4*%
%TO.N,/PWM_DRIVER*%
X78800000Y-41220000D03*
%TO.P,U4,4,GND*%
%TO.N,-BATT*%
X78800000Y-38680000D03*
%TO.P,U4,5,AREF/PB0*%
%TO.N,unconnected-(U4-AREF{slash}PB0-Pad5)*%
X71180000Y-38680000D03*
%TO.P,U4,6,PB1*%
%TO.N,unconnected-(U4-PB1-Pad6)*%
X71180000Y-41220000D03*
%TO.P,U4,7,PB2*%
%TO.N,/VOLTAGE_MON*%
X71180000Y-43760000D03*
%TO.P,U4,8,VCC*%
%TO.N,+5V*%
X71180000Y-46300000D03*
%TD*%
D27*
%TO.N,-BATT*%
X77000000Y-34000000D03*
X76500000Y-34500000D03*
X76000000Y-35000000D03*
X75500000Y-35500000D03*
X88800000Y-36700000D03*
X101800000Y-47000000D03*
X101800000Y-45600000D03*
X101100000Y-45600000D03*
X101800000Y-46300000D03*
X80200000Y-49000000D03*
X89500000Y-36700000D03*
X73000000Y-48600000D03*
X86100000Y-41800000D03*
%TO.N,+BATT*%
X100300000Y-55500000D03*
X91100000Y-53800000D03*
X99700000Y-54900000D03*
%TO.N,+5V*%
X91700000Y-49300000D03*
X92600000Y-40400000D03*
X92400000Y-50200000D03*
X77100000Y-50200000D03*
X86200000Y-43300000D03*
%TO.N,/-SOLAR*%
X89400000Y-48300000D03*
X87400000Y-47700000D03*
X88700000Y-48300000D03*
X90100000Y-48300000D03*
X88000000Y-48200000D03*
X86900000Y-47100000D03*
%TO.N,/PWM_DRIVER*%
X82225000Y-41225000D03*
%TD*%
D28*
%TO.N,/PWM_DRIVER*%
X82225000Y-41225000D02*
X80930000Y-39930000D01*
X80930000Y-39930000D02*
X80090000Y-39930000D01*
X80090000Y-39930000D02*
X78800000Y-41220000D01*
%TO.N,/VOLTAGE_MON*%
X69930000Y-35570000D02*
X70500000Y-35000000D01*
X69930000Y-42510000D02*
X69930000Y-35570000D01*
X71180000Y-43760000D02*
X69930000Y-42510000D01*
%TO.N,+5V*%
X72360000Y-46300000D02*
X71180000Y-46300000D01*
X76260000Y-50200000D02*
X72360000Y-46300000D01*
%TO.N,/VOLTAGE_MON*%
X69930000Y-45010000D02*
X71180000Y-43760000D01*
X69987500Y-48600000D02*
X69930000Y-48542500D01*
X69930000Y-48542500D02*
X69930000Y-45010000D01*
D29*
%TO.N,-BATT*%
X77000000Y-34000000D02*
X76500000Y-34500000D01*
X76500000Y-34500000D02*
X76000000Y-35000000D01*
X76000000Y-35000000D02*
X75500000Y-35500000D01*
X77200000Y-33800000D02*
X77000000Y-34000000D01*
X99800000Y-33800000D02*
X77200000Y-33800000D01*
X104836000Y-45567600D02*
X104836000Y-38836000D01*
X104836000Y-38836000D02*
X99800000Y-33800000D01*
D28*
X96005000Y-48430000D02*
X95975000Y-48400000D01*
D30*
X89500000Y-36700000D02*
X88800000Y-36700000D01*
D28*
%TO.N,/PWM_DRIVER*%
X79030000Y-41800000D02*
X79000000Y-41830000D01*
%TO.N,-BATT*%
X96005000Y-50505000D02*
X95960000Y-50550000D01*
D30*
X90675000Y-36700000D02*
X89500000Y-36700000D01*
D28*
X73000000Y-48600000D02*
X71812500Y-48600000D01*
X78950000Y-49000000D02*
X80200000Y-49000000D01*
%TO.N,+BATT*%
X71487500Y-53800000D02*
X70000000Y-52312500D01*
X98500000Y-50025000D02*
X98525000Y-50000000D01*
X98500000Y-53800000D02*
X98500000Y-50025000D01*
X91100000Y-53800000D02*
X71487500Y-53800000D01*
%TO.N,+5V*%
X91220000Y-56000000D02*
X93420000Y-53800000D01*
X77050000Y-50150000D02*
X77100000Y-50200000D01*
X77100000Y-50200000D02*
X92400000Y-50200000D01*
X76260000Y-50200000D02*
X77100000Y-50200000D01*
X87300000Y-49300000D02*
X91700000Y-49300000D01*
X85600000Y-47600000D02*
X87300000Y-49300000D01*
X86200000Y-43300000D02*
X85600000Y-43900000D01*
X88400000Y-56000000D02*
X91220000Y-56000000D01*
X77050000Y-49000000D02*
X77050000Y-50150000D01*
X85600000Y-43900000D02*
X85600000Y-47600000D01*
%TO.N,/VOLTAGE_MON*%
X70000000Y-50487500D02*
X70977500Y-50487500D01*
X70000000Y-48612500D02*
X69987500Y-48600000D01*
X70977500Y-50487500D02*
X72490000Y-52000000D01*
X70000000Y-50487500D02*
X70000000Y-48612500D01*
%TO.N,/PWM_DRIVER*%
X82200000Y-41250000D02*
X82225000Y-41225000D01*
X83050000Y-40400000D02*
X87399998Y-40400000D01*
X82300000Y-45300000D02*
X82200000Y-45200000D01*
X82225000Y-41225000D02*
X83050000Y-40400000D01*
X82200000Y-45200000D02*
X82200000Y-41250000D01*
%TD*%
%TA.AperFunction,Conductor*%
%TO.N,-BATT*%
G36*
X102143039Y-45219685D02*
G01*
X102188794Y-45272489D01*
X102200000Y-45324000D01*
X102200000Y-50976000D01*
X102180315Y-51043039D01*
X102127511Y-51088794D01*
X102076000Y-51100000D01*
X100824000Y-51100000D01*
X100756961Y-51080315D01*
X100711206Y-51027511D01*
X100700000Y-50976000D01*
X100700000Y-48599999D01*
X99400001Y-47600000D01*
X101200000Y-47600000D01*
X101200000Y-45200000D01*
X102076000Y-45200000D01*
X102143039Y-45219685D01*
G37*
%TD.AperFunction*%
%TD*%
%TA.AperFunction,Conductor*%
%TO.N,-BATT*%
G36*
X101200000Y-47600000D02*
G01*
X98800000Y-47600000D01*
X96800000Y-49499999D01*
X96800000Y-47300000D01*
X98763350Y-45238483D01*
X98823838Y-45203513D01*
X98853143Y-45200000D01*
X101200000Y-45200000D01*
X101200000Y-47600000D01*
G37*
%TD.AperFunction*%
%TD*%
%TA.AperFunction,Conductor*%
%TO.N,+BATT*%
G36*
X105029495Y-51419685D02*
G01*
X105031239Y-51420826D01*
X106444784Y-52363189D01*
X106489644Y-52416753D01*
X106500000Y-52466362D01*
X106500000Y-55032540D01*
X106480315Y-55099579D01*
X106443363Y-55136647D01*
X105270549Y-55895527D01*
X104912029Y-56127511D01*
X104830744Y-56180107D01*
X104763766Y-56199999D01*
X104763381Y-56200000D01*
X98024000Y-56200000D01*
X97956961Y-56180315D01*
X97911206Y-56127511D01*
X97900000Y-56076000D01*
X97900000Y-51524000D01*
X97919685Y-51456961D01*
X97972489Y-51411206D01*
X98024000Y-51400000D01*
X104962456Y-51400000D01*
X105029495Y-51419685D01*
G37*
%TD.AperFunction*%
%TD*%
%TA.AperFunction,Conductor*%
%TO.N,-BATT*%
G36*
X90943954Y-54419685D02*
G01*
X90989709Y-54472489D01*
X91000911Y-54523079D01*
X91007589Y-55424582D01*
X90988402Y-55491765D01*
X90935939Y-55537910D01*
X90883593Y-55549500D01*
X89574500Y-55549500D01*
X89507461Y-55529815D01*
X89461706Y-55477011D01*
X89450500Y-55425500D01*
X89450500Y-55130249D01*
X89450499Y-55130247D01*
X89438868Y-55071770D01*
X89438867Y-55071769D01*
X89394552Y-55005447D01*
X89328230Y-54961132D01*
X89328229Y-54961131D01*
X89269752Y-54949500D01*
X89269748Y-54949500D01*
X87530252Y-54949500D01*
X87530247Y-54949500D01*
X87471770Y-54961131D01*
X87471769Y-54961132D01*
X87405447Y-55005447D01*
X87361132Y-55071769D01*
X87361131Y-55071770D01*
X87349500Y-55130247D01*
X87349500Y-56869752D01*
X87361131Y-56928229D01*
X87361132Y-56928230D01*
X87405447Y-56994552D01*
X87471769Y-57038867D01*
X87471770Y-57038868D01*
X87530247Y-57050499D01*
X87530250Y-57050500D01*
X87530252Y-57050500D01*
X89269750Y-57050500D01*
X89269751Y-57050499D01*
X89284568Y-57047552D01*
X89328229Y-57038868D01*
X89328229Y-57038867D01*
X89328231Y-57038867D01*
X89394552Y-56994552D01*
X89438867Y-56928231D01*
X89438867Y-56928229D01*
X89438868Y-56928229D01*
X89450499Y-56869752D01*
X89450500Y-56869750D01*
X89450500Y-56574500D01*
X89470185Y-56507461D01*
X89522989Y-56461706D01*
X89574500Y-56450500D01*
X90892104Y-56450500D01*
X90959143Y-56470185D01*
X91004898Y-56522989D01*
X91016100Y-56573579D01*
X91017036Y-56700000D01*
X90300000Y-56700000D01*
X90300000Y-58300000D01*
X91028889Y-58300000D01*
X91030130Y-58467559D01*
X91099070Y-67774566D01*
X91079882Y-67841749D01*
X91027419Y-67887894D01*
X90974563Y-67899483D01*
X66923490Y-67800508D01*
X66856532Y-67780548D01*
X66810995Y-67727556D01*
X66800000Y-67676509D01*
X66800000Y-57135994D01*
X71103808Y-57135994D01*
X71103808Y-57136005D01*
X71122541Y-57362082D01*
X71178233Y-57582005D01*
X71269362Y-57789759D01*
X71393441Y-57979675D01*
X71393443Y-57979678D01*
X71547091Y-58146584D01*
X71726116Y-58285925D01*
X71925634Y-58393899D01*
X71925637Y-58393900D01*
X72140199Y-58467559D01*
X72140201Y-58467559D01*
X72140203Y-58467560D01*
X72363970Y-58504900D01*
X72363971Y-58504900D01*
X72590829Y-58504900D01*
X72590830Y-58504900D01*
X72814597Y-58467560D01*
X73029166Y-58393899D01*
X73228684Y-58285925D01*
X73407709Y-58146584D01*
X73561357Y-57979678D01*
X73685438Y-57789758D01*
X73776567Y-57582005D01*
X73832258Y-57362086D01*
X73850992Y-57136000D01*
X73850992Y-57135994D01*
X79358808Y-57135994D01*
X79358808Y-57136005D01*
X79377541Y-57362082D01*
X79433233Y-57582005D01*
X79524362Y-57789759D01*
X79648441Y-57979675D01*
X79648443Y-57979678D01*
X79802091Y-58146584D01*
X79981116Y-58285925D01*
X80180634Y-58393899D01*
X80180637Y-58393900D01*
X80395199Y-58467559D01*
X80395201Y-58467559D01*
X80395203Y-58467560D01*
X80618970Y-58504900D01*
X80618971Y-58504900D01*
X80845829Y-58504900D01*
X80845830Y-58504900D01*
X81069597Y-58467560D01*
X81284166Y-58393899D01*
X81483684Y-58285925D01*
X81662709Y-58146584D01*
X81816357Y-57979678D01*
X81940438Y-57789758D01*
X82031567Y-57582005D01*
X82087258Y-57362086D01*
X82105992Y-57136000D01*
X82097943Y-57038868D01*
X82088776Y-56928230D01*
X82087258Y-56909914D01*
X82031567Y-56689995D01*
X81940438Y-56482242D01*
X81816357Y-56292322D01*
X81662709Y-56125416D01*
X81483684Y-55986075D01*
X81483682Y-55986074D01*
X81483681Y-55986073D01*
X81284167Y-55878101D01*
X81284162Y-55878099D01*
X81069600Y-55804440D01*
X80901771Y-55776435D01*
X80845830Y-55767100D01*
X80618970Y-55767100D01*
X80574216Y-55774568D01*
X80395199Y-55804440D01*
X80180637Y-55878099D01*
X80180632Y-55878101D01*
X79981118Y-55986073D01*
X79802092Y-56125415D01*
X79648444Y-56292320D01*
X79648441Y-56292324D01*
X79524362Y-56482240D01*
X79433233Y-56689994D01*
X79377541Y-56909917D01*
X79358808Y-57135994D01*
X73850992Y-57135994D01*
X73842943Y-57038868D01*
X73833776Y-56928230D01*
X73832258Y-56909914D01*
X73776567Y-56689995D01*
X73685438Y-56482242D01*
X73561357Y-56292322D01*
X73407709Y-56125416D01*
X73228684Y-55986075D01*
X73228682Y-55986074D01*
X73228681Y-55986073D01*
X73029167Y-55878101D01*
X73029162Y-55878099D01*
X72814600Y-55804440D01*
X72646771Y-55776435D01*
X72590830Y-55767100D01*
X72363970Y-55767100D01*
X72319216Y-55774568D01*
X72140199Y-55804440D01*
X71925637Y-55878099D01*
X71925632Y-55878101D01*
X71726118Y-55986073D01*
X71547092Y-56125415D01*
X71393444Y-56292320D01*
X71393441Y-56292324D01*
X71269362Y-56482240D01*
X71178233Y-56689994D01*
X71122541Y-56909917D01*
X71103808Y-57135994D01*
X66800000Y-57135994D01*
X66800000Y-54524000D01*
X66819685Y-54456961D01*
X66872489Y-54411206D01*
X66924000Y-54400000D01*
X90876915Y-54400000D01*
X90943954Y-54419685D01*
G37*
%TD.AperFunction*%
%TD*%
%TA.AperFunction,Conductor*%
%TO.N,Net-(D2-K)*%
G36*
X101143039Y-37819685D02*
G01*
X101188794Y-37872489D01*
X101200000Y-37924000D01*
X101200000Y-39876000D01*
X101180315Y-39943039D01*
X101127511Y-39988794D01*
X101076000Y-40000000D01*
X96400000Y-40000000D01*
X96400000Y-37800000D01*
X101076000Y-37800000D01*
X101143039Y-37819685D01*
G37*
%TD.AperFunction*%
%TD*%
%TA.AperFunction,Conductor*%
%TO.N,-BATT*%
G36*
X96443039Y-40419685D02*
G01*
X96488794Y-40472489D01*
X96500000Y-40524000D01*
X96500000Y-42470500D01*
X96480315Y-42537539D01*
X96427511Y-42583294D01*
X96376000Y-42594500D01*
X95046579Y-42594500D01*
X95031443Y-42595059D01*
X95013199Y-42596408D01*
X95007692Y-42597318D01*
X95007627Y-42596929D01*
X94983532Y-42600000D01*
X94299999Y-42600000D01*
X93236319Y-43663681D01*
X93174996Y-43697166D01*
X93148638Y-43700000D01*
X90400000Y-43700000D01*
X90026181Y-43886909D01*
X89970728Y-43900000D01*
X87124000Y-43900000D01*
X87056961Y-43880315D01*
X87011206Y-43827511D01*
X87000000Y-43776000D01*
X87000000Y-42724000D01*
X87019685Y-42656961D01*
X87072489Y-42611206D01*
X87124000Y-42600000D01*
X89600000Y-42600000D01*
X89868761Y-42420826D01*
X89935460Y-42400018D01*
X89937544Y-42400000D01*
X93299999Y-42400000D01*
X93300000Y-42400000D01*
X94167098Y-40473114D01*
X94212559Y-40420058D01*
X94279488Y-40400002D01*
X94280176Y-40400000D01*
X96376000Y-40400000D01*
X96443039Y-40419685D01*
G37*
%TD.AperFunction*%
%TD*%
%TA.AperFunction,Conductor*%
%TO.N,/-SOLAR*%
G36*
X96443039Y-42819685D02*
G01*
X96488794Y-42872489D01*
X96500000Y-42924000D01*
X96500000Y-46876000D01*
X96480315Y-46943039D01*
X96427511Y-46988794D01*
X96376000Y-47000000D01*
X90500000Y-47000000D01*
X90500000Y-48576000D01*
X90480315Y-48643039D01*
X90427511Y-48688794D01*
X90376000Y-48700000D01*
X87753884Y-48700000D01*
X87686845Y-48680315D01*
X87663233Y-48660607D01*
X87584266Y-48576000D01*
X86333349Y-47235731D01*
X86301997Y-47173291D01*
X86300000Y-47151124D01*
X86300000Y-45557032D01*
X86319685Y-45489993D01*
X86343302Y-45462884D01*
X87666111Y-44329047D01*
X87729818Y-44300366D01*
X87744614Y-44299217D01*
X93400000Y-44200000D01*
X94964937Y-42830679D01*
X95028352Y-42801349D01*
X95046592Y-42800000D01*
X96376000Y-42800000D01*
X96443039Y-42819685D01*
G37*
%TD.AperFunction*%
%TD*%
%TA.AperFunction,Conductor*%
%TO.N,+5V*%
G36*
X89623394Y-39810026D02*
G01*
X90300000Y-40100000D01*
X91634962Y-40100000D01*
X91702001Y-40119685D01*
X91711949Y-40127786D01*
X91712202Y-40127456D01*
X91719249Y-40132845D01*
X91768986Y-40160666D01*
X91799063Y-40177490D01*
X91866102Y-40197175D01*
X91924000Y-40205500D01*
X91924004Y-40205500D01*
X92260245Y-40205500D01*
X92260248Y-40205500D01*
X92318144Y-40197176D01*
X92385182Y-40177492D01*
X92438389Y-40153193D01*
X92461195Y-40138535D01*
X92493300Y-40123874D01*
X92540481Y-40110022D01*
X92575412Y-40105000D01*
X92624588Y-40105000D01*
X92659521Y-40110022D01*
X92706700Y-40123874D01*
X92738807Y-40138537D01*
X92761614Y-40153194D01*
X92814818Y-40177492D01*
X92881856Y-40197176D01*
X92939752Y-40205500D01*
X93076000Y-40205500D01*
X93143039Y-40225185D01*
X93188794Y-40277989D01*
X93200000Y-40329500D01*
X93200000Y-42070500D01*
X93180315Y-42137539D01*
X93127511Y-42183294D01*
X93076000Y-42194500D01*
X90573886Y-42194500D01*
X90506847Y-42174815D01*
X90462977Y-42125954D01*
X89900001Y-41000001D01*
X89900000Y-41000000D01*
X89899999Y-41000000D01*
X89665038Y-41000000D01*
X89597999Y-40980315D01*
X89588050Y-40972213D01*
X89587798Y-40972544D01*
X89580750Y-40967154D01*
X89500940Y-40922511D01*
X89500935Y-40922509D01*
X89433903Y-40902826D01*
X89433899Y-40902825D01*
X89433898Y-40902825D01*
X89376000Y-40894500D01*
X89375996Y-40894500D01*
X89129500Y-40894500D01*
X89062461Y-40874815D01*
X89016706Y-40822011D01*
X89005500Y-40770500D01*
X89005500Y-39964749D01*
X89025185Y-39897710D01*
X89055099Y-39865549D01*
X89109434Y-39824798D01*
X89174876Y-39800324D01*
X89183833Y-39800000D01*
X89574548Y-39800000D01*
X89623394Y-39810026D01*
G37*
%TD.AperFunction*%
%TD*%
%TA.AperFunction,Conductor*%
%TO.N,Net-(D2-K)*%
G36*
X93143039Y-35819685D02*
G01*
X93188794Y-35872489D01*
X93200000Y-35924000D01*
X93200000Y-37800000D01*
X91800000Y-37800000D01*
X91800000Y-35924000D01*
X91819685Y-35856961D01*
X91872489Y-35811206D01*
X91924000Y-35800000D01*
X93076000Y-35800000D01*
X93143039Y-35819685D01*
G37*
%TD.AperFunction*%
%TD*%
%TA.AperFunction,Conductor*%
%TO.N,Net-(D2-K)*%
G36*
X96400000Y-40000000D02*
G01*
X92939752Y-40000000D01*
X92872714Y-39980316D01*
X92810050Y-39940045D01*
X92671963Y-39899500D01*
X92671961Y-39899500D01*
X92528039Y-39899500D01*
X92528036Y-39899500D01*
X92389950Y-39940045D01*
X92389948Y-39940045D01*
X92327286Y-39980316D01*
X92260248Y-40000000D01*
X91924000Y-40000000D01*
X91856961Y-39980315D01*
X91811206Y-39927511D01*
X91800000Y-39876000D01*
X91800000Y-37800000D01*
X93200000Y-37800000D01*
X96400000Y-37800000D01*
X96400000Y-40000000D01*
G37*
%TD.AperFunction*%
%TD*%
%TA.AperFunction,Conductor*%
%TO.N,-BATT*%
G36*
X95200000Y-58300000D02*
G01*
X90300000Y-58300000D01*
X90300000Y-56700000D01*
X95200000Y-56700000D01*
X95200000Y-58300000D01*
G37*
%TD.AperFunction*%
%TD*%
%TA.AperFunction,Conductor*%
%TO.N,+5V*%
G36*
X94143039Y-47319685D02*
G01*
X94188794Y-47372489D01*
X94200000Y-47424000D01*
X94200000Y-56176000D01*
X94180315Y-56243039D01*
X94127511Y-56288794D01*
X94076000Y-56300000D01*
X92724000Y-56300000D01*
X92656961Y-56280315D01*
X92611206Y-56227511D01*
X92600000Y-56176000D01*
X92600000Y-51800000D01*
X91031321Y-50035236D01*
X91001495Y-49972052D01*
X91000000Y-49952855D01*
X91000000Y-47424000D01*
X91019685Y-47356961D01*
X91072489Y-47311206D01*
X91124000Y-47300000D01*
X94076000Y-47300000D01*
X94143039Y-47319685D01*
G37*
%TD.AperFunction*%
%TD*%
%TA.AperFunction,Conductor*%
%TO.N,-BATT*%
G36*
X96800000Y-49499999D02*
G01*
X96800000Y-58176000D01*
X96780315Y-58243039D01*
X96727511Y-58288794D01*
X96676000Y-58300000D01*
X95200000Y-58300000D01*
X95200000Y-47424000D01*
X95219685Y-47356961D01*
X95272489Y-47311206D01*
X95324000Y-47300000D01*
X96799999Y-47300000D01*
X96800000Y-47300000D01*
X96800000Y-49499999D01*
G37*
%TD.AperFunction*%
%TD*%
%TA.AperFunction,Conductor*%
%TO.N,-BATT*%
G36*
X89443039Y-41119685D02*
G01*
X89488794Y-41172489D01*
X89500000Y-41224000D01*
X89500000Y-42376000D01*
X89480315Y-42443039D01*
X89427511Y-42488794D01*
X89376000Y-42500000D01*
X85924000Y-42500000D01*
X85856961Y-42480315D01*
X85811206Y-42427511D01*
X85800000Y-42376000D01*
X85800000Y-41224000D01*
X85819685Y-41156961D01*
X85872489Y-41111206D01*
X85924000Y-41100000D01*
X89376000Y-41100000D01*
X89443039Y-41119685D01*
G37*
%TD.AperFunction*%
%TD*%
%TA.AperFunction,Conductor*%
%TO.N,Net-(U3-OUT)*%
G36*
X91443039Y-38019685D02*
G01*
X91488794Y-38072489D01*
X91500000Y-38124000D01*
X91500000Y-39676000D01*
X91480315Y-39743039D01*
X91427511Y-39788794D01*
X91376000Y-39800000D01*
X90329272Y-39800000D01*
X90273818Y-39786909D01*
X89700000Y-39500000D01*
X89200001Y-39500000D01*
X89200000Y-39500000D01*
X89028572Y-39628571D01*
X88800000Y-39799999D01*
X88800000Y-40770500D01*
X88780315Y-40837539D01*
X88727511Y-40883294D01*
X88676000Y-40894500D01*
X88124000Y-40894500D01*
X88056961Y-40874815D01*
X88011206Y-40822011D01*
X88000000Y-40770500D01*
X88000000Y-39757341D01*
X88019685Y-39690302D01*
X88043685Y-39662867D01*
X89965272Y-38029518D01*
X90029099Y-38001100D01*
X90045579Y-38000000D01*
X91376000Y-38000000D01*
X91443039Y-38019685D01*
G37*
%TD.AperFunction*%
%TD*%
M02*
