%TF.GenerationSoftware,KiCad,Pcbnew,8.0.7*%
%TF.CreationDate,2025-04-15T22:45:42-07:00*%
%TF.ProjectId,M56PowerPrototype,4d353650-6f77-4657-9250-726f746f7479,rev?*%
%TF.SameCoordinates,Original*%
%TF.FileFunction,Soldermask,Top*%
%TF.FilePolarity,Negative*%
%FSLAX46Y46*%
G04 Gerber Fmt 4.6, Leading zero omitted, Abs format (unit mm)*
G04 Created by KiCad (PCBNEW 8.0.7) date 2025-04-15 22:45:42*
%MOMM*%
%LPD*%
G01*
G04 APERTURE LIST*
G04 Aperture macros list*
%AMRoundRect*
0 Rectangle with rounded corners*
0 $1 Rounding radius*
0 $2 $3 $4 $5 $6 $7 $8 $9 X,Y pos of 4 corners*
0 Add a 4 corners polygon primitive as box body*
4,1,4,$2,$3,$4,$5,$6,$7,$8,$9,$2,$3,0*
0 Add four circle primitives for the rounded corners*
1,1,$1+$1,$2,$3*
1,1,$1+$1,$4,$5*
1,1,$1+$1,$6,$7*
1,1,$1+$1,$8,$9*
0 Add four rect primitives between the rounded corners*
20,1,$1+$1,$2,$3,$4,$5,0*
20,1,$1+$1,$4,$5,$6,$7,0*
20,1,$1+$1,$6,$7,$8,$9,0*
20,1,$1+$1,$8,$9,$2,$3,0*%
G04 Aperture macros list end*
%ADD10C,0.000000*%
%ADD11C,2.336800*%
%ADD12RoundRect,0.225000X-0.250000X0.225000X-0.250000X-0.225000X0.250000X-0.225000X0.250000X0.225000X0*%
%ADD13R,1.700000X1.700000*%
%ADD14RoundRect,0.250000X-0.262500X-0.450000X0.262500X-0.450000X0.262500X0.450000X-0.262500X0.450000X0*%
%ADD15R,1.600000X1.600000*%
%ADD16O,1.600000X1.600000*%
%ADD17RoundRect,0.250000X0.325000X0.650000X-0.325000X0.650000X-0.325000X-0.650000X0.325000X-0.650000X0*%
%ADD18RoundRect,0.250000X-0.250000X-0.475000X0.250000X-0.475000X0.250000X0.475000X-0.250000X0.475000X0*%
%ADD19R,1.625600X1.625600*%
%ADD20C,1.625600*%
%ADD21RoundRect,0.250000X-0.325000X-0.650000X0.325000X-0.650000X0.325000X0.650000X-0.325000X0.650000X0*%
%ADD22RoundRect,0.250000X0.450000X-0.262500X0.450000X0.262500X-0.450000X0.262500X-0.450000X-0.262500X0*%
%ADD23RoundRect,0.250000X-0.300000X2.050000X-0.300000X-2.050000X0.300000X-2.050000X0.300000X2.050000X0*%
%ADD24RoundRect,0.250002X-5.149998X4.449998X-5.149998X-4.449998X5.149998X-4.449998X5.149998X4.449998X0*%
%ADD25R,0.400000X0.950000*%
G04 APERTURE END LIST*
D10*
%TO.C,U3*%
G36*
X89363499Y-41624998D02*
G01*
X87336499Y-41624998D01*
X87336499Y-41161498D01*
X89363499Y-41161498D01*
X89363499Y-41624998D01*
G37*
G36*
X87756299Y-42488498D02*
G01*
X87336499Y-42488498D01*
X87336499Y-41161498D01*
X87756299Y-41161498D01*
X87756299Y-42488498D01*
G37*
G36*
X89363499Y-42488498D02*
G01*
X87336499Y-42488498D01*
X87336499Y-42024998D01*
X89363499Y-42024998D01*
X89363499Y-42488498D01*
G37*
G36*
X88543699Y-42488498D02*
G01*
X88156299Y-42488498D01*
X88156299Y-41161498D01*
X88543699Y-41161498D01*
X88543699Y-42488498D01*
G37*
G36*
X89363499Y-42488498D02*
G01*
X88943699Y-42488498D01*
X88943699Y-41161498D01*
X89363499Y-41161498D01*
X89363499Y-42488498D01*
G37*
%TD*%
D11*
%TO.C,J1*%
X104836000Y-53822600D03*
X104836000Y-45567600D03*
%TD*%
D12*
%TO.C,C3*%
X91000000Y-41600000D03*
X91000000Y-43150000D03*
%TD*%
D13*
%TO.C,TP4*%
X88400000Y-56000000D03*
%TD*%
D14*
%TO.C,R2*%
X90675000Y-36700000D03*
X92500000Y-36700000D03*
%TD*%
%TO.C,R4*%
X69987500Y-48600000D03*
X71812500Y-48600000D03*
%TD*%
D13*
%TO.C,TP2*%
X70500000Y-35000000D03*
%TD*%
D15*
%TO.C,D1*%
X72490000Y-52000000D03*
D16*
X80110000Y-52000000D03*
%TD*%
D14*
%TO.C,R1*%
X90687500Y-38900000D03*
X92512500Y-38900000D03*
%TD*%
D17*
%TO.C,C1*%
X101475000Y-50000000D03*
X98525000Y-50000000D03*
%TD*%
D11*
%TO.C,J2*%
X72477400Y-57136000D03*
X80732400Y-57136000D03*
%TD*%
D18*
%TO.C,C5*%
X77050000Y-49000000D03*
X78950000Y-49000000D03*
%TD*%
D19*
%TO.C,U2*%
X95300000Y-38920000D03*
D20*
X95300000Y-41460000D03*
X95300000Y-44000000D03*
%TD*%
D21*
%TO.C,C2*%
X93025000Y-48400000D03*
X95975000Y-48400000D03*
%TD*%
D22*
%TO.C,R3*%
X70000000Y-52312500D03*
X70000000Y-50487500D03*
%TD*%
D23*
%TO.C,U1*%
X98500000Y-53800000D03*
X95960000Y-53800000D03*
D24*
X95960000Y-62950000D03*
D23*
X93420000Y-53800000D03*
%TD*%
D13*
%TO.C,TP3*%
X82300000Y-45300000D03*
%TD*%
D15*
%TO.C,D2*%
X100000000Y-38890000D03*
D16*
X100000000Y-46510000D03*
%TD*%
D25*
%TO.C,U3*%
X87399998Y-43249996D03*
X88349999Y-43249996D03*
X89300000Y-43249996D03*
X89300000Y-40400000D03*
X88349999Y-40400000D03*
X87399998Y-40400000D03*
%TD*%
D12*
%TO.C,C4*%
X92500000Y-41525000D03*
X92500000Y-43075000D03*
%TD*%
D15*
%TO.C,U4*%
X78800000Y-46300000D03*
D16*
X78800000Y-43760000D03*
X78800000Y-41220000D03*
X78800000Y-38680000D03*
X71180000Y-38680000D03*
X71180000Y-41220000D03*
X71180000Y-43760000D03*
X71180000Y-46300000D03*
%TD*%
M02*
