%TF.GenerationSoftware,KiCad,Pcbnew,8.0.7*%
%TF.CreationDate,2025-04-15T22:45:42-07:00*%
%TF.ProjectId,M56PowerPrototype,4d353650-6f77-4657-9250-726f746f7479,rev?*%
%TF.SameCoordinates,Original*%
%TF.FileFunction,Paste,Top*%
%TF.FilePolarity,Positive*%
%FSLAX46Y46*%
G04 Gerber Fmt 4.6, Leading zero omitted, Abs format (unit mm)*
G04 Created by KiCad (PCBNEW 8.0.7) date 2025-04-15 22:45:42*
%MOMM*%
%LPD*%
G01*
G04 APERTURE LIST*
G04 Aperture macros list*
%AMRoundRect*
0 Rectangle with rounded corners*
0 $1 Rounding radius*
0 $2 $3 $4 $5 $6 $7 $8 $9 X,Y pos of 4 corners*
0 Add a 4 corners polygon primitive as box body*
4,1,4,$2,$3,$4,$5,$6,$7,$8,$9,$2,$3,0*
0 Add four circle primitives for the rounded corners*
1,1,$1+$1,$2,$3*
1,1,$1+$1,$4,$5*
1,1,$1+$1,$6,$7*
1,1,$1+$1,$8,$9*
0 Add four rect primitives between the rounded corners*
20,1,$1+$1,$2,$3,$4,$5,0*
20,1,$1+$1,$4,$5,$6,$7,0*
20,1,$1+$1,$6,$7,$8,$9,0*
20,1,$1+$1,$8,$9,$2,$3,0*%
G04 Aperture macros list end*
%ADD10C,0.000000*%
%ADD11RoundRect,0.225000X-0.250000X0.225000X-0.250000X-0.225000X0.250000X-0.225000X0.250000X0.225000X0*%
%ADD12RoundRect,0.250000X-0.262500X-0.450000X0.262500X-0.450000X0.262500X0.450000X-0.262500X0.450000X0*%
%ADD13RoundRect,0.250000X0.325000X0.650000X-0.325000X0.650000X-0.325000X-0.650000X0.325000X-0.650000X0*%
%ADD14RoundRect,0.250000X-0.250000X-0.475000X0.250000X-0.475000X0.250000X0.475000X-0.250000X0.475000X0*%
%ADD15RoundRect,0.250000X-0.325000X-0.650000X0.325000X-0.650000X0.325000X0.650000X-0.325000X0.650000X0*%
%ADD16RoundRect,0.250000X0.450000X-0.262500X0.450000X0.262500X-0.450000X0.262500X-0.450000X-0.262500X0*%
%ADD17RoundRect,0.250000X-0.300000X2.050000X-0.300000X-2.050000X0.300000X-2.050000X0.300000X2.050000X0*%
%ADD18RoundRect,0.250000X-2.375000X2.025000X-2.375000X-2.025000X2.375000X-2.025000X2.375000X2.025000X0*%
%ADD19R,0.400000X0.950000*%
G04 APERTURE END LIST*
D10*
%TO.C,U3*%
G36*
X87856299Y-41583577D02*
G01*
X87714878Y-41724998D01*
X87474929Y-41724998D01*
X87474929Y-41299928D01*
X87856299Y-41299928D01*
X87856299Y-41583577D01*
G37*
G36*
X87856299Y-42066419D02*
G01*
X87856299Y-42350068D01*
X87474929Y-42350068D01*
X87474929Y-41924998D01*
X87714878Y-41924998D01*
X87856299Y-42066419D01*
G37*
G36*
X89225069Y-41724998D02*
G01*
X88985120Y-41724998D01*
X88843699Y-41583577D01*
X88843699Y-41299928D01*
X89225069Y-41299928D01*
X89225069Y-41724998D01*
G37*
G36*
X89225069Y-42350068D02*
G01*
X88843699Y-42350068D01*
X88843699Y-42066419D01*
X88985120Y-41924998D01*
X89225069Y-41924998D01*
X89225069Y-42350068D01*
G37*
G36*
X88643699Y-41583577D02*
G01*
X88502278Y-41724998D01*
X88197720Y-41724998D01*
X88056299Y-41583577D01*
X88056299Y-41299928D01*
X88643699Y-41299928D01*
X88643699Y-41583577D01*
G37*
G36*
X88643699Y-42066419D02*
G01*
X88643699Y-42350068D01*
X88056299Y-42350068D01*
X88056299Y-42066419D01*
X88197720Y-41924998D01*
X88502278Y-41924998D01*
X88643699Y-42066419D01*
G37*
%TD*%
D11*
%TO.C,C3*%
X91000000Y-41600000D03*
X91000000Y-43150000D03*
%TD*%
D12*
%TO.C,R2*%
X90675000Y-36700000D03*
X92500000Y-36700000D03*
%TD*%
%TO.C,R4*%
X69987500Y-48600000D03*
X71812500Y-48600000D03*
%TD*%
%TO.C,R1*%
X90687500Y-38900000D03*
X92512500Y-38900000D03*
%TD*%
D13*
%TO.C,C1*%
X101475000Y-50000000D03*
X98525000Y-50000000D03*
%TD*%
D14*
%TO.C,C5*%
X77050000Y-49000000D03*
X78950000Y-49000000D03*
%TD*%
D15*
%TO.C,C2*%
X93025000Y-48400000D03*
X95975000Y-48400000D03*
%TD*%
D16*
%TO.C,R3*%
X70000000Y-52312500D03*
X70000000Y-50487500D03*
%TD*%
D17*
%TO.C,U1*%
X98500000Y-53800000D03*
X95960000Y-53800000D03*
D18*
X98735000Y-60525000D03*
X93185000Y-60525000D03*
X98735000Y-65375000D03*
X93185000Y-65375000D03*
D17*
X93420000Y-53800000D03*
%TD*%
D19*
%TO.C,U3*%
X87399998Y-43249996D03*
X88349999Y-43249996D03*
X89300000Y-43249996D03*
X89300000Y-40400000D03*
X88349999Y-40400000D03*
X87399998Y-40400000D03*
%TD*%
D11*
%TO.C,C4*%
X92500000Y-41525000D03*
X92500000Y-43075000D03*
%TD*%
M02*
